<svg width="1229" height="461" viewBox="0 0 1229 461" fill="none" xmlns="http://www.w3.org/2000/svg">
<path d="M90.5095 378.822C85.1912 371.25 83.4085 361.901 85.4999 352.549C87.5914 343.197 93.4114 334.494 101.854 328.093C110.297 321.692 120.775 318.039 131.298 317.828C141.821 317.617 151.655 320.863 158.934 326.948C159.296 320.102 161.99 313.296 166.659 307.432C171.328 301.569 177.752 296.924 185.077 294.115C185.867 293.813 186.657 293.51 187.459 293.282C187.248 283.643 190.185 273.86 195.92 265.101C201.654 256.342 209.944 248.979 219.797 243.892C229.651 238.804 240.652 236.207 251.485 236.411C262.318 236.616 272.525 239.613 280.885 245.044C285.072 240.921 290.19 237.631 295.828 235.441C301.465 233.25 307.465 232.219 313.345 232.43C319.225 232.642 324.82 234.09 329.682 236.658C334.543 239.227 338.534 242.843 341.335 247.218C345.68 240.264 352.404 234.584 360.411 231.102C368.417 227.62 377.234 226.542 385.423 228.045C387.922 222.154 392.107 216.809 397.533 212.579C402.958 208.349 409.422 205.392 416.238 204.021C423.053 202.65 429.966 202.917 436.241 204.793C442.516 206.669 447.92 210.084 451.877 214.676C455.231 207.865 460.53 201.806 467.201 197.156C473.871 192.506 481.659 189.441 489.721 188.295C491.155 180.053 495.427 172.147 501.937 165.691C508.447 159.235 516.866 154.555 526.008 152.309C531.234 143.013 540.052 135.469 550.672 131.209C561.292 126.95 572.918 126.292 583.191 129.372C589.921 124.653 597.797 121.553 605.949 120.413C614.102 119.273 622.213 120.138 629.387 122.912C630.76 115.772 634.27 108.897 639.537 103.025C644.804 97.1535 651.629 92.5087 659.278 89.5903L659.564 89.4808C659.681 77.9359 664.299 66.3595 672.635 56.7096C680.971 47.0598 692.514 39.9289 705.311 36.5232C718.108 33.1175 731.375 33.646 742.866 38.0194C754.357 42.3928 763.367 50.3426 768.373 60.524C769.094 60.2475 769.829 59.9658 770.565 59.6841C777.79 56.9052 785.48 55.6474 792.989 56.0164C800.498 56.3853 807.606 58.3703 813.717 61.8044C819.828 65.2385 824.762 70.0216 828.106 75.7518C831.45 81.4821 833.106 87.9922 832.935 94.7353C832.763 101.478 830.769 108.258 827.121 114.504C823.472 120.749 818.275 126.279 811.967 130.629C805.658 134.979 798.422 138.022 790.866 139.502C783.31 140.981 775.655 140.855 768.544 139.133L560.198 218.964C553.167 224.337 544.703 227.877 535.894 229.129C534.628 236.468 531.104 243.56 525.72 249.605C520.337 255.65 513.308 260.406 505.43 263.336C497.552 266.266 489.137 267.253 481.138 266.185C473.139 265.117 465.874 262.037 460.165 257.293L404.341 278.682C399.671 284.587 393.222 289.264 385.859 292.085C378.497 294.906 370.574 295.736 363.154 294.464L220.68 349.054C213.503 354.809 204.487 358.264 195.301 358.778L166.177 369.938C161.908 377.776 154.992 384.413 146.495 388.827C146.871 389.603 147.233 390.384 147.545 391.198C149.73 396.955 149.989 403.313 148.292 409.556C146.595 415.799 143.01 421.679 137.941 426.531C132.872 431.383 126.521 435.015 119.604 437.017C112.688 439.02 105.482 439.312 98.7981 437.862C92.1146 436.411 86.2201 433.276 81.7796 428.81C77.3391 424.343 50.4757 441.868 49.6138 435.729C48.7519 429.59 73.9257 400.03 76.9016 394.065C79.8775 388.099 84.5908 382.819 90.5095 378.822Z" fill="white"/>
<path d="M759.066 68.168H1228.57L1022.07 424.168H95.5664L127.566 350.668L170.066 300.668L367.566 261.668L524.066 209.168L759.066 68.168Z" fill="white"/>
</svg>
