<svg width="2048" height="1067" viewBox="0 0 2048 1067" fill="none" xmlns="http://www.w3.org/2000/svg">
<path d="M171.522 388.247C180.786 387.082 189.401 384.144 195.474 380.08C197.102 383.165 200.251 385.87 204.657 387.971C209.064 390.071 214.599 391.505 220.798 392.151C226.998 392.798 233.68 392.638 240.285 391.686C246.891 390.734 253.225 389.018 258.758 386.68C262.25 391.614 267.976 395.905 275.539 399.256C283.101 402.607 292.32 404.938 302.555 406.087C312.79 407.236 323.797 407.176 334.813 405.91C345.829 404.645 356.59 402.205 366.35 398.759C366.508 399.814 366.422 400.899 366.579 401.954C367.711 409.485 372.542 416.432 380.655 422.192C388.768 427.952 399.916 432.35 413.131 435.004C426.345 437.658 441.227 438.488 456.482 437.421C471.737 436.355 486.904 433.425 500.665 428.885C503.125 433.697 507.838 437.961 514.448 441.353C521.057 444.746 529.389 447.178 538.812 448.465C548.234 449.752 558.499 449.859 568.827 448.78C579.156 447.701 589.276 445.463 598.421 442.235C603.719 451.381 615.096 458.865 630.845 463.563C646.593 468.261 665.865 469.921 685.767 468.293C705.67 466.665 725.13 461.837 741.228 454.534C757.326 447.231 769.194 437.846 775.051 427.788C786.006 426.296 796.532 423.479 805.672 419.593C812.069 424.026 821.011 427.288 831.577 429.042C842.143 430.797 853.952 430.98 865.787 429.574C877.622 428.168 889.057 425.223 898.914 421.042C908.771 416.861 916.695 411.595 921.869 405.786C929.678 408.556 938.998 410.225 949.083 410.659C959.167 411.094 969.735 410.281 979.937 408.287C990.14 406.293 999.693 403.173 1007.83 399.178C1015.97 395.182 1022.46 390.422 1026.79 385.28C1029.6 386.544 1033 387.451 1036.78 387.948C1040.56 388.444 1044.64 388.519 1048.77 388.168C1052.9 387.816 1056.99 387.046 1060.79 385.904C1064.6 384.762 1068.03 383.272 1070.9 381.525C1069.3 383.565 1068.71 385.689 1069.17 387.694C1069.63 389.698 1071.14 391.516 1073.53 392.974C1075.93 394.431 1079.15 395.479 1082.87 396.016C1086.59 396.554 1090.7 396.564 1094.8 396.045L1096.9 395.779C1095.61 397.662 1095.18 399.596 1095.62 401.425C1096.07 403.253 1097.38 404.926 1099.46 406.307C1101.54 407.689 1104.33 408.74 1107.59 409.377C1110.86 410.014 1114.52 410.218 1118.27 409.973C1114.32 412.604 1112.22 415.73 1112.39 418.732C1112.56 421.735 1114.98 424.394 1119.19 426.182C1123.39 427.971 1129.06 428.758 1135.07 428.388C1141.08 428.019 1147 426.519 1151.65 424.186C1154.01 426.24 1157.65 427.781 1162.12 428.617C1166.58 429.453 1171.67 429.547 1176.75 428.888C1181.84 428.228 1186.68 426.844 1190.69 424.909C1194.7 422.973 1197.7 420.571 1199.3 418.002C1201.88 419.167 1205.09 419.949 1208.66 420.284C1212.22 420.62 1216.05 420.499 1219.81 419.932C1223.58 419.365 1227.19 418.368 1230.33 417.022C1233.48 415.677 1236.08 414.021 1237.91 412.192L1240.35 411.884C1242.38 413.036 1244.94 413.913 1247.88 414.459C1250.81 415.004 1254.05 415.206 1257.38 415.051C1260.71 414.897 1264.07 414.389 1267.23 413.561C1270.39 412.733 1273.29 411.603 1275.74 410.243C1278.27 411.924 1281.83 413.113 1286 413.669C1290.17 414.226 1294.79 414.127 1299.31 413.384C1303.82 412.642 1308.05 411.287 1311.5 409.478C1314.94 407.668 1317.46 405.48 1318.76 403.17C1322.52 403.871 1326.76 404.005 1331.04 403.558C1335.33 403.112 1339.5 402.101 1343.12 400.63C1346.75 399.16 1349.69 397.284 1351.65 395.199C1353.61 393.113 1354.51 390.893 1354.26 388.77C1356.2 388.765 1358.17 388.64 1360.13 388.397C1364.1 387.892 1367.94 386.907 1371.29 385.53C1374.65 384.154 1377.41 382.429 1379.35 380.511C1381.28 378.593 1382.32 376.541 1382.37 374.539C1382.43 372.538 1381.49 370.649 1379.65 369.043C1380.29 368.962 1380.96 368.878 1381.63 368.793C1385.55 368.297 1389.35 367.331 1392.68 365.98C1396.01 364.629 1398.77 362.935 1400.73 361.046C1402.68 359.157 1403.76 357.132 1403.88 355.148C1403.99 353.164 1403.14 351.283 1401.39 349.669C1402.7 349.615 1404.01 349.506 1405.32 349.342C1411.68 348.54 1417.59 346.52 1421.75 343.728C1425.92 340.936 1427.99 337.601 1427.52 334.455C1427.39 333.656 1427.11 332.88 1426.68 332.136C1431.54 332.738 1436.87 332.63 1442.11 331.822C1447.36 331.015 1452.32 329.537 1456.5 327.542C1465.22 332.206 1477.13 335.075 1490.55 335.746C1503.96 336.416 1518.21 334.854 1531.28 331.279C1531.07 332.636 1531.06 333.983 1531.23 335.308C1531.91 340.075 1535.14 344.438 1540.58 347.951C1546.02 351.465 1553.47 354.004 1562.19 355.308C1570.91 356.612 1580.57 356.635 1590.19 355.375C1599.81 354.115 1609.05 351.616 1616.95 348.135C1624.56 355.272 1636.89 360.584 1652.2 363.312C1667.5 366.039 1685 366.043 1702.18 363.322C1719.36 360.602 1735.35 355.296 1747.88 348.163C1760.4 341.03 1768.81 332.434 1771.9 323.603C1782.43 324.874 1793.91 324.669 1805.24 323.006C1816.58 321.344 1827.39 318.281 1836.64 314.109C1845.9 309.938 1853.28 304.799 1858.09 299.183C1862.9 293.567 1864.97 287.663 1864.11 282.037C1863.5 277.84 1861.24 273.89 1857.47 270.407C1868.7 267.784 1878.63 263.55 1885.86 258.304C1893.1 253.058 1897.27 247.063 1897.79 241.163C1908.05 242.547 1919.46 242.219 1930.52 240.223C1941.58 238.226 1951.77 234.655 1959.75 229.976C1967.73 225.298 1973.13 219.733 1975.25 214.01C1977.36 208.288 1976.09 202.677 1971.59 197.913C1980.1 194.868 1987.28 190.873 1992.42 186.319C1997.57 181.765 2000.5 176.809 2000.94 171.935C2001.38 167.061 1999.3 162.437 1994.92 158.516C1990.54 154.594 1984 151.51 1975.94 149.564C1971.78 146.388 1965.52 144.137 1958.03 143.126C1950.54 142.114 1942.19 142.392 1934.15 143.92L1934.13 143.77L389.802 338.692C382.081 334.652 372.205 331.803 361.007 330.385C349.809 328.968 337.617 329.023 325.458 330.547C313.299 332.072 301.529 335.02 291.141 339.143C280.752 343.266 272.049 348.444 265.764 354.241C261.538 352.411 256.397 351.156 250.704 350.564C245.01 349.973 238.905 350.059 232.819 350.817C226.733 351.575 220.817 352.986 215.488 354.95C210.16 356.914 205.55 359.384 201.985 362.183C199.815 359.286 195.963 356.905 190.866 355.309C185.769 353.712 179.63 352.964 173.141 353.149C166.653 353.334 160.074 354.445 154.149 356.355C148.223 358.266 143.187 360.9 139.61 363.961C136.033 367.022 134.057 370.387 133.905 373.676C133.753 376.965 135.432 380.047 138.752 382.573C142.071 385.099 146.899 386.969 152.69 387.972C158.481 388.975 165.004 389.07 171.522 388.247V388.247Z" fill="#D9D9D9"/>
<path d="M-105.297 373.407C-109.469 382.941 -105.466 392.516 -94.0487 400.314C-82.6314 408.112 -64.5948 413.588 -43.3648 415.704C-22.1348 417.82 0.809744 416.427 21.1111 411.791C41.4124 407.154 57.6563 399.597 66.7573 390.554C72.8788 396.799 83.4308 401.935 97.0141 405.282C110.597 408.628 126.57 410.027 142.814 409.292C144.565 409.213 146.316 409.134 148.033 408.978C155.272 418.102 168.649 425.915 186.567 431.484C204.484 437.052 226.184 440.14 249.072 440.378C271.959 440.616 295.067 437.994 315.633 432.826C336.198 427.658 353.352 420.162 365.043 411.235C376.323 413.173 388.724 413.902 401.248 413.363C413.772 412.825 426.07 411.034 437.152 408.135C448.235 405.236 457.793 401.309 465.058 396.671C472.323 392.032 477.092 386.811 478.982 381.428C492.809 385.944 510.18 388.175 528.26 387.758C546.341 387.34 564.065 384.299 578.542 379.13C587.995 383.499 600.24 386.581 613.975 388.05C627.711 389.519 642.424 389.32 656.552 387.473C670.68 385.626 683.694 382.2 694.214 377.56C704.733 372.92 712.363 367.239 716.295 361.12C728.114 365.959 743.057 369.199 759.507 370.49C775.958 371.78 793.288 371.072 809.624 368.442C818.902 375.502 833.345 380.943 850.92 383.999C868.495 387.054 888.316 387.57 907.59 385.473C924.96 391.779 947.813 394.792 971.511 393.903C995.209 393.014 1017.98 388.288 1035.19 380.685C1051.81 382.012 1069.34 381.297 1085.84 378.619C1102.34 375.942 1117.17 371.405 1128.7 365.512C1136.99 371.567 1149.16 376.395 1163.89 379.474C1178.62 382.553 1195.37 383.767 1212.32 382.987L1212.95 382.958C1222.33 393.716 1240.34 402.436 1263.95 407.644C1287.55 412.852 1315.29 414.227 1342.47 411.538C1369.66 408.848 1394.63 402.258 1413.14 392.884C1431.66 383.509 1442.6 371.924 1444.1 360.09L1448.96 359.869C1464.99 359.152 1480.7 356.797 1494.78 353.002C1508.85 349.207 1520.88 344.083 1529.85 338.059C1538.82 332.036 1544.47 325.289 1546.32 318.387C1548.18 311.484 1546.18 304.626 1540.51 298.39C1534.83 292.154 1546.32 272 1555.5 256.5L2105 365.383L2105 98.5003L-52.3723 98.5003L-52.3725 306.936C-65.919 304.721 -80.9506 304.237 -95.7717 305.539C-110.593 306.842 -124.614 309.878 -136.252 314.307C-147.89 318.736 -156.683 324.38 -161.637 330.603C-166.592 336.826 -167.512 343.38 -164.293 349.526C-161.074 355.671 -153.844 361.164 -143.42 365.383C-132.996 369.603 -119.791 372.382 -105.297 373.407Z" fill="white"/>
<path d="M1093.44 275.662C1090.4 286.571 1093.7 297.667 1102.71 306.843C1111.73 316.019 1125.83 322.635 1142.34 325.435C1158.86 328.235 1176.63 327.023 1192.28 322.03C1207.93 317.037 1220.38 308.611 1227.26 298.351C1232.13 305.648 1240.42 311.744 1251.03 315.831C1261.63 319.917 1274.05 321.801 1286.64 321.233C1288 321.171 1289.35 321.11 1290.68 320.96C1296.48 331.592 1307.02 340.82 1321.03 347.539C1335.04 354.258 1351.94 358.185 1369.7 358.851C1387.46 359.516 1405.33 356.892 1421.18 351.291C1437.03 345.691 1450.18 337.351 1459.07 327.269C1467.86 329.693 1477.49 330.745 1487.2 330.339C1496.9 329.934 1506.4 328.081 1514.94 324.932C1523.48 321.782 1530.82 317.423 1536.36 312.205C1541.9 306.987 1545.49 301.055 1546.85 294.887C1557.67 300.325 1571.19 303.191 1585.21 303.02C1599.22 302.848 1612.91 299.649 1624.04 293.943C1631.46 299.136 1641.02 302.896 1651.7 304.822C1662.39 306.749 1673.8 306.77 1684.72 304.885C1695.64 302.999 1705.67 299.276 1713.73 294.112C1721.8 288.948 1727.6 282.535 1730.53 275.555C1739.8 281.33 1751.45 285.317 1764.24 287.085C1777.03 288.852 1790.46 288.333 1803.08 285.583C1810.42 293.873 1821.73 300.387 1835.43 304.206C1849.12 308.026 1864.51 308.959 1879.42 306.873C1893.02 314.432 1910.81 318.294 1929.17 317.675C1947.54 317.055 1965.1 312.002 1978.3 303.539C1991.22 305.352 2004.8 304.828 2017.55 302.026C2030.3 299.225 2041.71 294.254 2050.54 287.663C2057.09 294.779 2066.63 300.547 2078.12 304.345C2089.61 308.143 2102.62 309.828 2115.75 309.218L2116.25 309.196C2123.74 321.747 2137.89 332.098 2156.3 338.5C2174.72 344.901 2196.26 346.959 2217.3 344.326C2238.34 341.693 2257.57 334.531 2271.74 324.05C2285.92 313.57 2294.17 300.414 2295.1 286.81C2296.33 286.754 2297.6 286.696 2298.86 286.639C2311.28 286.087 2323.42 283.644 2334.26 279.513C2345.1 275.383 2354.33 269.687 2361.16 262.903C2368 256.119 2372.25 248.445 2373.54 240.527C2374.84 232.609 2373.16 224.676 2368.63 217.397C2364.1 210.117 2356.86 203.703 2347.52 198.693C2338.18 193.682 2327.01 190.222 2314.94 188.603C2302.88 186.984 2290.28 187.253 2278.19 189.387C2266.11 191.522 2254.9 195.46 2245.5 200.87L1887.58 217.103C1873.8 214.725 1859.08 215.06 1845.29 218.065C1838.77 210.679 1829.07 204.682 1817.3 200.752C1805.53 196.822 1792.14 195.116 1778.67 195.827C1765.19 196.538 1752.15 199.637 1741.03 204.774C1729.91 209.912 1721.15 216.882 1715.73 224.897L1619.83 229.247C1609.2 225.116 1596.72 223.21 1584.07 223.783C1571.43 224.357 1559.21 227.383 1549.08 232.456L1304.32 243.557C1290.08 240.834 1274.59 241.537 1260.72 245.535L1210.69 247.804C1199.42 241.363 1185.01 237.546 1169.68 236.943C1169.74 235.909 1169.78 234.876 1169.72 233.832C1169.3 226.461 1165.65 219.388 1159.18 213.412C1152.72 207.436 1143.71 202.794 1133.15 200.011C1122.6 197.227 1110.93 196.413 1099.46 197.659C1087.99 198.906 1077.17 202.164 1068.23 207.066C1059.3 211.967 1052.59 218.318 1048.87 225.4C1045.15 232.482 1044.57 240.015 1047.2 247.148C1049.82 254.281 1055.54 260.731 1063.71 265.769C1071.88 270.807 1082.18 274.234 1093.44 275.662Z" fill="white"/>
<path d="M1704.97 281.269C1694.65 281.872 1684.55 285.455 1676.58 291.338C1668.61 297.22 1663.33 304.992 1661.74 313.178C1660.15 321.363 1662.36 329.391 1667.96 335.738C1673.55 342.085 1682.14 346.307 1692.09 347.604C1685.61 351.217 1680.46 356.194 1677.31 361.874C1674.17 367.554 1673.18 373.669 1674.48 379.409C1674.62 380.028 1674.76 380.646 1674.98 381.236C1665.46 385.895 1657.53 392.493 1652.15 400.242C1646.77 407.991 1644.16 416.563 1644.63 424.933C1645.1 433.304 1648.63 441.118 1654.8 447.443C1660.97 453.767 1669.53 458.334 1679.43 460.598C1677.72 465.128 1677.33 469.797 1678.31 474.228C1679.28 478.66 1681.58 482.73 1685.03 486.113C1688.48 489.496 1692.97 492.096 1698.16 493.705C1703.35 495.314 1709.08 495.887 1714.89 495.377C1710.5 501.405 1708.66 508.214 1709.68 514.691C1710.7 521.169 1714.51 526.934 1720.49 531.045C1716.12 535.452 1713.22 540.587 1712.08 545.905C1710.95 551.223 1711.63 556.525 1714.05 561.249C1716.47 565.972 1720.54 569.94 1725.83 572.731C1731.12 575.522 1737.43 577.032 1744.09 577.101C1739.3 582.471 1736.31 588.622 1735.45 594.887C1734.59 601.152 1735.9 607.292 1739.22 612.644C1731.97 617.585 1726.62 624.043 1723.91 631.109C1721.2 638.175 1721.28 645.493 1724.13 652.03C1717.94 659.744 1715.44 668.719 1717.14 677.133C1718.84 685.547 1724.61 692.77 1733.28 697.335C1732.39 703.669 1733.71 709.88 1737.09 715.282C1740.47 720.683 1745.79 725.065 1752.45 727.944C1746.24 732.303 1741.47 737.797 1738.65 743.836C1735.82 749.874 1735.05 756.229 1736.42 762.214L1736.47 762.438C1725.28 768.238 1716.53 776.723 1711.71 786.458C1706.89 796.192 1706.3 806.579 1710.04 815.861C1713.77 825.142 1721.6 832.749 1732.2 837.395C1742.81 842.04 1755.53 843.439 1768.22 841.355C1768.35 841.92 1768.48 842.496 1768.61 843.072C1769.88 848.737 1772.9 853.923 1777.4 858.194C1781.9 862.465 1787.75 865.697 1794.47 867.617C1801.19 869.537 1808.58 870.09 1816.01 869.23C1823.45 868.369 1830.71 866.12 1837.2 862.671C1843.68 859.223 1849.19 854.675 1853.28 849.411C1857.36 844.146 1859.89 838.319 1860.65 832.417C1861.42 826.516 1860.39 820.713 1857.67 815.497C1854.95 810.28 1850.61 805.802 1845 802.439L1808 639.227C1809.37 632.389 1808.16 625.611 1804.52 619.764C1810.98 615.371 1815.96 609.76 1818.88 603.566C1821.81 597.372 1822.58 590.843 1821.09 584.715C1819.61 578.587 1815.93 573.106 1810.48 568.892C1805.02 564.677 1798.01 561.896 1790.24 560.864L1780.32 517.133C1783.51 511.432 1784.51 505.285 1783.21 499.518C1781.9 493.751 1778.34 488.639 1773.01 484.869L1747.71 373.26C1749.36 366.145 1747.76 359.082 1743.2 353.378L1738.03 330.563C1743.32 324.141 1745.98 316.744 1745.6 309.513C1746.57 309.35 1747.53 309.177 1748.49 308.958C1755.31 307.397 1761.66 304.395 1766.81 300.289C1771.97 296.184 1775.73 291.139 1777.67 285.724C1779.61 280.308 1779.65 274.738 1777.79 269.642C1775.93 264.546 1772.24 260.126 1767.14 256.881C1762.04 253.636 1755.73 251.696 1748.92 251.279C1742.12 250.862 1735.08 251.984 1728.62 254.52C1722.16 257.056 1716.52 260.905 1712.34 265.631C1708.16 270.357 1705.61 275.774 1704.97 281.269Z" fill="white"/>
<path d="M1704.97 281.269C1694.65 281.872 1684.55 285.455 1676.58 291.338C1668.61 297.22 1663.33 304.992 1661.74 313.178C1660.15 321.363 1662.36 329.391 1667.96 335.738C1673.55 342.085 1682.14 346.307 1692.09 347.604C1685.61 351.217 1680.46 356.194 1677.31 361.874C1674.17 367.554 1673.18 373.669 1674.48 379.409C1674.62 380.028 1674.76 380.646 1674.98 381.236C1665.46 385.895 1657.53 392.493 1652.15 400.242C1646.77 407.991 1644.16 416.563 1644.63 424.933C1645.1 433.304 1648.63 441.118 1654.8 447.443C1660.97 453.767 1669.53 458.334 1679.43 460.598C1677.72 465.128 1677.33 469.797 1678.31 474.228C1679.28 478.66 1681.58 482.73 1685.03 486.113C1688.48 489.496 1692.97 492.096 1698.16 493.705C1703.35 495.314 1709.08 495.887 1714.89 495.377C1710.5 501.405 1708.66 508.214 1709.68 514.691C1710.7 521.169 1714.51 526.934 1720.49 531.045C1716.12 535.452 1713.22 540.587 1712.08 545.905C1710.95 551.223 1711.63 556.525 1714.05 561.249C1716.47 565.972 1720.54 569.94 1725.83 572.731C1731.12 575.522 1737.43 577.032 1744.09 577.101C1739.3 582.471 1736.31 588.622 1735.45 594.887C1734.59 601.152 1735.9 607.292 1739.22 612.644C1731.97 617.585 1726.62 624.043 1723.91 631.109C1721.2 638.175 1721.28 645.493 1724.13 652.03C1717.94 659.744 1715.44 668.719 1717.14 677.133C1718.84 685.547 1724.61 692.77 1733.28 697.335C1732.39 703.669 1733.71 709.88 1737.09 715.282C1740.47 720.683 1745.79 725.065 1752.45 727.944C1746.24 732.303 1741.47 737.797 1738.65 743.836C1735.82 749.874 1735.05 756.229 1736.42 762.214L1736.47 762.438C1725.28 768.238 1716.53 776.723 1711.71 786.458C1706.89 796.192 1706.3 806.579 1710.04 815.861C1713.77 825.142 1721.6 832.749 1732.2 837.395C1742.81 842.04 1755.53 843.439 1768.22 841.355C1768.35 841.92 1768.48 842.496 1768.61 843.072C1769.88 848.737 1772.9 853.923 1777.4 858.194C1781.9 862.465 1787.75 865.697 1794.47 867.617C1801.19 869.537 1808.58 870.09 1816.01 869.23C1823.45 868.369 1830.71 866.12 1837.2 862.671C1843.68 859.223 1849.19 854.675 1853.28 849.411C1857.36 844.146 1859.89 838.319 1860.65 832.417C1861.42 826.516 1860.39 820.713 1857.67 815.497C1854.95 810.28 1850.61 805.802 1845 802.439L1808 639.227C1809.37 632.389 1808.16 625.611 1804.52 619.764C1810.98 615.371 1815.96 609.76 1818.88 603.566C1821.81 597.372 1822.58 590.843 1821.09 584.715C1819.61 578.587 1815.93 573.106 1810.48 568.892C1805.02 564.677 1798.01 561.896 1790.24 560.864L1780.32 517.133C1783.51 511.432 1784.51 505.285 1783.21 499.518C1781.9 493.751 1778.34 488.639 1773.01 484.869L1747.71 373.26C1749.36 366.145 1747.76 359.082 1743.2 353.378L1738.03 330.563C1743.32 324.141 1745.98 316.744 1745.6 309.513C1746.57 309.35 1747.53 309.177 1748.49 308.958C1755.31 307.397 1761.66 304.395 1766.81 300.289C1771.97 296.184 1775.73 291.139 1777.67 285.724C1779.61 280.308 1779.65 274.738 1777.79 269.642C1775.93 264.546 1772.24 260.126 1767.14 256.881C1762.04 253.636 1755.73 251.696 1748.92 251.279C1742.12 250.862 1735.08 251.984 1728.62 254.52C1722.16 257.056 1716.52 260.905 1712.34 265.631C1708.16 270.357 1705.61 275.774 1704.97 281.269Z" fill="white"/>
<path d="M1745.4 763.71C1740.46 772.793 1738.17 783.266 1738.96 793.14C1739.75 803.015 1743.57 811.603 1749.68 817.273C1755.79 822.943 1763.78 825.3 1772.13 823.897C1780.47 822.493 1788.59 817.428 1794.94 809.661C1794.59 817.071 1796.1 824.075 1799.26 829.745C1802.43 835.415 1807.1 839.483 1812.66 841.41C1813.26 841.617 1813.86 841.825 1814.48 841.948C1813.41 852.493 1814.83 862.707 1818.57 871.369C1822.31 880.031 1828.21 886.774 1835.57 890.793C1842.93 894.812 1851.43 895.937 1860.06 894.033C1868.69 892.128 1877.08 887.275 1884.23 880.054C1887.18 883.901 1890.94 886.694 1895.21 888.208C1899.49 889.722 1904.16 889.915 1908.86 888.772C1913.55 887.628 1918.13 885.181 1922.24 881.625C1926.34 878.07 1929.85 873.506 1932.49 868.3C1935.29 875.209 1940.1 880.361 1946.14 882.915C1952.18 885.47 1959.09 885.276 1965.74 882.367C1967.18 888.403 1970 893.582 1973.92 897.353C1977.84 901.124 1982.7 903.346 1987.99 903.783C1993.28 904.221 1998.8 902.857 2003.96 899.837C2009.13 896.817 2013.74 892.253 2017.31 886.631C2019.34 893.539 2022.99 899.324 2027.86 903.36C2032.73 907.396 2038.63 909.528 2044.93 909.527C2045.3 918.293 2047.96 926.252 2052.53 932.282C2057.1 938.312 2063.36 942.11 2070.42 943.141C2073.7 952.467 2080.01 959.325 2088.05 962.323C2096.09 965.32 2105.27 964.232 2113.73 959.279C2118.64 963.38 2124.61 965.539 2130.98 965.516C2137.35 965.494 2143.88 963.292 2149.84 959.153C2150.27 966.726 2152.42 973.68 2156.05 979.266C2159.69 984.852 2164.68 988.858 2170.49 990.853L2170.71 990.928C2169.72 1003.5 2172.31 1015.41 2178.04 1024.64C2183.76 1033.87 2192.27 1039.85 2202.13 1041.58C2211.98 1043.31 2222.58 1040.67 2232.12 1034.12C2241.66 1027.57 2249.56 1017.5 2254.49 1005.62C2255.04 1005.81 2255.6 1006 2256.16 1006.19C2261.64 1008.1 2267.64 1008.28 2273.64 1006.71C2279.64 1005.15 2285.48 1001.88 2290.66 997.184C2295.83 992.49 2300.2 986.508 2303.4 979.739C2306.59 972.971 2308.51 965.614 2309.01 958.287C2309.5 950.96 2308.55 943.876 2306.23 937.631C2303.91 931.385 2300.3 926.161 2295.69 922.396C2291.08 918.632 2285.61 916.437 2279.75 915.996C2273.88 915.555 2267.78 916.881 2261.97 919.862L2103.81 865.141C2098.73 860.372 2092.33 857.825 2085.44 857.827C2085.12 850.021 2082.98 842.833 2079.27 837.076C2075.55 831.319 2070.41 827.223 2064.42 825.251C2060.78 824.052 2056.92 823.667 2053 824.089C2050.47 824.362 2047.91 824.971 2045.38 825.915C2038.92 828.321 2032.86 832.808 2027.88 838.868L1985.5 824.206C1983.94 821.38 1982 818.949 1979.77 816.98C1977.48 814.967 1974.89 813.436 1972.06 812.458C1966.48 810.525 1960.26 810.849 1954.24 813.388L1846.09 775.969C1840.92 770.806 1834.08 768.438 1826.82 769.303L1804.72 761.654C1802.97 756.485 1800.27 752.056 1796.84 748.633C1795.03 746.834 1793.02 745.313 1790.83 744.108C1791.21 743.204 1791.57 742.295 1791.89 741.359C1792.87 738.497 1793.58 735.569 1794.01 732.637C1794.56 728.79 1794.63 724.937 1794.2 721.223C1793.58 715.941 1791.96 711.108 1789.48 707.071C1788.89 706.106 1788.24 705.186 1787.55 704.317C1783.98 699.812 1779.27 696.837 1773.96 695.727C1768.65 694.617 1762.95 695.417 1757.5 698.036C1752.05 700.655 1747.07 704.989 1743.13 710.55C1739.18 716.11 1736.42 722.675 1735.16 729.504C1733.91 736.333 1734.2 743.155 1736.01 749.199C1737.81 755.243 1741.07 760.269 1745.4 763.71Z" fill="white"/>
<path d="M1745.4 763.71C1740.46 772.793 1738.17 783.266 1738.96 793.14C1739.75 803.015 1743.57 811.603 1749.68 817.273C1755.79 822.943 1763.78 825.3 1772.13 823.897C1780.47 822.493 1788.59 817.428 1794.94 809.661C1794.59 817.071 1796.1 824.075 1799.26 829.745C1802.43 835.415 1807.1 839.483 1812.66 841.41C1813.26 841.617 1813.86 841.825 1814.48 841.948C1813.41 852.493 1814.83 862.707 1818.57 871.369C1822.31 880.031 1828.21 886.774 1835.57 890.793C1842.93 894.812 1851.43 895.937 1860.06 894.033C1868.69 892.128 1877.08 887.275 1884.23 880.054C1887.18 883.901 1890.94 886.694 1895.21 888.208C1899.49 889.722 1904.16 889.915 1908.86 888.772C1913.55 887.628 1918.13 885.181 1922.24 881.625C1926.34 878.07 1929.85 873.506 1932.49 868.3C1935.29 875.209 1940.1 880.361 1946.14 882.915C1952.18 885.47 1959.09 885.276 1965.74 882.367C1967.18 888.403 1970 893.582 1973.92 897.353C1977.84 901.124 1982.7 903.346 1987.99 903.783C1993.28 904.221 1998.8 902.857 2003.96 899.837C2009.13 896.817 2013.74 892.253 2017.31 886.631C2019.34 893.539 2022.99 899.324 2027.86 903.36C2032.73 907.396 2038.63 909.528 2044.93 909.527C2045.3 918.293 2047.96 926.252 2052.53 932.282C2057.1 938.312 2063.36 942.11 2070.42 943.141C2073.7 952.467 2080.01 959.325 2088.05 962.323C2096.09 965.32 2105.27 964.232 2113.73 959.279C2118.64 963.38 2124.61 965.539 2130.98 965.516C2137.35 965.494 2143.88 963.292 2149.84 959.153C2150.27 966.726 2152.42 973.68 2156.05 979.266C2159.69 984.852 2164.68 988.858 2170.49 990.853L2170.71 990.928C2169.72 1003.5 2172.31 1015.41 2178.04 1024.64C2183.76 1033.87 2192.27 1039.85 2202.13 1041.58C2211.98 1043.31 2222.58 1040.67 2232.12 1034.12C2241.66 1027.57 2249.56 1017.5 2254.49 1005.62C2255.04 1005.81 2255.6 1006 2256.16 1006.19C2261.64 1008.1 2267.64 1008.28 2273.64 1006.71C2279.64 1005.15 2285.48 1001.88 2290.66 997.184C2295.83 992.49 2300.2 986.508 2303.4 979.739C2306.59 972.971 2308.51 965.614 2309.01 958.287C2309.5 950.96 2308.55 943.876 2306.23 937.631C2303.91 931.385 2300.3 926.161 2295.69 922.396C2291.08 918.632 2285.61 916.437 2279.75 915.996C2273.88 915.555 2267.78 916.881 2261.97 919.862L2103.81 865.141C2098.73 860.372 2092.33 857.825 2085.44 857.827C2085.12 850.021 2082.98 842.833 2079.27 837.076C2075.55 831.319 2070.41 827.223 2064.42 825.251C2060.78 824.052 2056.92 823.667 2053 824.089C2050.47 824.362 2047.91 824.971 2045.38 825.915C2038.92 828.321 2032.86 832.808 2027.88 838.868L1985.5 824.206C1983.94 821.38 1982 818.949 1979.77 816.98C1977.48 814.967 1974.89 813.436 1972.06 812.458C1966.48 810.525 1960.26 810.849 1954.24 813.388L1846.09 775.969C1840.92 770.806 1834.08 768.438 1826.82 769.303L1804.72 761.654C1802.97 756.485 1800.27 752.056 1796.84 748.633C1795.03 746.834 1793.02 745.313 1790.83 744.108C1791.21 743.204 1791.57 742.295 1791.89 741.359C1792.87 738.497 1793.58 735.569 1794.01 732.637C1794.56 728.79 1794.63 724.937 1794.2 721.223C1793.58 715.941 1791.96 711.108 1789.48 707.071C1788.89 706.106 1788.24 705.186 1787.55 704.317C1783.98 699.812 1779.27 696.837 1773.96 695.727C1768.65 694.617 1762.95 695.417 1757.5 698.036C1752.05 700.655 1747.07 704.989 1743.13 710.55C1739.18 716.11 1736.42 722.675 1735.16 729.504C1733.91 736.333 1734.2 743.155 1736.01 749.199C1737.81 755.243 1741.07 760.269 1745.4 763.71Z" fill="white"/>
<path d="M2027.88 838.868C2032.86 832.808 2038.92 828.321 2045.38 825.915L1979.77 816.98C1982 818.949 1983.94 821.38 1985.5 824.206L2027.88 838.868Z" fill="white"/>
<path d="M2027.88 838.868C2032.86 832.808 2038.92 828.321 2045.38 825.915L1979.77 816.98C1982 818.949 1983.94 821.38 1985.5 824.206L2027.88 838.868Z" fill="white"/>
<path d="M1954.24 813.388C1960.26 810.849 1966.48 810.525 1972.06 812.458C1974.89 813.436 1977.48 814.967 1979.77 816.98L2045.38 825.915C2047.91 824.971 2050.47 824.362 2053 824.089L2053.05 823L2079.27 275L1713 275L1789.48 707.071C1791.96 711.108 1793.58 715.941 1794.2 721.223C1794.63 724.937 1794.56 728.79 1794.01 732.637L1796.84 748.633C1800.27 752.056 1802.97 756.485 1804.72 761.654L1826.82 769.303C1834.08 768.438 1840.92 770.806 1846.09 775.969L1954.24 813.388Z" fill="white"/>
<path d="M1954.24 813.388C1960.26 810.849 1966.48 810.525 1972.06 812.458C1974.89 813.436 1977.48 814.967 1979.77 816.98L2045.38 825.915C2047.91 824.971 2050.47 824.362 2053 824.089L2053.05 823L2079.27 275L1713 275L1789.48 707.071C1791.96 711.108 1793.58 715.941 1794.2 721.223C1794.63 724.937 1794.56 728.79 1794.01 732.637L1796.84 748.633C1800.27 752.056 1802.97 756.485 1804.72 761.654L1826.82 769.303C1834.08 768.438 1840.92 770.806 1846.09 775.969L1954.24 813.388Z" fill="white"/>
</svg>
