<svg width="594" height="604" viewBox="0 0 594 604" fill="none" xmlns="http://www.w3.org/2000/svg">
<path opacity="0.6" d="M431.226 26.1864C432.105 25.402 433.248 24.9783 434.427 25.0009C435.605 25.0234 436.731 25.4903 437.579 26.3077C438.426 27.125 438.932 28.2321 438.994 29.4062C439.056 30.5803 438.669 31.7342 437.913 32.6358C437.48 33.0682 436.965 33.4114 436.399 33.6454C435.833 33.8795 435.226 34 434.614 34C434.001 34 433.394 33.8795 432.828 33.6454C432.262 33.4114 431.747 33.0682 431.314 32.6358C430.486 31.7704 430.017 30.6246 430 29.4283C429.984 28.232 430.422 27.0739 431.226 26.1864Z" fill="white"/>
<path opacity="0.6" d="M269.908 1.84543C271.274 0.625299 273.052 -0.0337037 274.886 0.00132835C276.719 0.0363604 278.471 0.762712 279.789 2.03414C281.107 3.30556 281.894 5.02777 281.99 6.85414C282.086 8.68051 281.485 10.4754 280.309 11.8778C279.635 12.5506 278.835 13.0844 277.955 13.4485C277.074 13.8126 276.13 14 275.177 14C274.223 14 273.279 13.8126 272.399 13.4485C271.518 13.0844 270.718 12.5506 270.045 11.8778C268.756 10.5317 268.026 8.74941 268.001 6.88851C267.975 5.0276 268.657 3.22604 269.908 1.84543Z" fill="white"/>
<path opacity="0.6" d="M414.543 581.427C417.08 579.161 420.383 577.937 423.788 578.002C427.192 578.068 430.446 579.416 432.894 581.778C435.342 584.139 436.802 587.337 436.981 590.729C437.16 594.121 436.044 597.454 433.859 600.059C432.608 601.308 431.122 602.3 429.487 602.976C427.852 603.652 426.098 604 424.328 604C422.558 604 420.805 603.652 419.169 602.976C417.534 602.3 416.048 601.308 414.797 600.059C412.404 597.559 411.048 594.249 411.001 590.793C410.954 587.337 412.219 583.991 414.543 581.427Z" fill="white"/>
<path opacity="0.6" d="M211.908 544.845C213.274 543.625 215.052 542.966 216.886 543.001C218.719 543.036 220.471 543.763 221.789 545.034C223.107 546.306 223.894 548.028 223.99 549.854C224.086 551.681 223.485 553.475 222.309 554.878C221.635 555.551 220.835 556.084 219.955 556.448C219.074 556.813 218.13 557 217.177 557C216.223 557 215.279 556.813 214.399 556.448C213.518 556.084 212.718 555.551 212.045 554.878C210.756 553.532 210.026 551.749 210.001 549.889C209.975 548.028 210.657 546.226 211.908 544.845Z" fill="white"/>
<path opacity="0.6" d="M346.232 165.044C347.093 164.274 348.213 163.858 349.369 163.88C350.524 163.902 351.628 164.361 352.458 165.163C353.289 165.965 353.784 167.052 353.845 168.205C353.906 169.357 353.527 170.49 352.786 171.375C352.361 171.799 351.857 172.136 351.302 172.366C350.748 172.596 350.153 172.714 349.552 172.714C348.951 172.714 348.357 172.596 347.802 172.366C347.247 172.136 346.743 171.799 346.318 171.375C345.506 170.525 345.046 169.401 345.03 168.226C345.014 167.052 345.444 165.915 346.232 165.044Z" fill="white"/>
<g clip-path="url(#clip0)">
<path opacity="0.4" d="M585.318 444.275C596.9 432.686 596.9 413.898 585.318 402.309C573.736 390.72 554.957 390.72 543.375 402.309C531.793 413.898 531.793 432.686 543.375 444.275C554.957 455.864 573.736 455.864 585.318 444.275Z" fill="#E5E5FF"/>
<path opacity="0.9" d="M108.323 248.181C125.991 230.503 125.991 201.841 108.323 184.163C90.6555 166.485 62.0103 166.485 44.3425 184.163C26.6747 201.841 26.6747 230.503 44.3425 248.181C62.0103 265.859 90.6555 265.859 108.323 248.181Z" fill="#41FFE7"/>
<path opacity="0.4" d="M232.821 172.651C245.847 172.651 256.407 162.085 256.407 149.052C256.407 136.018 245.847 125.452 232.821 125.452C219.795 125.452 209.235 136.018 209.235 149.052C209.235 162.085 219.795 172.651 232.821 172.651Z" fill="#E5E5FF"/>
<path d="M199.058 160.716C197.591 160.712 196.127 160.591 194.68 160.357L194.82 159.468C196.222 159.69 197.639 159.8 199.058 159.799H199.223V160.698L199.058 160.716ZM203.771 160.321L203.624 159.432C205.076 159.189 206.507 158.828 207.901 158.353L208.193 159.206C206.75 159.693 205.272 160.065 203.771 160.321ZM190.247 159.31C188.799 158.835 187.392 158.246 186.038 157.548L186.451 156.749C187.762 157.426 189.125 157.996 190.528 158.454L190.247 159.31ZM212.377 157.389L211.956 156.594C213.263 155.903 214.512 155.108 215.692 154.217L216.238 154.936C215.018 155.854 213.727 156.675 212.377 157.389ZM182.18 155.141C180.957 154.234 179.808 153.231 178.744 152.141L179.387 151.512C180.416 152.568 181.529 153.539 182.716 154.415L182.18 155.141ZM219.635 151.886L218.981 151.267C219.996 150.198 220.922 149.048 221.752 147.829L222.497 148.336C221.635 149.595 220.673 150.782 219.621 151.886H219.635ZM175.835 148.627C174.961 147.38 174.19 146.064 173.527 144.692L174.336 144.3C174.978 145.628 175.724 146.903 176.569 148.113L175.835 148.627ZM224.754 144.372L223.942 143.991C224.566 142.653 225.084 141.269 225.491 139.851L226.354 140.099C225.93 141.564 225.39 142.993 224.74 144.372H224.754ZM171.863 140.437C171.428 138.977 171.109 137.484 170.91 135.973L171.802 135.858C171.993 137.319 172.302 138.763 172.726 140.174L171.863 140.437ZM227.224 135.624L226.332 135.52C226.457 134.457 226.52 133.389 226.519 132.319C226.519 131.916 226.519 131.506 226.494 131.103L227.393 131.063C227.393 131.481 227.418 131.901 227.418 132.319C227.422 133.423 227.36 134.527 227.235 135.624H227.224ZM171.586 131.445L170.688 131.416C170.738 129.892 170.911 128.376 171.205 126.88L172.086 127.053C171.803 128.501 171.636 129.97 171.586 131.445ZM225.951 126.718C225.649 125.275 225.232 123.858 224.704 122.481L225.541 122.157C226.089 123.58 226.521 125.043 226.836 126.535L225.951 126.718ZM173.272 122.801L172.427 122.488C172.958 121.059 173.601 119.675 174.351 118.348L175.134 118.791C174.407 120.075 173.784 121.416 173.272 122.801ZM224.621 122.272C224.082 120.904 223.434 119.581 222.684 118.316L223.456 117.859C224.233 119.17 224.902 120.541 225.459 121.959L224.621 122.272ZM177.611 115.129L176.91 114.568C177.861 113.378 178.907 112.268 180.038 111.248L180.638 111.913C179.546 112.903 178.533 113.978 177.611 115.129ZM220.138 114.69C219.192 113.563 218.157 112.515 217.043 111.554L217.629 110.874C218.781 111.865 219.851 112.947 220.829 114.111L220.138 114.69ZM184.143 109.23L183.658 108.471C184.938 107.646 186.282 106.925 187.677 106.313L188.036 107.14C186.685 107.731 185.383 108.43 184.143 109.23ZM213.481 108.931C212.226 108.156 210.911 107.484 209.548 106.921L209.907 106.09C211.315 106.672 212.673 107.366 213.97 108.165L213.481 108.931ZM192.213 105.694L191.987 104.824C193.461 104.443 194.964 104.184 196.481 104.047L196.563 104.942C195.095 105.077 193.641 105.33 192.213 105.698V105.694ZM205.345 105.561C203.91 105.222 202.449 104.998 200.978 104.892L201.042 104C202.561 104.108 204.069 104.339 205.55 104.691L205.345 105.561Z" fill="#9192FF"/>
<path d="M482.189 474.981V474.081C483.677 474.056 485.183 473.995 486.657 473.902L486.715 474.797C485.209 474.894 483.692 474.956 482.189 474.981ZM477.674 474.956C476.178 474.912 474.661 474.833 473.169 474.722L473.234 473.823C474.715 473.934 476.218 474.013 477.699 474.056L477.674 474.956ZM491.19 474.405L491.093 473.513C492.567 473.348 494.059 473.153 495.522 472.912L495.662 473.801C494.189 474.035 492.682 474.24 491.19 474.405ZM468.676 474.276C467.195 474.092 465.692 473.873 464.211 473.617L464.366 472.733C465.829 472.984 467.317 473.2 468.787 473.384L468.676 474.276ZM500.102 472.988L499.919 472.107C501.378 471.805 502.841 471.463 504.276 471.092L504.499 471.963C503.053 472.326 501.572 472.686 500.102 472.988ZM459.782 472.751C458.319 472.431 456.845 472.067 455.4 471.672L455.634 470.801C457.072 471.19 458.51 471.546 459.976 471.88L459.782 472.751ZM508.841 470.733L508.575 469.873C510.013 469.434 511.422 468.956 512.814 468.452L513.119 469.298C511.713 469.808 510.276 470.29 508.841 470.733ZM451.072 470.395C449.634 469.934 448.196 469.434 446.801 468.905L447.117 468.064C448.512 468.589 449.936 469.085 451.349 469.539L451.072 470.395ZM517.3 467.65L516.94 466.823C518.303 466.255 519.676 465.643 521.017 465.024L521.402 465.837C520.075 466.478 518.691 467.093 517.3 467.65ZM442.592 467.201C441.211 466.607 439.831 465.97 438.483 465.312L438.874 464.506C440.212 465.157 441.581 465.787 442.947 466.373L442.592 467.201ZM525.442 463.801L525.022 463.007C526.327 462.312 527.639 461.568 528.911 460.816L529.371 461.589C528.084 462.37 526.776 463.111 525.457 463.816L525.442 463.801ZM434.467 463.233C433.155 462.514 431.839 461.751 430.556 460.967L431.027 460.201C432.296 460.978 433.601 461.733 434.899 462.445L434.467 463.233ZM533.193 459.197L532.697 458.446C533.937 457.625 535.174 456.769 536.367 455.899L536.895 456.618C535.706 457.518 534.458 458.384 533.207 459.212L533.193 459.197ZM426.76 458.521C425.52 457.683 424.283 456.798 423.079 455.899L423.618 455.18C424.811 456.072 426.037 456.946 427.263 457.777L426.76 458.521ZM540.48 453.881L539.915 453.162C541.073 452.234 542.223 451.266 543.334 450.284L543.927 450.96C542.823 451.978 541.659 452.96 540.494 453.895L540.48 453.881ZM419.531 453.108C418.373 452.151 417.223 451.158 416.115 450.155L416.719 449.486C417.798 450.482 418.955 451.468 420.102 452.414L419.531 453.108ZM547.241 447.907L546.616 447.263C547.694 446.227 548.733 445.155 549.751 444.072L550.405 444.687C549.395 445.795 548.331 446.878 547.256 447.921L547.241 447.907ZM412.84 447.043C411.762 445.964 410.727 444.885 409.717 443.785L410.382 443.177C411.381 444.256 412.42 445.356 413.477 446.414L412.84 447.043ZM553.399 441.321L552.716 440.738C553.68 439.605 554.632 438.439 555.538 437.267L556.257 437.821C555.366 439.015 554.406 440.195 553.432 441.335L553.399 441.321ZM406.729 440.382C405.769 439.231 404.828 438.04 403.925 436.85L404.644 436.306C405.536 437.486 406.47 438.666 407.419 439.806L406.729 440.382ZM558.968 434.199L558.231 433.681C559.087 432.465 559.924 431.213 560.719 429.961L561.477 430.443C560.675 431.706 559.831 432.972 558.968 434.199ZM401.326 433.199C400.481 431.965 399.655 430.681 398.867 429.418L399.633 428.947C400.413 430.21 401.233 431.465 402.07 432.692L401.326 433.199ZM563.814 426.573L563.034 426.127C563.753 424.836 564.472 423.512 565.162 422.171L565.963 422.581C565.277 423.933 564.554 425.271 563.81 426.573H563.814ZM396.592 425.53C395.873 424.217 395.154 422.876 394.503 421.534L395.308 421.138C395.963 422.465 396.66 423.796 397.379 425.095L396.592 425.53ZM567.923 418.516L567.103 418.156C567.718 416.797 568.304 415.408 568.85 414.031L569.684 414.362C569.131 415.743 568.537 417.142 567.919 418.516H567.923ZM392.601 417.437C392.001 416.063 391.426 414.66 390.894 413.268L391.735 412.944C392.26 414.326 392.814 415.718 393.425 417.074L392.601 417.437ZM571.266 410.088L570.418 409.797C570.896 408.394 571.349 406.959 571.762 405.531L572.625 405.783C572.186 407.222 571.73 408.686 571.244 410.099L571.266 410.088ZM389.402 409.009C388.935 407.571 388.492 406.132 388.097 404.693L388.963 404.452C389.355 405.891 389.79 407.33 390.258 408.732L389.402 409.009ZM573.779 401.413L572.905 401.204C573.265 399.765 573.563 398.29 573.84 396.83L574.724 396.996C574.422 398.488 574.099 399.977 573.757 401.431L573.779 401.413ZM386.997 400.305C386.666 398.848 386.364 397.359 386.102 395.881L386.99 395.722C387.249 397.19 387.547 398.665 387.871 400.107L386.997 400.305ZM575.458 392.543L574.566 392.417C574.775 390.949 574.947 389.456 575.087 387.974L575.982 388.057C575.821 389.572 575.644 391.079 575.436 392.561L575.458 392.543ZM385.422 391.417C385.232 389.935 385.063 388.424 384.952 386.924L385.847 386.852C385.965 388.334 386.123 389.834 386.314 391.302L385.422 391.417ZM576.31 383.554L575.411 383.511C575.479 382.032 575.515 380.529 575.515 379.04H576.414C576.378 380.561 576.342 382.079 576.274 383.572L576.31 383.554ZM384.704 382.417C384.664 381.302 384.646 380.166 384.646 379.04C384.646 378.658 384.646 378.281 384.646 377.903H385.545C385.545 378.263 385.545 378.651 385.545 379.029C385.545 380.144 385.545 381.27 385.602 382.374L384.704 382.417ZM575.49 376.828C575.458 375.342 575.386 373.839 575.285 372.36L576.18 372.295C576.284 373.788 576.353 375.306 576.389 376.81L575.49 376.828ZM385.706 373.443L384.808 373.389C384.898 371.889 385.02 370.375 385.167 368.889L386.059 368.983C385.879 370.472 385.757 371.972 385.671 373.461L385.706 373.443ZM574.872 367.907C574.699 366.436 574.491 364.943 574.25 363.476L575.134 363.332C575.378 364.814 575.591 366.317 575.763 367.803L574.872 367.907ZM386.641 364.548L385.728 364.418C385.955 362.936 386.221 361.44 386.515 359.972L387.396 360.149C387.094 361.613 386.832 363.094 386.605 364.566L386.641 364.548ZM573.38 359.098C573.071 357.66 572.722 356.188 572.344 354.75L573.214 354.519C573.595 355.958 573.933 357.447 574.26 358.911L573.38 359.098ZM388.374 355.786L387.5 355.566C387.86 354.127 388.273 352.645 388.708 351.214L389.567 351.473C389.136 352.908 388.737 354.347 388.374 355.786ZM571.101 350.437C570.655 349.02 570.169 347.595 569.663 346.203L570.507 345.894C571.025 347.3 571.514 348.736 571.967 350.167L571.101 350.437ZM390.966 347.2L390.121 346.897C390.624 345.48 391.167 344.059 391.735 342.671L392.565 343.009C392.005 344.416 391.48 345.826 390.966 347.228V347.2ZM568.016 342.042C567.441 340.678 566.826 339.312 566.183 337.97L566.995 337.581C567.642 338.934 568.264 340.315 568.847 341.689L568.016 342.042ZM394.356 338.934L393.54 338.553C394.172 337.197 394.848 335.833 395.549 334.502L396.344 334.92C395.657 336.24 394.988 337.589 394.356 338.934ZM564.152 334.02C563.451 332.718 562.714 331.413 561.941 330.139L562.71 329.675C563.483 330.963 564.234 332.28 564.943 333.592L564.152 334.02ZM398.526 331.003L397.753 330.549C398.511 329.255 399.309 327.963 400.129 326.704L400.884 327.197C400.072 328.449 399.277 329.722 398.526 331.003ZM559.575 326.366C558.752 325.132 557.889 323.902 557.009 322.708L557.728 322.172C558.619 323.381 559.489 324.622 560.32 325.866L559.575 326.366ZM403.433 323.489L402.714 322.96C403.591 321.748 404.511 320.536 405.442 319.363L406.161 319.924C405.191 321.104 404.281 322.302 403.415 323.507L403.433 323.489ZM554.273 319.172C553.338 318.021 552.364 316.874 551.376 315.77L552.044 315.169C553.044 316.288 554.029 317.442 554.97 318.604L554.273 319.172ZM409.001 316.5L408.325 315.91C409.314 314.78 410.338 313.658 411.374 312.579L412.024 313.205C410.978 314.273 409.961 315.381 408.983 316.5H409.001ZM548.32 312.504C547.277 311.443 546.199 310.392 545.113 309.385L545.724 308.723C546.803 309.741 547.91 310.802 548.96 311.874L548.32 312.504ZM415.195 310.05L414.58 309.399C415.659 308.367 416.791 307.349 417.927 306.371L418.513 307.054C417.363 308.022 416.256 309.025 415.177 310.05H415.195ZM541.745 306.418C540.613 305.461 539.441 304.515 538.262 303.608L538.808 302.889C540.001 303.803 541.184 304.759 542.324 305.723L541.745 306.418ZM421.943 304.213L421.389 303.493C422.565 302.572 423.783 301.662 424.984 300.796L425.505 301.515C424.319 302.396 423.115 303.299 421.946 304.213H421.943ZM534.649 300.975C533.426 300.127 532.172 299.296 530.914 298.508L531.392 297.745C532.661 298.54 533.93 299.378 535.163 300.238L534.649 300.975ZM429.226 299.037L428.741 298.278C429.999 297.468 431.296 296.681 432.591 295.933L433.04 296.709C431.742 297.45 430.473 298.235 429.226 299.037ZM527.071 296.209C525.78 295.49 524.45 294.771 523.116 294.102L523.523 293.3C524.863 293.972 526.204 294.688 527.509 295.425L527.071 296.209ZM436.955 294.566L436.541 293.767C437.871 293.08 439.234 292.418 440.593 291.792L440.952 292.613C439.619 293.228 438.271 293.886 436.955 294.566ZM519.076 292.185C517.717 291.58 516.326 290.998 514.938 290.458L515.265 289.62C516.664 290.167 518.069 290.749 519.439 291.361L519.076 292.185ZM445.065 290.846L444.73 290.012C446.122 289.454 447.545 288.933 448.954 288.429L449.253 289.278C447.851 289.764 446.445 290.293 445.065 290.846ZM510.725 288.933C509.319 288.458 507.881 288.016 506.454 287.609L506.699 286.746C508.137 287.152 509.575 287.602 511.012 288.08L510.725 288.933ZM453.506 287.908L453.25 287.045C454.688 286.62 456.151 286.224 457.607 285.868L457.823 286.739C456.378 287.084 454.929 287.487 453.506 287.908ZM502.126 286.491C500.688 286.156 499.211 285.85 497.751 285.581L497.913 284.696C499.387 284.965 500.871 285.278 502.331 285.617L502.126 286.491ZM462.187 285.771L462.018 284.89C463.488 284.602 464.984 284.347 466.465 284.131L466.594 285.019C465.128 285.242 463.647 285.494 462.187 285.778V285.771ZM493.333 284.872C491.866 284.671 490.371 284.512 488.89 284.376L488.969 283.48C490.461 283.609 491.971 283.778 493.455 283.98L493.333 284.872ZM471.045 284.476L470.959 283.581C472.443 283.433 473.96 283.318 475.459 283.243L475.506 284.138C474.003 284.225 472.504 284.336 471.03 284.483L471.045 284.476ZM484.446 284.088C483.138 284.037 481.815 284.009 480.492 284.009H479.956V283.127H480.496C481.811 283.127 483.149 283.156 484.468 283.21L484.446 284.088Z" fill="#9192FF"/>
<path d="M91.4926 369.788C89.9827 369.788 88.4621 369.72 86.9738 369.605L87.0421 368.706C88.5124 368.821 90.0115 368.882 91.4962 368.889L91.4926 369.788ZM96.0149 369.655L95.9538 368.76C97.4313 368.663 98.9231 368.512 100.39 368.31L100.512 369.202C99.0238 369.407 97.5104 369.558 96.0149 369.655ZM82.4803 369.094C80.992 368.871 79.4929 368.594 78.0334 368.267L78.2275 367.389C79.6655 367.713 81.143 367.986 82.6097 368.206L82.4803 369.094ZM104.97 368.425L104.783 367.548C106.221 367.242 107.687 366.879 109.097 366.468L109.345 367.332C107.914 367.749 106.436 368.116 104.97 368.425ZM73.6549 367.123C72.2169 366.691 70.779 366.199 69.3662 365.663L69.6898 364.825C71.0738 365.35 72.4937 365.835 73.9137 366.263L73.6549 367.123ZM113.658 365.925L113.346 365.08C114.733 364.569 116.121 364.001 117.469 363.393L117.829 364.21C116.473 364.828 115.064 365.407 113.658 365.925ZM65.1962 363.897C63.8373 363.26 62.4821 362.566 61.1663 361.836L61.6049 361.048C62.8991 361.767 64.2364 362.454 65.5593 363.08L65.1962 363.897ZM121.887 362.202L121.459 361.411C122.757 360.692 124.051 359.944 125.299 359.149L125.784 359.904C124.515 360.713 123.206 361.487 121.887 362.202ZM57.2947 359.487C56.0401 358.663 54.7963 357.785 53.6028 356.872L54.1456 356.152C55.3247 357.052 56.5506 357.922 57.7872 358.731L57.2947 359.487ZM129.505 357.329L128.969 356.609C130.155 355.724 131.327 354.789 132.449 353.822L133.035 354.501C131.899 355.487 130.709 356.437 129.505 357.336V357.329ZM50.105 353.987C48.9798 352.994 47.8762 351.948 46.8229 350.872L47.4627 350.243C48.5017 351.3 49.5909 352.333 50.6981 353.314L50.105 353.987ZM136.353 351.433L135.72 350.793C136.77 349.75 137.798 348.635 138.772 347.556L139.448 348.146C138.459 349.261 137.42 350.39 136.353 351.433ZM43.7672 347.545C42.7966 346.398 41.8512 345.203 40.9632 343.995L41.6822 343.462C42.5594 344.657 43.4796 345.833 44.4503 346.962L43.7672 347.545ZM142.299 344.613L141.58 344.07C142.475 342.887 143.334 341.657 144.139 340.412L144.891 340.901C144.075 342.164 143.205 343.412 142.299 344.613ZM38.4073 340.258C37.6056 338.984 36.8399 337.671 36.1353 336.344L36.9262 335.923C37.6236 337.225 38.3642 338.524 39.1658 339.776L38.4073 340.258ZM147.202 337.02L146.415 336.589C147.134 335.287 147.806 333.945 148.424 332.6L149.24 332.977C148.622 334.333 147.939 335.697 147.213 337.013L147.202 337.02ZM34.151 332.283C33.5399 330.909 32.9719 329.499 32.4614 328.089L33.3098 327.783C33.8095 329.172 34.3882 330.564 34.9706 331.916L34.151 332.283ZM150.984 328.787L150.143 328.47C150.664 327.082 151.138 325.658 151.555 324.237L152.418 324.492C152.001 325.931 151.52 327.37 150.984 328.787ZM31.0918 323.773C30.6855 322.334 30.3261 320.845 30.0133 319.374L30.894 319.194C31.1888 320.633 31.5447 322.1 31.9473 323.528L31.0918 323.773ZM153.543 320.1L152.666 319.91C152.979 318.471 153.245 316.985 153.457 315.518L154.345 315.644C154.133 317.14 153.86 318.64 153.543 320.108V320.1ZM29.2764 314.917C29.0822 313.428 28.9384 311.914 28.8486 310.414L29.7473 310.36C29.8336 311.838 29.9738 313.335 30.1679 314.802L29.2764 314.917ZM154.827 311.151L153.928 311.09C154.032 309.615 154.086 308.115 154.086 306.63H154.985C154.985 308.137 154.938 309.658 154.827 311.151ZM29.6394 305.9H28.7407C28.7407 304.393 28.8306 302.871 28.9528 301.378L29.8479 301.45C29.7257 302.911 29.6574 304.414 29.6394 305.9ZM154.022 303.637C153.953 302.152 153.827 300.655 153.662 299.191L154.557 299.084C154.733 300.573 154.859 302.091 154.917 303.594L154.022 303.637ZM30.3728 297.012L29.4777 296.875C29.7077 295.386 29.9953 293.893 30.3332 292.429L31.2068 292.631C30.8833 294.073 30.5993 295.548 30.3728 297.012ZM152.957 294.782C152.677 293.343 152.339 291.864 151.955 290.433L152.824 290.203C153.213 291.641 153.543 293.138 153.838 294.613L152.957 294.782ZM32.3536 288.321L31.4944 288.059C31.9366 286.62 32.4362 285.181 32.9827 283.775L33.8203 284.102C33.299 285.484 32.8065 286.904 32.3536 288.321ZM150.624 286.163C150.135 284.768 149.593 283.369 149.01 282.009L149.834 281.649C150.427 283.027 150.98 284.444 151.473 285.861L150.624 286.163ZM35.5889 279.998L34.7765 279.613C35.42 278.257 36.121 276.901 36.8615 275.592L37.6452 276.034C36.9262 277.326 36.2324 278.66 35.5889 279.998ZM147.116 277.991C146.433 276.675 145.696 275.369 144.923 274.11L145.689 273.639C146.472 274.919 147.22 276.243 147.914 277.577L147.116 277.991ZM39.989 272.236L39.2377 271.74C40.0717 270.488 40.9561 269.251 41.8763 268.06L42.5953 268.61C41.7002 269.776 40.8087 270.995 39.989 272.229V272.236ZM142.468 270.402C141.605 269.197 140.688 268.01 139.743 266.869L140.433 266.297C141.393 267.452 142.324 268.657 143.197 269.876L142.468 270.402ZM45.4388 265.168L44.7666 264.571C45.7696 263.449 46.8229 262.352 47.9013 261.305L48.5268 261.949C47.452 262.985 46.4238 264.064 45.4388 265.168ZM136.77 263.535C135.745 262.456 134.67 261.42 133.57 260.427L134.174 259.762C135.289 260.769 136.378 261.83 137.41 262.913L136.77 263.535ZM51.8341 258.96L51.2553 258.269C52.4057 257.302 53.6028 256.366 54.8178 255.481L55.3463 256.201C54.1492 257.082 52.9665 258.007 51.8341 258.96ZM130.159 257.553C128.991 256.643 127.775 255.755 126.546 254.931L127.049 254.187C128.293 255.025 129.526 255.92 130.712 256.845L130.159 257.553ZM59.0454 253.723L58.5709 252.956C59.847 252.165 61.1663 251.406 62.4929 250.708L62.9099 251.503C61.6013 252.194 60.3036 252.938 59.0454 253.723ZM122.757 252.575C121.474 251.838 120.144 251.136 118.803 250.496L119.191 249.683C120.546 250.338 121.894 251.046 123.199 251.795L122.757 252.575ZM66.9253 249.572L66.5658 248.748C67.9391 248.144 69.3518 247.586 70.7646 247.083L71.0666 247.932C69.6718 248.424 68.2806 248.978 66.9253 249.572ZM114.737 248.705C113.36 248.162 111.944 247.658 110.527 247.216L110.797 246.356C112.235 246.806 113.673 247.316 115.068 247.87L114.737 248.705ZM75.3373 246.593L75.1 245.727C76.538 245.327 78.0262 244.978 79.5001 244.683L79.6763 245.565C78.206 245.856 76.7465 246.201 75.3193 246.593H75.3373ZM106.228 246.032C104.79 245.694 103.316 245.403 101.857 245.165L102 244.277C103.481 244.518 104.973 244.813 106.436 245.158L106.228 246.032ZM84.08 244.856L83.9649 243.961C85.4532 243.777 86.9702 243.64 88.4729 243.561L88.5196 244.46C87.0206 244.54 85.5251 244.673 84.062 244.856H84.08ZM97.4313 244.615C95.9574 244.486 94.4619 244.407 92.9773 244.378L92.9952 243.479C94.4979 243.507 96.0185 243.586 97.5104 243.72L97.4313 244.615Z" fill="#9192FF"/>
<path d="M344.621 155.221C341.621 155.221 338.688 154.332 336.193 152.665C333.699 150.997 331.754 148.627 330.606 145.854C329.457 143.081 329.157 140.029 329.742 137.085C330.327 134.141 331.772 131.437 333.893 129.314C336.014 127.192 338.717 125.746 341.659 125.161C344.602 124.576 347.652 124.876 350.423 126.025C353.195 127.175 355.563 129.12 357.229 131.616C358.896 134.112 359.785 137.047 359.784 140.049C359.779 144.071 358.18 147.927 355.338 150.772C352.495 153.616 348.641 155.216 344.621 155.221ZM344.621 125.549C341.756 125.552 338.955 126.405 336.574 128C334.193 129.595 332.338 131.86 331.243 134.51C330.149 137.16 329.864 140.075 330.425 142.886C330.985 145.698 332.367 148.28 334.394 150.306C336.421 152.333 339.003 153.712 341.814 154.27C344.624 154.829 347.537 154.541 350.184 153.443C352.831 152.345 355.093 150.487 356.685 148.103C358.277 145.718 359.126 142.916 359.126 140.049C359.121 136.202 357.591 132.515 354.872 129.796C352.152 127.078 348.465 125.55 344.621 125.549Z" fill="#9192FF"/>
<path d="M502.399 209.692V483.117C502.4 484.47 502.135 485.809 501.618 487.059C501.102 488.309 500.344 489.445 499.389 490.402C498.433 491.359 497.299 492.118 496.05 492.637C494.801 493.155 493.463 493.422 492.111 493.422H94.9868C93.6341 493.423 92.2946 493.156 91.0449 492.639C89.7951 492.121 88.6595 491.362 87.703 490.405C86.7466 489.448 85.9879 488.312 85.4705 487.061C84.9531 485.811 84.687 484.47 84.6875 483.117V209.692C84.687 208.339 84.9531 206.999 85.4705 205.748C85.9879 204.498 86.7466 203.362 87.703 202.404C88.6595 201.447 89.7951 200.688 91.0449 200.171C92.2946 199.653 93.6341 199.387 94.9868 199.387H492.111C493.463 199.388 494.801 199.655 496.05 200.173C497.299 200.691 498.433 201.45 499.389 202.407C500.344 203.364 501.102 204.5 501.618 205.75C502.135 207 502.4 208.34 502.399 209.692Z" fill="white"/>
<path d="M492.111 493.875H94.9869C92.1371 493.872 89.4048 492.738 87.3896 490.722C85.3745 488.706 84.2411 485.972 84.2383 483.12V209.692C84.2411 206.841 85.3745 204.107 87.3896 202.091C89.4048 200.074 92.1371 198.94 94.9869 198.938H492.111C494.959 198.942 497.689 200.077 499.702 202.093C501.715 204.11 502.847 206.842 502.849 209.692V483.117C502.848 485.967 501.717 488.701 499.704 490.718C497.69 492.735 494.96 493.871 492.111 493.875ZM94.9869 199.837C92.3754 199.84 89.8717 200.879 88.0251 202.727C86.1785 204.574 85.1399 207.079 85.137 209.692V483.117C85.1399 485.73 86.1785 488.235 88.0251 490.083C89.8717 491.93 92.3754 492.97 94.9869 492.973H492.111C494.721 492.968 497.222 491.927 499.067 490.08C500.911 488.232 501.948 485.728 501.95 483.117V209.692C501.948 207.081 500.911 204.577 499.067 202.729C497.222 200.882 494.721 199.841 492.111 199.837H94.9869Z" fill="#9192FF"/>
<path d="M502.4 209.692V225.915H84.6772V209.692C84.6768 208.339 84.9429 206.999 85.4603 205.748C85.9777 204.498 86.7363 203.362 87.6928 202.404C88.6492 201.447 89.7848 200.688 91.0346 200.171C92.2844 199.653 93.6239 199.387 94.9765 199.387H492.1C493.453 199.386 494.793 199.652 496.043 200.17C497.293 200.687 498.429 201.446 499.385 202.403C500.342 203.361 501.1 204.497 501.618 205.748C502.135 206.998 502.401 208.339 502.4 209.692Z" fill="white"/>
<path d="M502.849 226.364H84.2383V209.692C84.2411 206.841 85.3745 204.107 87.3896 202.091C89.4048 200.074 92.1371 198.94 94.9869 198.938H492.111C494.959 198.942 497.689 200.077 499.702 202.093C501.715 204.11 502.847 206.842 502.849 209.692V226.364ZM85.1262 225.465H501.95V209.692C501.948 207.081 500.911 204.577 499.067 202.729C497.222 200.882 494.721 199.841 492.111 199.837H94.9869C92.3754 199.84 89.8717 200.879 88.0251 202.727C86.1785 204.574 85.1399 207.079 85.137 209.692L85.1262 225.465Z" fill="#9192FF"/>
<path d="M107.878 217.444C110.525 217.444 112.67 215.297 112.67 212.649C112.67 210.001 110.525 207.854 107.878 207.854C105.232 207.854 103.086 210.001 103.086 212.649C103.086 215.297 105.232 217.444 107.878 217.444Z" fill="url(#paint0_linear)"/>
<path d="M126.155 207.854C125.207 207.854 124.281 208.136 123.492 208.663C122.704 209.189 122.09 209.938 121.728 210.814C121.365 211.69 121.27 212.655 121.455 213.585C121.64 214.515 122.096 215.369 122.766 216.04C123.436 216.71 124.29 217.167 125.22 217.352C126.149 217.537 127.113 217.442 127.989 217.079C128.864 216.716 129.613 216.101 130.139 215.313C130.666 214.525 130.947 213.598 130.947 212.649C130.945 211.378 130.439 210.16 129.541 209.261C128.643 208.362 127.425 207.856 126.155 207.854Z" fill="url(#paint1_linear)"/>
<path d="M144.427 217.444C143.479 217.444 142.553 217.163 141.765 216.636C140.977 216.109 140.363 215.36 140 214.484C139.637 213.608 139.542 212.644 139.727 211.714C139.912 210.784 140.369 209.929 141.039 209.259C141.709 208.588 142.563 208.132 143.492 207.947C144.422 207.762 145.385 207.857 146.261 208.219C147.137 208.582 147.885 209.197 148.412 209.985C148.938 210.774 149.219 211.701 149.219 212.649C149.217 213.92 148.712 215.139 147.814 216.037C146.915 216.936 145.698 217.442 144.427 217.444ZM144.427 208.754C143.657 208.754 142.904 208.982 142.264 209.41C141.624 209.838 141.125 210.447 140.83 211.158C140.536 211.87 140.459 212.654 140.609 213.409C140.759 214.165 141.13 214.859 141.674 215.404C142.219 215.949 142.912 216.32 143.668 216.47C144.423 216.62 145.206 216.543 145.917 216.248C146.628 215.953 147.237 215.454 147.664 214.813C148.092 214.173 148.32 213.42 148.32 212.649C148.319 211.616 147.909 210.626 147.179 209.896C146.449 209.165 145.459 208.755 144.427 208.754Z" fill="#9192FF"/>
<path d="M262.364 217.987H173.272C171.857 217.987 170.5 217.424 169.5 216.423C168.5 215.422 167.938 214.065 167.938 212.649C167.938 211.233 168.5 209.875 169.5 208.874C170.5 207.873 171.857 207.311 173.272 207.311H262.364C263.779 207.311 265.135 207.873 266.136 208.874C267.136 209.875 267.698 211.233 267.698 212.649C267.698 214.065 267.136 215.422 266.136 216.423C265.135 217.424 263.779 217.987 262.364 217.987ZM173.272 208.21C172.096 208.21 170.967 208.678 170.136 209.51C169.304 210.343 168.836 211.472 168.836 212.649C168.836 213.826 169.304 214.955 170.136 215.787C170.967 216.62 172.096 217.087 173.272 217.087H262.364C263.54 217.087 264.669 216.62 265.5 215.787C266.332 214.955 266.8 213.826 266.8 212.649C266.8 211.472 266.332 210.343 265.5 209.51C264.669 208.678 263.54 208.21 262.364 208.21H173.272Z" fill="#9192FF"/>
<path d="M375.663 353.156C375.663 396.211 340.792 431.119 297.751 431.119C254.71 431.119 219.822 396.211 219.822 353.156C219.822 312.762 250.533 279.545 289.86 275.588L292.456 301.169C281.797 302.261 271.733 306.61 263.63 313.626C255.528 320.641 249.782 329.983 247.172 340.381C244.562 350.779 245.215 361.729 249.042 371.742C252.869 381.756 259.685 390.347 268.564 396.349C277.442 402.351 287.952 405.472 298.665 405.288C309.378 405.103 319.775 401.623 328.442 395.32C337.109 389.016 343.626 380.196 347.107 370.056C350.588 359.917 350.865 348.951 347.899 338.649L372.603 331.509C374.637 338.545 375.667 345.832 375.663 353.156Z" fill="url(#paint2_linear)"/>
<path d="M297.741 416.099C332.485 416.099 360.651 387.917 360.651 353.152C360.651 318.388 332.485 290.206 297.741 290.206C262.996 290.206 234.831 318.388 234.831 353.152C234.831 387.917 262.996 416.099 297.741 416.099Z" fill="white"/>
<path opacity="0.5" d="M297.741 416.099C332.485 416.099 360.651 387.917 360.651 353.152C360.651 318.388 332.485 290.206 297.741 290.206C262.996 290.206 234.831 318.388 234.831 353.152C234.831 387.917 262.996 416.099 297.741 416.099Z" fill="#D1D1FF"/>
<path d="M297.74 397.751C322.349 397.751 342.299 377.784 342.299 353.153C342.299 328.522 322.349 308.554 297.74 308.554C273.132 308.554 253.182 328.522 253.182 353.153C253.182 377.784 273.132 397.751 297.74 397.751Z" fill="white"/>
<path d="M422.583 302.328L411.848 272.657C405.815 274.838 400.589 278.809 396.87 284.039C393.15 289.269 391.112 295.51 391.029 301.928C390.946 308.347 392.821 314.638 396.404 319.963C399.986 325.288 405.107 329.393 411.082 331.73C417.057 334.068 423.602 334.527 429.845 333.046C436.087 331.565 441.73 328.214 446.02 323.442C450.31 318.669 453.043 312.7 453.855 306.333C454.667 299.965 453.52 293.501 450.565 287.803L422.583 302.328Z" fill="#EBEBFF"/>
<path d="M454.749 276.552C451.226 269.762 445.357 264.483 438.234 261.699C431.111 258.915 423.22 258.814 416.029 261.416L426.767 291.088L454.749 276.552Z" fill="url(#paint3_linear)"/>
<path d="M467.217 403.43H392.624V474.47H467.217V403.43Z" fill="#EBEBFF"/>
<path d="M446.097 422.314H404.307V425.314H446.097V422.314Z" fill="white"/>
<path d="M446.097 431.307H404.307V434.306H446.097V431.307Z" fill="white"/>
<path d="M182.482 267.646H117.617V377.353H182.482V267.646Z" fill="#EBEBFF"/>
<path d="M170.04 283.534H127.502V322.499H170.04V283.534Z" fill="white"/>
<path d="M127.804 283.186L127.197 283.849L169.738 322.812L170.345 322.149L127.804 283.186Z" fill="#EBEBFF"/>
<path d="M169.734 283.203L127.2 322.174L127.807 322.837L170.341 283.867L169.734 283.203Z" fill="#EBEBFF"/>
<path d="M148.791 312.453H0.427734V410.265H148.791V312.453Z" fill="white"/>
<path d="M149.223 410.692H0V312.025H149.223V410.692ZM0.859171 409.836H148.363V312.885H0.859171V409.836Z" fill="#9192FF"/>
<path d="M16.062 386.644L25.6459 368.659L45.4176 387.244L58.6 348.876L83.1636 375.853L99.3405 369.26L128.7 330.891" fill="white"/>
<path d="M45.6185 388.05L25.7677 369.389L16.4571 386.856L15.6626 386.435L25.5269 367.929L45.2195 386.442L58.4198 348.012L83.2855 375.32L99.0597 368.889L128.343 330.618L129.055 331.164L99.6241 369.63L83.0446 376.389L82.8325 376.158L58.7793 349.743L45.6185 388.05Z" fill="#339DCC"/>
<path d="M25.7216 371.058C27.0856 371.058 28.1913 369.952 28.1913 368.587C28.1913 367.222 27.0856 366.116 25.7216 366.116C24.3577 366.116 23.252 367.222 23.252 368.587C23.252 369.952 24.3577 371.058 25.7216 371.058Z" fill="#339DCC"/>
<path d="M45.2705 389.265C46.6344 389.265 47.7401 388.159 47.7401 386.794C47.7401 385.43 46.6344 384.323 45.2705 384.323C43.9065 384.323 42.8008 385.43 42.8008 386.794C42.8008 388.159 43.9065 389.265 45.2705 389.265Z" fill="#339DCC"/>
<path d="M58.7509 351.498C60.1149 351.498 61.2206 350.391 61.2206 349.027C61.2206 347.662 60.1149 346.556 58.7509 346.556C57.387 346.556 56.2812 347.662 56.2812 349.027C56.2812 350.391 57.387 351.498 58.7509 351.498Z" fill="#339DCC"/>
<path d="M106.066 328.046H43.1562V328.945H106.066V328.046Z" fill="#9192FF"/>
<path d="M98.0176 382.518L97.7875 382.575C97.5557 382.03 97.2417 381.525 96.8564 381.075" fill="#1B1B43"/>
<path d="M95.3535 380.198L95.3967 379.964C95.7338 379.943 96.0718 379.987 96.3924 380.094C96.731 380.205 97.0379 380.397 97.2876 380.651" fill="#1B1B43"/>
<path d="M360 64H236V139H360V64Z" fill="white"/>
<path d="M360 140H236V64H360V140ZM236.662 139.36H359.354V64.6533H236.662V139.36Z" fill="#9192FF"/>
<path d="M258 81H252V88H258V81Z" fill="#D1D1FF"/>
<path d="M304 84H266V86H304V84Z" fill="#D1D1FF"/>
</g>
<defs>
<linearGradient id="paint0_linear" x1="107.878" y1="207.854" x2="107.878" y2="217.444" gradientUnits="userSpaceOnUse">
<stop stop-color="#339DCC"/>
<stop offset="0.833333" stop-color="#62B7D8"/>
</linearGradient>
<linearGradient id="paint1_linear" x1="126.155" y1="207.854" x2="126.155" y2="217.444" gradientUnits="userSpaceOnUse">
<stop stop-color="#339DCC"/>
<stop offset="0.833333" stop-color="#62B7D8"/>
</linearGradient>
<linearGradient id="paint2_linear" x1="219.503" y1="353.241" x2="375.75" y2="353.241" gradientUnits="userSpaceOnUse">
<stop stop-color="#00FFDF"/>
<stop offset="1" stop-color="#00C3D4"/>
</linearGradient>
<linearGradient id="paint3_linear" x1="415.95" y1="275.289" x2="454.771" y2="275.289" gradientUnits="userSpaceOnUse">
<stop stop-color="#00FFDF"/>
<stop offset="1" stop-color="#00C3D4"/>
</linearGradient>
<clipPath id="clip0">
<rect width="594" height="533" fill="white" transform="translate(0 52)"/>
</clipPath>
</defs>
</svg>
