<svg width="2048" height="1314" viewBox="0 0 2048 1314" fill="none" xmlns="http://www.w3.org/2000/svg">
<path d="M942.886 928.404C944.92 921.333 943.902 913.701 940.024 906.959C936.146 900.217 929.679 894.834 921.851 891.833C914.024 888.832 905.38 888.422 897.563 890.68C889.745 892.938 883.299 897.708 879.447 904.083C877.471 898.879 873.784 894.242 868.875 890.787C863.966 887.332 858.067 885.223 851.96 884.739C851.301 884.687 850.643 884.635 849.994 884.644C847.744 877.15 843.134 870.27 836.716 864.824C830.298 859.379 822.343 855.599 813.802 853.937C805.262 852.274 796.496 852.8 788.553 855.45C780.611 858.101 773.827 862.764 769.013 868.883C764.895 866.662 760.297 865.299 755.59 864.904C750.883 864.509 746.199 865.093 741.913 866.61C737.627 868.126 733.859 870.532 730.913 873.634C727.967 876.737 725.925 880.448 724.951 884.472C720.008 880.101 713.629 877.26 706.851 876.413C700.074 875.566 693.3 876.763 687.632 879.807C684.317 875.832 679.895 872.667 674.836 870.649C669.776 868.63 664.268 867.833 658.897 868.342C653.525 868.852 648.491 870.648 644.329 873.541C640.167 876.434 637.032 880.316 635.258 884.773C631.083 880.284 625.66 876.823 619.578 874.766C613.495 872.71 606.983 872.135 600.748 873.105C597.633 867.069 592.506 861.945 586.091 858.457C579.676 854.968 572.295 853.29 564.988 853.659C558.812 847.682 550.422 843.884 541.522 843.038C532.622 842.191 523.879 844.359 517.068 849.101C510.924 847.005 504.338 846.423 498.038 847.419C491.738 848.414 485.969 850.948 481.368 854.742C478.572 849.543 474.266 845.04 468.913 841.717C463.561 838.394 457.365 836.377 450.993 835.883L450.754 835.864C447.786 826.974 441.489 819.095 432.929 813.56C424.369 808.024 414.071 805.173 403.778 805.487C393.485 805.801 383.827 809.262 376.44 815.284C369.053 821.306 364.388 829.519 363.236 838.535C362.635 838.488 362.022 838.439 361.409 838.391C355.384 837.907 349.395 838.705 343.946 840.718C338.498 842.731 333.748 845.899 330.096 849.958C326.444 854.016 323.997 858.846 322.96 864.041C321.923 869.237 322.326 874.646 324.136 879.815C325.946 884.984 329.109 889.761 333.361 893.746C337.612 897.73 342.828 900.806 348.569 902.714C354.31 904.622 360.409 905.307 366.354 904.711C372.298 904.116 377.915 902.257 382.733 899.291L556.399 913.009C562.928 915.542 570.057 916.329 576.871 915.269C579.637 920.645 584.008 925.312 589.489 928.743C594.971 932.173 601.344 934.229 607.889 934.679C614.434 935.13 620.889 933.956 626.525 931.29C632.161 928.625 636.752 924.574 639.781 919.596L686.313 923.272C691.233 926.758 697.159 928.886 703.296 929.371C709.433 929.856 715.487 928.674 720.644 925.984L839.402 935.365C846.135 938.159 853.651 938.752 860.557 937.036L884.833 938.954C889.94 944.025 896.7 947.56 904.072 949.014C903.989 949.7 903.917 950.387 903.89 951.087C903.714 956.036 905.11 961.007 907.921 965.439C910.732 969.87 914.845 973.586 919.796 976.168C924.748 978.749 930.341 980.093 935.944 980.048C941.548 980.003 946.938 978.571 951.508 975.913C956.078 973.254 959.645 969.476 961.806 965.005C963.968 960.533 964.639 955.546 963.742 950.606C962.845 945.666 960.418 940.969 956.732 937.046C953.047 933.123 948.252 930.13 942.886 928.404Z" fill="#D9D9D9"/>
<path d="M934.299 838.822C932.687 831.53 934.15 824.049 938.411 817.798C942.671 811.548 949.431 806.964 957.407 804.918C965.384 802.872 974.021 803.506 981.678 806.699C989.334 809.892 995.478 815.423 998.942 822.24C1001.22 817.293 1005.16 813.117 1010.26 810.267C1015.35 807.416 1021.35 806.026 1027.47 806.281C1028.13 806.308 1028.79 806.336 1029.43 806.423C1032.11 799.227 1037.11 792.927 1043.83 788.275C1050.54 783.623 1058.69 780.817 1067.3 780.19C1075.91 779.564 1084.61 781.145 1092.37 784.745C1100.13 788.344 1106.61 793.809 1111.05 800.487C1115.29 798.77 1119.95 797.967 1124.66 798.141C1129.37 798.316 1134.01 799.463 1138.19 801.491C1142.37 803.519 1145.98 806.371 1148.74 809.817C1151.49 813.264 1153.31 817.209 1154.04 821.336C1159.22 817.576 1165.75 815.516 1172.55 815.489C1179.35 815.463 1186.03 817.472 1191.5 821.19C1195.04 817.629 1199.63 815.008 1204.79 813.607C1209.95 812.206 1215.49 812.076 1220.81 813.232C1226.13 814.387 1231.04 816.785 1235.02 820.17C1239 823.554 1241.89 827.8 1243.4 832.456C1247.82 828.486 1253.43 825.692 1259.61 824.376C1265.79 823.061 1272.32 823.273 1278.47 824.992C1281.93 819.353 1287.34 814.866 1293.94 812.164C1300.53 809.462 1307.99 808.68 1315.25 809.929C1321.75 804.718 1330.34 801.946 1339.25 802.176C1348.17 802.406 1356.76 805.621 1363.26 811.168C1369.51 809.821 1376.11 810.035 1382.33 811.787C1388.54 813.539 1394.14 816.76 1398.51 821.095C1401.6 816.252 1406.15 812.285 1411.68 809.619C1417.21 806.953 1423.5 805.691 1429.88 805.967L1430.12 805.977C1433.6 797.477 1440.34 790.385 1449.19 785.903C1458.05 781.42 1468.48 779.82 1478.71 781.375C1488.95 782.93 1498.37 787.543 1505.38 794.435C1512.39 801.327 1516.55 810.074 1517.17 819.197C1517.77 819.222 1518.39 819.248 1519 819.273C1525.03 819.518 1530.95 821.036 1536.26 823.699C1541.58 826.361 1546.12 830.092 1549.52 834.577C1552.92 839.061 1555.08 844.169 1555.81 849.471C1556.53 854.773 1555.81 860.115 1553.71 865.047C1551.6 869.979 1548.17 874.358 1543.7 877.815C1539.23 881.273 1533.85 883.708 1528.02 884.917C1522.18 886.126 1516.07 886.073 1510.18 884.762C1504.29 883.451 1498.8 880.921 1494.17 877.385L1320.32 870.105C1313.66 871.841 1306.51 871.765 1299.79 869.887C1296.71 874.911 1292.09 879.034 1286.42 881.791C1280.76 884.548 1274.29 885.828 1267.74 885.487C1261.19 885.146 1254.83 883.197 1249.37 879.861C1243.91 876.526 1239.57 871.935 1236.85 866.61L1190.26 864.659C1185.16 867.539 1179.13 868.945 1172.98 868.688C1166.84 868.431 1160.88 866.523 1155.89 863.22L1037.01 858.242C1030.13 860.213 1022.61 859.898 1015.83 857.355L991.526 856.337C986.139 860.775 979.195 863.482 971.765 864.042C971.807 864.735 971.839 865.428 971.824 866.129C971.709 871.082 970.025 875.866 966.964 879.943C963.903 884.02 959.586 887.227 954.501 889.202C949.415 891.177 943.763 891.841 938.182 891.12C932.601 890.4 927.314 888.322 922.916 885.122C918.519 881.922 915.187 877.727 913.296 873.011C911.404 868.294 911.029 863.244 912.213 858.429C913.396 853.615 916.092 849.228 919.994 845.763C923.897 842.299 928.851 839.895 934.299 838.822Z" fill="#D9D9D9"/>
<path d="M1465.05 821.008C1463.46 812.614 1464.95 803.983 1469.23 796.753C1473.51 789.522 1480.28 784.197 1488.27 781.788C1496.25 779.379 1504.89 780.055 1512.53 783.686C1520.18 787.317 1526.31 793.651 1529.75 801.485C1532.04 795.769 1536 790.932 1541.11 787.615C1546.21 784.297 1552.22 782.657 1558.33 782.911C1558.99 782.939 1559.65 782.966 1560.29 783.063C1563 774.753 1568.02 767.461 1574.75 762.057C1581.48 756.653 1589.64 753.366 1598.25 752.59C1606.86 751.814 1615.56 753.58 1623.31 757.678C1631.06 761.777 1637.53 768.033 1641.94 775.701C1646.18 773.696 1650.85 772.74 1655.56 772.911C1660.27 773.082 1664.91 774.374 1669.08 776.685C1673.26 778.995 1676.86 782.259 1679.6 786.213C1682.35 790.167 1684.15 794.702 1684.87 799.453C1690.07 795.088 1696.6 792.671 1703.4 792.597C1710.21 792.523 1716.88 794.796 1722.34 799.046C1725.89 794.919 1730.49 791.87 1735.65 790.223C1740.82 788.575 1746.36 788.39 1751.68 789.688C1756.99 790.985 1761.9 793.717 1765.87 797.592C1769.83 801.468 1772.72 806.342 1774.21 811.698C1778.64 807.095 1784.26 803.839 1790.45 802.283C1796.63 800.728 1803.16 800.931 1809.31 802.872C1812.79 796.352 1818.21 791.147 1824.82 787.991C1831.42 784.835 1838.88 783.886 1846.14 785.279C1852.66 779.232 1861.25 775.983 1870.17 776.191C1879.09 776.399 1887.66 780.049 1894.16 786.4C1900.41 784.808 1907 785.013 1913.22 786.992C1919.43 788.971 1925.02 792.648 1929.37 797.616C1932.48 792.015 1937.05 787.413 1942.58 784.306C1948.12 781.199 1954.42 779.704 1960.8 779.981L1961.04 779.991C1964.54 770.173 1971.3 761.958 1980.17 756.735C1989.04 751.513 1999.48 749.603 2009.71 751.329C2019.95 753.056 2029.36 758.312 2036.34 766.21C2043.33 774.107 2047.47 784.161 2048.06 794.67C2048.66 794.696 2049.27 794.721 2049.89 794.747C2055.92 794.991 2061.84 796.702 2067.14 799.737C2072.44 802.771 2076.98 807.042 2080.37 812.188C2083.75 817.335 2085.89 823.207 2086.6 829.313C2087.31 835.418 2086.58 841.578 2084.46 847.276C2082.33 852.973 2078.89 858.041 2074.4 862.054C2069.92 866.068 2064.54 868.909 2058.7 870.339C2052.86 871.769 2046.74 871.747 2040.86 870.274C2034.97 868.801 2029.49 865.921 2024.88 861.874L1851.02 854.594C1844.36 856.637 1837.21 856.595 1830.49 854.474C1827.4 860.283 1822.76 865.065 1817.08 868.278C1811.41 871.491 1804.93 873.008 1798.39 872.657C1791.84 872.306 1785.48 870.101 1780.03 866.291C1774.58 862.481 1770.26 857.219 1767.55 851.099L1720.97 849.149C1715.85 852.5 1709.81 854.159 1703.67 853.902C1697.53 853.645 1691.57 851.484 1686.6 847.709L1567.71 842.731C1560.83 845.047 1553.31 844.732 1546.53 841.845L1522.23 840.827C1516.83 845.975 1509.87 849.139 1502.44 849.832C1502.48 850.631 1502.51 851.429 1502.49 852.237C1502.36 857.945 1500.66 863.47 1497.59 868.188C1494.52 872.905 1490.19 876.629 1485.1 878.937C1480 881.245 1474.35 882.047 1468.77 881.252C1463.19 880.457 1457.91 878.097 1453.52 874.437C1449.13 870.777 1445.81 865.964 1443.94 860.541C1442.06 855.118 1441.7 849.3 1442.9 843.744C1444.1 838.188 1446.81 833.115 1450.72 829.098C1454.63 825.08 1459.6 822.278 1465.05 821.008Z" fill="#D9D9D9"/>
<path d="M1255.56 868.412C1253.57 855.473 1255.57 842.153 1261.16 830.982C1266.76 819.81 1275.56 811.565 1285.9 807.813C1296.23 804.061 1307.39 805.063 1317.24 810.629C1327.1 816.195 1334.96 825.937 1339.34 838.004C1342.35 829.177 1347.51 821.698 1354.14 816.558C1360.76 811.418 1368.54 808.861 1376.44 809.225C1377.29 809.264 1378.14 809.304 1378.97 809.45C1382.54 796.621 1389.09 785.35 1397.83 776.984C1406.58 768.618 1417.15 763.512 1428.28 762.274C1439.42 761.037 1450.65 763.722 1460.63 770.008C1470.61 776.294 1478.91 785.915 1484.56 797.721C1490.05 794.608 1496.09 793.113 1502.18 793.355C1508.27 793.597 1514.24 795.57 1519.62 799.114C1525 802.658 1529.63 807.676 1533.14 813.762C1536.65 819.849 1538.94 826.835 1539.84 834.16C1546.59 827.403 1555.05 823.645 1563.84 823.5C1572.64 823.355 1581.24 826.831 1588.26 833.36C1592.88 826.979 1598.85 822.255 1605.54 819.69C1612.23 817.125 1619.39 816.815 1626.25 818.792C1633.12 820.769 1639.43 824.96 1644.52 830.919C1649.62 836.878 1653.3 844.384 1655.18 852.638C1660.96 845.517 1668.24 840.47 1676.25 838.042C1684.26 835.614 1692.69 835.898 1700.62 838.864C1705.17 828.791 1712.23 820.738 1720.79 815.84C1729.36 810.941 1739 809.444 1748.37 811.56C1756.85 802.203 1767.98 797.152 1779.51 797.432C1791.03 797.713 1802.08 803.303 1810.42 813.069C1818.51 810.584 1827.03 810.87 1835.05 813.894C1843.06 816.919 1850.26 822.564 1855.83 830.207C1859.9 821.554 1865.84 814.435 1873.02 809.617C1880.21 804.799 1888.36 802.464 1896.6 802.864L1896.91 802.878C1901.52 787.718 1910.33 775.016 1921.84 766.92C1933.35 758.824 1946.85 755.83 1960.06 758.446C1973.27 761.062 1985.39 769.127 1994.35 781.276C2003.31 793.425 2008.57 808.913 2009.25 825.12C2010.02 825.156 2010.82 825.193 2011.61 825.23C2019.4 825.578 2027.03 828.19 2033.86 832.847C2040.69 837.504 2046.52 844.069 2050.85 851.992C2055.18 859.914 2057.9 868.962 2058.77 878.376C2059.63 887.79 2058.63 897.295 2055.84 906.092C2053.05 914.89 2048.55 922.723 2042.72 928.933C2036.89 935.143 2029.91 939.55 2022.35 941.783C2014.8 944.016 2006.89 944.009 1999.3 941.764C1991.7 939.52 1984.64 935.102 1978.71 928.882L1754.09 918.449C1745.46 921.631 1736.22 921.599 1727.55 918.358C1723.51 927.332 1717.47 934.728 1710.11 939.71C1702.75 944.692 1694.37 947.061 1685.91 946.55C1677.45 946.038 1669.25 942.666 1662.24 936.815C1655.23 930.964 1649.69 922.868 1646.24 913.44L1586.06 910.645C1579.41 915.838 1571.6 918.424 1563.66 918.056C1555.72 917.687 1548.04 914.381 1541.65 908.583L1388.05 901.449C1379.13 905.052 1369.41 904.601 1360.68 900.178L1329.28 898.719C1322.26 906.685 1313.25 911.597 1303.63 912.699C1303.68 913.931 1303.71 915.163 1303.68 916.409C1303.46 925.214 1301.22 933.743 1297.21 941.034C1293.2 948.324 1287.57 954.087 1280.97 957.671C1274.37 961.255 1267.05 962.517 1259.85 961.316C1252.65 960.115 1245.84 956.499 1240.2 950.874C1234.56 945.25 1230.31 937.842 1227.93 929.485C1225.55 921.129 1225.14 912.157 1226.74 903.582C1228.33 895.007 1231.88 887.17 1236.97 880.956C1242.06 874.742 1248.5 870.397 1255.56 868.412Z" fill="white"/>
<path d="M1255.56 868.412C1253.57 855.473 1255.57 842.153 1261.16 830.982C1266.76 819.81 1275.56 811.565 1285.9 807.813C1296.23 804.061 1307.39 805.063 1317.24 810.629C1327.1 816.195 1334.96 825.937 1339.34 838.004C1342.35 829.177 1347.51 821.698 1354.14 816.558C1360.76 811.418 1368.54 808.861 1376.44 809.225C1377.29 809.264 1378.14 809.304 1378.97 809.45C1382.54 796.621 1389.09 785.35 1397.83 776.984C1406.58 768.618 1417.15 763.512 1428.28 762.274C1439.42 761.037 1450.65 763.722 1460.63 770.008C1470.61 776.294 1478.91 785.915 1484.56 797.721C1490.05 794.608 1496.09 793.113 1502.18 793.355C1508.27 793.597 1514.24 795.57 1519.62 799.114C1525 802.658 1529.63 807.676 1533.14 813.762C1536.65 819.849 1538.94 826.835 1539.84 834.16C1546.59 827.403 1555.05 823.645 1563.84 823.5C1572.64 823.355 1581.24 826.831 1588.26 833.36C1592.88 826.979 1598.85 822.255 1605.54 819.69C1612.23 817.125 1619.39 816.815 1626.25 818.792C1633.12 820.769 1639.43 824.96 1644.52 830.919C1649.62 836.878 1653.3 844.384 1655.18 852.638C1660.96 845.517 1668.24 840.47 1676.25 838.042C1684.26 835.614 1692.69 835.898 1700.62 838.864C1705.17 828.791 1712.23 820.738 1720.79 815.84C1729.36 810.941 1739 809.444 1748.37 811.56C1756.85 802.203 1767.98 797.152 1779.51 797.432C1791.03 797.713 1802.08 803.303 1810.42 813.069C1818.51 810.584 1827.03 810.87 1835.05 813.894C1843.06 816.919 1850.26 822.564 1855.83 830.207C1859.9 821.554 1865.84 814.435 1873.02 809.617C1880.21 804.799 1888.36 802.464 1896.6 802.864L1896.91 802.878C1901.52 787.718 1910.33 775.016 1921.84 766.92C1933.35 758.824 1946.85 755.83 1960.06 758.446C1973.27 761.062 1985.39 769.127 1994.35 781.276C2003.31 793.425 2008.57 808.913 2009.25 825.12C2010.02 825.156 2010.82 825.193 2011.61 825.23C2019.4 825.578 2027.03 828.19 2033.86 832.847C2040.69 837.504 2046.52 844.069 2050.85 851.992C2055.18 859.914 2057.9 868.962 2058.77 878.376C2059.63 887.79 2058.63 897.295 2055.84 906.092C2053.05 914.89 2048.55 922.723 2042.72 928.933C2036.89 935.143 2029.91 939.55 2022.35 941.783C2014.8 944.016 2006.89 944.009 1999.3 941.764C1991.7 939.52 1984.64 935.102 1978.71 928.882L1754.09 918.449C1745.46 921.631 1736.22 921.599 1727.55 918.358C1723.51 927.332 1717.47 934.728 1710.11 939.71C1702.75 944.692 1694.37 947.061 1685.91 946.55C1677.45 946.038 1669.25 942.666 1662.24 936.815C1655.23 930.964 1649.69 922.868 1646.24 913.44L1586.06 910.645C1579.41 915.838 1571.6 918.424 1563.66 918.056C1555.72 917.687 1548.04 914.381 1541.65 908.583L1388.05 901.449C1379.13 905.052 1369.41 904.601 1360.68 900.178L1329.28 898.719C1322.26 906.685 1313.25 911.597 1303.63 912.699C1303.68 913.931 1303.71 915.163 1303.68 916.409C1303.46 925.214 1301.22 933.743 1297.21 941.034C1293.2 948.324 1287.57 954.087 1280.97 957.671C1274.37 961.255 1267.05 962.517 1259.85 961.316C1252.65 960.115 1245.84 956.499 1240.2 950.874C1234.56 945.25 1230.31 937.842 1227.93 929.485C1225.55 921.129 1225.14 912.157 1226.74 903.582C1228.33 895.007 1231.88 887.17 1236.97 880.956C1242.06 874.742 1248.5 870.397 1255.56 868.412Z" fill="white"/>
<path d="M2074.02 888.529C2077.14 878.197 2074.53 867.602 2066.67 858.757C2058.81 849.912 2046.25 843.432 2031.39 840.549C2016.52 837.666 2000.38 838.58 1986.03 843.118C1971.69 847.656 1960.13 855.502 1953.55 865.165C1949.38 858.161 1942.07 852.254 1932.6 848.226C1923.13 844.199 1911.95 842.241 1900.52 842.613C1899.29 842.654 1898.06 842.694 1896.85 842.819C1891.96 832.631 1882.72 823.717 1870.25 817.14C1857.78 810.564 1842.61 806.603 1826.54 805.733C1810.47 804.863 1794.19 807.119 1779.65 812.232C1765.1 817.345 1752.91 825.099 1744.52 834.567C1736.63 832.143 1727.94 831.014 1719.14 831.27C1710.33 831.526 1701.66 833.16 1693.82 836.041C1685.98 838.921 1679.19 842.968 1673.99 847.855C1668.8 852.743 1665.34 858.334 1663.91 864.181C1654.29 858.866 1642.14 855.959 1629.43 855.935C1616.73 855.91 1604.22 858.77 1593.95 864.046C1587.4 859.009 1578.86 855.306 1569.25 853.331C1559.63 851.356 1549.3 851.183 1539.34 852.83C1529.38 854.477 1520.17 857.882 1512.69 862.685C1505.21 867.487 1499.74 873.506 1496.86 880.104C1488.65 874.489 1478.23 870.542 1466.7 868.69C1455.18 866.839 1442.99 867.153 1431.47 869.598C1425.1 861.618 1415.06 855.273 1402.79 851.458C1390.51 847.643 1376.6 846.55 1363.02 848.333C1350.95 840.964 1334.97 837.054 1318.31 837.397C1301.65 837.74 1285.57 842.31 1273.33 850.18C1261.68 848.284 1249.36 848.6 1237.72 851.093C1226.08 853.587 1215.57 858.16 1207.36 864.309C1201.66 857.455 1193.21 851.843 1182.93 848.078C1172.64 844.313 1160.91 842.537 1149 842.94L1148.55 842.955C1142.18 830.921 1129.71 820.889 1113.24 814.556C1096.77 808.223 1077.32 805.978 1058.18 808.2C1039.03 810.422 1021.37 816.975 1008.18 826.75C994.982 836.526 987.068 848.924 985.772 861.847C984.647 861.884 983.501 861.922 982.355 861.959C971.085 862.318 960.005 864.479 950.045 868.261C940.085 872.043 931.536 877.336 925.116 883.695C918.696 890.054 914.593 897.293 913.151 904.805C911.709 912.316 912.97 919.881 916.829 926.863C920.688 933.845 927.031 940.041 935.327 944.93C943.622 949.819 953.627 953.259 964.501 954.96C975.375 956.661 986.801 956.574 997.819 954.706C1008.84 952.838 1019.13 949.244 1027.82 944.226L1352.62 933.581C1365.02 936.027 1378.37 935.905 1390.97 933.232C1396.63 940.342 1405.21 946.174 1415.74 950.068C1426.28 953.963 1438.34 955.764 1450.58 955.268C1462.81 954.773 1474.73 952 1484.97 947.265C1495.22 942.529 1503.39 936.018 1508.56 928.469L1595.59 925.617C1605.08 929.687 1616.32 931.667 1627.8 931.291C1639.28 930.915 1650.44 928.201 1659.8 923.513L1881.91 916.233C1894.71 919.013 1908.77 918.552 1921.47 914.937L1966.87 913.449C1976.87 919.724 1989.79 923.545 2003.66 924.324C2003.57 925.306 2003.5 926.288 2003.52 927.281C2003.66 934.296 2006.73 941.07 2012.38 946.839C2018.03 952.608 2026.04 957.142 2035.51 959.93C2044.98 962.718 2055.52 963.648 2065.96 962.616C2076.39 961.584 2086.3 958.631 2094.56 954.09C2102.82 949.549 2109.11 943.601 2112.72 936.916C2116.32 930.232 2117.1 923.077 2114.96 916.26C2112.83 909.443 2107.86 903.234 2100.63 898.334C2093.39 893.434 2084.18 890.038 2074.02 888.529Z" fill="white"/>
<path d="M1162.01 913.944C1164.22 903.642 1162.28 893.025 1156.57 884.109C1150.86 875.193 1141.78 868.6 1131.04 865.582C1120.3 862.563 1108.66 863.33 1098.33 867.737C1088 872.143 1079.69 879.882 1074.99 889.483C1071.95 882.443 1066.65 876.47 1059.8 872.356C1052.95 868.243 1044.87 866.183 1036.63 866.451C1035.75 866.48 1034.86 866.509 1033.99 866.623C1030.41 856.393 1023.7 847.395 1014.68 840.705C1005.65 834.016 994.687 829.918 983.092 828.901C971.496 827.884 959.761 829.992 949.289 834.971C938.818 839.951 930.053 847.592 924.042 856.982C918.344 854.487 912.068 853.278 905.716 853.454C899.365 853.63 893.115 855.184 887.471 857.993C881.827 860.801 876.946 864.785 873.219 869.625C869.492 874.464 867.025 880.023 866.015 885.856C859.052 880.454 850.272 877.437 841.105 877.296C831.939 877.156 822.929 879.9 815.542 885.082C810.794 879.986 804.619 876.206 797.673 874.143C790.728 872.081 783.27 871.814 776.093 873.369C768.916 874.925 762.288 878.246 756.912 882.979C751.537 887.712 747.615 893.681 745.563 900.252C739.621 894.563 732.08 890.521 723.757 888.564C715.433 886.608 706.645 886.81 698.341 889.151C693.708 881.113 686.442 874.677 677.566 870.751C668.69 866.824 658.651 865.605 648.864 867.264C640.124 859.785 628.572 855.73 616.555 855.921C604.538 856.112 592.955 860.535 584.158 868.291C575.75 866.289 566.861 866.493 558.473 868.88C550.085 871.266 542.524 875.743 536.625 881.816C532.483 874.911 526.365 869.223 518.929 865.365C511.493 861.506 503.021 859.623 494.425 859.918L494.103 859.929C489.455 847.838 480.411 837.694 468.502 831.212C456.593 824.729 442.55 822.307 428.747 824.353C414.944 826.4 402.23 832.791 392.755 842.445C383.279 852.098 377.625 864.422 376.747 877.332C375.936 877.359 375.109 877.386 374.282 877.413C366.153 877.668 358.169 879.728 350.999 883.418C343.83 887.109 337.686 892.323 333.082 898.623C328.479 904.922 325.551 912.123 324.544 919.62C323.537 927.118 324.48 934.693 327.295 941.709C330.11 948.725 334.715 954.978 340.721 959.942C346.728 964.907 353.962 968.437 361.815 970.237C369.668 972.037 377.911 972.054 385.852 970.287C393.793 968.52 401.199 965.02 407.45 960.082L641.737 952.403C650.695 954.962 660.33 954.963 669.402 952.405C673.518 959.566 679.735 965.475 687.353 969.465C694.971 973.455 703.684 975.366 712.508 974.982C721.333 974.598 729.916 971.935 737.288 967.294C744.66 962.652 750.527 956.217 754.226 948.717L817 946.659C823.868 950.815 831.986 952.897 840.265 952.626C848.544 952.355 856.587 949.743 863.315 945.141L1023.53 939.891C1032.78 942.787 1042.92 942.454 1052.07 938.955L1084.82 937.882C1092.05 944.247 1101.4 948.186 1111.41 949.091C1111.35 950.073 1111.3 951.054 1111.32 952.047C1111.45 959.062 1113.69 965.863 1117.8 971.683C1121.9 977.502 1127.7 982.109 1134.55 984.983C1141.39 987.856 1149 988.883 1156.52 987.946C1164.05 987.01 1171.18 984.148 1177.12 979.683C1183.06 975.218 1187.57 969.328 1190.14 962.677C1192.71 956.027 1193.24 948.88 1191.67 942.045C1190.1 935.209 1186.49 928.955 1181.25 923.99C1176.01 919.025 1169.35 915.545 1162.01 913.944Z" fill="white"/>
<path d="M1633.45 925.853C1631.11 916.079 1631.38 906.89 1634.22 899.503C1634.53 898.707 1634.83 897.911 1635.23 897.201C1625.25 885.326 1617.57 871.598 1613.11 857.657C1608.66 843.717 1607.61 830.154 1610.09 818.59C1612.58 807.026 1618.49 797.951 1627.13 792.448C1635.77 786.945 1646.76 785.248 1658.79 787.559C1657.85 780.207 1658.48 773.396 1660.64 767.676C1662.8 761.955 1666.41 757.484 1671.2 754.623C1675.99 751.761 1681.82 750.588 1688.22 751.199C1694.62 751.81 1701.4 754.187 1708.04 758.139C1704.34 747.182 1703.78 736.544 1706.47 727.958C1709.15 719.373 1714.91 713.348 1722.81 710.865C1718.76 702.21 1716.57 693.339 1716.49 685.195C1716.4 677.051 1718.42 669.938 1722.33 664.611C1726.23 659.284 1731.88 655.942 1738.67 654.941C1745.47 653.939 1753.15 655.315 1760.9 658.923C1756.58 648.669 1754.53 638.318 1754.98 628.99C1755.44 619.662 1758.38 611.712 1763.48 606.002C1756.21 594.99 1751.48 582.887 1749.97 571.399C1748.46 559.91 1750.25 549.615 1755.07 541.963C1749.67 527.625 1748.85 513.557 1752.78 502.616C1756.7 491.674 1765.08 484.678 1776.2 483.049C1776.64 473.604 1779.61 465.563 1784.79 459.813C1789.97 454.063 1797.16 450.828 1805.57 450.466C1799.37 440.856 1795.09 430.44 1793.21 420.339C1791.33 410.237 1791.91 400.834 1794.89 393.139L1795 392.851C1783.34 378.431 1775.14 361.579 1771.8 345.148C1768.46 328.717 1770.18 313.714 1776.67 302.678C1783.16 291.642 1794.02 285.249 1807.41 284.581C1820.81 283.914 1835.91 289.012 1850.17 299.015L1851.02 296.805C1853.81 289.509 1858.52 283.858 1864.73 280.327C1870.95 276.795 1903.49 275.486 1911.74 276.51L2242.5 276.51L2242.5 974.49L1716.49 974.49C1711.35 972.656 1672 965.909 1657 954.445C1642 942.981 1634.59 930.601 1633.45 925.853Z" fill="white"/>
<path d="M-511.322 956.181C-514.005 946.039 -512.299 935.302 -506.528 926.01C-500.757 916.718 -491.322 909.518 -480.017 905.777C-468.711 902.036 -456.322 902.015 -445.202 905.719C-434.082 909.422 -425.006 916.591 -419.698 925.865C-416.699 918.626 -411.27 912.301 -404.128 907.729C-396.987 903.157 -388.472 900.554 -379.713 900.265C-378.768 900.234 -377.824 900.203 -376.895 900.258C-373.43 889.796 -366.606 880.355 -357.24 873.063C-347.874 865.771 -336.361 860.936 -324.078 859.137C-311.795 857.337 -299.261 858.649 -287.974 862.916C-276.688 867.182 -267.126 874.223 -260.432 883.196C-254.463 880.318 -247.836 878.687 -241.083 878.433C-234.331 878.18 -227.642 879.31 -221.555 881.734C-215.467 884.158 -210.151 887.808 -206.033 892.39C-201.916 896.973 -199.112 902.359 -197.847 908.117C-190.629 902.25 -181.402 898.643 -171.671 897.883C-161.939 897.123 -152.278 899.256 -144.262 903.933C-139.387 898.521 -132.952 894.328 -125.642 891.798C-118.332 889.269 -110.42 888.498 -102.745 889.567C-95.0709 890.636 -87.9211 893.505 -82.0556 897.87C-76.19 902.235 -71.8277 907.932 -69.432 914.356C-63.308 908.272 -55.4315 903.725 -46.655 901.208C-37.8786 898.691 -28.5365 898.299 -19.6399 900.076C-14.9837 891.734 -7.47751 884.814 1.82128 880.292C11.1201 875.77 21.7428 873.873 32.1929 874.869C41.2308 866.808 53.3668 861.976 66.1374 861.355C78.908 860.733 91.3563 864.368 100.956 871.522C109.82 868.954 119.269 868.556 128.257 870.373C137.246 872.191 145.424 876.152 151.889 881.82C156.061 874.642 162.373 868.547 170.144 864.19C177.916 859.833 186.853 857.379 195.993 857.093L196.335 857.082C200.874 844.69 210.146 833.946 222.582 826.666C235.018 819.385 249.855 816.016 264.584 817.128C279.312 818.24 293.027 823.764 303.409 832.767C313.791 841.77 320.203 853.698 321.56 866.535C322.423 866.506 323.302 866.478 324.181 866.449C332.824 866.155 341.373 867.672 349.109 870.874C356.846 874.077 363.544 878.87 368.641 884.851C373.738 890.833 377.085 897.828 378.401 905.249C379.718 912.67 378.965 920.301 376.206 927.5C373.447 934.699 368.762 941.256 362.545 946.621C356.329 951.986 348.761 956.001 340.479 958.33C332.197 960.659 323.442 961.233 314.949 960.005C306.457 958.777 298.474 955.781 291.673 951.271L42.5662 959.435C33.1347 962.597 22.901 963.248 13.1802 961.306C9.04482 968.738 2.63494 975.061 -5.32491 979.561C-13.2848 984.061 -22.4772 986.559 -31.8629 986.772C-41.2486 986.985 -50.4533 984.905 -58.4366 980.767C-66.4198 976.629 -72.8631 970.597 -77.0382 963.355L-143.784 965.542C-150.942 970.158 -159.496 972.787 -168.299 973.075C-177.101 973.364 -185.731 971.298 -193.029 967.156L-363.376 972.739C-373.107 976.258 -383.887 976.611 -393.72 973.734L-428.542 974.875C-436.019 981.723 -445.813 986.289 -456.415 987.869C-456.318 988.846 -456.237 989.822 -456.221 990.816C-456.13 997.832 -458.291 1004.78 -462.459 1010.87C-466.627 1016.96 -472.637 1021.95 -479.811 1025.29C-486.985 1028.62 -495.037 1030.16 -503.058 1029.73C-511.08 1029.31 -518.752 1026.93 -525.209 1022.87C-531.666 1018.81 -536.65 1013.23 -539.6 1006.76C-542.55 1000.29 -543.348 993.19 -541.904 986.255C-540.46 979.321 -536.832 972.83 -531.428 967.516C-526.024 962.202 -519.06 958.276 -511.322 956.181Z" fill="white"/>
<rect x="-10" y="917" width="2250" height="134" fill="white"/>
</svg>
