<svg width="2048" height="416" viewBox="0 0 2048 416" fill="none" xmlns="http://www.w3.org/2000/svg">
<path d="M1859.86 326.46C1864.84 315.567 1866.33 303.247 1864.02 291.84C1861.72 280.433 1855.79 270.733 1847.36 264.583C1838.93 258.433 1828.59 256.262 1818.3 258.481C1808.01 260.701 1798.49 267.156 1791.55 276.621C1791 267.995 1788.18 259.97 1783.46 253.611C1778.73 247.253 1772.32 242.861 1765.09 241.018C1764.31 240.82 1763.53 240.621 1762.74 240.521C1762.68 228.204 1759.53 216.448 1753.69 206.657C1747.84 196.866 1739.53 189.455 1729.76 185.31C1719.99 181.165 1709.17 180.461 1698.59 183.282C1688.01 186.103 1678.12 192.331 1670.1 201.219C1665.89 196.962 1660.8 193.986 1655.23 192.531C1649.66 191.076 1643.76 191.182 1638.02 192.841C1632.28 194.501 1626.86 197.666 1622.18 202.084C1617.5 206.502 1613.7 212.049 1611.08 218.278C1606.64 210.456 1599.91 204.816 1591.99 202.278C1584.07 199.739 1575.43 200.453 1567.47 204.301C1564.86 197.395 1560.62 191.583 1555.2 187.482C1549.78 183.382 1543.38 181.146 1536.68 181.012C1529.99 180.879 1523.24 182.853 1517.16 186.724C1511.08 190.595 1505.89 196.219 1502.15 202.999C1498.68 195.123 1493.34 188.665 1486.69 184.324C1480.04 179.984 1472.35 177.925 1464.44 178.372C1462.81 168.222 1458.41 159.171 1451.87 152.494C1445.33 145.817 1436.97 141.851 1427.97 141.154C1422.61 130.559 1413.78 123.044 1403.29 120.134C1392.79 117.223 1381.41 119.136 1371.46 125.483C1364.75 121.07 1356.96 118.986 1348.97 119.463C1340.97 119.94 1333.06 122.958 1326.13 128.185C1324.59 119.423 1320.97 111.502 1315.66 105.275C1310.35 99.0479 1303.55 94.7503 1295.99 92.8448L1295.71 92.773C1295.28 78.1084 1290.44 64.4675 1282.03 54.1576C1273.61 43.8477 1262.13 37.5017 1249.53 36.1931C1236.93 34.8845 1223.98 38.6936 1212.88 46.976C1201.77 55.2585 1193.18 67.5059 1188.57 81.6465C1187.86 81.4652 1187.14 81.2805 1186.41 81.0959C1179.27 79.2677 1171.72 79.4851 1164.39 81.7299C1157.07 83.9747 1150.17 88.1813 1144.3 93.9964C1138.42 99.8115 1133.73 107.065 1130.62 115.148C1127.52 123.231 1126.08 131.908 1126.43 140.449C1126.79 148.99 1128.92 157.146 1132.66 164.232C1136.4 171.318 1141.64 177.127 1147.92 181.171C1154.21 185.216 1161.36 187.377 1168.79 187.474C1176.21 187.571 1183.69 185.6 1190.59 181.728L1396.42 234.065C1403.44 239.241 1411.81 241.745 1420.45 241.256C1421.89 250.296 1425.53 258.489 1430.96 264.909C1436.39 271.329 1443.39 275.72 1451.17 277.586C1458.95 279.452 1467.2 278.719 1474.99 275.468C1482.78 272.218 1489.79 266.581 1495.24 259.193L1550.39 273.216C1555.11 279.627 1561.55 284.054 1568.82 285.903C1576.09 287.753 1583.86 286.936 1591.07 283.563L1731.82 319.352C1739 324.98 1747.9 327.245 1756.89 325.728L1785.67 333.043C1790.06 342.009 1797 348.821 1805.42 352.429C1805.08 353.506 1804.75 354.586 1804.46 355.695C1802.49 363.538 1802.41 371.691 1804.25 379.235C1806.08 386.779 1809.74 393.413 1814.83 398.39C1819.92 403.367 1826.23 406.488 1833.04 407.401C1839.86 408.313 1846.91 406.982 1853.4 403.556C1859.89 400.13 1865.56 394.746 1869.78 388.012C1873.99 381.278 1876.58 373.462 1877.26 365.445C1877.93 357.428 1876.65 349.53 1873.58 342.641C1870.51 335.753 1865.75 330.148 1859.86 326.46Z" fill="white"/>
<path d="M1859.86 326.46C1864.84 315.567 1866.33 303.247 1864.02 291.84C1861.72 280.433 1855.79 270.733 1847.36 264.583C1838.93 258.433 1828.59 256.262 1818.3 258.481C1808.01 260.701 1798.49 267.156 1791.55 276.621C1791 267.995 1788.18 259.97 1783.46 253.611C1778.73 247.253 1772.32 242.861 1765.09 241.018C1764.31 240.82 1763.53 240.621 1762.74 240.521C1762.68 228.204 1759.53 216.448 1753.69 206.657C1747.84 196.866 1739.53 189.455 1729.76 185.31C1719.99 181.165 1709.17 180.461 1698.59 183.282C1688.01 186.103 1678.12 192.331 1670.1 201.219C1665.89 196.962 1660.8 193.986 1655.23 192.531C1649.66 191.076 1643.76 191.182 1638.02 192.841C1632.28 194.501 1626.86 197.666 1622.18 202.084C1617.5 206.502 1613.7 212.049 1611.08 218.278C1606.64 210.456 1599.91 204.816 1591.99 202.278C1584.07 199.739 1575.43 200.453 1567.47 204.301C1564.86 197.395 1560.62 191.583 1555.2 187.482C1549.78 183.382 1543.38 181.146 1536.68 181.012C1529.99 180.879 1523.24 182.853 1517.16 186.724C1511.08 190.595 1505.89 196.219 1502.15 202.999C1498.68 195.123 1493.34 188.665 1486.69 184.324C1480.04 179.984 1472.35 177.925 1464.44 178.372C1462.81 168.222 1458.41 159.171 1451.87 152.494C1445.33 145.817 1436.97 141.851 1427.97 141.154C1422.61 130.559 1413.78 123.044 1403.29 120.134C1392.79 117.223 1381.41 119.136 1371.46 125.483C1364.75 121.07 1356.96 118.986 1348.97 119.463C1340.97 119.94 1333.06 122.958 1326.13 128.185C1324.59 119.423 1320.97 111.502 1315.66 105.275C1310.35 99.0479 1303.55 94.7503 1295.99 92.8448L1295.71 92.773C1295.28 78.1084 1290.44 64.4675 1282.03 54.1576C1273.61 43.8477 1262.13 37.5017 1249.53 36.1931C1236.93 34.8845 1223.98 38.6936 1212.88 46.976C1201.77 55.2585 1193.18 67.5059 1188.57 81.6465C1187.86 81.4652 1187.14 81.2805 1186.41 81.0959C1179.27 79.2677 1171.72 79.4851 1164.39 81.7299C1157.07 83.9747 1150.17 88.1813 1144.3 93.9964C1138.42 99.8115 1133.73 107.065 1130.62 115.148C1127.52 123.231 1126.08 131.908 1126.43 140.449C1126.79 148.99 1128.92 157.146 1132.66 164.232C1136.4 171.318 1141.64 177.127 1147.92 181.171C1154.21 185.216 1161.36 187.377 1168.79 187.474C1176.21 187.571 1183.69 185.6 1190.59 181.728L1396.42 234.065C1403.44 239.241 1411.81 241.745 1420.45 241.256C1421.89 250.296 1425.53 258.489 1430.96 264.909C1436.39 271.329 1443.39 275.72 1451.17 277.586C1458.95 279.452 1467.2 278.719 1474.99 275.468C1482.78 272.218 1489.79 266.581 1495.24 259.193L1550.39 273.216C1555.11 279.627 1561.55 284.054 1568.82 285.903C1576.09 287.753 1583.86 286.936 1591.07 283.563L1731.82 319.352C1739 324.98 1747.9 327.245 1756.89 325.728L1785.67 333.043C1790.06 342.009 1797 348.821 1805.42 352.429C1805.08 353.506 1804.75 354.586 1804.46 355.695C1802.49 363.538 1802.41 371.691 1804.25 379.235C1806.08 386.779 1809.74 393.413 1814.83 398.39C1819.92 403.367 1826.23 406.488 1833.04 407.401C1839.86 408.313 1846.91 406.982 1853.4 403.556C1859.89 400.13 1865.56 394.746 1869.78 388.012C1873.99 381.278 1876.58 373.462 1877.26 365.445C1877.93 357.428 1876.65 349.53 1873.58 342.641C1870.51 335.753 1865.75 330.148 1859.86 326.46Z" fill="white"/>
<path d="M1575.5 271.5H811.5L506 170.5L245.5 168L183.5 170.5H-10V41V0H1155L1238 102.5L1575.5 271.5Z" fill="white"/>
</svg>
