<svg width="1989" height="978" viewBox="0 0 1989 978" fill="none" xmlns="http://www.w3.org/2000/svg">
<path d="M1290.16 831.516C1290.39 838.217 1292.93 844.67 1297.28 849.65C1301.64 854.629 1307.51 857.789 1313.79 858.529C1320.06 859.269 1326.3 857.536 1331.32 853.662C1336.33 849.787 1339.78 844.039 1341 837.511C1343.64 841.601 1347.37 844.779 1351.67 846.623C1355.98 848.468 1360.67 848.891 1365.13 847.838C1365.61 847.724 1366.09 847.61 1366.55 847.445C1369.92 853.479 1374.83 858.403 1380.69 861.63C1386.54 864.857 1393.09 866.249 1399.55 865.641C1406.01 865.033 1412.12 862.45 1417.13 858.2C1422.15 853.951 1425.86 848.215 1427.82 841.679C1431.28 842.631 1434.87 842.715 1438.31 841.922C1441.74 841.129 1444.93 839.482 1447.62 837.114C1450.3 834.745 1452.41 831.721 1453.77 828.285C1455.12 824.848 1455.69 821.095 1455.43 817.328C1459.98 819.968 1465.18 820.918 1470.2 820.021C1475.22 819.124 1479.75 816.434 1483.05 812.389C1486.35 815.076 1490.24 816.784 1494.32 817.331C1498.39 817.878 1502.49 817.245 1506.19 815.497C1509.88 813.75 1513.03 810.954 1515.3 807.407C1517.57 803.86 1518.88 799.694 1519.08 795.351C1523.11 798.282 1527.79 800.007 1532.6 800.34C1537.41 800.673 1542.17 799.601 1546.37 797.241C1550.02 801.786 1554.88 805.042 1560.26 806.552C1565.65 808.061 1571.29 807.747 1576.39 805.655C1582.2 809.407 1589.07 810.71 1595.59 809.298C1602.11 807.887 1607.81 803.868 1611.52 798.056C1616.39 798.409 1621.2 797.326 1625.44 794.927C1629.68 792.528 1633.18 788.907 1635.55 784.463C1638.77 788.35 1642.9 791.26 1647.49 792.882C1652.08 794.504 1656.96 794.774 1661.61 793.666L1661.78 793.624C1666 800.71 1672.35 806.102 1679.74 808.889C1687.14 811.676 1695.13 811.687 1702.37 808.919C1709.61 806.152 1715.65 800.776 1719.47 793.701C1723.29 786.627 1724.65 778.287 1723.33 770.094C1723.77 769.99 1724.21 769.884 1724.66 769.778C1729.06 768.745 1733.12 766.594 1736.51 763.508C1739.91 760.423 1742.53 756.491 1744.16 752.044C1745.79 747.598 1746.38 742.766 1745.89 737.954C1745.39 733.142 1743.82 728.491 1741.3 724.392C1738.79 720.292 1735.41 716.864 1731.44 714.396C1727.48 711.927 1723.04 710.489 1718.51 710.204C1713.98 709.919 1709.48 710.794 1705.4 712.756C1701.32 714.718 1697.77 717.709 1695.05 721.479L1568.4 751.475C1563.16 750.833 1557.91 751.868 1553.32 754.447C1550.08 750.397 1545.87 747.358 1541.16 745.674C1536.45 743.989 1531.43 743.727 1526.68 744.916C1521.92 746.105 1517.61 748.698 1514.24 752.402C1510.87 756.107 1508.57 760.774 1507.6 765.877L1473.67 773.914C1469.34 772.045 1464.63 771.611 1460.15 772.671C1455.68 773.731 1451.66 776.234 1448.63 779.844L1362.03 800.356C1356.58 799.534 1351.1 800.832 1346.6 804.01L1328.9 808.203C1324.07 804.987 1318.42 803.52 1312.84 804.028C1312.74 803.406 1312.62 802.786 1312.48 802.164C1311.43 797.777 1309.25 793.752 1306.21 790.542C1303.16 787.332 1299.35 785.066 1295.22 783.998C1291.09 782.931 1286.8 783.105 1282.83 784.501C1278.86 785.897 1275.37 788.459 1272.75 791.898C1270.13 795.338 1268.5 799.518 1268.02 803.967C1267.55 808.415 1268.26 812.956 1270.07 817.075C1271.88 821.195 1274.72 824.73 1278.27 827.282C1281.82 829.834 1285.94 831.3 1290.16 831.516Z" fill="white"/>
<path d="M386.624 68.4707C398.826 72.0239 410.339 78.5023 418.976 86.6755C427.614 94.8488 432.775 104.148 433.478 112.806C434.181 121.464 430.378 128.878 422.791 133.64C415.204 138.402 404.362 140.181 392.323 138.638C399.514 144.11 404.93 150.571 407.851 157.163C410.773 163.755 411.063 170.167 408.682 175.549C408.425 176.129 408.168 176.709 407.82 177.236C418.481 184.626 426.961 193.504 432.245 202.808C437.53 212.113 439.396 221.451 437.621 229.706C435.845 237.962 430.503 244.785 422.233 249.36C413.963 253.936 403.115 256.07 390.985 255.508C392.368 260.538 392.15 265.328 390.35 269.492C388.549 273.656 385.215 277.078 380.617 279.484C376.019 281.889 370.284 283.21 363.874 283.341C357.464 283.472 350.557 282.408 343.71 280.237C348.06 287.533 349.255 294.881 347.102 301.083C344.948 307.284 339.573 311.974 331.853 314.386C336.416 320.051 339.131 326.028 339.71 331.683C340.289 337.337 338.71 342.458 335.141 346.5C331.572 350.543 326.147 353.357 319.441 354.643C312.734 355.928 304.998 355.639 297.054 353.804C301.986 360.557 304.652 367.576 304.764 374.1C304.876 380.625 302.43 386.406 297.69 390.82C305.607 397.844 311.049 405.847 313.248 413.704C315.447 421.56 314.294 428.872 309.95 434.611C316.198 444.11 317.868 453.819 314.621 461.767C311.374 469.714 303.453 475.305 292.466 477.404C292.609 484.007 290.136 489.856 285.323 494.303C280.509 498.751 273.541 501.624 265.188 502.605C271.949 508.748 276.835 515.619 279.321 522.478C281.806 529.337 281.798 535.926 279.296 541.534L279.203 541.744C291.697 550.756 300.882 561.76 305.205 572.893C309.529 584.027 308.725 594.606 302.929 602.842C297.134 611.078 286.703 616.466 273.401 618.092C260.099 619.719 244.742 617.486 229.929 611.77C229.694 612.3 229.455 612.84 229.215 613.38C226.876 618.695 222.534 623.032 216.554 626.027C210.574 629.022 203.13 630.587 194.849 630.592C186.567 630.597 177.689 629.041 168.96 626.054C160.231 623.067 151.907 618.738 144.686 613.428C137.465 608.119 131.559 601.986 127.463 595.543C123.367 589.1 121.201 582.537 121.147 576.403C121.093 570.27 123.153 564.746 127.153 560.295C131.154 555.845 136.978 552.598 144.137 550.827L211.914 397.813C211.282 390.569 213.711 384.122 218.891 379.3C211.835 373.051 206.724 366.005 204.135 358.96C201.547 351.916 201.585 345.152 204.245 339.435C206.904 333.718 212.08 329.275 219.186 326.608C226.292 323.942 235.045 323.158 244.457 324.345L262.617 283.347C259.651 276.723 259.346 270.274 261.741 264.867C264.136 259.46 269.117 255.353 276.016 253.098L322.364 148.462C321.424 140.858 324.357 134.237 330.62 129.823L340.095 108.434C334.725 100.484 332.629 92.3098 334.131 85.1706C333.006 84.7322 331.886 84.2838 330.767 83.7883C322.871 80.2752 315.75 75.4527 310.207 69.865C304.664 64.2774 300.92 58.1468 299.398 52.1652C297.876 46.1835 298.636 40.5889 301.592 36.0123C304.548 31.4358 309.583 28.0595 316.128 26.2646C322.673 24.4696 330.469 24.3274 338.635 25.8539C346.801 27.3804 355.013 30.5149 362.343 34.9037C369.674 39.2925 375.832 44.7611 380.122 50.6923C384.412 56.6234 386.664 62.7811 386.624 68.4707Z" fill="white"/>
<path d="M386.624 68.4707C398.826 72.0239 410.339 78.5023 418.976 86.6755C427.614 94.8488 432.775 104.148 433.478 112.806C434.181 121.464 430.378 128.878 422.791 133.64C415.204 138.402 404.362 140.181 392.323 138.638C399.514 144.11 404.93 150.571 407.851 157.163C410.773 163.755 411.063 170.167 408.682 175.549C408.425 176.129 408.168 176.709 407.82 177.236C418.481 184.626 426.961 193.504 432.245 202.808C437.53 212.113 439.396 221.451 437.621 229.706C435.845 237.962 430.503 244.785 422.233 249.36C413.963 253.936 403.115 256.07 390.985 255.508C392.368 260.538 392.15 265.328 390.35 269.492C388.549 273.656 385.215 277.078 380.617 279.484C376.019 281.889 370.284 283.21 363.874 283.341C357.464 283.472 350.557 282.408 343.71 280.237C348.06 287.533 349.255 294.881 347.102 301.083C344.948 307.284 339.573 311.974 331.853 314.386C336.416 320.051 339.131 326.028 339.71 331.683C340.289 337.337 338.71 342.458 335.141 346.5C331.572 350.543 326.147 353.357 319.441 354.643C312.734 355.928 304.998 355.639 297.054 353.804C301.986 360.557 304.652 367.576 304.764 374.1C304.876 380.625 302.43 386.406 297.69 390.82C305.607 397.844 311.049 405.847 313.248 413.704C315.447 421.56 314.294 428.872 309.95 434.611C316.198 444.11 317.868 453.819 314.621 461.767C311.374 469.714 303.453 475.305 292.466 477.404C292.609 484.007 290.136 489.856 285.323 494.303C280.509 498.751 273.541 501.624 265.188 502.605C271.949 508.748 276.835 515.619 279.321 522.478C281.806 529.337 281.798 535.926 279.296 541.534L279.203 541.744C291.697 550.756 300.882 561.76 305.205 572.893C309.529 584.027 308.725 594.606 302.929 602.842C297.134 611.078 286.703 616.466 273.401 618.092C260.099 619.719 244.742 617.486 229.929 611.77C229.694 612.3 229.455 612.84 229.215 613.38C226.876 618.695 222.534 623.032 216.554 626.027C210.574 629.022 203.13 630.587 194.849 630.592C186.567 630.597 177.689 629.041 168.96 626.054C160.231 623.067 151.907 618.738 144.686 613.428C137.465 608.119 131.559 601.986 127.463 595.543C123.367 589.1 121.201 582.537 121.147 576.403C121.093 570.27 123.153 564.746 127.153 560.295C131.154 555.845 136.978 552.598 144.137 550.827L211.914 397.813C211.282 390.569 213.711 384.122 218.891 379.3C211.835 373.051 206.724 366.005 204.135 358.96C201.547 351.916 201.585 345.152 204.245 339.435C206.904 333.718 212.08 329.275 219.186 326.608C226.292 323.942 235.045 323.158 244.457 324.345L262.617 283.347C259.651 276.723 259.346 270.274 261.741 264.867C264.136 259.46 269.117 255.353 276.016 253.098L322.364 148.462C321.424 140.858 324.357 134.237 330.62 129.823L340.095 108.434C334.725 100.484 332.629 92.3098 334.131 85.1706C333.006 84.7322 331.886 84.2838 330.767 83.7883C322.871 80.2752 315.75 75.4527 310.207 69.865C304.664 64.2774 300.92 58.1468 299.398 52.1652C297.876 46.1835 298.636 40.5889 301.592 36.0123C304.548 31.4358 309.583 28.0595 316.128 26.2646C322.673 24.4696 330.469 24.3274 338.635 25.8539C346.801 27.3804 355.013 30.5149 362.343 34.9037C369.674 39.2925 375.832 44.7611 380.122 50.6923C384.412 56.6234 386.664 62.7811 386.624 68.4707Z" fill="white"/>
<path d="M777.499 725.999C228.267 732.615 261.071 454.228 331.171 259.354C125.671 792.214 191.413 833.387 425.797 854.838C884.875 859.827 1415.3 718.316 777.499 725.999Z" fill="white"/>
<path d="M1509.5 722.106C1511.99 716.176 1510.14 709.986 1504.29 704.71C1498.44 699.433 1489 695.439 1477.77 693.486C1466.54 691.533 1454.3 691.756 1443.37 694.114C1432.44 696.471 1423.58 700.799 1418.49 706.275C1415.41 702.136 1409.94 698.574 1402.81 696.059C1395.69 693.545 1387.23 692.198 1378.57 692.196C1377.64 692.196 1376.7 692.196 1375.79 692.246C1372.2 686.248 1365.31 680.906 1355.93 676.857C1346.56 672.808 1335.11 670.225 1322.95 669.415C1310.78 668.605 1298.41 669.604 1287.33 672.291C1276.24 674.978 1266.91 679.241 1260.43 684.569C1254.49 683.015 1247.92 682.195 1241.24 682.176C1234.56 682.157 1227.97 682.94 1221.99 684.46C1216.02 685.981 1210.82 688.198 1206.82 690.932C1202.83 693.666 1200.14 696.841 1198.98 700.202C1191.76 696.939 1182.58 695.024 1172.96 694.768C1163.33 694.513 1153.81 695.932 1145.97 698.795C1141.06 695.751 1134.64 693.443 1127.38 692.116C1120.11 690.788 1112.28 690.492 1104.71 691.257C1097.15 692.022 1090.13 693.821 1084.4 696.463C1078.67 699.104 1074.45 702.489 1072.19 706.258C1066.04 702.848 1058.18 700.362 1049.47 699.07C1040.76 697.778 1031.52 697.728 1022.76 698.927C1018.03 694.18 1010.5 690.312 1001.24 687.868C991.981 685.423 981.454 684.526 971.143 685.301C962.085 680.801 950.017 678.231 937.388 678.113C924.759 677.995 912.515 680.339 903.142 684.668C894.342 683.347 884.999 683.297 876.146 684.521C867.292 685.745 859.273 688.196 852.974 691.604C848.738 687.523 842.406 684.11 834.658 681.732C826.91 679.355 818.04 678.102 809.003 678.11H808.665C803.984 671.014 794.653 664.962 782.249 660.979C769.845 656.995 755.131 655.324 740.595 656.248C726.058 657.173 712.593 660.635 702.476 666.051C692.358 671.466 686.211 678.502 685.072 685.968C684.219 685.968 683.35 685.968 682.481 685.968C673.936 685.961 665.512 687.003 657.918 689.006C650.324 691.009 643.781 693.915 638.838 697.479C633.896 701.042 630.699 705.16 629.515 709.487C628.331 713.813 629.196 718.222 632.036 722.342C634.875 726.462 639.608 730.174 645.836 733.165C652.063 736.157 659.604 738.34 667.825 739.533C676.046 740.726 684.706 740.892 693.079 740.019C701.452 739.145 709.292 737.258 715.942 734.514H962.227C971.596 736.167 981.719 736.351 991.294 735.041C995.498 739.269 1001.93 742.813 1009.87 745.27C1017.8 747.727 1026.93 749 1036.21 748.945C1045.48 748.891 1054.55 747.51 1062.37 744.96C1070.19 742.409 1076.46 738.791 1080.48 734.514H1146.47C1153.61 737.053 1162.11 738.414 1170.81 738.414C1179.51 738.414 1188.01 737.053 1195.15 734.514H1363.57C1373.24 736.368 1383.9 736.368 1393.57 734.514H1428C1435.49 738.341 1445.24 740.802 1455.75 741.516C1455.66 742.084 1455.6 742.652 1455.6 743.228C1455.62 747.296 1457.87 751.281 1462.08 754.732C1466.3 758.183 1472.31 760.963 1479.45 762.759C1486.6 764.555 1494.58 765.294 1502.5 764.894C1510.42 764.494 1517.96 762.971 1524.28 760.496C1530.59 758.021 1535.43 754.693 1538.24 750.887C1541.06 747.081 1541.73 742.949 1540.2 738.957C1538.66 734.965 1534.97 731.272 1529.55 728.294C1524.13 725.317 1517.18 723.173 1509.5 722.106Z" fill="white"/>
<path d="M631.627 733.598C633.837 729.615 634.616 724.97 633.817 720.544C633.019 716.119 630.697 712.222 627.294 709.594C623.891 706.966 619.644 705.789 615.358 706.287C611.072 706.786 607.047 708.924 604.048 712.297C603.939 708.991 602.88 705.838 601.012 703.255C599.143 700.672 596.553 698.782 593.584 697.835C593.264 697.733 592.944 697.631 592.619 697.566C592.76 692.87 591.619 688.283 589.333 684.354C587.046 680.426 583.711 677.321 579.726 675.411C575.741 673.501 571.274 672.868 566.86 673.586C562.446 674.303 558.27 676.343 554.833 679.46C553.151 677.695 551.085 676.389 548.801 675.646C546.517 674.904 544.078 674.745 541.682 675.184C539.285 675.622 536.997 676.646 535.002 678.171C533.007 679.697 531.361 681.683 530.195 683.968C528.464 680.837 525.757 678.461 522.515 677.226C519.274 675.991 515.688 675.971 512.343 677.169C511.359 674.449 509.684 672.091 507.498 670.345C505.312 668.599 502.695 667.531 499.927 667.254C497.158 666.977 494.34 667.501 491.773 668.771C489.206 670.041 486.985 672.01 485.347 674.467C484.019 671.349 481.895 668.707 479.204 666.828C476.513 664.949 473.358 663.905 470.08 663.808C469.543 659.885 467.848 656.287 465.233 653.521C462.617 650.756 459.214 648.962 455.503 648.393C453.427 644.174 449.877 641.011 445.575 639.548C441.273 638.084 436.541 638.429 432.338 640.512C429.623 638.603 426.432 637.546 423.118 637.458C419.803 637.37 416.494 638.253 413.556 640.011C413.037 636.62 411.646 633.479 409.534 630.926C407.422 628.374 404.668 626.506 401.568 625.525L401.452 625.488C401.47 619.884 399.655 614.522 396.314 610.309C392.973 606.096 388.312 603.289 383.118 602.365C377.924 601.441 372.516 602.455 367.81 605.237C363.104 608.019 359.388 612.396 357.291 617.63C356.998 617.537 356.7 617.442 356.402 617.347C353.475 616.409 350.349 616.237 347.288 616.845C344.227 617.453 341.32 618.824 338.811 620.842C336.302 622.86 334.264 625.466 332.869 628.441C331.474 631.417 330.763 634.675 330.794 637.942C330.825 641.209 331.599 644.39 333.05 647.217C334.501 650.044 336.586 652.434 339.131 654.188C341.677 655.942 344.607 657.007 347.677 657.295C350.747 657.582 353.866 657.084 356.773 655.841L441.194 682.737C444.028 684.947 447.456 686.184 451.038 686.289C451.512 689.783 452.907 693.028 455.066 695.658C457.224 698.289 460.06 700.199 463.253 701.172C466.446 702.146 469.868 702.145 473.133 701.17C476.398 700.194 479.375 698.282 481.728 695.65L504.348 702.857C506.217 705.46 508.817 707.364 511.8 708.315C514.784 709.265 518.007 709.216 521.037 708.174L578.767 726.566C581.658 728.953 585.312 730.117 589.051 729.843L600.852 733.602C602.546 737.167 605.326 739.998 608.762 741.658C608.605 742.056 608.453 742.457 608.321 742.87C607.398 745.792 607.256 748.897 607.912 751.834C608.568 754.771 609.995 757.423 612.032 759.492C614.07 761.56 616.636 762.963 619.442 763.541C622.249 764.119 625.183 763.849 627.914 762.763C630.645 761.676 633.064 759.816 634.898 757.392C636.733 754.968 637.91 752.076 638.296 749.043C638.682 746.011 638.262 742.958 637.084 740.229C635.905 737.499 634.015 735.203 631.627 733.598Z" fill="white"/>
<path d="M1963.65 749.298C1965.69 742.873 1964.85 735.993 1961.3 729.964C1957.75 723.935 1951.73 719.177 1944.38 716.594C1937.03 714.011 1928.88 713.783 1921.46 715.954C1914.04 718.124 1907.87 722.541 1904.13 728.366C1902.34 723.696 1898.94 719.566 1894.36 716.525C1889.78 713.484 1884.24 711.675 1878.48 711.339C1877.86 711.303 1877.24 711.267 1876.62 711.285C1874.62 704.55 1870.38 698.408 1864.4 693.592C1858.43 688.777 1850.98 685.493 1842.94 684.132C1834.89 682.77 1826.61 683.39 1819.06 685.917C1811.52 688.444 1805.03 692.771 1800.39 698.381C1796.53 696.441 1792.21 695.285 1787.77 695.007C1783.33 694.728 1778.9 695.333 1774.82 696.774C1770.75 698.216 1767.15 700.452 1764.32 703.305C1761.49 706.157 1759.5 709.546 1758.51 713.198C1753.91 709.329 1747.93 706.868 1741.55 706.214C1735.16 705.561 1728.74 706.754 1723.34 709.6C1720.27 706.062 1716.14 703.275 1711.4 701.534C1706.65 699.793 1701.46 699.164 1696.38 699.713C1691.3 700.263 1686.51 701.97 1682.54 704.653C1678.56 707.337 1675.53 710.896 1673.78 714.954C1669.91 710.966 1664.85 707.928 1659.14 706.17C1653.42 704.412 1647.28 704 1641.38 704.979C1638.53 699.576 1633.77 695.03 1627.77 691.984C1621.77 688.937 1614.82 687.543 1607.92 687.997C1602.18 682.697 1594.31 679.403 1585.92 678.786C1577.53 678.168 1569.24 680.271 1562.72 684.67C1556.96 682.877 1550.74 682.46 1544.78 683.464C1538.81 684.468 1533.32 686.854 1528.91 690.358C1526.35 685.706 1522.36 681.707 1517.36 678.793C1512.36 675.878 1506.54 674.157 1500.53 673.816L1500.3 673.803C1497.64 665.818 1491.82 658.801 1483.83 653.94C1475.83 649.079 1466.15 646.672 1456.42 647.127C1446.69 647.581 1437.52 650.868 1430.44 656.433C1423.36 661.998 1418.82 669.498 1417.59 677.665C1417.02 677.632 1416.44 677.599 1415.87 677.565C1410.18 677.227 1404.51 678.048 1399.33 679.957C1394.15 681.866 1389.62 684.809 1386.1 688.537C1382.59 692.265 1380.2 696.671 1379.13 701.383C1378.07 706.096 1378.36 710.978 1379.99 715.619C1381.61 720.261 1384.52 724.526 1388.47 728.057C1392.42 731.588 1397.3 734.281 1402.69 735.911C1408.08 737.54 1413.83 738.058 1419.46 737.422C1425.08 736.785 1430.42 735.012 1435.02 732.252L1598.84 741.778C1604.96 743.958 1611.68 744.552 1618.14 743.481C1620.66 748.294 1624.72 752.44 1629.84 755.45C1634.96 758.459 1640.95 760.212 1647.12 760.511C1653.3 760.809 1659.41 759.642 1664.78 757.139C1670.15 754.637 1674.55 750.9 1677.49 746.351L1721.38 748.903C1725.98 751.973 1731.54 753.798 1737.33 754.135C1743.12 754.471 1748.85 753.303 1753.77 750.787L1865.79 757.301C1872.11 759.714 1879.2 760.126 1885.75 758.461L1908.65 759.793C1913.39 764.292 1919.72 767.375 1926.66 768.567C1926.57 769.188 1926.49 769.81 1926.45 770.444C1926.2 774.919 1927.44 779.388 1930.03 783.347C1932.61 787.306 1936.43 790.596 1941.07 792.847C1945.7 795.098 1950.96 796.221 1956.26 796.087C1961.55 795.954 1966.67 794.57 1971.03 792.092C1975.39 789.614 1978.82 786.141 1980.93 782.064C1983.05 777.987 1983.76 773.468 1982.99 769.018C1982.23 764.568 1980.01 760.364 1976.59 756.879C1973.18 753.395 1968.69 750.769 1963.65 749.298Z" fill="white"/>
<path d="M849.5 720H1639V766.5L1478.5 804.5L1424 816H849.5V720Z" fill="white"/>
<path d="M162.585 614.569C149.938 613.324 137.429 609.077 127.433 602.635C117.438 596.193 110.653 588.003 108.367 579.623C106.081 571.243 108.453 563.255 115.033 557.177C121.613 551.098 131.942 547.353 144.059 546.652C135.983 542.598 129.47 537.246 125.384 531.305C121.298 525.364 119.832 519.115 121.181 513.386C121.327 512.769 121.472 512.151 121.718 511.569C109.878 506.269 99.9077 499.105 92.9995 490.933C86.0912 482.761 82.5369 473.927 82.7615 465.486C82.986 457.045 86.9798 449.354 94.2656 443.334C101.551 437.313 111.821 433.217 123.847 431.536C121.561 426.846 120.892 422.098 121.895 417.674C122.898 413.249 125.544 409.271 129.621 406.06C133.697 402.849 139.09 400.494 145.367 399.185C151.643 397.875 158.627 397.648 165.757 398.522C160.138 392.151 157.609 385.149 158.584 378.657C159.558 372.165 163.977 366.566 171.122 362.773C165.593 358.045 161.823 352.67 160.212 347.219C158.602 341.768 159.21 336.444 161.974 331.814C164.737 327.183 169.551 323.418 175.906 320.919C182.26 318.419 189.918 317.279 198.064 317.619C191.973 311.89 188.059 305.483 186.747 299.09C185.435 292.698 186.774 286.565 190.62 281.354C181.545 275.909 174.722 269.044 171.113 261.727C167.504 254.411 167.291 247.011 170.504 240.571C162.613 232.385 159.183 223.149 160.91 214.74C162.638 206.33 169.393 199.376 179.805 195.289C178.449 188.825 179.802 182.621 183.714 177.363C187.627 172.105 193.946 167.997 201.975 165.494C194.198 160.702 188.13 154.849 184.424 148.565C180.717 142.281 179.512 135.804 180.938 129.831L180.99 129.607C167.05 123.05 155.995 113.927 149.695 103.78C143.395 93.6336 142.236 83.0871 146.415 73.9244C150.595 64.7617 159.855 57.5454 172.629 53.4961C185.404 49.4468 200.91 48.8132 216.523 51.7023C216.656 51.1381 216.791 50.5633 216.927 49.9885C218.247 44.334 221.716 39.2714 227.042 35.2261C232.368 31.1808 239.396 28.2709 247.535 26.7408C255.675 25.2106 264.687 25.1049 273.817 26.4326C282.946 27.7603 291.926 30.4825 300.001 34.3707C308.076 38.2589 315.012 43.1994 320.224 48.7774C325.437 54.3553 328.775 60.4077 329.957 66.4263C331.14 72.4448 339.112 83.8887 336 89C332.888 94.1113 348.71 111.941 342 115L273.64 258.681C275.596 265.684 274.396 272.468 270.193 278.161C278.279 283.004 284.601 288.988 288.443 295.435C292.284 301.883 293.493 308.537 291.932 314.646C290.371 320.755 286.102 326.076 279.609 330.006C273.116 333.936 264.656 336.319 255.187 336.885L244.89 380.527C249.025 386.492 250.513 392.774 249.155 398.529C247.797 404.285 243.658 409.239 237.292 412.726L211.011 524.109C213.336 531.41 211.673 538.459 206.33 543.95L200.957 566.719C207.7 573.543 211.265 581.192 211.104 588.485C212.29 588.709 213.474 588.943 214.665 589.224C223.073 591.223 230.961 594.651 237.438 599.122C243.915 603.593 248.724 608.929 251.322 614.528C253.92 620.127 254.204 625.766 252.142 630.809C250.079 635.851 245.752 640.097 239.65 643.067C233.547 646.037 279.307 751.996 271 752C262.692 752.004 206.514 728.963 198.5 726C190.486 723.037 167.895 698.539 162.585 693.5C157.276 688.461 163.594 620.168 162.585 614.569Z" fill="white"/>
<path d="M162.585 614.569C149.938 613.324 137.429 609.077 127.433 602.635C117.438 596.193 110.653 588.003 108.367 579.623C106.081 571.243 108.453 563.255 115.033 557.177C121.613 551.098 131.942 547.353 144.059 546.652C135.983 542.598 129.47 537.246 125.384 531.305C121.298 525.364 119.832 519.115 121.181 513.386C121.327 512.769 121.472 512.151 121.718 511.569C109.878 506.269 99.9077 499.105 92.9995 490.933C86.0912 482.761 82.5369 473.927 82.7615 465.486C82.986 457.045 86.9798 449.354 94.2656 443.334C101.551 437.313 111.821 433.217 123.847 431.536C121.561 426.846 120.892 422.098 121.895 417.674C122.898 413.249 125.544 409.271 129.621 406.06C133.697 402.849 139.09 400.494 145.367 399.185C151.643 397.875 158.627 397.648 165.757 398.522C160.138 392.151 157.609 385.149 158.584 378.657C159.558 372.165 163.977 366.566 171.122 362.773C165.593 358.045 161.823 352.67 160.212 347.219C158.602 341.768 159.21 336.444 161.974 331.814C164.737 327.183 169.551 323.418 175.906 320.919C182.26 318.419 189.918 317.279 198.064 317.619C191.973 311.89 188.059 305.483 186.747 299.09C185.435 292.698 186.774 286.565 190.62 281.354C181.545 275.909 174.722 269.044 171.113 261.727C167.504 254.411 167.291 247.011 170.504 240.571C162.613 232.385 159.183 223.149 160.91 214.74C162.638 206.33 169.393 199.376 179.805 195.289C178.449 188.825 179.802 182.621 183.714 177.363C187.627 172.105 193.946 167.997 201.975 165.494C194.198 160.702 188.13 154.849 184.424 148.565C180.717 142.281 179.512 135.804 180.938 129.831L180.99 129.607C167.05 123.05 155.995 113.927 149.695 103.78C143.395 93.6336 142.236 83.0871 146.415 73.9244C150.595 64.7617 159.855 57.5454 172.629 53.4961C185.404 49.4468 200.91 48.8132 216.523 51.7023C216.656 51.1381 216.791 50.5633 216.927 49.9885C218.247 44.334 221.716 39.2714 227.042 35.2261C232.368 31.1808 239.396 28.2709 247.535 26.7408C255.675 25.2106 264.687 25.1049 273.817 26.4326C282.946 27.7603 291.926 30.4825 300.001 34.3707C308.076 38.2589 315.012 43.1994 320.224 48.7774C325.437 54.3553 328.775 60.4077 329.957 66.4263C331.14 72.4448 339.112 83.8887 336 89C332.888 94.1113 348.71 111.941 342 115L273.64 258.681C275.596 265.684 274.396 272.468 270.193 278.161C278.279 283.004 284.601 288.988 288.443 295.435C292.284 301.883 293.493 308.537 291.932 314.646C290.371 320.755 286.102 326.076 279.609 330.006C273.116 333.936 264.656 336.319 255.187 336.885L244.89 380.527C249.025 386.492 250.513 392.774 249.155 398.529C247.797 404.285 243.658 409.239 237.292 412.726L211.011 524.109C213.336 531.41 211.673 538.459 206.33 543.95L200.957 566.719C207.7 573.543 211.265 581.192 211.104 588.485C212.29 588.709 213.474 588.943 214.665 589.224C223.073 591.223 230.961 594.651 237.438 599.122C243.915 603.593 248.724 608.929 251.322 614.528C253.92 620.127 254.204 625.766 252.142 630.809C250.079 635.851 245.752 640.097 239.65 643.067C233.547 646.037 279.307 751.996 271 752C262.692 752.004 206.514 728.963 198.5 726C190.486 723.037 167.895 698.539 162.585 693.5C157.276 688.461 163.594 620.168 162.585 614.569Z" fill="white"/>
</svg>
