<svg width="1048" height="414" viewBox="0 0 1048 414" fill="none" xmlns="http://www.w3.org/2000/svg">
<path opacity="0.6" d="M1041.09 63.0545C1041.87 62.3573 1042.89 61.9807 1043.93 62.0008C1044.98 62.0208 1045.98 62.4358 1046.74 63.1624C1047.49 63.8889 1047.94 64.873 1047.99 65.9167C1048.05 66.9603 1047.71 67.9859 1047.03 68.7873C1046.65 69.1718 1046.19 69.4768 1045.69 69.6848C1045.19 69.8929 1044.65 70 1044.1 70C1043.56 70 1043.02 69.8929 1042.51 69.6848C1042.01 69.4768 1041.55 69.1718 1041.17 68.7873C1040.43 68.0181 1040.01 66.9997 1040 65.9363C1039.99 64.8729 1040.38 63.8435 1041.09 63.0545Z" fill="white"/>
<path d="M982.003 414C981.073 413.997 980.144 413.921 979.225 413.772L979.314 413.208C980.203 413.348 981.103 413.419 982.003 413.418H982.108V413.989L982.003 414ZM984.994 413.749L984.901 413.185C985.822 413.03 986.73 412.801 987.615 412.5L987.8 413.041C986.885 413.35 985.946 413.587 984.994 413.749ZM976.412 413.107C975.493 412.806 974.6 412.432 973.741 411.989L974.003 411.482C974.835 411.911 975.7 412.273 976.59 412.564L976.412 413.107ZM990.455 411.888L990.188 411.384C991.017 410.945 991.81 410.44 992.559 409.874L992.905 410.331C992.131 410.914 991.312 411.435 990.455 411.888ZM971.293 410.461C970.517 409.885 969.788 409.249 969.112 408.557L969.521 408.158C970.174 408.828 970.88 409.444 971.633 410L971.293 410.461ZM995.061 408.395L994.646 408.002C995.29 407.323 995.878 406.593 996.405 405.82L996.877 406.142C996.33 406.941 995.72 407.694 995.052 408.395H995.061ZM967.267 406.326C966.712 405.535 966.222 404.699 965.802 403.829L966.315 403.58C966.722 404.423 967.196 405.232 967.732 406L967.267 406.326ZM998.31 403.626L997.794 403.384C998.19 402.535 998.519 401.656 998.777 400.756L999.325 400.913C999.055 401.843 998.713 402.75 998.3 403.626H998.31ZM964.746 401.128C964.47 400.201 964.268 399.254 964.141 398.295L964.707 398.221C964.828 399.149 965.025 400.065 965.293 400.961L964.746 401.128ZM999.877 398.073L999.311 398.007C999.39 397.332 999.43 396.654 999.43 395.975C999.43 395.719 999.43 395.459 999.414 395.203L999.984 395.178C999.984 395.443 1000 395.71 1000 395.975C1000 396.676 999.963 397.377 999.884 398.073H999.877ZM964.57 395.42L964 395.402C964.032 394.435 964.142 393.472 964.328 392.523L964.887 392.632C964.708 393.552 964.602 394.484 964.57 395.42ZM999.069 392.42C998.878 391.504 998.613 390.604 998.278 389.731L998.809 389.525C999.156 390.428 999.431 391.357 999.63 392.304L999.069 392.42ZM965.64 389.934L965.104 389.735C965.441 388.828 965.849 387.95 966.325 387.107L966.822 387.388C966.36 388.203 965.965 389.055 965.64 389.934ZM998.225 389.598C997.883 388.73 997.472 387.89 996.996 387.087L997.486 386.797C997.979 387.629 998.403 388.499 998.757 389.4L998.225 389.598ZM968.394 385.064L967.949 384.708C968.552 383.953 969.216 383.248 969.933 382.6L970.314 383.023C969.621 383.651 968.979 384.334 968.394 385.064ZM995.38 384.785C994.78 384.07 994.123 383.405 993.416 382.795L993.788 382.363C994.519 382.992 995.198 383.679 995.818 384.418L995.38 384.785ZM972.539 381.32L972.231 380.838C973.043 380.314 973.896 379.856 974.781 379.468L975.009 379.993C974.151 380.368 973.325 380.812 972.539 381.32ZM991.156 381.13C990.359 380.638 989.525 380.211 988.66 379.854L988.888 379.326C989.781 379.696 990.643 380.136 991.466 380.644L991.156 381.13ZM977.66 379.075L977.516 378.523C978.452 378.281 979.405 378.117 980.368 378.03L980.42 378.598C979.489 378.684 978.566 378.844 977.66 379.078V379.075ZM985.993 378.991C985.082 378.776 984.155 378.634 983.222 378.566L983.263 378C984.226 378.068 985.183 378.215 986.123 378.438L985.993 378.991Z" fill="#9192FF"/>
<path d="M40.7595 315C39.7788 315 38.7911 314.956 37.8244 314.881L37.8688 314.297C38.8238 314.372 39.7975 314.412 40.7618 314.416L40.7595 315ZM43.6969 314.914L43.6572 314.332C44.6169 314.269 45.5859 314.171 46.5386 314.04L46.618 314.619C45.6513 314.752 44.6683 314.851 43.6969 314.914ZM34.9057 314.549C33.939 314.405 32.9653 314.225 32.0173 314.012L32.1434 313.442C33.0774 313.653 34.0371 313.83 34.9897 313.973L34.9057 314.549ZM49.5134 314.115L49.3919 313.545C50.3259 313.347 51.2786 313.111 52.1939 312.845L52.355 313.405C51.4257 313.676 50.466 313.914 49.5134 314.115ZM29.1733 313.27C28.2393 312.989 27.3053 312.67 26.3877 312.322L26.5978 311.778C27.4968 312.118 28.4191 312.434 29.3414 312.712L29.1733 313.27ZM55.157 312.492L54.9539 311.943C55.8552 311.612 56.7565 311.243 57.6321 310.848L57.8656 311.378C56.9853 311.78 56.07 312.156 55.157 312.492ZM23.6791 311.175C22.7965 310.762 21.9162 310.311 21.0616 309.837L21.3464 309.326C22.187 309.793 23.0556 310.239 23.9149 310.645L23.6791 311.175ZM60.5018 310.075L60.2239 309.562C61.0669 309.094 61.9075 308.609 62.7177 308.093L63.0329 308.583C62.2087 309.109 61.3587 309.611 60.5018 310.075ZM18.5468 308.312C17.7319 307.777 16.924 307.208 16.1488 306.615L16.5013 306.148C17.2672 306.731 18.0634 307.296 18.8667 307.822L18.5468 308.312ZM65.4496 306.911L65.1017 306.444C65.8723 305.87 66.6335 305.263 67.362 304.634L67.7426 305.076C67.0047 305.716 66.2318 306.332 65.4496 306.916V306.911ZM13.8768 304.742C13.146 304.097 12.4291 303.418 11.745 302.72L12.1606 302.311C12.8354 302.998 13.5429 303.668 14.2621 304.305L13.8768 304.742ZM69.8978 303.084L69.4868 302.668C70.1686 301.991 70.8364 301.267 71.4692 300.567L71.9082 300.95C71.2661 301.673 70.5913 302.407 69.8978 303.084ZM9.76024 300.56C9.12979 299.815 8.51569 299.039 7.93895 298.255L8.40595 297.909C8.97568 298.685 9.57344 299.448 10.2039 300.181L9.76024 300.56ZM73.7598 298.657L73.2928 298.304C73.8743 297.536 74.4323 296.737 74.9554 295.929L75.4434 296.247C74.9133 297.066 74.3483 297.877 73.7598 298.657ZM6.27877 295.829C5.75807 295.002 5.26072 294.15 4.80306 293.288L5.31676 293.015C5.76975 293.86 6.25075 294.703 6.77146 295.516L6.27877 295.829ZM76.9448 293.727L76.4334 293.447C76.9004 292.602 77.337 291.731 77.7387 290.857L78.2687 291.102C77.8671 291.983 77.4234 292.868 76.9518 293.722L76.9448 293.727ZM3.51415 290.652C3.11721 289.76 2.74828 288.844 2.41671 287.929L2.96777 287.731C3.29233 288.632 3.66826 289.536 4.04653 290.414L3.51415 290.652ZM79.4012 288.382L78.8548 288.177C79.1934 287.275 79.5016 286.35 79.7724 285.428L80.3328 285.594C80.062 286.528 79.7491 287.462 79.4012 288.382ZM1.52708 285.127C1.26323 284.193 1.02973 283.226 0.826585 282.271L1.39866 282.154C1.59013 283.088 1.82129 284.041 2.08281 284.968L1.52708 285.127ZM81.0637 282.743L80.4939 282.619C80.6971 281.685 80.8699 280.72 81.0076 279.768L81.5844 279.849C81.4466 280.821 81.2691 281.795 81.0637 282.747V282.743ZM0.347914 279.378C0.221825 278.411 0.128425 277.428 0.0700503 276.454L0.653796 276.419C0.709836 277.379 0.8009 278.35 0.926989 279.303L0.347914 279.378ZM81.8973 276.933L81.3135 276.893C81.3812 275.936 81.4163 274.962 81.4163 273.998H82C82 274.976 81.9696 275.964 81.8973 276.933ZM0.583746 273.524H0C0 272.545 0.0583755 271.557 0.137765 270.588L0.719176 270.635C0.639786 271.583 0.595421 272.559 0.583746 273.524ZM81.3742 272.055C81.3299 271.09 81.2481 270.119 81.1407 269.169L81.7221 269.099C81.8365 270.065 81.9183 271.051 81.9556 272.027L81.3742 272.055ZM1.06008 267.754L0.478673 267.665C0.628112 266.698 0.81491 265.729 1.0344 264.779L1.6018 264.909C1.39165 265.846 1.20719 266.803 1.06008 267.754ZM80.6831 266.306C80.5009 265.372 80.2815 264.412 80.0316 263.483L80.5967 263.333C80.8489 264.267 81.0637 265.239 81.2551 266.196L80.6831 266.306ZM2.34666 262.112L1.7886 261.941C2.0758 261.007 2.40037 260.073 2.75528 259.16L3.29934 259.373C2.96076 260.27 2.64087 261.192 2.34666 262.112ZM79.1677 260.711C78.8501 259.805 78.4975 258.896 78.1193 258.014L78.654 257.78C79.0392 258.675 79.3988 259.595 79.7187 260.515L79.1677 260.711ZM4.44815 256.708L3.92044 256.459C4.3384 255.578 4.79373 254.698 5.27473 253.848L5.78376 254.135C5.31676 254.973 4.86611 255.84 4.44815 256.708ZM76.8887 255.405C76.4451 254.551 75.9664 253.703 75.4644 252.886L75.9617 252.58C76.4708 253.411 76.9564 254.271 77.4071 255.137L76.8887 255.405ZM7.30617 251.669L6.81816 251.347C7.35987 250.534 7.93428 249.731 8.53204 248.958L8.99903 249.315C8.41762 250.072 7.83854 250.864 7.30617 251.665V251.669ZM73.8696 250.478C73.3092 249.696 72.7138 248.926 72.0997 248.185L72.548 247.814C73.1714 248.564 73.7762 249.346 74.3436 250.137L73.8696 250.478ZM10.846 247.081L10.4094 246.693C11.0608 245.965 11.745 245.252 12.4455 244.573L12.8518 244.991C12.1536 245.663 11.4858 246.364 10.846 247.081ZM70.1686 246.021C69.5032 245.32 68.805 244.648 68.0905 244.003L68.4828 243.571C69.2066 244.225 69.9141 244.914 70.5843 245.617L70.1686 246.021ZM14.9999 243.05L14.624 242.602C15.3712 241.974 16.1488 241.367 16.938 240.792L17.2812 241.259C16.5037 241.831 15.7355 242.432 14.9999 243.05ZM65.8746 242.137C65.1157 241.547 64.3265 240.97 63.5279 240.435L63.8548 239.952C64.6628 240.496 65.4636 241.077 66.2342 241.677L65.8746 242.137ZM19.6839 239.65L19.3757 239.153C20.2046 238.639 21.0616 238.147 21.9232 237.694L22.194 238.21C21.3441 238.658 20.5012 239.141 19.6839 239.65ZM61.0669 238.906C60.2333 238.427 59.3693 237.971 58.4984 237.556L58.7506 237.028C59.6308 237.453 60.5065 237.913 61.3541 238.399L61.0669 238.906ZM24.8022 236.956L24.5687 236.421C25.4607 236.029 26.3783 235.667 27.296 235.34L27.4921 235.891C26.5861 236.211 25.6825 236.57 24.8022 236.956ZM55.8575 236.393C54.9632 236.04 54.0432 235.713 53.1232 235.426L53.2984 234.868C54.2324 235.16 55.1664 235.492 56.0723 235.851L55.8575 236.393ZM30.2661 235.022L30.112 234.459C31.046 234.2 32.0126 233.974 32.97 233.782L33.0844 234.354C32.1294 234.544 31.1814 234.768 30.2544 235.022H30.2661ZM50.3306 234.658C49.3966 234.438 48.4393 234.249 47.4913 234.095L47.5847 233.518C48.5467 233.675 49.5157 233.866 50.466 234.091L50.3306 234.658ZM35.9448 233.894L35.87 233.313C36.8367 233.194 37.8221 233.105 38.7981 233.054L38.8285 233.637C37.8548 233.689 36.8834 233.775 35.9331 233.894H35.9448ZM44.6169 233.738C43.6595 233.654 42.6882 233.602 41.7239 233.584L41.7355 233C42.7115 233.019 43.6992 233.07 44.6683 233.156L44.6169 233.738Z" fill="#9192FF"/>
<path d="M623.17 410.351C620.17 410.352 617.237 409.462 614.743 407.795C612.248 406.128 610.304 403.758 609.155 400.985C608.007 398.211 607.706 395.16 608.291 392.216C608.876 389.272 610.321 386.567 612.442 384.445C614.564 382.322 617.266 380.877 620.209 380.291C623.151 379.706 626.201 380.007 628.972 381.156C631.744 382.305 634.113 384.251 635.779 386.747C637.445 389.243 638.334 392.177 638.333 395.179C638.329 399.201 636.73 403.058 633.887 405.902C631.044 408.746 627.19 410.346 623.17 410.351ZM623.17 380.68C620.305 380.683 617.505 381.535 615.124 383.13C612.742 384.725 610.887 386.991 609.793 389.64C608.698 392.29 608.413 395.205 608.974 398.017C609.535 400.828 610.916 403.41 612.943 405.437C614.97 407.463 617.552 408.842 620.363 409.401C623.173 409.959 626.086 409.671 628.733 408.573C631.38 407.475 633.643 405.617 635.234 403.233C636.826 400.849 637.675 398.046 637.675 395.179C637.671 391.333 636.141 387.645 633.421 384.927C630.701 382.208 627.015 380.681 623.17 380.68Z" fill="#9192FF"/>
<path opacity="0.4" d="M715 28C719.971 28 724 23.9706 724 19C724 14.0294 719.971 10 715 10C710.029 10 706 14.0294 706 19C706 23.9706 710.029 28 715 28Z" fill="#E5E5FF"/>
<path d="M686.371 56.7165C684.904 56.7118 683.44 56.5915 681.992 56.3568L682.132 55.4683C683.534 55.6898 684.951 55.8005 686.371 55.7992H686.536V56.6985L686.371 56.7165ZM691.083 56.3208L690.936 55.4324C692.389 55.1886 693.819 54.8278 695.214 54.3533L695.505 55.2057C694.063 55.6926 692.584 56.0655 691.083 56.3208ZM677.56 55.3101C676.112 54.835 674.704 54.2457 673.35 53.5476L673.763 52.749C675.074 53.426 676.438 53.9961 677.84 54.454L677.56 55.3101ZM699.69 53.3893L699.269 52.5944C700.575 51.9029 701.824 51.1078 703.004 50.2168L703.55 50.9362C702.33 51.8545 701.039 52.6747 699.69 53.3893ZM669.493 51.1412C668.27 50.234 667.12 49.2309 666.056 48.1414L666.7 47.5119C667.729 48.5682 668.842 49.539 670.028 50.4146L669.493 51.1412ZM706.948 47.886L706.293 47.2673C707.308 46.1975 708.235 45.0476 709.065 43.8286L709.809 44.3358C708.947 45.5947 707.986 46.7819 706.933 47.886H706.948ZM663.148 44.6272C662.274 43.3797 661.502 42.0638 660.84 40.6921L661.649 40.3C662.29 41.6285 663.037 42.9035 663.881 44.1128L663.148 44.6272ZM712.067 40.372L711.254 39.9907C711.878 38.6533 712.396 37.2691 712.804 35.8506L713.666 36.0988C713.242 37.5637 712.702 38.9926 712.052 40.372H712.067ZM659.176 36.4369C658.74 34.9766 658.422 33.484 658.223 31.9731L659.114 31.858C659.306 33.3194 659.615 34.7629 660.038 36.1744L659.176 36.4369ZM714.536 31.6242L713.645 31.5199C713.77 30.4574 713.832 29.3885 713.832 28.3187C713.832 27.9158 713.832 27.5058 713.807 27.1029L714.705 27.0633C714.705 27.4806 714.73 27.9014 714.73 28.3187C714.734 29.4232 714.673 30.5269 714.547 31.6242H714.536ZM658.899 27.4446L658 27.4158C658.05 25.8924 658.223 24.3756 658.518 22.8801L659.398 23.0527C659.116 24.5011 658.948 25.9697 658.899 27.4446ZM713.264 22.7182C712.962 21.2748 712.545 19.8578 712.016 18.481L712.854 18.1573C713.401 19.5797 713.834 21.0435 714.148 22.5348L713.264 22.7182ZM660.585 18.8012L659.74 18.4882C660.271 17.0595 660.914 15.6751 661.663 14.3482L662.447 14.7906C661.719 16.0751 661.096 17.4163 660.585 18.8012ZM711.934 18.2724C711.394 16.904 710.746 15.5809 709.996 14.3158L710.769 13.859C711.545 15.17 712.215 16.5412 712.771 17.9595L711.934 18.2724ZM664.924 11.1289L664.223 10.5678C665.174 9.37836 666.22 8.26806 667.35 7.24782L667.951 7.91325C666.858 8.90322 665.846 9.97849 664.924 11.1289ZM707.451 10.6901C706.505 9.56345 705.47 8.51457 704.356 7.55356L704.942 6.87374C706.094 7.8647 707.164 8.94731 708.141 10.111L707.451 10.6901ZM671.456 5.22994L670.97 4.47099C672.251 3.64627 673.595 2.92461 674.989 2.31283L675.349 3.14012C673.997 3.7312 672.695 4.43006 671.456 5.22994ZM700.793 4.9314C699.539 4.15625 698.223 3.48384 696.86 2.92071L697.22 2.08982C698.627 2.67161 699.986 3.36565 701.282 4.16525L700.793 4.9314ZM679.526 1.69416L679.3 0.823698C680.774 0.443418 682.277 0.183585 683.793 0.0467601L683.876 0.942397C682.408 1.07726 680.953 1.32986 679.526 1.69775V1.69416ZM692.658 1.56107C691.222 1.22178 689.762 0.998053 688.29 0.89204L688.355 0C689.874 0.107636 691.381 0.3386 692.863 0.690611L692.658 1.56107Z" fill="#9192FF"/>
</svg>
