<svg width="50" height="50" viewBox="0 0 50 50" fill="none" xmlns="http://www.w3.org/2000/svg">
<path d="M3.78781 28.1062H27.1969C27.6515 28.1062 27.9545 27.8031 27.9545 27.3487V19.7729C27.9545 19.3183 27.5756 19.0154 27.1969 19.0154H3.78781C3.33323 19.0154 3.03027 19.3184 3.03027 19.7729V27.3487C3.03027 27.8031 3.33323 28.1062 3.78781 28.1062ZM4.54534 20.5304H26.4393V26.591H4.54534V20.5304Z" fill="#0E7BAB"/>
<path d="M7.42416 29.4697H4.2424C3.78782 29.4697 3.48486 29.7728 3.48486 30.2273V33.3334C3.48486 33.7879 3.78792 34.0909 4.2424 34.0909H7.42427C7.87885 34.0909 8.1818 33.7878 8.1818 33.3334V30.1515C8.1818 29.7728 7.80298 29.4697 7.42416 29.4697ZM6.66663 32.5758H4.99993V30.9091H6.66663V32.5758Z" fill="#0E7BAB"/>
<path d="M7.42416 35.8333H4.2424C3.78782 35.8333 3.48486 36.1363 3.48486 36.5908V39.7727C3.48486 40.2272 3.78792 40.5302 4.2424 40.5302H7.42427C7.87885 40.5302 8.1818 40.2271 8.1818 39.7727V36.5908C8.1818 36.1363 7.80298 35.8333 7.42416 35.8333ZM6.66663 39.0151H4.99993V37.3484H6.66663V39.0151Z" fill="#0E7BAB"/>
<path d="M7.42416 42.1968H4.2424C3.78782 42.1968 3.48486 42.4998 3.48486 42.9543V46.1362C3.48486 46.5908 3.78792 46.8937 4.2424 46.8937H7.42427C7.87885 46.8937 8.1818 46.5907 8.1818 46.1362V42.9543C8.1818 42.5756 7.80298 42.1968 7.42416 42.1968ZM6.66663 45.3786H4.99993V43.7119H6.66663V45.3786Z" fill="#0E7BAB"/>
<path d="M13.8637 29.4697H10.6819C10.2273 29.4697 9.92432 29.7728 9.92432 30.2273V33.3334C9.92432 33.7879 10.2274 34.0909 10.6819 34.0909H13.8637C14.3183 34.0909 14.6212 33.7878 14.6212 33.3334V30.1515C14.6213 29.7728 14.2425 29.4697 13.8637 29.4697ZM13.1062 32.5758H11.4395V30.9091H13.1062V32.5758Z" fill="#0E7BAB"/>
<path d="M13.8637 35.8333H10.6819C10.2273 35.8333 9.92432 36.1363 9.92432 36.5908V39.7727C9.92432 40.2272 10.2274 40.5302 10.6819 40.5302H13.8637C14.3183 40.5302 14.6212 40.2271 14.6212 39.7727V36.5908C14.6213 36.1363 14.2425 35.8333 13.8637 35.8333ZM13.1062 39.0151H11.4395V37.3484H13.1062V39.0151Z" fill="#0E7BAB"/>
<path d="M13.8637 42.1968H10.6819C10.2273 42.1968 9.92432 42.4998 9.92432 42.9543V46.1362C9.92432 46.5908 10.2274 46.8937 10.6819 46.8937H13.8637C14.3183 46.8937 14.6212 46.5907 14.6212 46.1362V42.9543C14.6213 42.5756 14.2425 42.1968 13.8637 42.1968ZM13.1062 45.3786H11.4395V43.7119H13.1062V45.3786Z" fill="#0E7BAB"/>
<path d="M20.3032 29.4697H17.1213C16.6667 29.4697 16.3638 29.7728 16.3638 30.2273V33.3334C16.3638 33.7879 16.6668 34.0909 17.1213 34.0909H20.3032C20.7578 34.0909 21.0607 33.7878 21.0607 33.3334V30.1515C21.0608 29.7728 20.682 29.4697 20.3032 29.4697ZM19.5456 32.5758H17.8789V30.9091H19.5456V32.5758Z" fill="#0E7BAB"/>
<path d="M20.3032 35.8333H17.1213C16.6667 35.8333 16.3638 36.1363 16.3638 36.5908V39.7727C16.3638 40.2272 16.6668 40.5302 17.1213 40.5302H20.3032C20.7578 40.5302 21.0607 40.2271 21.0607 39.7727V36.5908C21.0608 36.1363 20.682 35.8333 20.3032 35.8333ZM19.5456 39.0151H17.8789V37.3484H19.5456V39.0151Z" fill="#0E7BAB"/>
<path d="M20.3032 42.1968H17.1213C16.6667 42.1968 16.3638 42.4998 16.3638 42.9543V46.1362C16.3638 46.5908 16.6668 46.8937 17.1213 46.8937H20.3032C20.7578 46.8937 21.0607 46.5907 21.0607 46.1362V42.9543C21.0608 42.5756 20.682 42.1968 20.3032 42.1968ZM19.5456 45.3786H17.8789V43.7119H19.5456V45.3786Z" fill="#0E7BAB"/>
<path d="M26.6664 29.4697H23.5603C23.1057 29.4697 22.8027 29.7728 22.8027 30.2273V33.3334C22.8027 33.7879 23.1058 34.0909 23.5603 34.0909H26.6664C27.121 34.0909 27.4239 33.7878 27.4239 33.3334V30.1515C27.424 29.7728 27.121 29.4697 26.6664 29.4697ZM25.9088 32.5758H24.3179V30.9091H25.9088V32.5758Z" fill="#0E7BAB"/>
<path d="M26.6664 35.8333H23.5603C23.1057 35.8333 22.8027 36.1363 22.8027 36.5908V46.1363C22.8027 46.5909 23.1058 46.8938 23.5603 46.8938H26.6664C27.121 46.8938 27.4239 46.5908 27.4239 46.1363V36.5908C27.424 36.1363 27.121 35.8333 26.6664 35.8333ZM25.9088 45.3788H24.3179V37.3484H25.9088V45.3788Z" fill="#0E7BAB"/>
<path d="M49.7727 13.1818L36.2879 0.227291C36.1364 0.0757635 35.9091 0 35.7576 0H9.69693C9.24234 0 8.93939 0.303054 8.93939 0.757535V15.7575H0.757535C0.302953 15.7575 0 16.0606 0 16.515V49.2424C0 49.6969 0.303054 49.9999 0.757535 49.9999C1.21202 49.9999 2.72719 49.9999 49.2424 49.9999C49.6969 49.9999 49.9999 49.6968 49.9999 49.2424C49.9999 46.0605 49.9999 56.1363 49.9999 13.7121C50 13.5606 49.9242 13.3334 49.7727 13.1818ZM36.5152 2.49999L47.3485 12.8788H36.5152V2.49999ZM29.4697 48.4848H1.51517V17.2728H29.4697V48.4848ZM48.4848 48.4848H30.9849V16.5151C30.9849 16.0606 30.6818 15.7576 30.2273 15.7576H10.4546V1.51517H35V13.7122C35 14.1668 35.3031 14.4697 35.7576 14.4697H48.4848C48.4848 40.4546 48.4848 48.1061 48.4848 48.4848Z" fill="#0E7BAB"/>
<path d="M29.7729 4.77271H14.5456C14.091 4.77271 13.7881 5.07576 13.7881 5.53024C13.7881 5.98472 14.0911 6.28777 14.5456 6.28777H29.7729C30.2275 6.28777 30.5304 5.98472 30.5304 5.53024C30.5304 5.07576 30.2275 4.77271 29.7729 4.77271Z" fill="#0E7BAB"/>
<path d="M29.7729 9.24243H14.5456C14.091 9.24243 13.7881 9.54549 13.7881 9.99997C13.7881 10.4544 14.0911 10.7575 14.5456 10.7575H29.7729C30.2275 10.7575 30.5304 10.4544 30.5304 9.99997C30.5304 9.54549 30.2275 9.24243 29.7729 9.24243Z" fill="#0E7BAB"/>
<path d="M32.5757 24.1668C32.5757 28.182 35.8332 31.5153 39.8484 31.5153C43.8635 31.5153 47.1211 28.2577 47.1211 24.1668C47.1211 20.0759 43.8635 16.8184 39.8484 16.8184C35.8332 16.8184 32.5757 20.0759 32.5757 24.1668ZM39.8484 18.2578C43.0301 18.2578 45.606 20.8335 45.606 24.0911C45.606 27.3487 43.0302 29.9244 39.8484 29.9244C36.6665 29.9244 34.0908 27.3487 34.0908 24.0911C34.0908 20.8336 36.6666 18.2578 39.8484 18.2578Z" fill="#0E7BAB"/>
<path d="M39.8484 32.4243C35.8332 32.4243 32.5757 35.6818 32.5757 39.7728C32.5757 43.8637 35.8332 47.1212 39.8484 47.1212C43.8635 47.1212 47.1211 43.8637 47.1211 39.7728C47.1211 35.6818 43.8635 32.4243 39.8484 32.4243ZM39.8484 45.5304C36.6665 45.5304 34.0908 42.9546 34.0908 39.697C34.0908 36.4394 36.6665 33.8637 39.8484 33.8637C43.0301 33.8637 45.606 36.4395 45.606 39.697C45.606 42.9545 43.0302 45.5304 39.8484 45.5304Z" fill="#0E7BAB"/>
<path d="M37.7273 25.7574L36.9697 26.6665C37.7273 27.3483 38.6364 27.7271 39.6212 27.8786V28.6361H40.303V27.8786C41.0606 27.8786 41.5909 27.6513 42.0455 27.1968C42.5001 26.818 42.7272 26.2878 42.7272 25.6817C42.7272 25.0756 42.5 24.5453 42.1211 24.2423C41.7423 23.8634 41.1363 23.5605 40.3029 23.409V21.3636C40.8333 21.4393 41.3635 21.6666 41.8181 21.9696L42.4999 20.9847C41.8181 20.5302 41.0605 20.2272 40.3029 20.1514V19.6211H39.6211V20.1514C38.9394 20.1514 38.3333 20.3787 37.9544 20.8332C37.4999 21.212 37.2727 21.7423 37.2727 22.3484C37.2727 22.9545 37.4242 23.409 37.803 23.7878C38.1818 24.0908 38.7879 24.3938 39.5455 24.5453V26.6665C38.9394 26.5907 38.2575 26.2878 37.7273 25.7574ZM40.2273 24.6968C40.6818 24.8484 40.9848 24.9999 41.1363 25.0757C41.2878 25.2272 41.3636 25.4545 41.3636 25.6818C41.3636 25.9848 41.2878 26.2121 41.0606 26.3635C40.8333 26.5151 40.606 26.6666 40.2273 26.6666V24.6968ZM38.7879 22.8029C38.6363 22.6513 38.5606 22.4998 38.5606 22.1968C38.5606 21.9695 38.6363 21.7422 38.8636 21.5907C39.0151 21.4392 39.3182 21.3635 39.6211 21.2877V23.1817C39.2423 23.0302 38.9394 22.9544 38.7879 22.8029Z" fill="#0E7BAB"/>
<path d="M37.8789 39.3183C38.2578 39.3183 38.6365 39.1667 38.9395 38.8637C39.2426 38.5606 39.3941 38.1819 39.3941 37.8031C39.3941 37.3485 39.2426 37.0456 39.0153 36.7425C38.6365 36.3637 38.3335 36.2122 37.8789 36.2122C37.5001 36.2122 37.1214 36.3637 36.8184 36.6667C36.5153 36.9698 36.3638 37.3485 36.3638 37.7273C36.3638 38.1819 36.5153 38.4849 36.7426 38.7879C37.1213 39.1668 37.5001 39.3183 37.8789 39.3183ZM37.5001 37.2728C37.5759 37.1213 37.7274 37.0456 37.8789 37.0456C38.0305 37.0456 38.182 37.1213 38.2578 37.2728C38.3335 37.4244 38.4093 37.5759 38.4093 37.7274C38.4093 37.9547 38.3335 38.1062 38.2578 38.182C38.182 38.3335 38.0305 38.4093 37.8789 38.4093C37.7274 38.4093 37.5759 38.3335 37.5001 38.182C37.4244 38.0305 37.3486 37.879 37.3486 37.7274C37.3486 37.5759 37.4244 37.4244 37.5001 37.2728Z" fill="#0E7BAB"/>
<path d="M41.667 36.3635L36.667 43.1816H37.9549L42.8791 36.3635H41.667Z" fill="#0E7BAB"/>
<path d="M41.7422 40.1516C41.3634 40.1516 40.9847 40.3031 40.6816 40.6062C40.3786 40.9092 40.2271 41.288 40.2271 41.6668C40.2271 42.1214 40.3786 42.4243 40.6059 42.7274C40.9089 43.0304 41.2119 43.182 41.6665 43.182C42.0453 43.182 42.424 43.0304 42.727 42.7274C43.0301 42.4243 43.1816 42.0456 43.1816 41.6668C43.1816 41.2122 43.0301 40.9092 42.8028 40.6062C42.4998 40.3031 42.1967 40.1516 41.7422 40.1516ZM42.1967 42.197C42.1209 42.3486 41.9694 42.4243 41.8179 42.4243C41.6664 42.4243 41.5148 42.3486 41.4391 42.197C41.3633 42.0455 41.2875 41.894 41.2875 41.7424C41.2875 41.5152 41.3633 41.3636 41.4391 41.2879C41.5148 41.1363 41.6664 41.0606 41.8179 41.0606C41.9694 41.0606 42.1209 41.1363 42.1967 41.2879C42.2725 41.4394 42.3482 41.5909 42.3482 41.7424C42.3482 41.894 42.2725 42.1213 42.1967 42.197Z" fill="#0E7BAB"/>
</svg>
