<svg width="50" height="50" viewBox="0 0 50 50" fill="none" xmlns="http://www.w3.org/2000/svg">
<path d="M49.159 43.3226H47.4926V41.6562H45.8262V43.3226H44.1598V41.6562H42.4934V43.3226H30.0938C29.2045 43.3182 28.3904 43.8202 27.9957 44.6168C27.8831 44.8458 27.6487 44.9907 27.3932 44.989H22.595C22.3391 44.9907 22.1051 44.8458 21.9924 44.6168C21.5982 43.8214 20.7862 43.3194 19.8984 43.3226H7.49884V28.325H5.83243V43.3226H4.16602V28.325H2.49961V43.3226H0.833204C0.37307 43.3226 0 43.6957 0 44.1558V46.6554C0 48.496 1.49228 49.9883 3.33282 49.9883H46.6594C48.5 49.9883 49.9923 48.496 49.9923 46.6554V44.1558C49.9923 43.6957 49.6192 43.3226 49.159 43.3226ZM48.3258 46.6554C48.3258 47.5757 47.5797 48.3218 46.6594 48.3218H3.33282C2.41255 48.3218 1.66641 47.5757 1.66641 46.6554V44.989H19.8984C20.1543 44.9874 20.3883 45.1322 20.501 45.3613C20.8952 46.1567 21.7072 46.6587 22.595 46.6554H27.3973C28.2866 46.6603 29.1007 46.1579 29.4953 45.3613C29.6076 45.1335 29.8395 44.989 30.0938 44.989H48.3258V46.6554Z" fill="#0E7BAB"/>
<path d="M21.6632 13.3273V11.6609H6.66553C4.36568 11.6637 2.50236 13.5271 2.49951 15.8269V16.6601H4.16592V15.8269C4.16592 14.4465 5.28513 13.3273 6.66553 13.3273H21.6632Z" fill="#0E7BAB"/>
<path d="M5.83252 16.6603H23.3298V14.9939H7.49893C6.57866 14.9939 5.83252 15.74 5.83252 16.6603Z" fill="#0E7BAB"/>
<path d="M47.2743 10.4837L48.2743 7.33196C48.3455 7.1086 48.3195 6.86531 48.2027 6.6623C48.0855 6.45929 47.8882 6.31486 47.6596 6.26441L44.4272 5.55774L43.7242 2.32907C43.6746 2.10043 43.5314 1.9027 43.3288 1.78513C43.1262 1.66714 42.8837 1.63988 42.6603 1.71027L39.5082 2.70987L37.2766 0.268026C37.1151 0.101629 36.893 0.00805664 36.6611 0.00805664C36.4292 0.00805664 36.2071 0.101629 36.0456 0.268026L33.8173 2.71434L30.6619 1.71027C30.4385 1.63866 30.1956 1.66511 29.9922 1.78228C29.7892 1.89945 29.6448 2.09676 29.5947 2.32581L28.8881 5.55774L25.6626 6.26441C25.4336 6.31446 25.2363 6.45888 25.1191 6.6619C25.0019 6.86531 24.9759 7.1082 25.0471 7.33196L26.0471 10.4837L23.6008 12.712C23.4275 12.8698 23.3286 13.0932 23.3286 13.3275C23.3286 13.5619 23.4275 13.7852 23.6008 13.9431L26.0471 16.1713L25.0471 19.3231C24.9759 19.5469 25.0019 19.7898 25.1191 19.9932C25.2363 20.1962 25.4336 20.3406 25.6626 20.3906L28.895 21.0973L29.6012 24.3293C29.6513 24.5583 29.7957 24.7556 29.9991 24.8728C30.2021 24.99 30.4454 25.0164 30.6688 24.9448L33.8206 23.9407L36.0488 26.387C36.2067 26.5604 36.43 26.6592 36.6644 26.6592C36.8987 26.6592 37.1225 26.5604 37.2803 26.387L39.5082 23.9407L42.6603 24.9448C42.8837 25.0164 43.1266 24.99 43.33 24.8728C43.533 24.7556 43.6774 24.5583 43.7275 24.3293L44.4341 21.0973L47.6661 20.3906C47.8951 20.3406 48.0924 20.1962 48.2096 19.9932C48.3268 19.7898 48.3532 19.5469 48.2816 19.3231L47.282 16.1713L49.7283 13.9431C49.9012 13.7852 50.0001 13.5619 50.0001 13.3275C50.0001 13.0932 49.9012 12.8698 49.7283 12.712L47.2743 10.4837ZM45.7572 15.2991C45.5167 15.5184 45.4256 15.8577 45.5249 16.1681L46.4098 18.9582L43.5493 19.5839C43.2319 19.6539 42.9842 19.9016 42.9142 20.219L42.2917 23.0762L39.5016 22.1877C39.1912 22.09 38.8523 22.1807 38.6326 22.4204L36.6611 24.5884L34.6896 22.422C34.5317 22.2487 34.3084 22.1502 34.074 22.1502C33.989 22.1506 33.9048 22.1637 33.8242 22.1897L31.0305 23.0762L30.4047 20.2157C30.3348 19.8984 30.087 19.6506 29.7697 19.5806L26.9124 18.9582L27.801 16.1681C27.8998 15.8577 27.8091 15.5184 27.5683 15.2991L25.4002 13.3275L27.5666 11.356C27.8075 11.1367 27.8982 10.7974 27.7989 10.487L26.9124 7.69689L29.7729 7.07117C30.0903 7.0012 30.338 6.75343 30.408 6.4361L31.0305 3.57888L33.8206 4.46741C34.131 4.56627 34.4703 4.47555 34.6896 4.2347L36.6611 2.06666L38.6326 4.23307C38.8519 4.47392 39.1912 4.56464 39.5016 4.46538L42.2917 3.57888L42.9175 6.43935C42.9874 6.75669 43.2352 7.00445 43.5525 7.07443L46.413 7.70015L45.5249 10.4906C45.4256 10.8007 45.5167 11.14 45.7572 11.3597L47.922 13.3275L45.7572 15.2991Z" fill="#0E7BAB"/>
<path d="M31.9058 16.9046L40.2374 8.57251L41.416 9.75071L33.084 18.0828L31.9058 16.9046Z" fill="#0E7BAB"/>
<path d="M34.9943 10.8277C34.9943 9.44734 33.8751 8.32812 32.4947 8.32812C31.1143 8.32812 29.9951 9.44734 29.9951 10.8277C29.9951 12.2081 31.1143 13.3274 32.4947 13.3274C33.8751 13.3274 34.9943 12.2081 34.9943 10.8277ZM31.6615 10.8277C31.6615 10.3676 32.0346 9.99453 32.4947 9.99453C32.9549 9.99453 33.3279 10.3676 33.3279 10.8277C33.3279 11.2879 32.9549 11.6609 32.4947 11.6609C32.0346 11.6609 31.6615 11.2879 31.6615 10.8277Z" fill="#0E7BAB"/>
<path d="M40.8273 13.3274C39.4469 13.3274 38.3276 14.4466 38.3276 15.827C38.3276 17.2074 39.4469 18.3266 40.8273 18.3266C42.2077 18.3266 43.3269 17.2074 43.3269 15.827C43.3269 14.4466 42.2077 13.3274 40.8273 13.3274ZM40.8273 16.6602C40.3671 16.6602 39.9941 16.2871 39.9941 15.827C39.9941 15.3669 40.3671 14.9938 40.8273 14.9938C41.2874 14.9938 41.6605 15.3669 41.6605 15.827C41.6605 16.2871 41.2874 16.6602 40.8273 16.6602Z" fill="#0E7BAB"/>
<path d="M21.6333 22.2986C21.3546 22.2319 21.0609 22.3145 20.8579 22.5166L12.7256 30.5647L10.7484 31.7413C9.43592 32.5045 8.84356 34.0871 9.33218 35.5249C9.7146 36.6905 10.7366 37.5298 11.9542 37.6795L13.6898 41.1913C13.8306 41.4765 14.1215 41.6568 14.4396 41.6555H17.7175C17.9986 41.6559 18.261 41.5144 18.4152 41.2792C18.5694 41.0441 18.5947 40.7467 18.4824 40.4891L16.7574 36.507L25.8152 36.6571H25.8295C26.0988 36.6571 26.3514 36.5269 26.5077 36.3076C26.6639 36.0884 26.7046 35.8068 26.6167 35.5521L22.2318 22.8376C22.1382 22.5671 21.9124 22.3637 21.6333 22.2986ZM10.9152 34.9907C10.6808 34.2983 10.9669 33.5371 11.5991 33.1701L12.9006 32.3979L14.3578 35.28L13.1239 35.8906C12.7102 36.0961 12.2272 36.1115 11.8009 35.9338C11.3818 35.7641 11.058 35.4195 10.9152 34.9907ZM14.9579 39.9899L13.698 37.4452C13.7504 37.422 13.807 37.413 13.8595 37.387L15.0613 36.7922L16.4457 39.9899H14.9579ZM15.9978 34.8316L14.2614 31.3939L21.0935 24.633L24.659 34.9716L15.9978 34.8316Z" fill="#0E7BAB"/>
<path d="M25.9629 28.5375L28.7184 27.5798L29.2648 29.1531L26.5097 30.1108L25.9629 28.5375Z" fill="#0E7BAB"/>
<path d="M23.7979 22.9984L25.6355 21.083L26.8381 22.2368L25.0001 24.1522L23.7979 22.9984Z" fill="#0E7BAB"/>
<path d="M28.3291 34.1577H30.8287V35.8241H28.3291V34.1577Z" fill="#0E7BAB"/>
<path d="M49.1592 28.3249H47.4928V22.4924H45.8264V28.3249H44.16V26.6585H42.4936V28.3249H33.3283C32.8682 28.3249 32.4951 28.6979 32.4951 29.1581V39.1565C32.4951 39.6167 32.8682 39.9897 33.3283 39.9897H49.1592C49.6193 39.9897 49.9924 39.6167 49.9924 39.1565V29.1581C49.9924 28.6979 49.6193 28.3249 49.1592 28.3249ZM48.326 38.3233H34.1615V29.9913H48.326V38.3233Z" fill="#0E7BAB"/>
<path d="M35.8276 31.658H39.1604V33.3244H35.8276V31.658Z" fill="#0E7BAB"/>
<path d="M40.8271 31.658H46.6596V33.3244H40.8271V31.658Z" fill="#0E7BAB"/>
<path d="M35.8276 34.9905H46.6593V36.6569H35.8276V34.9905Z" fill="#0E7BAB"/>
<path d="M0.833204 26.6589H13.3313C13.7914 26.6589 14.1645 26.2859 14.1645 25.8257V19.1601C14.1645 18.7 13.7914 18.3269 13.3313 18.3269H0.833204C0.37307 18.3269 0 18.7 0 19.1601V25.8257C0 26.2859 0.37307 26.6589 0.833204 26.6589ZM1.66641 19.9933H12.4981V24.9925H1.66641V19.9933Z" fill="#0E7BAB"/>
<path d="M3.33252 21.6597H4.99893V23.3261H3.33252V21.6597Z" fill="#0E7BAB"/>
<path d="M6.66553 21.6597H10.8315V23.3261H6.66553V21.6597Z" fill="#0E7BAB"/>
</svg>
