<svg width="14" height="15" viewBox="0 0 14 15" fill="none" xmlns="http://www.w3.org/2000/svg">
<path d="M12.625 14.7502H1.375C1.07673 14.7499 0.790781 14.6313 0.579875 14.4204C0.368969 14.2095 0.250335 13.9235 0.25 13.6252V7.12408C0.250136 6.96736 0.282946 6.81239 0.346336 6.66906C0.409726 6.52573 0.502302 6.39719 0.618156 6.29165L6.24273 1.17754C6.44934 0.988293 6.71935 0.883314 6.99953 0.883301C7.27971 0.883288 7.54973 0.988242 7.75635 1.17747L13.3818 6.29165V6.29172C13.4977 6.39726 13.5903 6.5258 13.6537 6.66913C13.7171 6.81246 13.7499 6.96743 13.75 7.12415V13.6252C13.7497 13.9235 13.631 14.2095 13.4201 14.4204C13.2092 14.6313 12.9233 14.7499 12.625 14.7502ZM6.99958 2.0099L1.375 7.12401V13.6252H12.625V7.12408L6.99958 2.0099Z" fill="#0E7BAB"/>
</svg>
