<svg width="16" height="12" viewBox="0 0 16 12" fill="none" xmlns="http://www.w3.org/2000/svg">
<path d="M2.9375 5.23139e-09H13.0625C13.6851 -4.076e-05 14.2841 0.238165 14.7367 0.665754C15.1892 1.09334 15.461 1.6779 15.4963 2.2995L15.5 2.4375V9.5625C15.5 10.1851 15.2618 10.7841 14.8342 11.2367C14.4067 11.6892 13.8221 11.961 13.2005 11.9963L13.0625 12H2.9375C2.3149 12 1.71588 11.7618 1.26333 11.3342C0.810775 10.9067 0.538999 10.3221 0.50375 9.7005L0.5 9.5625V2.4375C0.499959 1.8149 0.738166 1.21588 1.16575 0.763327C1.59334 0.310775 2.1779 0.038999 2.7995 0.00375009L2.9375 5.23139e-09H13.0625H2.9375ZM14.375 4.02975L8.2625 7.24725C8.19348 7.28371 8.11763 7.30541 8.03977 7.31096C7.96191 7.31651 7.88374 7.3058 7.81025 7.2795L7.73825 7.248L1.625 4.0305V9.5625C1.62501 9.89189 1.74888 10.2092 1.97201 10.4515C2.19514 10.6938 2.50122 10.8434 2.8295 10.8705L2.9375 10.875H13.0625C13.392 10.875 13.7095 10.751 13.9518 10.5277C14.1941 10.3044 14.3436 9.99816 14.3705 9.66975L14.375 9.5625V4.02975ZM13.0625 1.125H2.9375C2.60811 1.12501 2.29076 1.24888 2.04846 1.47201C1.80615 1.69514 1.6566 2.00122 1.6295 2.3295L1.625 2.4375V2.75925L8 6.114L14.375 2.7585V2.4375C14.375 2.10799 14.251 1.79054 14.0277 1.54822C13.8044 1.3059 13.4982 1.15643 13.1698 1.1295L13.0625 1.125Z" fill="#0E7BAB"/>
</svg>
