<svg width="61" height="61" viewBox="0 0 61 61" fill="none" xmlns="http://www.w3.org/2000/svg">
<path d="M60.2445 26.1323C59.6127 25.1773 58.6548 24.5192 57.5413 24.2698C58.2596 22.8945 58.2303 21.1786 57.3153 19.7959C56.6644 18.8116 55.6824 18.1759 54.6134 17.9353C54.8041 17.5713 54.945 17.1786 55.0291 16.7644C55.2625 15.6125 55.0347 14.4388 54.3861 13.4591C53.7542 12.5037 52.7964 11.8456 51.6828 11.5966C52.4012 10.2214 52.3719 8.50549 51.4569 7.12234C50.1192 5.1002 47.3862 4.54406 45.3655 5.88346L40.9902 8.78379C38.658 7.59983 36.1775 6.7598 33.603 6.28137C32.7893 5.04482 31.8431 3.8953 30.784 2.86771L28.9739 1.11178C27.6483 -0.174566 25.5695 -0.367705 24.0305 0.652903C22.2097 1.85967 21.7094 4.32439 22.9151 6.14687C22.9625 6.21901 23.009 6.29161 23.055 6.36421C17.1217 7.56586 11.7143 10.7175 7.71192 15.3356C3.36876 20.3474 0.976562 26.7661 0.976562 33.4092C0.976562 34.6825 1.06351 35.9581 1.23554 37.1998C2.56113 46.8525 8.98497 55.1709 17.9995 58.9095C21.3426 60.2963 24.8897 61 28.541 61C34.3237 61 39.859 59.2273 44.549 55.8742C49.1372 52.5931 52.57 48.0653 54.4767 42.7803C54.6548 42.2879 54.3996 41.7439 53.9076 41.5661C53.4153 41.3883 52.8722 41.6434 52.6946 42.1362C50.9189 47.0577 47.7214 51.2742 43.4471 54.3304C39.0807 57.4528 33.9262 59.1031 28.541 59.1031C25.7569 59.1031 23.0383 58.6633 20.4364 57.7958L28.1463 52.6853C28.1467 52.6848 28.1472 52.6848 28.1477 52.6843C28.1481 52.6843 28.1481 52.6839 28.1486 52.6834L34.5562 48.4362H34.5566C35.1318 48.0546 35.5247 47.4719 35.6623 46.7948C35.7999 46.1176 35.666 45.427 35.2848 44.8513L35.2001 44.7229L36.4448 43.8977C37.3329 43.309 38.4009 43.0782 39.4526 43.2471C40.9753 43.4919 42.5218 43.1568 43.8069 42.3047L54.1308 35.4615C54.0602 36.3579 53.9439 37.2491 53.7816 38.1254C53.6859 38.6406 54.0257 39.1358 54.5404 39.2312C54.5986 39.2424 54.6572 39.2475 54.7143 39.2475C55.1621 39.2475 55.5601 38.9283 55.6447 38.4717C55.9074 37.0574 56.0585 35.6086 56.0976 34.158L59.0068 32.2294C59.9855 31.5806 60.6537 30.5889 60.8871 29.4375C61.121 28.2856 60.8927 27.1119 60.2445 26.1323ZM39.1504 10.0031L36.2551 11.9224L35.6851 10.3852C35.447 9.7439 35.1741 9.11515 34.8719 8.4999C36.3407 8.87268 37.7709 9.37531 39.1504 10.0031ZM9.14352 16.5787C12.9901 12.1402 18.2297 9.15657 23.9617 8.122C24.8814 10.3522 25.1017 12.8439 24.5522 15.2188L22.2418 25.2094C21.8787 24.8212 21.4072 24.5536 20.8762 24.4457C20.1992 24.3075 19.5097 24.442 18.9346 24.8236L12.3903 29.161C12.3898 29.161 12.3898 29.161 12.3894 29.1615C12.3894 29.1615 12.3889 29.1615 12.3889 29.162L2.9503 35.4183C2.89869 34.7518 2.87172 34.0802 2.87172 33.4092C2.87172 27.2231 5.09933 21.2456 9.14352 16.5787ZM33.8053 46.4164C33.7685 46.597 33.6634 46.7529 33.5095 46.8548H33.51L27.8822 50.585L17.4369 34.9929C17.1454 34.5577 16.5568 34.4419 16.122 34.7337C15.6878 35.0255 15.5715 35.6142 15.8631 36.0493L26.3018 51.6326L18.2678 56.9581C10.2845 53.463 4.5716 46.0818 3.19812 37.493L12.6479 31.2497L13.7354 32.8739C13.9186 33.1467 14.2181 33.2942 14.5235 33.2942C14.7049 33.2942 14.8885 33.2425 15.0503 33.1336C15.4851 32.8418 15.6013 32.2526 15.3098 31.8175L14.2297 30.2049L19.9812 26.405C20.1342 26.3031 20.3178 26.2677 20.4982 26.3045C20.6786 26.3412 20.8344 26.4464 20.9362 26.6L33.7048 45.8989C33.8062 46.052 33.842 46.2359 33.8053 46.4164ZM59.0301 29.0596C58.8971 29.7149 58.5172 30.2789 57.9602 30.648L54.6344 32.8525C54.6334 32.853 54.6325 32.8539 54.6311 32.8544L42.7603 40.7233C41.8723 41.312 40.8042 41.5433 39.7525 41.3739C38.2303 41.1296 36.6838 41.4642 35.3982 42.3163L34.1535 43.1415L23.6957 27.3353L26.399 15.6469C27.095 12.6359 26.7282 9.4642 25.4021 6.70116C25.39 6.6723 25.377 6.64438 25.3621 6.61692C25.1073 6.09475 24.8181 5.58793 24.495 5.09927C23.8664 4.14894 24.1272 2.86399 25.0771 2.23431C25.8796 1.70237 26.9639 1.80289 27.6548 2.47352L29.4649 4.22992C31.4228 6.13012 32.9595 8.48687 33.908 11.0456L34.8937 13.7035C34.8956 13.7086 34.8974 13.7128 34.8993 13.7174C34.9016 13.7235 34.9044 13.73 34.9067 13.736C34.9137 13.7523 34.9202 13.7672 34.9272 13.7798C34.9463 13.8198 34.9672 13.8594 34.9923 13.8971C35.2815 14.3341 35.8692 14.4537 36.3053 14.1642L46.4121 7.46533C47.5615 6.70348 49.1158 7.01948 49.8769 8.16994C50.6381 9.32039 50.3224 10.8762 49.173 11.638L48.2956 12.2198C48.2956 12.2198 48.2952 12.2198 48.2947 12.2203L46.3377 13.5178C46.3349 13.5196 46.333 13.5215 46.3303 13.5229C46.3191 13.5308 46.3084 13.5382 46.2996 13.5457C45.8951 13.8431 45.7904 14.4085 46.0708 14.832C46.3595 15.269 46.9477 15.3887 47.3843 15.0992L49.3427 13.8007C49.8993 13.4326 50.5655 13.3028 51.2197 13.4359C51.8739 13.569 52.4379 13.9492 52.8062 14.5067C53.1749 15.0638 53.3051 15.7316 53.1721 16.3865C53.0391 17.0417 52.6592 17.6058 52.1022 17.9748L49.2669 19.8546C48.8303 20.1436 48.7108 20.7318 49 21.1688C49.1823 21.4444 49.4836 21.5937 49.7909 21.5937C49.9704 21.5937 50.1522 21.5426 50.3131 21.436L50.752 21.1451L52.2705 20.1385C53.4204 19.3766 54.9743 19.6926 55.7354 20.8431C56.4965 21.994 56.1808 23.5493 55.0314 24.3116L53.6152 25.2503C53.6077 25.255 53.6003 25.2601 53.5929 25.2652L52.1961 26.1909C51.7595 26.4799 51.6401 27.0686 51.9293 27.5056C52.1115 27.7811 52.4128 27.9305 52.7201 27.9305C52.8996 27.9305 53.0814 27.8793 53.2423 27.7728L53.6812 27.4819C53.6812 27.4819 53.6812 27.4814 53.6817 27.4814L55.2002 26.4753C55.7568 26.1062 56.4235 25.9759 57.0782 26.1095C57.7328 26.2421 58.2964 26.6228 58.6651 27.1799C59.0333 27.7369 59.163 28.4048 59.0301 29.0596Z" fill="white"/>
</svg>
