<svg width="21" height="20" viewBox="0 0 21 20" fill="none" xmlns="http://www.w3.org/2000/svg">
<path d="M17.6353 16.075L14.802 13.25C15.7161 12.0854 16.2121 10.6472 16.2103 9.16667C16.2103 7.84813 15.8193 6.5592 15.0868 5.46287C14.3542 4.36654 13.313 3.51206 12.0948 3.00747C10.8767 2.50289 9.53623 2.37087 8.24302 2.6281C6.94981 2.88534 5.76193 3.52027 4.82958 4.45262C3.89723 5.38497 3.26229 6.57286 3.00505 7.86607C2.74782 9.15927 2.87984 10.4997 3.38443 11.7179C3.88901 12.9361 4.74349 13.9773 5.83982 14.7098C6.93615 15.4423 8.22508 15.8333 9.54362 15.8333C11.0242 15.8352 12.4623 15.3392 13.627 14.425L16.452 17.2583C16.5294 17.3364 16.6216 17.3984 16.7231 17.4407C16.8247 17.4831 16.9336 17.5048 17.0436 17.5048C17.1536 17.5048 17.2626 17.4831 17.3641 17.4407C17.4657 17.3984 17.5578 17.3364 17.6353 17.2583C17.7134 17.1809 17.7754 17.0887 17.8177 16.9872C17.86 16.8856 17.8818 16.7767 17.8818 16.6667C17.8818 16.5567 17.86 16.4477 17.8177 16.3462C17.7754 16.2446 17.7134 16.1525 17.6353 16.075ZM4.54362 9.16667C4.54362 8.17776 4.83687 7.21106 5.38627 6.38882C5.93568 5.56657 6.71658 4.92571 7.63021 4.54727C8.54384 4.16883 9.54917 4.06982 10.5191 4.26274C11.489 4.45567 12.3799 4.93187 13.0792 5.63114C13.7784 6.3304 14.2546 7.22131 14.4475 8.19122C14.6405 9.16112 14.5415 10.1665 14.163 11.0801C13.7846 11.9937 13.1437 12.7746 12.3215 13.324C11.4992 13.8734 10.5325 14.1667 9.54362 14.1667C8.21754 14.1667 6.94577 13.6399 6.00809 12.7022C5.07041 11.7645 4.54362 10.4928 4.54362 9.16667Z" fill="white"/>
</svg>
