<svg width="532" height="572" viewBox="0 0 532 572" fill="none" xmlns="http://www.w3.org/2000/svg">
<path opacity="0.6" d="M303.908 558.845C305.274 557.625 307.052 556.966 308.886 557.001C310.719 557.036 312.471 557.763 313.789 559.034C315.107 560.306 315.894 562.028 315.99 563.854C316.086 565.681 315.485 567.475 314.309 568.878C313.635 569.551 312.835 570.084 311.955 570.448C311.074 570.813 310.13 571 309.177 571C308.223 571 307.279 570.813 306.399 570.448C305.518 570.084 304.718 569.551 304.045 568.878C302.756 567.532 302.026 565.749 302.001 563.889C301.975 562.028 302.657 560.226 303.908 558.845Z" fill="white"/>
<path opacity="0.6" d="M453.908 327.845C455.274 326.625 457.052 325.966 458.886 326.001C460.719 326.036 462.471 326.763 463.789 328.034C465.107 329.306 465.894 331.028 465.99 332.854C466.086 334.681 465.485 336.475 464.309 337.878C463.635 338.551 462.835 339.084 461.955 339.448C461.074 339.813 460.13 340 459.177 340C458.223 340 457.279 339.813 456.399 339.448C455.518 339.084 454.718 338.551 454.045 337.878C452.756 336.532 452.026 334.749 452.001 332.889C451.975 331.028 452.657 329.226 453.908 327.845Z" fill="white"/>
<path opacity="0.6" d="M316.908 252.845C318.274 251.625 320.052 250.966 321.886 251.001C323.719 251.036 325.471 251.763 326.789 253.034C328.107 254.306 328.894 256.028 328.99 257.854C329.086 259.681 328.485 261.475 327.309 262.878C326.635 263.551 325.835 264.084 324.955 264.448C324.074 264.813 323.13 265 322.177 265C321.223 265 320.279 264.813 319.399 264.448C318.518 264.084 317.718 263.551 317.045 262.878C315.756 261.532 315.026 259.749 315.001 257.889C314.975 256.028 315.657 254.226 316.908 252.845Z" fill="white"/>
<path opacity="0.6" d="M193.908 55.8454C195.274 54.6253 197.052 53.9663 198.886 54.0013C200.719 54.0364 202.471 54.7627 203.789 56.0341C205.107 57.3056 205.894 59.0278 205.99 60.8541C206.086 62.6805 205.485 64.4754 204.309 65.8778C203.635 66.5506 202.835 67.0844 201.955 67.4485C201.074 67.8126 200.13 68 199.177 68C198.223 68 197.279 67.8126 196.399 67.4485C195.518 67.0844 194.718 66.5506 194.045 65.8778C192.756 64.5317 192.026 62.7494 192.001 60.8885C191.975 59.0276 192.657 57.226 193.908 55.8454Z" fill="white"/>
<path opacity="0.6" d="M12.9078 531.845C14.2738 530.625 16.0524 529.966 17.8857 530.001C19.719 530.036 21.4709 530.763 22.789 532.034C24.1071 533.306 24.8936 535.028 24.99 536.854C25.0864 538.681 24.4855 540.475 23.3085 541.878C22.6349 542.551 21.8351 543.084 20.9545 543.448C20.0739 543.813 19.1298 544 18.1766 544C17.2233 544 16.2794 543.813 15.3989 543.448C14.5183 543.084 13.7183 542.551 13.0446 541.878C11.7562 540.532 11.0261 538.749 11.0007 536.889C10.9753 535.028 11.6566 533.226 12.9078 531.845Z" fill="white"/>
<path opacity="0.65" d="M479.5 102.284C489.165 92.6187 489.165 76.9487 479.5 67.2837C469.835 57.6187 454.165 57.6187 444.5 67.2837C434.835 76.9487 434.835 92.6187 444.5 102.284C454.165 111.949 469.835 111.949 479.5 102.284Z" fill="#2E88B2"/>
<path opacity="0.65" d="M514.5 284.5C524.165 274.835 524.165 259.165 514.5 249.5C504.835 239.835 489.165 239.835 479.5 249.5C469.835 259.165 469.835 274.835 479.5 284.5C489.165 294.165 504.835 294.165 514.5 284.5Z" fill="#2E88B2"/>
<path opacity="0.65" d="M339.088 56.0881C349.413 45.7626 349.413 29.0216 339.088 18.6962C328.762 8.37066 312.021 8.37066 301.696 18.6962C291.37 29.0216 291.37 45.7626 301.696 56.0881C312.021 66.4136 328.762 66.4136 339.088 56.0881Z" fill="#2E88B2"/>
<path opacity="0.65" d="M377.5 140C387.717 140 396 131.717 396 121.5C396 111.283 387.717 103 377.5 103C367.283 103 359 111.283 359 121.5C359 131.717 367.283 140 377.5 140Z" fill="#2E88B2"/>
<path d="M384.39 114.014H371.61V116.084H384.39V114.014ZM381.996 127.262C381.402 127.262 381.294 127.154 381.294 126.47V120.962H386.046V118.874H369.99V120.962H374.058C373.842 123.95 373.338 126.38 369.594 127.784C370.08 128.198 370.674 128.99 370.926 129.53C375.228 127.784 376.056 124.706 376.38 120.962H379.08V126.47C379.08 128.576 379.602 129.26 381.636 129.26H383.796C385.632 129.26 386.172 128.324 386.388 125.102C385.794 124.958 384.876 124.58 384.408 124.202C384.318 126.794 384.21 127.262 383.616 127.262H381.996Z" fill="white"/>
<path d="M460.219 90.948H470.327V94H453.639V90.948H456.579V85.348H453.639V83.052H456.579V81.764C456.579 80.2147 456.915 78.8707 457.587 77.732C458.277 76.5747 459.276 75.688 460.583 75.072C461.889 74.4373 463.457 74.12 465.287 74.12C467.508 74.12 469.347 74.5587 470.803 75.436L469.655 78.404C468.516 77.676 466.995 77.312 465.091 77.312C463.504 77.312 462.291 77.6947 461.451 78.46C460.629 79.2067 460.219 80.2987 460.219 81.736V83.052H467.303V85.348H460.219V90.948Z" fill="white"/>
<path d="M494.099 269.672V271.04H499.379V272.72H494.099V275.216H490.979V272.72H488.579V271.04H490.979V258.416H497.891C500.131 258.416 501.875 258.896 503.123 259.856C504.387 260.816 505.019 262.216 505.019 264.056C505.019 265.88 504.387 267.272 503.123 268.232C501.875 269.192 500.131 269.672 497.891 269.672H494.099ZM501.875 264.08C501.875 263.104 501.531 262.36 500.843 261.848C500.155 261.32 499.163 261.056 497.867 261.056H494.099V267.152H497.867C499.147 267.152 500.131 266.888 500.819 266.36C501.523 265.816 501.875 265.056 501.875 264.08Z" fill="white"/>
<path d="M328.327 41.456C328.327 42.968 327.767 44.256 326.647 45.32C325.546 46.3653 323.941 47 321.831 47.224V50.36H319.535V47.252C318.154 47.1587 316.847 46.9067 315.615 46.496C314.383 46.0853 313.403 45.5627 312.675 44.928L313.935 42.1C314.626 42.66 315.466 43.136 316.455 43.528C317.445 43.9013 318.471 44.1347 319.535 44.228V38.628C318.21 38.3107 317.099 37.9653 316.203 37.592C315.326 37.2 314.589 36.64 313.991 35.912C313.394 35.1653 313.095 34.1853 313.095 32.972C313.095 31.46 313.646 30.172 314.747 29.108C315.849 28.044 317.445 27.4093 319.535 27.204V24.04H321.831V27.148C322.877 27.204 323.894 27.3813 324.883 27.68C325.891 27.9787 326.769 28.3707 327.515 28.856L326.367 31.684C324.949 30.8627 323.437 30.3587 321.831 30.172V35.828C323.175 36.1453 324.286 36.4907 325.163 36.864C326.059 37.2373 326.806 37.7973 327.403 38.544C328.019 39.272 328.327 40.2427 328.327 41.456ZM316.707 32.804C316.707 33.42 316.95 33.9147 317.435 34.288C317.921 34.6613 318.621 34.9787 319.535 35.24V30.256C318.583 30.4053 317.874 30.704 317.407 31.152C316.941 31.6 316.707 32.1507 316.707 32.804ZM321.831 44.172C322.821 44.0227 323.549 43.7333 324.015 43.304C324.501 42.8747 324.743 42.3427 324.743 41.708C324.743 41.0733 324.491 40.5693 323.987 40.196C323.483 39.804 322.765 39.4773 321.831 39.216V44.172Z" fill="white"/>
<path opacity="0.65" d="M488.83 165.436C491.231 155.085 484.786 144.748 474.436 142.347C464.085 139.946 453.748 146.39 451.347 156.741C448.946 167.091 455.391 177.428 465.741 179.829C476.091 182.23 486.429 175.786 488.83 165.436Z" fill="#2E88B2"/>
<path d="M479.31 154.156H475.228C475.765 154.641 476.181 155.239 476.476 155.95H479.31V157.77H476.866C476.883 157.891 476.892 158.065 476.892 158.29C476.892 159.659 476.537 160.821 475.826 161.774C475.133 162.71 474.145 163.412 472.862 163.88L477.23 170.536H473.59L469.612 164.452H469.17H464.282V161.592H468.962C470.505 161.592 471.64 161.28 472.368 160.656C473.113 160.032 473.486 159.191 473.486 158.134V157.77H462.748V155.95H472.94C472.576 155.361 472.039 154.91 471.328 154.598C470.635 154.286 469.768 154.139 468.728 154.156H462.748V152.336H479.31V154.156Z" fill="white"/>
<path d="M331.385 110H329.332V124.716H331.385V110Z" fill="#9192FF"/>
<path d="M337.716 116.332H323V118.384H337.716V116.332Z" fill="#9192FF"/>
<path d="M403.596 44H400.512V66.1035H403.596V44Z" fill="#9192FF"/>
<path d="M413.104 53.5078H391V56.5923H413.104V53.5078Z" fill="#9192FF"/>
<path d="M489.533 205H487.197V221.737H489.533V205Z" fill="#9192FF"/>
<path d="M496.737 212.197H480V214.533H496.737V212.197Z" fill="#9192FF"/>
<path opacity="0.4" d="M276.651 154.651C285.423 145.878 285.423 131.656 276.651 122.884C267.878 114.111 253.656 114.111 244.884 122.884C236.111 131.656 236.111 145.878 244.884 154.651C253.656 163.423 267.878 163.423 276.651 154.651Z" fill="#2E88B2"/>
<path d="M261.711 145.296C263.635 145.296 265.255 144.577 266.573 143.138L268.731 145.218C267.899 146.206 266.859 146.96 265.611 147.48C264.38 148 263.019 148.26 261.529 148.26C260.021 148.26 258.617 147.983 257.317 147.428C256.034 146.873 254.942 146.093 254.041 145.088C253.157 144.083 252.533 142.921 252.169 141.604H249.205V139.784H251.831C251.813 139.593 251.805 139.299 251.805 138.9C251.805 138.501 251.813 138.207 251.831 138.016H249.205V136.196H252.169C252.533 134.879 253.157 133.717 254.041 132.712C254.942 131.707 256.034 130.927 257.317 130.372C258.617 129.817 260.021 129.54 261.529 129.54C263.019 129.54 264.38 129.8 265.611 130.32C266.859 130.84 267.899 131.594 268.731 132.582L266.573 134.636C265.255 133.215 263.635 132.504 261.711 132.504C260.324 132.504 259.102 132.833 258.045 133.492C257.005 134.151 256.233 135.052 255.731 136.196H263.193V138.016H255.237C255.202 138.397 255.185 138.692 255.185 138.9C255.185 139.108 255.202 139.403 255.237 139.784H263.193V141.604H255.731C256.233 142.748 257.005 143.649 258.045 144.308C259.102 144.967 260.324 145.296 261.711 145.296Z" fill="white"/>
<path opacity="0.4" d="M270.928 494.667C287.863 494.667 301.592 480.938 301.592 464.003C301.592 447.067 287.863 433.338 270.928 433.338C253.992 433.338 240.263 447.067 240.263 464.003C240.263 480.938 253.992 494.667 270.928 494.667Z" fill="#2E88B2"/>
<path d="M214.138 508.98H213.177V508.097C214.629 508.118 216.106 508.097 217.555 508.005L217.608 508.885C216.47 508.945 215.301 508.98 214.138 508.98ZM208.736 508.733C207.263 508.602 205.779 508.408 204.327 508.164L204.472 507.295C205.885 507.535 207.365 507.722 208.817 507.853L208.736 508.733ZM222.049 508.454L221.933 507.577C223.374 507.383 224.826 507.132 226.247 506.828L226.43 507.694C224.989 508.001 223.512 508.256 222.067 508.454H222.049ZM199.97 507.263C198.536 506.91 197.098 506.493 195.695 506.03L195.974 505.193C197.352 505.648 198.769 506.055 200.182 506.404L199.97 507.263ZM230.741 506.606L230.493 505.758C231.889 505.348 233.288 504.878 234.645 504.366L234.959 505.193C233.578 505.73 232.161 506.189 230.741 506.606ZM191.522 504.486C190.159 503.917 188.798 503.288 187.481 502.617L187.88 501.829C189.176 502.49 190.516 503.108 191.862 503.67L191.522 504.486ZM239.047 503.468L238.676 502.67C239.991 502.052 241.301 501.38 242.563 500.667L242.997 501.433C241.718 502.151 240.39 502.836 239.051 503.461L239.047 503.468ZM183.576 500.451C182.315 499.684 181.068 498.858 179.863 497.978L180.379 497.271C181.562 498.119 182.792 498.932 184.036 499.688L183.576 500.451ZM246.799 499.098L246.308 498.363C247.516 497.554 248.71 496.692 249.841 495.794L250.385 496.501C249.23 497.402 248.021 498.278 246.799 499.098ZM176.376 495.261C175.245 494.314 174.132 493.311 173.076 492.279L173.694 491.646C174.736 492.66 175.814 493.65 176.945 494.586L176.376 495.261ZM253.795 493.621L253.201 492.968C254.261 491.989 255.321 490.954 256.324 489.897L256.967 490.502C255.946 491.576 254.879 492.625 253.788 493.621H253.795ZM170.009 489.06C169.034 487.951 168.087 486.792 167.182 485.615L167.889 485.082C168.765 486.241 169.698 487.382 170.663 488.474L170.009 489.06ZM259.896 487.152L259.208 486.597C260.126 485.463 261.013 484.283 261.84 483.089L262.564 483.594C261.72 484.806 260.819 486.004 259.889 487.152H259.896ZM164.646 481.973C163.844 480.729 163.084 479.443 162.381 478.15L163.158 477.726C163.865 479.001 164.6 480.27 165.388 481.496L164.646 481.973ZM264.96 479.853L264.196 479.407C264.931 478.15 265.631 476.849 266.267 475.542L267.062 475.931C266.405 477.249 265.698 478.567 264.952 479.842L264.96 479.853ZM160.409 474.175C159.809 472.829 159.247 471.44 158.749 470.055L159.579 469.755C160.074 471.122 160.639 472.486 161.218 473.814L160.409 474.175ZM268.86 471.861L268.04 471.532C268.577 470.182 269.069 468.79 269.503 467.398L270.348 467.663C269.899 469.062 269.411 470.476 268.853 471.85L268.86 471.861ZM157.41 465.805C157.017 464.391 156.675 462.922 156.392 461.473L157.258 461.303C157.537 462.717 157.873 464.165 158.261 465.568L157.41 465.805ZM271.51 463.356L270.648 463.162C270.973 461.749 271.249 460.297 271.468 458.859L272.34 458.989C272.111 460.452 271.828 461.918 271.499 463.356H271.51ZM155.703 457.081C155.53 455.615 155.413 454.124 155.35 452.647L156.233 452.612C156.293 454.064 156.413 455.534 156.586 456.975L155.703 457.081ZM272.838 454.569L271.959 454.506C272.065 453.057 272.121 451.584 272.121 450.128H273.005C272.994 451.608 272.945 453.103 272.828 454.569H272.838ZM272.132 449.538C272.132 448.079 272.047 446.605 271.923 445.16L272.803 445.086C272.93 446.552 273.001 448.047 273.015 449.527L272.132 449.538ZM156.226 448.227L155.343 448.199C155.389 446.722 155.495 445.228 155.65 443.765L156.53 443.86C156.35 445.312 156.247 446.772 156.201 448.227H156.226ZM271.39 440.808C271.16 439.37 270.867 437.924 270.528 436.511L271.386 436.306C271.74 437.741 272.026 439.207 272.263 440.666L271.39 440.808ZM157.162 439.518L156.293 439.355C156.562 437.903 156.89 436.444 157.268 435.017L158.12 435.243C157.724 436.656 157.41 438.094 157.138 439.525L157.162 439.518ZM269.341 432.296C268.895 430.911 268.39 429.526 267.839 428.18L268.655 427.827C269.217 429.198 269.715 430.6 270.182 432.006L269.341 432.296ZM159.402 431.056L158.569 430.763C159.056 429.367 159.6 427.972 160.19 426.618L160.999 426.972C160.395 428.314 159.858 429.685 159.378 431.063L159.402 431.056ZM266.03 424.195C265.38 422.898 264.67 421.608 263.91 420.358L264.67 419.905C265.429 421.17 266.147 422.481 266.807 423.792L266.03 424.195ZM162.904 423.022L162.123 422.608C162.83 421.304 163.568 420.008 164.356 418.757L165.101 419.23C164.299 420.467 163.561 421.743 162.879 423.029L162.904 423.022ZM261.504 416.694C260.663 415.503 259.769 414.333 258.844 413.213L259.526 412.652C260.465 413.789 261.373 414.977 262.225 416.185L261.504 416.694ZM167.553 415.634L166.847 415.107C167.727 413.924 168.666 412.754 169.631 411.638L170.299 412.217C169.345 413.302 168.419 414.454 167.553 415.634ZM255.929 409.981C254.918 408.921 253.858 407.907 252.774 406.939L253.364 406.281C254.462 407.264 255.54 408.302 256.565 409.369L255.929 409.981ZM173.288 409.03L172.662 408.405C173.722 407.345 174.811 406.348 175.934 405.391L176.506 406.062C175.404 406.974 174.319 407.974 173.288 408.998V409.03ZM249.399 404.14C248.248 403.257 247.043 402.402 245.824 401.607L246.308 400.869C247.544 401.678 248.781 402.543 249.936 403.441L249.399 404.14ZM179.944 403.345L179.421 402.639C180.612 401.766 181.852 400.932 183.106 400.165L183.573 400.914C182.336 401.632 181.117 402.455 179.944 403.313V403.345ZM242.068 399.349C240.793 398.643 239.475 397.982 238.15 397.381L238.503 396.576C239.846 397.187 241.185 397.862 242.481 398.575L242.068 399.349ZM187.375 398.724L186.968 397.94C188.279 397.258 189.629 396.618 190.982 396.035L191.335 396.848C189.996 397.388 188.668 398.021 187.375 398.692V398.724ZM234.08 395.682C232.716 395.184 231.313 394.728 229.914 394.332L230.154 393.484C231.567 393.883 232.998 394.346 234.394 394.855L234.08 395.682ZM195.402 395.247L195.116 394.413C196.529 393.936 197.942 393.505 199.377 393.138L199.599 393.993C198.204 394.357 196.79 394.788 195.416 395.247H195.402ZM225.656 393.304C224.243 393.018 222.78 392.781 221.332 392.597L221.441 391.721C222.911 391.901 224.388 392.142 225.83 392.428L225.656 393.304ZM203.878 393.06L203.723 392.191C205.171 391.933 206.652 391.725 208.125 391.576L208.217 392.453C206.779 392.601 205.32 392.806 203.892 393.06H203.878ZM216.968 392.226C215.513 392.156 214.036 392.138 212.587 392.177L212.563 391.294C214.036 391.255 215.534 391.272 217.011 391.343L216.968 392.226Z" fill="#9192FF"/>
<path d="M166.317 159.832V158.949C167.772 158.935 169.224 158.836 170.667 158.652L170.78 159.528C169.3 159.717 167.809 159.818 166.317 159.832ZM161.858 159.606C160.379 159.442 158.91 159.191 157.46 158.853L157.661 157.991C159.077 158.324 160.512 158.571 161.957 158.73L161.858 159.606ZM175.157 158.691L174.942 157.836C176.351 157.478 177.737 157.036 179.093 156.511L179.415 157.334C178.024 157.869 176.603 158.319 175.157 158.68V158.691ZM153.17 157.56C151.771 157.046 150.403 156.447 149.075 155.769L149.478 154.984C150.774 155.646 152.108 156.229 153.474 156.73L153.17 157.56ZM183.464 155.461L183.05 154.681C184.336 154.002 185.578 153.244 186.771 152.412L187.276 153.119C186.056 153.975 184.785 154.757 183.471 155.461H183.464ZM145.228 153.5C143.998 152.668 142.818 151.763 141.695 150.791L142.274 150.123C143.376 151.072 144.532 151.955 145.737 152.769L145.228 153.5ZM190.77 150.352L190.18 149.695C191.263 148.723 192.289 147.688 193.251 146.597L193.911 147.18C192.931 148.298 191.884 149.358 190.778 150.352H190.77ZM138.479 147.674C137.476 146.574 136.539 145.414 135.674 144.201L136.381 143.689C137.224 144.874 138.139 146.006 139.119 147.081L138.479 147.674ZM196.664 143.657L195.922 143.155C196.744 141.956 197.495 140.709 198.169 139.421L198.953 139.831C198.266 141.15 197.501 142.428 196.664 143.657ZM133.31 140.417C132.598 139.11 131.964 137.762 131.413 136.379L132.236 136.05C132.773 137.401 133.393 138.718 134.091 139.993L133.31 140.417ZM200.794 135.75L199.967 135.439C200.479 134.077 200.908 132.686 201.253 131.273L202.112 131.482C201.76 132.93 201.32 134.355 200.794 135.75ZM130.018 132.135C129.639 130.695 129.347 129.233 129.145 127.758L130.021 127.638C130.22 129.079 130.505 130.506 130.876 131.913L130.018 132.135ZM202.907 127.09L202.031 126.984C202.203 125.54 202.29 124.086 202.289 122.631C202.289 122.193 202.289 121.751 202.267 121.313L203.151 121.281C203.151 121.73 203.172 122.182 203.172 122.631C203.172 124.121 203.084 125.61 202.907 127.09ZM128.792 123.306C128.792 123.083 128.792 122.857 128.792 122.631C128.791 121.367 128.855 120.104 128.982 118.847L129.859 118.935C129.738 120.154 129.675 121.409 129.675 122.631C129.675 122.854 129.675 123.073 129.675 123.292L128.792 123.306ZM201.851 116.975C201.627 115.538 201.315 114.116 200.918 112.717L201.769 112.473C202.174 113.908 202.492 115.365 202.723 116.837L201.851 116.975ZM130.558 114.632L129.696 114.438C130.024 112.983 130.439 111.549 130.94 110.145L131.77 110.442C131.283 111.813 130.878 113.212 130.558 114.632ZM199.48 108.601C198.916 107.261 198.273 105.956 197.554 104.693L198.324 104.255C199.059 105.546 199.716 106.879 200.292 108.248L199.48 108.601ZM133.48 106.432L132.678 106.036C133.343 104.703 134.087 103.411 134.907 102.167L135.646 102.651C134.849 103.867 134.126 105.129 133.48 106.432ZM195.176 101.04C194.309 99.8718 193.373 98.7558 192.375 97.6975L193.018 97.0934C194.041 98.1751 194.999 99.3172 195.887 100.513L195.176 101.04ZM138.292 99.1638L137.617 98.5914C138.58 97.4558 139.61 96.3786 140.702 95.3656L141.302 96.0122C140.233 97.0018 139.223 98.0542 138.278 99.1638H138.292ZM189.209 94.7155C188.09 93.7848 186.918 92.9211 185.697 92.1293L186.174 91.3873C187.426 92.1963 188.628 93.08 189.774 94.0336L189.209 94.7155ZM144.655 93.2422L144.136 92.5356C145.341 91.6598 146.598 90.8575 147.899 90.133L148.33 90.9032C147.06 91.61 145.833 92.391 144.655 93.2422ZM181.888 89.9846C180.58 89.3457 179.235 88.7864 177.86 88.3099L178.15 87.4761C179.558 87.9656 180.936 88.5377 182.277 89.1896L181.888 89.9846ZM152.255 89.0095L151.92 88.1898C153.302 87.6254 154.718 87.1464 156.159 86.7553L156.393 87.6068C154.987 87.991 153.605 88.4594 152.255 89.0095ZM173.659 87.1369C172.237 86.8308 170.798 86.6113 169.349 86.4797L169.43 85.5999C170.915 85.7342 172.39 85.9596 173.847 86.2748L173.659 87.1369ZM160.65 86.7129L160.519 85.8402C161.993 85.6234 163.479 85.4948 164.968 85.4551L164.992 86.3384C163.539 86.3761 162.089 86.5012 160.65 86.7129Z" fill="#9192FF"/>
<path d="M17.673 349.807C15.1399 349.807 12.6636 349.056 10.5574 347.649C8.45116 346.242 6.80956 344.241 5.84017 341.901C4.87078 339.561 4.61715 336.985 5.11134 334.501C5.60553 332.017 6.82535 329.734 8.61654 327.943C10.4077 326.152 12.6899 324.932 15.1743 324.438C17.6588 323.944 20.234 324.197 22.5743 325.167C24.9146 326.136 26.9149 327.778 28.3223 329.884C29.7296 331.99 30.4808 334.467 30.4808 337C30.477 340.395 29.1264 343.651 26.7253 346.052C24.3242 348.453 21.0687 349.804 17.673 349.807ZM17.673 325.958C15.4893 325.958 13.3546 326.606 11.5389 327.819C9.72314 329.032 8.30796 330.757 7.47228 332.774C6.6366 334.792 6.41796 337.012 6.84398 339.154C7.27001 341.295 8.32158 343.263 9.86572 344.807C11.4099 346.351 13.3772 347.403 15.519 347.829C17.6608 348.255 19.8808 348.036 21.8983 347.2C23.9158 346.365 25.6402 344.95 26.8534 343.134C28.0666 341.318 28.7142 339.183 28.7142 337C28.7104 334.073 27.546 331.266 25.4762 329.197C23.4063 327.127 20.6002 325.962 17.673 325.958Z" fill="#9192FF"/>
<path d="M446.07 185.281H78.9771V456.686H446.07V185.281Z" fill="white"/>
<path d="M446.954 457.569H78.0903V184.398H446.954V457.569ZM79.8569 455.802H445.187V186.165H79.8569V455.802Z" fill="#339DCC"/>
<path d="M134.444 368.537H104.412V426.654H134.444V368.537Z" fill="url(#paint0_linear)"/>
<path d="M182.142 339.554H152.11V426.654H182.142V339.554Z" fill="url(#paint1_linear)"/>
<path d="M229.84 279.78H199.808V426.654H229.84V279.78Z" fill="url(#paint2_linear)"/>
<path d="M277.538 322.217H247.506V426.654H277.538V322.217Z" fill="url(#paint3_linear)"/>
<path d="M325.236 276.158H295.204V426.654H325.236V276.158Z" fill="url(#paint4_linear)"/>
<path d="M372.933 284.02H342.901V426.654H372.933V284.02Z" fill="url(#paint5_linear)"/>
<path d="M420.632 231.905H390.6V426.654H420.632V231.905Z" fill="url(#paint6_linear)"/>
<path d="M113.468 403.593L112.669 402.017L162.83 376.497L214.559 306.038L261.918 355.609L310.605 306.922L357.822 312.659L405.216 258.249L406.545 259.407L358.543 314.525L311.248 308.78L261.89 358.138L214.736 308.78L164.003 377.882L113.468 403.593Z" fill="#339DCC"/>
<path d="M336.426 218.787H188.623V220.553H336.426V218.787Z" fill="#339DCC"/>
<path d="M286.534 238.219H238.511V239.985H286.534V238.219Z" fill="#339DCC"/>
<path d="M171.387 140.417H0.883301V274.349H171.387V140.417Z" fill="white"/>
<path d="M172.271 275.232H0V139.534H172.271V275.232ZM1.76659 273.466H170.504V141.3H1.76659V273.466Z" fill="#339DCC"/>
<path d="M62.5015 162.358H24.0464V184.133H62.5015V162.358Z" fill="#D1D1FF"/>
<path d="M148.68 164.457H78.7192V165.383H148.68V164.457Z" fill="#339DCC"/>
<path d="M148.68 172.785H78.7192V173.71H148.68V172.785Z" fill="#D1D1FF"/>
<path d="M148.68 181.109H78.7192V182.035H148.68V181.109Z" fill="#D1D1FF"/>
<path d="M50.1501 227.581H42.1191V252.461H50.1501V227.581Z" fill="#C9E4E8"/>
<path d="M58.1808 215.472H50.1499V252.457H58.1808V215.472Z" fill="#339DCC"/>
<path d="M80.111 211.286H72.0801V252.302H80.111V211.286Z" fill="#C9E4E8"/>
<path d="M88.1422 237.124H80.1113V252.302H88.1422V237.124Z" fill="#339DCC"/>
<path d="M110.072 224.022H102.042V252.426H110.072V224.022Z" fill="#C9E4E8"/>
<path d="M118.104 217.741H110.073V252.422H118.104V217.741Z" fill="#339DCC"/>
<path d="M140.034 232.435H132.003V252.242H140.034V232.435Z" fill="#C9E4E8"/>
<path d="M148.065 204.982H140.034V252.242H148.065V204.982Z" fill="#339DCC"/>
<path d="M148.065 252.705H24.436V202.82H25.3617V251.78H148.065V252.705Z" fill="#339DCC"/>
<path d="M486.06 565.974L485.208 566.989L491.169 571.998L492.022 570.984L486.06 565.974Z" fill="#EBEBFF"/>
<path d="M412.526 565.976L411.673 566.99L417.635 572L418.487 570.986L412.526 565.976Z" fill="#EBEBFF"/>
<defs>
<linearGradient id="paint0_linear" x1="119.428" y1="368.537" x2="119.428" y2="426.654" gradientUnits="userSpaceOnUse">
<stop offset="0.0416667" stop-color="#00FFDF"/>
<stop offset="0.479167" stop-color="#00C3D4"/>
</linearGradient>
<linearGradient id="paint1_linear" x1="167.126" y1="339.554" x2="167.126" y2="426.654" gradientUnits="userSpaceOnUse">
<stop stop-color="#00FFDF"/>
<stop offset="0.265625" stop-color="#00C3D4"/>
</linearGradient>
<linearGradient id="paint2_linear" x1="214.824" y1="279.78" x2="214.824" y2="426.654" gradientUnits="userSpaceOnUse">
<stop stop-color="#00FFDF"/>
<stop offset="0.265625" stop-color="#00C3D4"/>
</linearGradient>
<linearGradient id="paint3_linear" x1="262.522" y1="322.217" x2="262.522" y2="426.654" gradientUnits="userSpaceOnUse">
<stop stop-color="#00FFDF"/>
<stop offset="0.265625" stop-color="#00C3D4"/>
</linearGradient>
<linearGradient id="paint4_linear" x1="310.22" y1="276.158" x2="310.22" y2="426.654" gradientUnits="userSpaceOnUse">
<stop stop-color="#00FFDF"/>
<stop offset="0.265625" stop-color="#00C3D4"/>
</linearGradient>
<linearGradient id="paint5_linear" x1="357.917" y1="284.02" x2="357.917" y2="426.654" gradientUnits="userSpaceOnUse">
<stop stop-color="#00FFDF"/>
<stop offset="0.265625" stop-color="#00C3D4"/>
</linearGradient>
<linearGradient id="paint6_linear" x1="405.616" y1="231.905" x2="405.616" y2="426.654" gradientUnits="userSpaceOnUse">
<stop stop-color="#00FFDF"/>
<stop offset="0.265625" stop-color="#00C3D4"/>
</linearGradient>
</defs>
</svg>
