<svg width="2048" height="489" viewBox="0 0 2048 489" fill="none" xmlns="http://www.w3.org/2000/svg">
<g clip-path="url(#clip0)">
<path d="M1848.32 70.065C1844.02 72.0352 1839.23 72.4897 1835.02 71.3284C1835.65 74.1197 1835.49 77.0955 1834.57 80.0063C1833.64 82.917 1831.97 85.6776 1829.69 88.0566C1827.41 90.4356 1824.59 92.3634 1821.47 93.6783C1818.35 94.9932 1815.02 95.6569 1811.75 95.6136C1812.4 100.35 1811.85 105.294 1810.15 110.101C1808.45 114.907 1805.64 119.463 1801.92 123.451C1798.19 127.44 1793.63 130.766 1788.56 133.198C1783.49 135.631 1778.03 137.112 1772.56 137.539C1772.94 138.372 1773.44 139.152 1773.82 139.985C1776.53 145.93 1777.47 152.573 1776.56 159.339C1775.66 166.105 1772.92 172.788 1768.6 178.808C1764.28 184.827 1758.51 190.001 1751.78 193.88C1745.05 197.759 1737.57 200.225 1729.99 201.064C1731.01 205.394 1730.87 210.007 1729.58 214.553C1728.29 219.099 1725.89 223.458 1722.55 227.3C1719.22 231.142 1715.04 234.366 1710.33 236.726C1705.62 239.087 1700.51 240.522 1695.38 240.923C1697.06 249.344 1695.54 258.391 1691.04 266.706C1686.54 275.021 1679.31 282.156 1670.43 287.041C1661.55 291.925 1651.5 294.295 1641.79 293.796C1632.08 293.297 1623.23 289.955 1616.58 284.271C1611.44 286.517 1605.92 287.646 1600.51 287.556C1599.75 292.811 1597.45 297.974 1593.84 302.514C1590.23 307.053 1585.45 310.806 1579.98 313.384C1574.52 315.963 1568.57 317.276 1562.74 317.186C1556.92 317.097 1551.44 315.609 1546.85 312.875C1544.81 317.325 1541.68 321.42 1537.71 324.831C1533.74 328.242 1529.05 330.874 1524.01 332.516C1518.97 334.158 1513.72 334.764 1508.68 334.286C1503.64 333.807 1498.96 332.258 1495.01 329.761C1494.38 331.562 1493.37 333.278 1492.02 334.804C1490.68 336.33 1489.03 337.634 1487.18 338.637C1485.33 339.64 1483.32 340.32 1481.28 340.636C1479.23 340.952 1477.18 340.898 1475.27 340.476C1476.79 341.504 1477.93 342.901 1478.58 344.533C1479.24 346.164 1479.39 347.976 1479.01 349.794C1478.64 351.612 1477.76 353.375 1476.46 354.915C1475.15 356.455 1473.46 357.719 1471.56 358.587L1470.58 359.034C1471.91 360.04 1472.9 361.344 1473.49 362.84C1474.08 364.336 1474.24 365.982 1473.97 367.646C1473.7 369.309 1472.99 370.944 1471.92 372.417C1470.84 373.891 1469.42 375.162 1467.78 376.128C1470.51 376.874 1472.7 378.556 1473.89 380.84C1475.09 383.124 1475.21 385.843 1474.24 388.459C1473.27 391.075 1471.26 393.396 1468.63 394.963C1466 396.529 1462.93 397.226 1460.03 396.916C1459.93 399.166 1459.08 401.427 1457.6 403.416C1456.11 405.404 1454.05 407.033 1451.68 408.099C1449.31 409.165 1446.74 409.621 1444.27 409.41C1441.8 409.198 1439.55 408.33 1437.81 406.912C1437.24 408.568 1436.25 410.131 1434.92 411.473C1433.59 412.814 1431.97 413.895 1430.18 414.628C1428.39 415.36 1426.48 415.723 1424.62 415.686C1422.76 415.65 1420.99 415.215 1419.46 414.417L1418.33 414.934C1417.98 416.412 1417.29 417.849 1416.32 419.152C1415.34 420.456 1414.09 421.597 1412.66 422.503C1411.22 423.408 1409.62 424.058 1407.97 424.411C1406.32 424.764 1404.65 424.812 1403.07 424.551C1402.74 426.575 1401.77 428.548 1400.29 430.24C1398.81 431.932 1396.87 433.272 1394.69 434.103C1392.52 434.933 1390.21 435.221 1388.03 434.931C1385.84 434.641 1383.88 433.787 1382.37 432.467C1381.12 434.138 1379.43 435.536 1377.48 436.516C1375.53 437.496 1373.39 438.022 1371.27 438.039C1369.16 438.056 1367.16 437.563 1365.47 436.613C1363.78 435.662 1362.48 434.287 1361.68 432.632C1360.88 433.222 1360.02 433.733 1359.11 434.154C1357.26 434.994 1355.27 435.437 1353.3 435.441C1351.34 435.445 1349.47 435.01 1347.87 434.177C1346.26 433.343 1344.97 432.136 1344.1 430.664C1343.24 429.192 1342.83 427.501 1342.91 425.743C1342.61 425.879 1342.3 426.021 1341.99 426.164C1340.16 426.997 1338.19 427.442 1336.25 427.457C1334.31 427.473 1332.45 427.06 1330.85 426.253C1329.25 425.447 1327.95 424.273 1327.07 422.834C1326.18 421.395 1325.74 419.735 1325.78 418C1325.22 418.36 1324.63 418.681 1324.02 418.959C1321.07 420.31 1317.78 420.619 1314.89 419.819C1312 419.018 1309.73 417.174 1308.6 414.692C1308.31 414.059 1308.1 413.395 1307.97 412.709C1306.22 414.647 1303.98 416.198 1301.48 417.203C1298.98 418.208 1296.31 418.631 1293.75 418.427C1292.13 424.565 1288.44 430.344 1283.2 434.951C1277.96 439.558 1271.44 442.759 1264.55 444.103C1265.21 445.049 1265.78 446.045 1266.27 447.083C1268 450.836 1268.51 455.067 1267.76 459.344C1267 463.622 1265 467.793 1261.97 471.432C1258.93 475.07 1254.96 478.046 1250.47 480.056C1245.98 482.065 1241.12 483.036 1236.39 482.869C1236.28 490.503 1233.44 498.229 1228.29 504.943C1223.14 511.658 1215.95 517.017 1207.72 520.257C1199.5 523.496 1190.68 524.45 1182.51 522.981C1174.35 521.513 1167.26 517.698 1162.26 512.081C1158.46 516.249 1153.65 519.612 1148.28 521.847C1142.91 524.083 1137.17 525.117 1131.6 524.85C1126.03 524.583 1120.82 523.024 1116.47 520.322C1112.12 517.62 1108.78 513.866 1106.76 509.419C1105.24 506.111 1104.5 502.484 1104.58 498.739C1098.85 500.228 1092.98 500.123 1087.78 498.438C1082.59 496.754 1078.34 493.575 1075.64 489.349C1072 493.52 1067.16 496.77 1061.77 498.672C1056.38 500.574 1050.67 501.039 1045.41 500.006C1040.15 498.973 1035.58 496.49 1032.29 492.883C1029.01 489.277 1027.16 484.715 1027 479.798C1022.22 480.14 1017.57 479.368 1013.53 477.558C1009.49 475.749 1006.19 472.963 1003.96 469.474C1001.72 465.985 1000.62 461.913 1000.77 457.656C1000.92 453.398 1002.31 449.102 1004.81 445.187C1005.18 441.554 1006.8 437.964 1009.46 434.919C1012.12 431.873 1015.67 429.523 1019.63 428.196L1019.57 428.078L1737.55 100.07C1739.03 94.7015 1741.89 89.5594 1745.9 85.0767C1749.91 80.5939 1754.95 76.9019 1760.6 74.3115C1766.25 71.7212 1772.34 70.3085 1778.36 70.1924C1784.37 70.0763 1790.14 71.2603 1795.18 73.6446C1796.14 70.9907 1797.73 68.4833 1799.82 66.3001C1801.92 64.1168 1804.47 62.3112 1807.29 61.011C1810.12 59.7108 1813.15 58.9478 1816.17 58.7763C1819.19 58.6048 1822.13 59.0288 1824.78 60.0184C1824.45 57.2003 1825.03 54.2509 1826.46 51.5033C1827.88 48.7558 1830.09 46.3196 1832.84 44.4701C1835.59 42.6207 1838.77 41.4317 1842.01 41.0375C1845.26 40.6433 1848.44 41.0597 1851.21 42.2395C1853.97 43.4193 1856.21 45.3156 1857.66 47.7139C1859.11 50.1123 1859.72 52.9173 1859.42 55.8118C1859.12 58.7063 1857.92 61.575 1855.96 64.0937C1854 66.6124 1851.35 68.6808 1848.32 70.065V70.065Z" fill="#D9D9D9"/>
<path d="M1085.85 644.788C1093.79 653.717 1104.26 660.342 1115.27 663.405C1126.29 666.468 1137.09 665.755 1145.61 661.403C1154.14 657.051 1159.8 649.362 1161.52 639.797C1163.24 630.231 1160.9 619.456 1154.94 609.517C1162.84 612.834 1171.02 613.985 1178.4 612.817C1185.78 611.649 1192.01 608.218 1196.26 602.978C1196.72 602.413 1197.17 601.849 1197.55 601.231C1208.57 606.566 1220.2 609.081 1231.05 608.477C1241.9 607.873 1251.5 604.175 1258.72 597.825C1265.94 591.475 1270.46 582.743 1271.75 572.67C1273.04 562.598 1271.03 551.612 1265.98 541.027C1271.29 539.375 1275.78 536.421 1279.09 532.404C1282.39 528.387 1284.42 523.419 1285 517.898C1285.58 512.378 1284.71 506.459 1282.45 500.619C1280.18 494.778 1276.6 489.179 1271.98 484.271C1280.56 483.982 1288.02 480.827 1293.13 475.32C1298.25 469.813 1300.72 462.278 1300.15 453.946C1307.26 454.788 1313.97 453.789 1319.58 451.054C1325.2 448.319 1329.5 443.951 1332.02 438.414C1334.55 432.877 1335.22 426.377 1333.95 419.605C1332.68 412.833 1329.52 406.043 1324.81 399.954C1333.09 400.501 1340.78 398.858 1347.05 395.203C1353.32 391.548 1357.93 386.019 1360.38 379.215C1370.03 382.291 1379.69 382.577 1388.01 380.032C1396.33 377.487 1402.87 372.24 1406.73 365.029C1418.13 365.179 1428.01 361.092 1434.39 353.596C1440.77 346.1 1443.15 335.757 1441.06 324.667C1447.42 320.993 1452.08 315.402 1454.53 308.512C1456.98 301.622 1457.13 293.701 1454.96 285.624C1463.34 288.168 1471.71 288.606 1479.19 286.893C1486.66 285.18 1492.94 281.379 1497.36 275.9L1497.53 275.696C1510.78 281.743 1524.71 283.669 1536.94 281.148C1549.18 278.626 1558.97 271.812 1564.68 261.858C1570.38 251.904 1571.63 239.421 1568.23 226.521C1564.83 213.62 1556.98 201.094 1546.01 191.062C1546.43 190.545 1546.86 190.019 1547.28 189.493C1551.48 184.33 1554.01 177.928 1554.64 170.825C1555.27 163.722 1553.99 156.126 1550.91 148.675C1547.83 141.224 1543.04 134.135 1536.94 128.004C1530.84 121.873 1523.61 116.879 1515.85 113.441C1508.1 110.003 1500.04 108.222 1492.37 108.247C1484.69 108.273 1477.62 110.104 1471.75 113.587C1465.88 117.069 1461.37 122.102 1458.61 128.263C1455.86 134.423 1454.93 141.531 1455.9 148.989L1335.11 298.043C1327.96 301.644 1322.71 307.541 1320.04 314.976C1311.45 312.228 1302.82 311.687 1295.13 313.415C1287.44 315.143 1281 319.071 1276.54 324.755C1272.07 330.438 1269.76 337.651 1269.86 345.577C1269.96 353.504 1272.47 361.828 1277.11 369.609L1244.75 409.546C1237.32 410.693 1231.05 414.13 1226.78 419.398C1222.51 424.665 1220.45 431.509 1220.87 439.012L1138.26 540.94C1130.66 544.472 1125.43 550.923 1123.55 559.097L1106.66 579.932C1097.08 579.679 1088.5 582.501 1082.24 587.962C1081.4 587.203 1080.56 586.453 1079.67 585.733C1073.38 580.653 1066.12 577.025 1058.73 575.257C1051.33 573.489 1044.08 573.651 1037.81 575.726C1031.53 577.801 1026.48 581.705 1023.21 586.999C1019.94 592.292 1018.6 598.764 1019.32 605.685C1020.04 612.605 1022.81 619.698 1027.31 626.164C1031.81 632.629 1037.86 638.21 1044.77 642.276C1051.69 646.342 1059.2 648.732 1066.46 649.176C1073.72 649.62 1080.44 648.1 1085.85 644.788Z" fill="white"/>
<path d="M1451.14 233.516C1453.99 241.472 1458.89 248.751 1464.93 253.971C1470.96 259.19 1477.69 261.985 1483.85 261.827C1490.02 261.668 1495.18 258.565 1498.35 253.109C1501.53 247.653 1502.5 240.222 1501.08 232.229C1505.15 236.671 1509.88 239.846 1514.64 241.331C1519.4 242.817 1523.95 242.544 1527.71 240.548C1528.11 240.332 1528.52 240.117 1528.88 239.844C1534.41 246.483 1540.94 251.544 1547.68 254.423C1554.43 257.302 1561.1 257.876 1566.91 256.078C1572.72 254.279 1577.42 250.184 1580.44 244.281C1583.47 238.378 1584.69 230.918 1583.97 222.792C1587.57 223.355 1590.96 222.859 1593.87 221.342C1596.78 219.826 1599.12 217.331 1600.7 214.059C1602.28 210.787 1603.07 206.829 1602.99 202.504C1602.91 198.178 1601.97 193.605 1600.24 189.153C1605.54 191.549 1610.78 191.818 1615.12 189.915C1619.47 188.012 1622.65 184.05 1624.15 178.675C1628.3 181.334 1632.61 182.726 1636.64 182.702C1640.66 182.679 1644.26 181.242 1647.03 178.544C1649.8 175.846 1651.65 171.987 1652.38 167.377C1653.12 162.768 1652.7 157.58 1651.19 152.365C1656.11 155.192 1661.16 156.475 1665.79 156.074C1670.43 155.673 1674.46 153.603 1677.47 150.09C1682.66 154.907 1688.49 157.987 1694.12 158.894C1699.76 159.801 1704.91 158.49 1708.87 155.146C1715.78 158.659 1722.71 159.075 1728.26 156.308C1733.81 153.541 1737.57 147.799 1738.76 140.248C1743.45 139.862 1747.53 137.77 1750.56 134.204C1753.59 130.637 1755.44 125.736 1755.91 120.04C1760.45 124.143 1765.46 126.932 1770.39 128.104C1775.32 129.277 1780 128.79 1783.91 126.696L1784.06 126.618C1790.79 134.372 1798.84 139.754 1806.86 141.852C1814.87 143.95 1822.36 142.635 1828.05 138.132C1833.73 133.628 1837.28 126.211 1838.07 117.135C1838.87 108.059 1836.87 97.8823 1832.42 88.3251C1832.79 88.1283 1833.17 87.9278 1833.54 87.7273C1837.25 85.764 1840.21 82.5236 1842.18 78.2782C1844.14 74.0328 1845.05 68.9064 1844.83 63.3296C1844.61 57.7528 1843.27 51.8885 1840.92 46.2292C1838.56 40.57 1835.27 35.281 1831.31 30.8067C1827.35 26.3323 1822.84 22.8032 1818.15 20.5158C1813.47 18.2283 1808.76 17.2494 1804.4 17.6611C1800.05 18.0728 1796.19 19.8633 1793.14 22.882C1790.09 25.9007 1787.94 30.0595 1786.87 35.0092L1680.13 91.8224C1674.97 91.9254 1670.46 94.0322 1667.18 97.8722C1662.55 93.5774 1657.42 90.6503 1652.35 89.4221C1647.28 88.1938 1642.48 88.7133 1638.5 90.9218C1634.51 93.1302 1631.5 96.9395 1629.8 101.919C1628.1 106.899 1627.78 112.85 1628.87 119.1L1600.27 134.323C1595.49 132.81 1590.91 133.075 1587.13 135.083C1583.36 137.09 1580.58 140.744 1579.17 145.554L1506.17 184.405C1500.75 184.327 1496.13 186.786 1493.17 191.325L1478.24 199.267C1472.46 196.232 1466.6 195.418 1461.58 196.951C1461.24 196.225 1460.89 195.504 1460.51 194.787C1457.8 189.726 1454.19 185.283 1450.08 181.959C1445.96 178.635 1441.51 176.562 1437.23 175.974C1432.94 175.386 1428.99 176.306 1425.83 178.631C1422.66 180.956 1420.4 184.592 1419.3 189.131C1418.2 193.669 1418.31 198.929 1419.61 204.316C1420.91 209.703 1423.36 215.003 1426.67 219.618C1429.98 224.234 1434.03 227.981 1438.35 230.436C1442.67 232.892 1447.1 233.959 1451.14 233.516Z" fill="white"/>
<path d="M229.51 470.154C224.191 462.582 222.409 453.233 224.5 443.881C226.592 434.529 232.411 425.826 240.854 419.425C249.297 413.024 259.775 409.371 270.298 409.16C280.821 408.949 290.655 412.195 297.934 418.28C298.296 411.434 300.99 404.628 305.659 398.764C310.328 392.901 316.752 388.256 324.077 385.447C324.867 385.145 325.657 384.842 326.46 384.615C326.248 374.975 329.185 365.192 334.92 356.433C340.655 347.674 348.944 340.311 358.798 335.224C368.651 330.136 379.652 327.539 390.485 327.743C401.318 327.948 411.525 330.945 419.886 336.376C424.072 332.253 429.19 328.963 434.828 326.773C440.466 324.582 446.465 323.551 452.345 323.763C458.225 323.974 463.821 325.422 468.682 327.99C473.543 330.559 477.535 334.175 480.335 338.55C484.68 331.596 491.404 325.916 499.411 322.434C507.417 318.952 516.234 317.874 524.423 319.377C526.922 313.486 531.107 308.141 536.533 303.911C541.958 299.681 548.422 296.724 555.238 295.353C562.053 293.982 568.966 294.249 575.241 296.125C581.516 298.001 586.92 301.416 590.878 306.009C594.231 299.197 599.53 293.138 606.201 288.488C612.871 283.838 620.659 280.773 628.721 279.627C630.155 271.385 634.427 263.479 640.937 257.023C647.447 250.567 655.866 245.887 665.009 243.641C670.234 234.345 679.052 226.801 689.672 222.541C700.292 218.282 711.918 217.625 722.191 220.704C728.921 215.986 736.797 212.885 744.949 211.745C753.102 210.605 761.213 211.47 768.387 214.244C769.761 207.105 773.27 200.229 778.537 194.357C783.804 188.486 790.629 183.841 798.278 180.922L798.564 180.813C798.682 169.268 803.299 157.691 811.635 148.042C819.971 138.392 831.514 131.261 844.311 127.855C857.109 124.45 870.375 124.978 881.866 129.351C893.357 133.725 902.367 141.675 907.373 151.856C908.094 151.58 908.83 151.298 909.565 151.016C916.79 148.237 924.48 146.979 931.989 147.348C939.498 147.717 946.606 149.702 952.717 153.136C958.828 156.571 963.762 161.354 967.106 167.084C970.45 172.814 972.106 179.324 971.935 186.067C971.763 192.81 969.769 199.59 966.121 205.836C962.472 212.081 957.275 217.612 950.967 221.961C944.658 226.311 937.422 229.354 929.866 230.834C922.31 232.313 914.655 232.187 907.544 230.465L699.199 310.296C692.168 315.669 683.703 319.209 674.894 320.462C673.628 327.8 670.104 334.892 664.72 340.937C659.337 346.982 652.308 351.738 644.43 354.668C636.552 357.598 628.137 358.585 620.138 357.517C612.139 356.449 604.874 353.369 599.165 348.625L543.341 370.014C538.671 375.919 532.222 380.596 524.859 383.417C517.497 386.238 509.574 387.068 502.154 385.796L359.681 440.386C352.503 446.141 343.487 449.596 334.301 450.111L305.177 461.27C300.908 469.108 293.992 475.745 285.496 480.159C285.871 480.935 286.233 481.716 286.545 482.53C288.73 488.287 288.989 494.645 287.292 500.888C285.595 507.131 282.01 513.011 276.941 517.863C271.872 522.715 265.521 526.347 258.605 528.349C251.688 530.352 244.482 530.644 237.798 529.194C231.115 527.743 225.22 524.608 220.78 520.142C216.339 515.675 189.476 533.2 188.614 527.061C187.752 520.922 212.926 491.362 215.902 485.397C218.878 479.431 223.591 474.151 229.51 470.154Z" fill="white"/>
<path d="M880.5 133H1394L1684.5 30.5H1806.5L1535.5 189.5L1234.5 458L1175 510.5H267.5V458L880.5 209.5V133Z" fill="white"/>
</g>
<defs>
<clipPath id="clip0">
<rect width="2048" height="489" fill="white"/>
</clipPath>
</defs>
</svg>
