<svg width="1036" height="770" viewBox="0 0 1036 770" fill="none" xmlns="http://www.w3.org/2000/svg">
<path d="M959.258 93.065C954.952 95.0352 950.166 95.4897 945.951 94.3284C946.583 97.1197 946.428 100.096 945.501 103.006C944.574 105.917 942.9 108.678 940.621 111.057C938.342 113.436 935.524 115.363 932.404 116.678C929.283 117.993 925.95 118.657 922.686 118.614C923.331 123.35 922.786 128.294 921.087 133.101C919.388 137.907 916.578 142.463 912.849 146.451C909.121 150.44 904.565 153.766 899.496 156.198C894.427 158.631 888.968 160.112 883.496 160.539C883.876 161.372 884.37 162.152 884.75 162.985C887.463 168.93 888.406 175.573 887.498 182.339C886.59 189.105 883.857 195.788 879.538 201.808C875.218 207.827 869.443 213.001 862.713 216.88C855.983 220.759 848.503 223.225 840.922 224.064C841.941 228.394 841.801 233.007 840.512 237.553C839.223 242.099 836.82 246.458 833.484 250.3C830.149 254.142 825.969 257.366 821.262 259.726C816.555 262.087 811.444 263.522 806.317 263.923C807.997 272.344 806.472 281.391 801.973 289.706C797.473 298.021 790.241 305.156 781.361 310.041C772.481 314.925 762.433 317.295 752.723 316.796C743.014 316.297 734.168 312.955 727.511 307.271C722.372 309.517 716.85 310.646 711.447 310.556C710.685 315.811 708.381 320.974 704.772 325.514C701.163 330.053 696.38 333.806 690.914 336.384C685.449 338.963 679.499 340.276 673.676 340.186C667.854 340.097 662.37 338.609 657.788 335.875C655.743 340.325 652.61 344.42 648.642 347.831C644.675 351.242 639.982 353.874 634.94 355.516C629.899 357.158 624.65 357.764 619.614 357.286C614.578 356.807 609.895 355.258 605.943 352.761C605.318 354.562 604.301 356.278 602.955 357.804C601.609 359.33 599.962 360.634 598.115 361.637C596.267 362.64 594.258 363.32 592.21 363.636C590.161 363.952 588.117 363.898 586.202 363.476C587.719 364.504 588.86 365.901 589.516 367.533C590.172 369.164 590.321 370.976 589.948 372.794C589.576 374.612 588.695 376.375 587.389 377.915C586.084 379.455 584.398 380.719 582.493 381.587L581.515 382.034C582.839 383.04 583.835 384.344 584.423 385.84C585.011 387.336 585.176 388.982 584.903 390.646C584.63 392.309 583.927 393.944 582.852 395.417C581.776 396.891 580.358 398.162 578.711 399.128C581.447 399.874 583.63 401.556 584.827 403.84C586.024 406.124 586.148 408.843 585.174 411.459C584.199 414.075 582.198 416.396 579.567 417.963C576.936 419.529 573.867 420.226 570.968 419.916C570.862 422.166 570.014 424.427 568.529 426.416C567.044 428.404 564.988 430.033 562.618 431.099C560.248 432.165 557.669 432.621 555.201 432.41C552.733 432.198 550.487 431.33 548.742 429.912C548.17 431.568 547.181 433.131 545.854 434.473C544.528 435.814 542.903 436.895 541.112 437.628C539.322 438.36 537.417 438.723 535.554 438.686C533.69 438.65 531.922 438.215 530.394 437.417L529.261 437.934C528.912 439.412 528.227 440.849 527.251 442.152C526.274 443.456 525.027 444.597 523.59 445.503C522.153 446.408 520.557 447.058 518.906 447.411C517.254 447.764 515.584 447.812 514.001 447.551C513.671 449.575 512.707 451.548 511.224 453.24C509.741 454.932 507.799 456.272 505.627 457.103C503.455 457.933 501.142 458.221 498.96 457.931C496.778 457.641 494.817 456.787 493.307 455.467C492.057 457.138 490.368 458.536 488.416 459.516C486.464 460.496 484.32 461.022 482.207 461.039C480.095 461.056 478.091 460.563 476.404 459.613C474.717 458.662 473.41 457.287 472.617 455.632C471.817 456.222 470.952 456.733 470.042 457.154C468.194 457.994 466.199 458.437 464.237 458.441C462.276 458.445 460.408 458.01 458.802 457.177C457.196 456.343 455.902 455.136 455.036 453.664C454.17 452.192 453.759 450.501 453.839 448.743C453.542 448.879 453.23 449.021 452.919 449.164C451.092 449.997 449.122 450.442 447.181 450.457C445.24 450.473 443.387 450.06 441.786 449.253C440.185 448.447 438.885 447.273 438 445.834C437.114 444.395 436.671 442.735 436.709 441C436.15 441.36 435.563 441.681 434.956 441.959C431.999 443.31 428.714 443.619 425.821 442.819C422.929 442.018 420.667 440.174 419.533 437.692C419.248 437.059 419.036 436.395 418.901 435.709C417.152 437.647 414.913 439.198 412.414 440.203C409.915 441.208 407.247 441.631 404.685 441.427C403.064 447.565 399.373 453.344 394.133 457.951C388.893 462.558 382.369 465.759 375.481 467.103C376.139 468.049 376.714 469.045 377.202 470.083C378.934 473.836 379.447 478.067 378.691 482.344C377.935 486.622 375.936 490.793 372.899 494.432C369.861 498.07 365.894 501.046 361.401 503.056C356.909 505.065 352.053 506.036 347.328 505.869C347.211 513.503 344.376 521.229 339.227 527.943C334.078 534.658 326.879 540.017 318.657 543.257C310.436 546.496 301.613 547.45 293.448 545.981C285.283 544.513 278.193 540.698 273.191 535.081C269.395 539.249 264.583 542.612 259.215 544.847C253.847 547.083 248.103 548.117 242.533 547.85C236.963 547.583 231.754 546.024 227.404 543.322C223.054 540.62 219.709 536.866 217.689 532.419C216.17 529.111 215.432 525.484 215.515 521.739C209.784 523.228 203.909 523.123 198.717 521.438C193.525 519.754 189.277 516.575 186.572 512.349C182.932 516.52 178.097 519.77 172.703 521.672C167.308 523.574 161.607 524.039 156.346 523.006C151.085 521.973 146.512 519.49 143.227 515.883C139.941 512.277 138.098 507.715 137.937 502.798C133.149 503.14 128.508 502.368 124.468 500.558C120.428 498.749 117.128 495.963 114.89 492.474C112.653 488.985 111.555 484.913 111.703 480.656C111.852 476.398 113.243 472.102 115.74 468.187C116.11 464.554 117.737 460.964 120.393 457.919C123.049 454.873 126.603 452.523 130.559 451.196L130.504 451.078L848.488 123.07C849.961 117.701 852.823 112.559 856.834 108.077C860.846 103.594 865.888 99.9019 871.536 97.3116C877.185 94.7212 883.274 93.3085 889.291 93.1924C895.308 93.0763 901.076 94.2603 906.11 96.6446C907.077 93.9907 908.664 91.4833 910.757 89.3C912.851 87.1168 915.401 85.3112 918.226 84.011C921.051 82.7108 924.082 81.9479 927.105 81.7763C930.127 81.6048 933.067 82.0288 935.716 83.0184C935.387 80.2004 935.967 77.2509 937.391 74.5033C938.816 71.7557 941.027 69.3196 943.776 67.4701C946.525 65.6207 949.702 64.4317 952.948 64.0375C956.193 63.6433 959.378 64.0597 962.143 65.2395C964.907 66.4193 967.141 68.3155 968.592 70.714C970.042 73.1123 970.652 75.9173 970.352 78.8118C970.052 81.7063 968.854 84.575 966.893 87.0937C964.933 89.6124 962.288 91.6808 959.258 93.065Z" fill="#D9D9D9"/>
<path d="M196.785 667.788C204.72 676.717 215.19 683.342 226.207 686.405C237.224 689.468 248.02 688.755 256.545 684.403C265.07 680.051 270.73 672.362 272.449 662.797C274.169 653.231 271.829 642.455 265.873 632.517C273.774 635.834 281.956 636.985 289.335 635.817C296.714 634.649 302.942 631.218 307.192 625.978C307.649 625.413 308.107 624.849 308.481 624.232C319.504 629.566 331.134 632.081 341.982 631.477C352.83 630.873 362.437 627.175 369.655 620.825C376.872 614.475 381.395 605.743 382.682 595.67C383.969 585.598 381.966 574.612 376.912 564.027C382.228 562.375 386.718 559.421 390.022 555.404C393.325 551.387 395.35 546.419 395.933 540.898C396.517 535.378 395.642 529.459 393.38 523.619C391.118 517.778 387.531 512.179 382.909 507.271C391.492 506.982 398.95 503.827 404.067 498.32C409.183 492.813 411.657 485.278 411.084 476.946C418.19 477.788 424.906 476.789 430.518 474.054C436.13 471.32 440.429 466.951 442.958 461.414C445.487 455.877 446.152 449.377 444.882 442.605C443.612 435.833 440.455 429.043 435.745 422.954C444.027 423.501 451.718 421.858 457.987 418.203C464.255 414.548 468.862 409.019 471.309 402.215C480.961 405.291 490.626 405.577 498.942 403.032C507.259 400.487 513.808 395.24 517.667 388.029C529.06 388.179 538.948 384.092 545.324 376.596C551.7 369.1 554.086 358.757 551.998 347.667C558.353 343.993 563.014 338.402 565.465 331.512C567.917 324.622 568.065 316.701 565.891 308.624C574.271 311.168 582.648 311.606 590.12 309.893C597.592 308.18 603.876 304.379 608.297 298.9L608.462 298.696C621.716 304.743 635.639 306.669 647.874 304.148C660.109 301.626 669.907 294.812 675.609 284.858C681.311 274.904 682.568 262.421 679.167 249.521C675.766 236.62 667.916 224.094 656.945 214.062C657.364 213.545 657.79 213.019 658.216 212.493C662.417 207.33 664.939 200.928 665.571 193.825C666.202 186.722 664.924 179.126 661.845 171.675C658.766 164.224 653.974 157.135 647.873 151.004C641.773 144.873 634.541 139.879 626.785 136.441C619.029 133.003 610.976 131.222 603.302 131.247C595.628 131.273 588.557 133.104 582.683 136.587C576.81 140.069 572.305 145.102 569.547 151.263C566.789 157.423 565.859 164.531 566.835 171.989L446.041 321.043C438.893 324.644 433.645 330.541 430.972 337.976C422.38 335.228 413.752 334.687 406.065 336.415C398.378 338.143 391.937 342.071 387.471 347.755C383.006 353.438 380.693 360.651 380.794 368.577C380.895 376.504 383.407 384.828 388.045 392.609L355.679 432.546C348.253 433.693 341.985 437.13 337.716 442.398C333.448 447.665 331.383 454.509 331.8 462.012L249.198 563.94C241.591 567.472 236.363 573.923 234.483 582.097L217.598 602.932C208.012 602.679 199.43 605.501 193.176 610.962C192.338 610.203 191.493 609.453 190.604 608.733C184.311 603.653 177.056 600.025 169.659 598.257C162.263 596.489 155.018 596.651 148.742 598.726C142.466 600.801 137.41 604.705 134.143 609.999C130.876 615.292 129.529 621.764 130.253 628.685C130.978 635.605 133.745 642.698 138.243 649.164C142.74 655.629 148.79 661.21 155.708 665.276C162.626 669.342 170.138 671.732 177.397 672.176C184.655 672.62 191.37 671.1 196.785 667.788Z" fill="white"/>
<path d="M309 193L672 52L837 82.5L406.5 430L248 563L0 489L309 193Z" fill="white"/>
<path d="M562.073 256.516C564.922 264.472 569.827 271.751 575.859 276.971C581.89 282.19 588.626 284.985 594.788 284.827C600.95 284.668 606.109 281.565 609.284 276.109C612.459 270.653 613.43 263.222 612.012 255.229C616.088 259.671 620.817 262.846 625.573 264.331C630.329 265.817 634.886 265.544 638.641 263.548C639.045 263.332 639.45 263.117 639.815 262.844C645.344 269.483 651.871 274.544 658.615 277.423C665.359 280.302 672.035 280.876 677.845 279.078C683.654 277.279 688.352 273.184 691.376 267.281C694.401 261.378 695.623 253.918 694.899 245.792C698.505 246.355 701.898 245.859 704.804 244.342C707.71 242.826 710.049 240.331 711.632 237.059C713.215 233.787 713.999 229.829 713.919 225.504C713.84 221.178 712.9 216.605 711.175 212.153C716.469 214.549 721.715 214.818 726.057 212.915C730.4 211.012 733.582 207.05 735.087 201.675C739.229 204.334 743.543 205.726 747.57 205.702C751.598 205.679 755.189 204.242 757.961 201.544C760.734 198.846 762.584 194.987 763.317 190.377C764.049 185.768 763.635 180.58 762.12 175.365C767.044 178.192 772.096 179.475 776.728 179.074C781.361 178.673 785.397 176.603 788.401 173.09C793.598 177.907 799.423 180.987 805.056 181.894C810.689 182.801 815.847 181.49 819.802 178.146C826.71 181.659 833.643 182.075 839.195 179.308C844.747 176.541 848.501 170.799 849.696 163.248C854.385 162.862 858.468 160.77 861.494 157.204C864.52 153.637 866.372 148.736 866.844 143.04C871.384 147.143 876.39 149.932 881.324 151.104C886.258 152.277 890.932 151.79 894.844 149.696L894.99 149.618C901.721 157.372 909.775 162.754 917.791 164.852C925.806 166.95 933.291 165.635 938.979 161.132C944.667 156.628 948.209 149.211 949.006 140.135C949.804 131.059 947.806 120.882 943.353 111.325C943.723 111.128 944.1 110.928 944.476 110.727C948.184 108.764 951.145 105.524 953.109 101.278C955.074 97.0328 955.985 91.9064 955.766 86.3296C955.547 80.7528 954.204 74.8885 951.85 69.2292C949.497 63.57 946.201 58.281 942.24 53.8067C938.279 49.3323 933.769 45.8032 929.087 43.5158C924.406 41.2283 919.691 40.2494 915.337 40.6611C910.984 41.0728 907.12 42.8633 904.07 45.882C901.019 48.9007 898.872 53.0595 897.807 58.0092L791.059 114.822C785.903 114.925 781.394 117.032 778.112 120.872C773.488 116.577 768.351 113.65 763.283 112.422C758.215 111.194 753.418 111.713 749.433 113.922C745.448 116.13 742.434 119.94 740.733 124.919C739.032 129.899 738.711 135.85 739.806 142.1L711.204 157.323C706.424 155.81 701.84 156.075 698.068 158.083C694.296 160.09 691.516 163.744 690.101 168.554L617.104 207.405C611.683 207.327 607.063 209.786 604.1 214.325L589.178 222.267C583.393 219.232 577.537 218.418 572.512 219.951C572.171 219.225 571.822 218.504 571.441 217.787C568.736 212.726 565.123 208.283 561.01 204.959C556.896 201.635 552.446 199.562 548.161 198.974C543.876 198.386 539.926 199.306 536.759 201.631C533.591 203.956 531.33 207.592 530.233 212.131C529.135 216.669 529.243 221.929 530.546 227.316C531.848 232.703 534.293 238.003 537.604 242.618C540.915 247.234 544.96 250.981 549.284 253.436C553.607 255.892 558.037 256.959 562.073 256.516Z" fill="white"/>
</svg>
