<svg width="2048" height="628" viewBox="0 0 2048 628" fill="none" xmlns="http://www.w3.org/2000/svg">
<g clip-path="url(#clip0)">
<path d="M1338.39 389.565C1340.41 405.911 1335.67 422.196 1325.05 435.326C1314.42 448.457 1298.67 457.52 1280.78 460.792C1262.88 464.064 1244.09 461.319 1227.98 453.077C1211.86 444.835 1199.55 431.671 1193.36 416.086C1187.36 426.65 1177.85 435.251 1166.11 440.747C1154.36 446.244 1140.92 448.376 1127.58 446.861C1126.15 446.698 1124.71 446.534 1123.31 446.241C1115.95 461.704 1103.71 474.83 1088.04 484.05C1072.37 493.271 1053.94 498.195 1034.95 498.235C1015.97 498.274 997.226 493.428 980.972 484.274C964.718 475.121 951.638 462.048 943.294 446.617C933.665 449.746 923.288 450.792 912.999 449.672C902.71 448.553 892.796 445.298 884.054 440.17C875.312 435.042 867.986 428.185 862.665 420.148C857.344 412.112 854.177 403.121 853.419 393.9C841.294 401.388 826.577 404.92 811.67 403.918C796.762 402.915 782.542 397.439 771.33 388.381C762.848 395.689 752.248 400.756 740.656 403.044C729.063 405.332 716.911 404.755 705.49 401.375C694.069 397.995 683.806 391.938 675.791 383.848C667.776 375.757 662.309 365.934 659.97 355.424C649.46 363.496 636.602 368.789 622.788 370.729C608.975 372.669 594.731 371.182 581.6 366.43C572.861 378.336 560.087 387.395 545.078 392.33C530.069 397.266 513.581 397.829 497.937 393.94C482.61 404.427 463.237 409.207 443.749 407.309C424.261 405.411 406.119 396.977 393.004 383.72C379.046 385.719 364.64 384.218 351.377 379.382C338.115 374.545 326.512 366.562 317.85 356.315C310.08 366.521 299.284 374.569 286.624 379.59C273.964 384.612 259.919 386.417 246.003 384.812L245.482 384.753C236.105 402.971 219.885 417.572 199.563 426.086C179.242 434.599 156.068 436.503 133.96 431.475C111.853 426.448 92.1701 414.797 78.2406 398.493C64.3111 382.19 56.9903 362.235 57.5165 342.004C56.2026 341.855 54.864 341.702 53.5253 341.55C40.3614 340.069 27.7053 335.796 16.6199 329.091C5.5346 322.386 -3.6562 313.443 -10.1805 303.015C-16.7048 292.587 -20.372 280.978 -20.8741 269.162C-21.3763 257.346 -18.6987 245.67 -13.0662 235.113C-7.43374 224.555 0.989081 215.426 11.4948 208.492C22.0004 201.558 34.2822 197.021 47.3084 195.262C60.3346 193.504 73.7248 194.575 86.3544 198.386C98.9839 202.197 110.484 208.637 119.889 217.164L499.23 260.337C514.167 257.543 529.814 258.826 544.162 264.02C551.928 253.411 562.92 245.032 575.894 239.83C588.869 234.629 603.31 232.812 617.583 234.585C631.857 236.359 645.394 241.652 656.666 249.865C667.937 258.079 676.492 268.887 681.365 281.066L783.005 292.634C794.788 287.073 808.287 284.911 821.692 286.436C835.096 287.962 847.765 293.103 857.996 301.169L1117.4 330.692C1132.86 327.412 1149.28 329.28 1163.61 335.951L1216.64 341.986C1229.35 333.032 1245.12 328.14 1261.51 328.063C1261.56 326.526 1261.64 324.991 1261.81 323.446C1263.09 312.533 1267.76 302.236 1275.31 293.715C1282.85 285.195 1292.97 278.79 1304.52 275.224C1316.07 271.658 1328.59 271.073 1340.66 273.534C1352.74 275.995 1363.89 281.405 1372.87 289.153C1381.84 296.901 1388.27 306.679 1391.44 317.383C1394.62 328.088 1394.4 339.293 1390.81 349.735C1387.22 360.176 1380.42 369.438 1371.15 376.476C1361.89 383.514 1350.54 388.048 1338.39 389.565Z" fill="white"/>
<path d="M1718.32 271.996C1711.15 271.993 1704.27 273.202 1699.2 275.357C1698.31 273.207 1696.22 271.18 1693.11 269.444C1690 267.708 1685.96 266.315 1681.32 265.381C1676.69 264.448 1671.59 264.001 1666.46 264.078C1661.34 264.156 1656.33 264.755 1651.86 265.826C1649.77 262.314 1645.9 259.039 1640.54 256.225C1635.17 253.412 1628.43 251.129 1620.79 249.534C1613.14 247.94 1604.77 247.071 1596.26 246.99C1587.74 246.908 1579.29 247.615 1571.48 249.062C1571.48 248.359 1571.67 247.657 1571.67 246.955C1571.67 241.941 1568.78 237.004 1563.27 232.572C1557.76 228.139 1549.79 224.347 1540.05 221.523C1530.32 218.699 1519.1 216.93 1507.39 216.368C1495.68 215.807 1483.82 216.471 1472.85 218.302C1471.53 214.955 1468.43 211.781 1463.79 209.019C1459.16 206.257 1453.1 203.981 1446.09 202.364C1439.07 200.746 1431.29 199.829 1423.32 199.682C1415.35 199.536 1407.4 200.164 1400.09 201.518C1397.1 195.106 1389.31 189.278 1377.87 184.91C1366.44 180.541 1351.99 177.868 1336.68 177.29C1321.37 176.712 1306.04 178.262 1292.97 181.706C1279.91 185.15 1269.83 190.303 1264.24 196.391C1255.74 196.463 1247.42 197.435 1240.04 199.22C1235.68 195.796 1229.26 192.928 1221.43 190.91C1213.6 188.893 1204.65 187.799 1195.49 187.742C1186.34 187.685 1177.32 188.666 1169.35 190.585C1161.39 192.503 1154.77 195.29 1150.18 198.659C1144.56 196.205 1137.67 194.346 1130.05 193.231C1122.44 192.115 1114.32 191.775 1106.34 192.236C1098.36 192.698 1090.75 193.948 1084.11 195.888C1077.47 197.827 1072 200.401 1068.12 203.404C1066.13 202.347 1063.65 201.473 1060.83 200.837C1058.02 200.201 1054.93 199.816 1051.75 199.705C1048.58 199.594 1045.38 199.76 1042.36 200.193C1039.34 200.625 1036.56 201.315 1034.18 202.22C1035.63 201.019 1036.32 199.68 1036.2 198.332C1036.07 196.985 1035.14 195.673 1033.48 194.523C1031.82 193.373 1029.5 192.423 1026.73 191.765C1023.96 191.107 1020.85 190.762 1017.67 190.763H1016.05C1017.24 189.639 1017.79 188.411 1017.66 187.18C1017.53 185.948 1016.72 184.747 1015.29 183.673C1013.87 182.599 1011.87 181.682 1009.46 180.997C1007.06 180.312 1004.3 179.877 1001.42 179.727C1004.72 178.334 1006.67 176.465 1006.89 174.489C1007.1 172.513 1005.56 170.576 1002.57 169.061C999.578 167.546 995.36 166.564 990.75 166.31C986.139 166.056 981.472 166.548 977.674 167.688C976.111 166.152 973.52 164.845 970.223 163.93C966.926 163.016 963.068 162.534 959.132 162.546C955.196 162.558 951.356 163.062 948.089 163.996C944.822 164.93 942.274 166.253 940.763 167.799C938.932 166.825 936.585 166.05 933.914 165.536C931.242 165.023 928.323 164.787 925.395 164.846C922.467 164.906 919.615 165.26 917.071 165.88C914.527 166.5 912.365 167.367 910.762 168.411H908.875C907.465 167.491 905.617 166.706 903.451 166.108C901.285 165.51 898.848 165.111 896.299 164.937C893.749 164.763 891.141 164.818 888.644 165.099C886.147 165.379 883.816 165.878 881.799 166.565C880.07 165.258 877.501 164.188 874.393 163.48C871.285 162.772 867.767 162.456 864.251 162.569C860.735 162.682 857.368 163.218 854.545 164.116C851.721 165.014 849.557 166.236 848.308 167.638C845.534 166.871 842.327 166.433 839.021 166.372C835.715 166.31 832.43 166.627 829.509 167.289C826.588 167.95 824.137 168.933 822.412 170.134C820.687 171.336 819.75 172.712 819.699 174.119C818.226 173.963 816.713 173.882 815.195 173.879C812.119 173.881 809.093 174.208 806.388 174.831C803.682 175.454 801.383 176.352 799.695 177.446C798.007 178.54 796.984 179.795 796.717 181.098C796.45 182.402 796.948 183.713 798.166 184.914C797.671 184.914 797.152 184.914 796.633 184.914C793.592 184.915 790.598 185.233 787.914 185.841C785.23 186.449 782.938 187.328 781.24 188.401C779.542 189.474 778.49 190.708 778.176 191.995C777.862 193.281 778.296 194.581 779.439 195.779C778.442 195.706 777.432 195.67 776.42 195.669C771.498 195.669 766.776 196.501 763.295 197.982C759.814 199.462 757.859 201.47 757.859 203.564C757.864 204.097 757.99 204.628 758.236 205.15C754.608 204.355 750.546 203.986 746.471 204.081C742.396 204.176 738.454 204.732 735.052 205.691C728.956 201.925 720.233 199.068 710.115 197.524C699.997 195.979 688.994 195.825 678.659 197.084C678.97 196.213 679.135 195.335 679.155 194.455C679.178 191.284 677.223 188.168 673.489 185.424C669.755 182.679 664.376 180.406 657.901 178.835C651.426 177.264 644.087 176.452 636.634 176.482C629.18 176.512 621.878 177.382 615.474 179.005C610.508 173.715 601.74 169.227 590.42 166.183C579.101 163.139 565.81 161.694 552.445 162.054C539.08 162.415 526.324 164.562 516 168.19C505.675 171.818 498.309 176.741 494.954 182.256C487.101 180.557 478.354 179.745 469.552 179.896C460.749 180.047 452.185 181.157 444.68 183.119C437.174 185.081 430.979 187.83 426.686 191.103C422.394 194.375 420.148 198.061 420.165 201.809C420.154 204.601 421.42 207.368 423.891 209.955C415.06 210.743 407.032 212.69 400.939 215.521C394.846 218.352 390.995 221.925 389.928 225.736C382.288 223.986 373.582 223.259 364.953 223.652C356.324 224.044 348.176 225.538 341.579 227.936C334.982 230.334 330.244 233.525 327.988 237.089C325.732 240.654 326.062 244.425 328.937 247.908C322.125 249.196 316.217 251.214 311.79 253.765C307.363 256.316 304.569 259.312 303.683 262.46C302.796 265.609 303.846 268.801 306.731 271.724C309.616 274.648 314.236 277.203 320.139 279.139C322.936 281.557 327.436 283.543 333.012 284.822C338.588 286.1 344.963 286.607 351.248 286.272V286.372H1546.83C1552.24 289.649 1559.42 292.325 1567.77 294.174C1576.12 296.024 1585.39 296.993 1594.8 297C1604.21 297.007 1613.49 296.051 1621.85 294.214C1630.21 292.377 1637.42 289.711 1642.85 286.443C1645.85 287.986 1649.62 289.23 1653.88 290.086C1658.13 290.942 1662.78 291.39 1667.49 291.396C1672.2 291.403 1676.86 290.969 1681.13 290.125C1685.4 289.281 1689.19 288.048 1692.21 286.513C1693.53 288.584 1696.19 290.458 1699.88 291.921C1703.57 293.385 1708.15 294.38 1713.1 294.794C1718.05 295.208 1723.18 295.025 1727.9 294.265C1732.62 293.506 1736.74 292.2 1739.81 290.495C1742.88 288.79 1744.76 286.755 1745.25 284.618C1745.74 282.482 1744.81 280.33 1742.58 278.406C1740.34 276.481 1736.89 274.861 1732.6 273.729C1728.31 272.596 1723.37 271.996 1718.32 271.996V271.996Z" fill="#D9D9D9"/>
<path d="M1757.6 281.295C1761.78 270.416 1758.67 259.057 1748.87 249.375C1739.07 239.694 1723.26 232.366 1704.44 228.782C1685.63 225.197 1665.12 225.607 1646.8 229.933C1628.49 234.259 1613.65 242.2 1605.11 252.247C1599.96 244.654 1590.8 238.117 1578.86 233.503C1566.91 228.89 1552.75 226.418 1538.24 226.416C1536.67 226.416 1535.11 226.416 1533.57 226.506C1527.56 215.501 1516.01 205.698 1500.31 198.269C1484.61 190.841 1465.42 186.1 1445.04 184.615C1424.66 183.129 1403.94 184.961 1385.37 189.892C1366.79 194.823 1351.15 202.644 1340.3 212.42C1330.35 209.568 1319.33 208.064 1308.15 208.03C1296.96 207.995 1285.92 209.431 1275.9 212.221C1265.89 215.011 1257.18 219.078 1250.49 224.095C1243.79 229.111 1239.29 234.938 1237.35 241.105C1225.24 235.118 1209.87 231.603 1193.74 231.134C1177.61 230.665 1161.67 233.27 1148.52 238.524C1140.31 232.938 1129.54 228.703 1117.37 226.267C1105.21 223.832 1092.09 223.287 1079.41 224.692C1066.73 226.096 1054.97 229.397 1045.37 234.243C1035.78 239.09 1028.71 245.301 1024.91 252.217C1014.61 245.96 1001.45 241.399 986.853 239.028C972.256 236.657 956.779 236.566 942.097 238.765C934.168 230.056 921.558 222.958 906.043 218.473C890.529 213.988 872.892 212.341 855.617 213.764C840.441 205.506 820.221 200.79 799.062 200.575C777.902 200.359 757.389 204.658 741.685 212.601C726.941 210.179 711.288 210.085 696.455 212.332C681.621 214.578 668.186 219.075 657.632 225.328C650.535 217.841 639.925 211.578 626.944 207.215C613.962 202.852 599.102 200.554 583.961 200.569H583.395C575.552 187.548 559.918 176.445 539.136 169.135C518.355 161.826 493.701 158.76 469.347 160.456C444.992 162.152 422.432 168.505 405.481 178.442C388.53 188.378 378.23 201.288 376.322 214.987C374.893 214.987 373.437 214.987 371.981 214.987C357.664 214.975 343.551 216.887 330.827 220.562C318.104 224.237 307.141 229.568 298.86 236.107C290.58 242.646 285.223 250.203 283.24 258.141C281.256 266.079 282.705 274.169 287.463 281.729C292.221 289.289 300.15 296.099 310.584 301.588C321.018 307.077 333.653 311.083 347.426 313.272C361.199 315.46 375.709 315.765 389.737 314.163C403.766 312.56 416.902 309.097 428.043 304.062H840.678C856.376 307.096 873.336 307.433 889.378 305.029C896.421 312.788 907.201 319.289 920.498 323.798C933.795 328.306 949.08 330.642 964.624 330.542C980.169 330.441 995.353 327.908 1008.46 323.229C1021.57 318.549 1032.08 311.91 1038.8 304.062H1149.36C1161.33 308.722 1175.56 311.219 1190.14 311.219C1204.73 311.219 1218.96 308.722 1230.93 304.062H1513.1C1529.31 307.465 1547.16 307.465 1563.37 304.062H1621.05C1633.61 311.084 1649.94 315.599 1667.54 316.91C1667.4 317.952 1667.3 318.994 1667.3 320.051C1667.33 327.516 1671.09 334.827 1678.15 341.159C1685.21 347.492 1695.3 352.593 1707.26 355.888C1719.23 359.183 1732.6 360.54 1745.87 359.806C1759.14 359.072 1771.77 356.277 1782.36 351.736C1792.94 347.194 1801.05 341.087 1805.76 334.104C1810.47 327.121 1811.61 319.539 1809.03 312.214C1806.46 304.889 1800.28 298.113 1791.19 292.65C1782.1 287.186 1770.47 283.254 1757.6 281.295Z" fill="white"/>
<path d="M1361.5 180C1300.32 213.082 1289.66 196.59 1360.4 228.5C1360.4 228.5 1361.1 198.941 1361.5 180Z" fill="white"/>
<path d="M1360.4 228.5L1403.45 233.553L1458.5 186.112L1443 184.5L1420.5 184.5L1401 186.5L1387.5 189.5C1387.5 189.5 1380.65 185.775 1376 184C1372.4 182.628 1369.75 182.009 1366.76 181.311C1365.17 180.939 1363.48 180.544 1361.5 180C1361.1 198.941 1360.4 228.5 1360.4 228.5Z" fill="white"/>
<path d="M2366.39 469.438C2368.41 485.783 2363.67 502.068 2353.05 515.199C2342.42 528.33 2326.67 537.392 2308.78 540.664C2290.88 543.937 2272.09 541.191 2255.98 532.95C2239.86 524.708 2227.55 511.544 2221.36 495.958C2215.36 506.523 2205.85 515.124 2194.11 520.62C2182.36 526.116 2168.92 528.249 2155.58 526.734C2154.15 526.57 2152.71 526.407 2151.31 526.113C2143.95 541.577 2131.71 554.703 2116.04 563.923C2100.37 573.143 2081.94 578.068 2062.95 578.107C2043.97 578.147 2025.23 573.3 2008.97 564.147C1992.72 554.993 1979.64 541.92 1971.29 526.49C1961.66 529.618 1951.29 530.665 1941 529.545C1930.71 528.425 1920.8 525.17 1912.05 520.043C1903.31 514.915 1895.99 508.057 1890.67 500.021C1885.34 491.984 1882.18 482.994 1881.42 473.772C1869.29 481.261 1854.58 484.792 1839.67 483.79C1824.76 482.788 1810.54 477.311 1799.33 468.253C1790.85 475.562 1780.25 480.629 1768.66 482.917C1757.06 485.205 1744.91 484.628 1733.49 481.248C1722.07 477.868 1711.81 471.811 1703.79 463.72C1695.78 455.629 1690.31 445.807 1687.97 435.297C1677.46 443.369 1664.6 448.662 1650.79 450.601C1636.97 452.541 1622.73 451.055 1609.6 446.302C1600.86 458.208 1588.09 467.267 1573.08 472.203C1558.07 477.138 1541.58 477.701 1525.94 473.813C1510.61 484.3 1491.24 489.08 1471.75 487.181C1452.26 485.283 1434.12 476.85 1421 463.592C1407.05 465.592 1392.64 464.09 1379.38 459.254C1366.11 454.418 1354.51 446.435 1345.85 436.187C1338.08 446.394 1327.28 454.441 1314.62 459.463C1301.96 464.484 1287.92 466.289 1274 464.685L1273.48 464.625C1264.11 482.844 1247.88 497.444 1227.56 505.958C1207.24 514.472 1184.07 516.376 1161.96 511.348C1139.85 506.32 1120.17 494.669 1106.24 478.366C1092.31 462.062 1084.99 442.108 1085.52 421.877C1084.2 421.727 1082.86 421.575 1081.53 421.422C1068.36 419.941 1055.71 415.669 1044.62 408.964C1033.53 402.258 1024.34 393.316 1017.82 382.888C1011.3 372.46 1007.63 360.85 1007.13 349.035C1006.62 337.219 1009.3 325.542 1014.93 314.985C1020.57 304.428 1028.99 295.299 1039.49 288.365C1050 281.43 1062.28 276.894 1075.31 275.135C1088.33 273.376 1101.72 274.448 1114.35 278.259C1126.98 282.07 1138.48 288.509 1147.89 297.036L1527.23 340.209C1542.17 337.416 1557.81 338.698 1572.16 343.892C1579.93 333.283 1590.92 324.904 1603.89 319.703C1616.87 314.501 1631.31 312.685 1645.58 314.458C1659.86 316.231 1673.39 321.524 1684.67 329.738C1695.94 337.952 1704.49 348.759 1709.36 360.938L1811.01 372.506C1822.79 366.946 1836.29 364.783 1849.69 366.309C1863.1 367.834 1875.76 372.975 1886 381.041L2145.4 410.564C2160.86 407.284 2177.28 409.153 2191.61 415.824L2244.64 421.859C2257.35 412.905 2273.12 408.012 2289.51 407.936C2289.56 406.398 2289.64 404.864 2289.81 403.318C2291.09 392.406 2295.76 382.108 2303.31 373.588C2310.85 365.067 2320.97 358.663 2332.52 355.097C2344.07 351.531 2356.59 350.945 2368.66 353.406C2380.74 355.867 2391.89 361.277 2400.87 369.025C2409.84 376.773 2416.27 386.551 2419.44 397.256C2422.62 407.96 2422.4 419.166 2418.81 429.607C2415.22 440.049 2408.42 449.311 2399.15 456.349C2389.89 463.387 2378.54 467.92 2366.39 469.438Z" fill="white"/>
<path d="M3044.03 503.604C3049.78 487.245 3048.92 469.384 3041.61 453.413C3034.3 437.442 3021.05 424.474 3004.38 416.972C2987.72 409.47 2968.79 407.957 2951.19 412.719C2933.6 417.482 2918.56 428.188 2908.94 442.806C2905.54 430.543 2898.27 419.493 2888.1 411.121C2877.93 402.75 2865.34 397.452 2852 395.93C2850.56 395.766 2849.13 395.602 2847.7 395.581C2844.1 377.963 2835.21 361.621 2822.08 348.51C2808.96 335.399 2792.15 326.073 2773.67 321.647C2755.19 317.221 2735.83 317.882 2717.89 323.551C2699.94 329.22 2684.19 339.657 2672.5 353.614C2663.85 348.17 2653.98 344.696 2643.71 343.472C2633.43 342.248 2623.02 343.309 2613.33 346.568C2603.63 349.828 2594.91 355.196 2587.88 362.24C2580.84 369.284 2575.68 377.808 2572.81 387.126C2562.73 376.616 2549.22 369.582 2534.47 367.17C2519.73 364.758 2504.61 367.112 2491.6 373.847C2485.03 364.364 2475.88 356.7 2465.12 351.667C2454.36 346.634 2442.4 344.42 2430.5 345.262C2418.6 346.104 2407.2 349.969 2397.53 356.447C2387.86 362.925 2380.27 371.773 2375.56 382.053C2367.19 371.315 2355.89 362.897 2342.89 357.709C2329.89 352.522 2315.68 350.762 2301.79 352.622C2296.03 338.346 2285.69 326.07 2272.21 317.523C2258.74 308.975 2242.81 304.587 2226.68 304.977C2214.18 290.64 2196.42 281.245 2177.01 278.698C2157.59 276.151 2137.98 280.643 2122.15 291.261C2109.02 285.979 2094.64 284.197 2080.61 286.113C2066.58 288.028 2053.44 293.566 2042.64 302.115C2037.43 289.813 2028.78 279.035 2017.61 270.941C2006.44 262.848 1993.18 257.745 1979.26 256.183L1978.74 256.124C1973.82 235.203 1961.4 216.426 1943.58 202.967C1925.76 189.509 1903.63 182.196 1880.94 182.266C1858.26 182.336 1836.4 189.784 1819.07 203.35C1801.74 216.916 1790 235.768 1785.84 256.717C1784.53 256.567 1783.19 256.415 1781.85 256.262C1768.69 254.746 1755.38 256.221 1743.04 260.564C1730.7 264.906 1719.68 271.989 1710.92 281.218C1702.16 290.446 1695.91 301.55 1692.69 313.598C1689.47 325.646 1689.38 338.285 1692.43 350.454C1695.47 362.623 1701.57 373.967 1710.19 383.532C1718.82 393.097 1729.73 400.604 1742.01 405.423C1754.29 410.242 1767.57 412.232 1780.75 411.226C1793.93 410.22 1806.61 406.247 1817.74 399.641L2197.08 442.815C2210.98 449.141 2226.51 451.434 2241.68 449.402C2246.8 462.117 2255.56 473.281 2267 481.633C2278.43 489.985 2292.07 495.19 2306.38 496.661C2320.68 498.133 2335.09 495.811 2347.96 489.958C2360.83 484.106 2371.66 474.956 2379.22 463.544L2480.86 475.111C2491.05 483.557 2503.69 488.902 2517.1 490.427C2530.5 491.953 2544.02 489.587 2555.85 483.646L2815.26 513.17C2829.55 520.118 2845.97 521.986 2861.46 518.429L2914.49 524.464C2924.8 536.618 2939.03 545.297 2954.97 549.162C2954.67 550.756 2954.38 552.353 2954.2 553.985C2952.92 565.513 2955.09 577.193 2960.47 587.708C2965.85 598.223 2974.22 607.153 2984.64 613.491C2995.06 619.829 3007.12 623.323 3019.44 623.579C3031.77 623.835 3043.88 620.842 3054.41 614.938C3064.94 609.035 3073.46 600.455 3079.02 590.167C3084.58 579.88 3086.95 568.294 3085.87 556.717C3084.8 545.139 3080.31 534.032 3072.91 524.647C3065.52 515.262 3055.51 507.974 3044.03 503.604Z" fill="white"/>
<rect x="1210" y="271" width="481" height="112" fill="white"/>
</g>
<defs>
<clipPath id="clip0">
<rect width="2115" height="628" fill="white" transform="translate(-38)"/>
</clipPath>
</defs>
</svg>
