<svg width="210" height="813" viewBox="0 0 210 813" fill="none" xmlns="http://www.w3.org/2000/svg">
<path d="M111.642 753.83C98.0315 755.143 84.0509 752.71 72.3554 746.992C60.6599 741.275 52.0642 732.67 48.2011 722.813C44.338 712.957 45.4765 702.535 51.4003 693.526C57.3241 684.518 67.6206 677.551 80.3342 673.949C71.0824 670.754 63.2632 665.599 57.9134 659.168C52.5636 652.737 49.9361 645.333 50.3791 637.938C50.4272 637.141 50.4753 636.344 50.6348 635.568C37.1822 631.681 25.3894 625.064 16.6663 616.508C7.94313 607.953 2.65853 597.82 1.4442 587.322C0.229873 576.824 3.13715 566.404 9.81855 557.308C16.5 548.212 26.6728 540.824 39.1212 536.029C35.8931 530.74 34.3684 525.015 34.6694 519.312C34.9704 513.609 37.0889 508.089 40.8544 503.194C44.6199 498.3 49.9273 494.168 56.3499 491.13C62.7726 488.093 70.1311 486.236 77.8337 485.708C70.7859 479.091 66.9029 470.995 66.8178 462.74C66.7328 454.485 70.4507 446.557 77.3654 440.25C70.6962 435.646 65.7785 429.844 63.1347 423.461C60.4908 417.078 60.2195 410.351 62.3496 403.996C64.4797 397.64 68.9316 391.894 75.2325 387.366C81.5333 382.839 89.4477 379.699 98.1349 378.282C90.6972 372.565 85.4497 365.518 82.9602 357.902C80.4708 350.287 80.8342 342.393 84.0113 335.076C73.4619 330.384 65.0544 323.427 59.9732 315.186C54.892 306.944 53.3932 297.834 55.6879 289.137C45.9213 280.786 40.6995 270.13 41.0825 259.331C41.4655 248.532 47.4245 238.4 57.7501 230.992C55.2015 223.297 55.5671 215.313 58.8064 207.922C62.0458 200.531 68.0327 194.021 76.106 189.111C67.0451 184.934 59.6108 179.059 54.6034 172.118C49.596 165.176 47.2052 157.432 47.6882 149.717L47.7056 149.429C31.8122 144.459 18.533 135.661 10.1142 124.525C1.69544 113.388 -1.34608 100.596 1.5041 88.3121C4.35429 76.0281 12.9212 65.0064 25.7558 57.1113C38.5903 49.2162 54.9047 44.9325 71.9391 44.9847C71.9831 44.2564 72.0278 43.5143 72.0726 42.7723C72.4983 35.4755 75.3016 28.4266 80.2471 22.2176C85.1926 16.0086 92.1359 10.8208 100.494 7.08996C108.851 3.35912 118.38 1.19419 128.278 0.777043C138.177 0.359891 148.156 1.70269 157.378 4.69264C166.601 7.6826 174.796 12.2324 181.277 17.9599C187.758 23.6873 192.335 30.4252 194.623 37.6076C196.911 44.7899 196.844 52.207 194.427 59.2357C192.01 66.2645 187.313 72.6997 180.732 78.0008L168.046 288.275C171.323 296.502 171.218 305.17 167.746 313.165C177.145 317.334 184.87 323.313 190.048 330.426C195.226 337.539 197.651 345.503 197.049 353.417C196.446 361.331 192.84 368.879 186.639 375.209C180.437 381.538 171.887 386.397 161.955 389.235L158.556 445.576C163.962 452.025 166.619 459.465 166.17 466.895C165.722 474.325 162.19 481.391 156.048 487.144L147.372 630.937C151.091 639.448 150.542 648.548 145.827 656.551L144.054 685.944C152.369 692.869 157.462 701.531 158.546 710.595C159.841 710.605 161.135 710.627 162.445 710.706C171.695 711.282 180.639 713.745 188.269 717.817C195.899 721.889 201.911 727.409 205.626 733.752C209.341 740.096 210.611 747.011 209.294 753.718C207.977 760.425 204.125 766.657 198.172 771.71C192.218 776.763 184.401 780.437 175.603 782.317C166.804 784.196 175.168 814.359 166.17 812.5C157.173 810.641 131.171 776.833 124.68 771.794C118.189 766.755 113.673 760.533 111.642 753.83Z" fill="white"/>
</svg>
