<svg width="297" height="822" viewBox="0 0 297 822" fill="none" xmlns="http://www.w3.org/2000/svg">
<path d="M153.642 760.83C140.032 762.143 126.051 759.71 114.355 753.992C102.66 748.275 94.0642 739.67 90.2011 729.813C86.338 719.957 87.4765 709.535 93.4003 700.526C99.3241 691.518 109.621 684.551 122.334 680.949C113.082 677.754 105.263 672.599 99.9134 666.168C94.5636 659.737 91.9361 652.333 92.3791 644.938C92.4272 644.141 92.4753 643.344 92.6348 642.568C79.1822 638.681 67.3894 632.064 58.6663 623.508C49.9431 614.953 44.6585 604.82 43.4442 594.322C42.2299 583.824 45.1371 573.404 51.8186 564.308C58.5 555.212 68.6728 547.824 81.1212 543.029C77.8931 537.74 76.3684 532.015 76.6694 526.312C76.9704 520.609 79.0889 515.089 82.8544 510.194C86.6199 505.3 91.9273 501.168 98.3499 498.13C104.773 495.093 112.131 493.236 119.834 492.708C112.786 486.091 108.903 477.995 108.818 469.74C108.733 461.485 112.451 453.557 119.365 447.25C112.696 442.646 107.779 436.844 105.135 430.461C102.491 424.078 102.22 417.351 104.35 410.996C106.48 404.64 110.932 398.894 117.232 394.366C123.533 389.839 131.448 386.699 140.135 385.282C132.697 379.565 127.45 372.518 124.96 364.902C122.471 357.287 122.834 349.393 126.011 342.076C115.462 337.384 107.054 330.427 101.973 322.186C96.892 313.944 95.3932 304.834 97.6879 296.137C87.9213 287.786 82.6995 277.13 83.0825 266.331C83.4655 255.532 89.4245 245.4 99.7501 237.992C97.2015 230.297 97.5671 222.313 100.806 214.922C104.046 207.531 110.033 201.021 118.106 196.111C109.045 191.934 101.611 186.059 96.6034 179.118C91.596 172.176 89.2052 164.432 89.6882 156.717L89.7056 156.429C73.8122 151.459 60.533 142.661 52.1142 131.525C43.6954 120.388 40.6539 107.596 43.5041 95.3121C46.3543 83.0281 54.9212 72.0064 67.7558 64.1113C80.5903 56.2162 96.9047 51.9325 113.939 51.9847C113.983 51.2564 114.028 50.5143 114.073 49.7723C114.498 42.4755 117.302 35.4266 122.247 29.2176C127.193 23.0086 134.136 17.8208 142.494 14.09C150.851 10.3591 160.38 8.19419 170.278 7.77704C180.177 7.35989 190.156 8.70269 199.378 11.6926C208.601 14.6826 216.796 19.2324 223.277 24.9599C229.758 30.6873 234.335 37.4252 236.623 44.6076C238.911 51.7899 238.844 59.207 236.427 66.2357C234.01 73.2645 229.313 79.6997 222.732 85.0008L210.046 295.275C213.323 303.502 213.218 312.17 209.746 320.165C219.145 324.334 226.87 330.313 232.048 337.426C237.226 344.539 239.651 352.503 239.049 360.417C238.446 368.331 234.84 375.879 228.639 382.209C222.437 388.538 213.887 393.397 203.955 396.235L200.556 452.576C205.962 459.025 208.619 466.465 208.17 473.895C207.722 481.325 204.19 488.391 198.048 494.144L189.372 637.937C193.091 646.448 192.542 655.548 187.827 663.551L186.054 692.944C194.369 699.869 199.462 708.531 200.546 717.595C201.841 717.605 203.135 717.627 204.445 717.706C213.695 718.282 222.639 720.745 230.269 724.817C237.899 728.889 243.911 734.409 247.626 740.752C251.341 747.096 252.611 754.011 251.294 760.718C249.977 767.425 246.125 773.657 240.172 778.71C234.218 783.763 226.401 787.437 217.603 789.317C208.804 791.196 217.168 821.359 208.17 819.5C199.173 817.641 173.171 783.833 166.68 778.794C160.189 773.755 155.673 767.533 153.642 760.83Z" fill="white"/>
</svg>
