<svg width="2048" height="870" viewBox="0 0 2048 870" fill="none" xmlns="http://www.w3.org/2000/svg">
<g clip-path="url(#clip0)">
<path d="M1301.16 818.516C1301.39 825.217 1303.93 831.67 1308.28 836.65C1312.64 841.629 1318.51 844.789 1324.79 845.529C1331.06 846.269 1337.3 844.536 1342.32 840.662C1347.33 836.787 1350.78 831.039 1352 824.511C1354.64 828.601 1358.37 831.779 1362.67 833.623C1366.98 835.468 1371.67 835.891 1376.13 834.838C1376.61 834.724 1377.09 834.61 1377.55 834.445C1380.92 840.479 1385.83 845.403 1391.69 848.63C1391.96 848.779 1392.23 848.859 1392.5 849C1392.5 849 1401.22 851.93 1407 852C1413.14 852.075 1422.45 849 1422.45 849C1424.46 847.929 1426.36 846.701 1428.13 845.2C1433.15 840.951 1436.86 835.215 1438.82 828.679C1442.28 829.631 1445.87 829.715 1449.31 828.922C1452.74 828.129 1455.93 826.482 1458.62 824.114C1461.3 821.745 1463.41 818.721 1464.77 815.285C1466.12 811.848 1466.69 808.095 1466.43 804.328C1470.98 806.968 1476.18 807.918 1481.2 807.021C1486.22 806.124 1490.75 803.434 1494.05 799.389C1497.35 802.076 1501.24 803.784 1505.32 804.331C1509.39 804.878 1513.49 804.245 1517.19 802.497C1520.88 800.75 1524.03 797.954 1526.3 794.407C1528.57 790.86 1529.88 786.694 1530.08 782.351C1534.11 785.282 1538.79 787.007 1543.6 787.34C1548.41 787.673 1553.17 786.601 1557.37 784.241C1561.02 788.786 1565.88 792.042 1571.26 793.552C1576.65 795.061 1582.29 794.747 1587.39 792.655C1593.2 796.407 1600.07 797.71 1606.59 796.298C1613.11 794.887 1618.81 790.868 1622.52 785.056C1627.39 785.409 1632.2 784.326 1636.44 781.927C1640.68 779.528 1644.18 775.906 1646.55 771.463C1649.77 775.35 1653.9 778.26 1658.49 779.882C1663.08 781.504 1667.96 781.774 1672.61 780.666L1672.78 780.624C1677 787.71 1683.35 793.102 1690.74 795.889C1698.14 798.676 1706.13 798.687 1713.37 795.919C1720.61 793.152 1726.65 787.776 1730.47 780.701C1734.29 773.627 1735.65 765.287 1734.33 757.094L1735.66 756.778C1740.06 755.745 1744.12 753.594 1747.51 750.508C1750.91 747.423 1753.53 743.491 1755.16 739.044C1756.79 734.598 1757.38 729.765 1756.89 724.954C1756.39 720.142 1754.82 715.491 1752.3 711.392C1749.79 707.292 1746.41 703.864 1742.44 701.396C1738.48 698.927 1734.04 697.489 1729.51 697.204C1724.98 696.919 1720.48 697.794 1716.4 699.756C1712.32 701.718 1708.77 704.709 1706.05 708.479L1579.4 738.475C1574.16 737.833 1568.91 738.868 1564.32 741.447C1561.08 737.397 1556.87 734.358 1552.16 732.674C1547.45 730.989 1542.43 730.727 1537.68 731.916C1532.92 733.105 1528.61 735.698 1525.24 739.402C1521.87 743.107 1519.57 747.774 1518.6 752.877L1484.67 760.914C1480.34 759.045 1475.63 758.611 1471.15 759.671C1466.68 760.731 1462.66 763.234 1459.63 766.844L1373.03 787.356C1367.58 786.534 1362.1 787.832 1357.6 791.01L1339.9 795.203C1335.07 791.987 1329.42 790.52 1323.84 791.028C1323.74 790.406 1323.62 789.786 1323.48 789.164C1322.43 784.777 1320.25 780.752 1317.21 777.542C1314.16 774.332 1310.35 772.066 1306.22 770.998C1302.09 769.931 1297.8 770.105 1293.83 771.501C1289.86 772.897 1286.37 775.459 1283.75 778.898C1281.13 782.338 1279.5 786.518 1279.02 790.967C1278.55 795.415 1279.26 799.956 1281.07 804.075C1282.88 808.195 1285.72 811.73 1289.27 814.282C1292.82 816.834 1296.94 818.3 1301.16 818.516Z" fill="white"/>
<path d="M397.624 55.4712C409.826 59.0244 421.339 65.5028 429.976 73.676C438.614 81.8493 443.775 91.1481 444.478 99.8061C445.181 108.464 441.378 115.878 433.791 120.641C426.204 125.403 415.362 127.181 403.323 125.638C410.514 131.111 415.93 137.571 418.851 144.163C421.773 150.755 422.062 157.167 419.682 162.549C419.425 163.129 419.168 163.709 418.82 164.237C429.481 171.626 437.961 180.504 443.245 189.809C448.53 199.114 450.396 208.452 448.621 216.707C446.845 224.962 441.503 231.785 433.233 236.361C424.963 240.936 414.114 243.07 401.985 242.508C403.368 247.538 403.15 252.328 401.35 256.492C399.549 260.656 396.215 264.079 391.617 266.484C387.019 268.889 381.284 270.211 374.874 270.341C368.464 270.472 361.557 269.409 354.71 267.237C359.06 274.534 360.255 281.882 358.102 288.083C355.948 294.285 350.573 298.974 342.853 301.386C347.416 307.051 350.131 313.029 350.71 318.683C351.289 324.338 349.71 329.458 346.141 333.501C342.572 337.543 337.147 340.357 330.441 341.643C323.734 342.929 315.998 342.639 308.054 340.804C312.986 347.557 315.652 354.576 315.764 361.101C315.876 367.625 313.43 373.407 308.69 377.82C316.607 384.844 322.049 392.848 324.248 400.704C326.447 408.56 325.294 415.873 320.95 421.611C327.198 431.111 328.868 440.82 325.621 448.767C322.374 456.715 314.453 462.305 303.466 464.405C303.609 471.008 301.136 476.856 296.322 481.304C291.509 485.751 284.541 488.624 276.188 489.606C282.949 495.749 287.835 502.619 290.321 509.479C292.806 516.338 292.798 522.926 290.296 528.534L290.203 528.744C302.697 537.757 311.882 548.761 316.205 559.894C320.529 571.027 319.725 581.607 313.929 589.843C308.134 598.079 297.703 603.466 284.401 605.093C271.099 606.72 255.742 604.486 240.928 598.771C240.694 599.301 240.455 599.841 240.215 600.381C237.876 605.695 233.534 610.032 227.554 613.027C221.574 616.022 214.13 617.588 205.849 617.593C197.567 617.597 188.689 616.041 179.96 613.054C171.231 610.068 162.907 605.738 155.686 600.429C148.465 595.12 142.559 588.986 138.463 582.544C134.367 576.101 132.201 569.537 132.147 563.404C132.093 557.27 134.153 551.747 138.153 547.296C142.154 542.845 147.978 539.598 155.137 537.827L222.914 384.813C222.282 377.569 224.711 371.123 229.891 366.301C222.835 360.051 217.724 353.006 215.135 345.961C212.547 338.916 212.585 332.153 215.245 326.436C217.904 320.719 223.08 316.276 230.186 313.609C237.292 310.942 246.045 310.158 255.457 311.346L273.617 270.348C270.651 263.723 270.346 257.275 272.741 251.868C275.136 246.461 280.117 242.354 287.016 240.099L333.364 135.463C332.424 127.859 335.357 121.237 341.62 116.824L351.095 95.4344C345.725 87.4847 343.629 79.3103 345.131 72.1711C344.006 71.7326 342.886 71.2843 341.767 70.7888C333.871 67.2757 326.75 62.4532 321.207 56.8655C315.664 51.2778 311.92 45.1473 310.398 39.1657C308.876 33.184 309.636 27.5894 312.592 23.0128C315.548 18.4363 320.583 15.06 327.128 13.2651C333.673 11.4701 341.469 11.3279 349.635 12.8544C357.801 14.3809 366.013 17.5154 373.343 21.9042C380.674 26.293 386.832 31.7616 391.122 37.6927C395.412 43.6239 397.664 49.7817 397.624 55.4712Z" fill="white"/>
<path d="M397.624 55.4712C409.826 59.0244 421.339 65.5028 429.976 73.676C438.614 81.8493 443.775 91.1481 444.478 99.8061C445.181 108.464 441.378 115.878 433.791 120.641C426.204 125.403 415.362 127.181 403.323 125.638C410.514 131.111 415.93 137.571 418.851 144.163C421.773 150.755 422.062 157.167 419.682 162.549C419.425 163.129 419.168 163.709 418.82 164.237C429.481 171.626 437.961 180.504 443.245 189.809C448.53 199.114 450.396 208.452 448.621 216.707C446.845 224.962 441.503 231.785 433.233 236.361C424.963 240.936 414.114 243.07 401.985 242.508C403.368 247.538 403.15 252.328 401.35 256.492C399.549 260.656 396.215 264.079 391.617 266.484C387.019 268.889 381.284 270.211 374.874 270.341C368.464 270.472 361.557 269.409 354.71 267.237C359.06 274.534 360.255 281.882 358.102 288.083C355.948 294.285 350.573 298.974 342.853 301.386C347.416 307.051 350.131 313.029 350.71 318.683C351.289 324.338 349.71 329.458 346.141 333.501C342.572 337.543 337.147 340.357 330.441 341.643C323.734 342.929 315.998 342.639 308.054 340.804C312.986 347.557 315.652 354.576 315.764 361.101C315.876 367.625 313.43 373.407 308.69 377.82C316.607 384.844 322.049 392.848 324.248 400.704C326.447 408.56 325.294 415.873 320.95 421.611C327.198 431.111 328.868 440.82 325.621 448.767C322.374 456.715 314.453 462.305 303.466 464.405C303.609 471.008 301.136 476.856 296.322 481.304C291.509 485.751 284.541 488.624 276.188 489.606C282.949 495.749 287.835 502.619 290.321 509.479C292.806 516.338 292.798 522.926 290.296 528.534L290.203 528.744C302.697 537.757 311.882 548.761 316.205 559.894C320.529 571.027 319.725 581.607 313.929 589.843C308.134 598.079 297.703 603.466 284.401 605.093C271.099 606.72 255.742 604.486 240.928 598.771C240.694 599.301 240.455 599.841 240.215 600.381C237.876 605.695 233.534 610.032 227.554 613.027C221.574 616.022 214.13 617.588 205.849 617.593C197.567 617.597 188.689 616.041 179.96 613.054C171.231 610.068 162.907 605.738 155.686 600.429C148.465 595.12 142.559 588.986 138.463 582.544C134.367 576.101 132.201 569.537 132.147 563.404C132.093 557.27 134.153 551.747 138.153 547.296C142.154 542.845 147.978 539.598 155.137 537.827L222.914 384.813C222.282 377.569 224.711 371.123 229.891 366.301C222.835 360.051 217.724 353.006 215.135 345.961C212.547 338.916 212.585 332.153 215.245 326.436C217.904 320.719 223.08 316.276 230.186 313.609C237.292 310.942 246.045 310.158 255.457 311.346L273.617 270.348C270.651 263.723 270.346 257.275 272.741 251.868C275.136 246.461 280.117 242.354 287.016 240.099L333.364 135.463C332.424 127.859 335.357 121.237 341.62 116.824L351.095 95.4344C345.725 87.4847 343.629 79.3103 345.131 72.1711C344.006 71.7326 342.886 71.2843 341.767 70.7888C333.871 67.2757 326.75 62.4532 321.207 56.8655C315.664 51.2778 311.92 45.1473 310.398 39.1657C308.876 33.184 309.636 27.5894 312.592 23.0128C315.548 18.4363 320.583 15.06 327.128 13.2651C333.673 11.4701 341.469 11.3279 349.635 12.8544C357.801 14.3809 366.013 17.5154 373.343 21.9042C380.674 26.293 386.832 31.7616 391.122 37.6927C395.412 43.6239 397.664 49.7817 397.624 55.4712Z" fill="white"/>
<path d="M788.499 712.999C239.267 719.615 272.071 441.228 342.171 246.354C136.671 779.214 202.413 820.387 436.797 841.838C895.875 846.827 1426.3 705.316 788.499 712.999Z" fill="white"/>
<path d="M1520.5 709.106C1522.99 703.177 1521.14 696.986 1515.29 691.71C1509.44 686.434 1500 682.44 1488.77 680.486C1477.54 678.533 1465.3 678.756 1454.37 681.114C1443.44 683.472 1434.58 687.799 1429.49 693.275C1426.41 689.137 1420.94 685.574 1413.81 683.06C1406.69 680.545 1398.23 679.198 1389.57 679.197C1388.64 679.197 1387.7 679.197 1386.79 679.246C1383.2 673.249 1376.31 667.906 1366.93 663.857C1357.56 659.809 1346.11 657.225 1333.95 656.415C1321.78 655.606 1309.41 656.604 1298.33 659.292C1287.24 661.979 1277.91 666.241 1271.43 671.569C1265.49 670.015 1258.92 669.196 1252.24 669.177C1245.56 669.158 1238.97 669.94 1232.99 671.461C1227.02 672.981 1221.82 675.198 1217.82 677.932C1213.83 680.666 1211.14 683.842 1209.98 687.203C1202.76 683.94 1193.58 682.024 1183.96 681.769C1174.33 681.513 1164.81 682.933 1156.97 685.796C1152.06 682.752 1145.64 680.443 1138.38 679.116C1131.11 677.789 1123.28 677.492 1115.71 678.258C1108.15 679.023 1101.13 680.822 1095.4 683.463C1089.67 686.105 1085.45 689.49 1083.19 693.259C1077.04 689.849 1069.18 687.363 1060.47 686.071C1051.76 684.778 1042.52 684.729 1033.76 685.928C1029.03 681.181 1021.5 677.313 1012.24 674.868C1002.98 672.424 992.454 671.526 982.143 672.302C973.085 667.801 961.017 665.231 948.388 665.114C935.759 664.996 923.515 667.339 914.142 671.668C905.342 670.348 895.999 670.297 887.146 671.521C878.292 672.745 870.273 675.197 863.974 678.605C859.738 674.524 853.406 671.111 845.658 668.733C837.91 666.355 829.04 665.103 820.003 665.11H819.665C814.984 658.014 805.653 651.963 793.249 647.979C780.845 643.996 766.131 642.325 751.595 643.249C737.058 644.173 723.593 647.636 713.476 653.051C703.358 658.467 697.211 665.502 696.072 672.968C695.219 672.968 694.35 672.968 693.481 672.968C684.936 672.962 676.512 674.004 668.918 676.007C661.324 678.01 654.781 680.915 649.838 684.479C644.896 688.043 641.699 692.161 640.515 696.487C639.331 700.814 640.196 705.222 643.036 709.343C645.875 713.463 650.608 717.175 656.836 720.166C663.063 723.157 670.604 725.341 678.825 726.534C687.046 727.726 695.706 727.893 704.079 727.019C712.452 726.146 720.292 724.258 726.942 721.514H973.227C982.596 723.168 992.719 723.351 1002.29 722.041C1006.5 726.27 1012.93 729.813 1020.87 732.27C1028.8 734.727 1037.93 736.001 1047.21 735.946C1056.48 735.891 1065.55 734.51 1073.37 731.96C1081.19 729.41 1087.46 725.792 1091.48 721.514H1157.47C1164.61 724.054 1173.11 725.415 1181.81 725.415C1190.51 725.415 1199.01 724.054 1206.15 721.514H1374.57C1384.24 723.369 1394.9 723.369 1404.57 721.514H1439C1446.49 725.342 1456.24 727.802 1466.75 728.517C1466.66 729.084 1466.6 729.652 1466.6 730.228C1466.62 734.297 1468.87 738.281 1473.08 741.732C1477.3 745.183 1483.31 747.964 1490.45 749.759C1497.6 751.555 1505.58 752.295 1513.5 751.895C1521.42 751.495 1528.96 749.972 1535.28 747.496C1541.59 745.021 1546.43 741.693 1549.24 737.887C1552.06 734.081 1552.73 729.949 1551.2 725.957C1549.66 721.965 1545.97 718.272 1540.55 715.295C1535.13 712.317 1528.18 710.174 1520.5 709.106Z" fill="white"/>
<path d="M642.627 720.599C644.837 716.616 645.616 711.97 644.817 707.545C644.019 703.12 641.697 699.223 638.294 696.594C634.891 693.966 630.644 692.789 626.358 693.288C622.072 693.786 618.047 695.925 615.048 699.298C614.939 695.992 613.88 692.838 612.012 690.255C610.143 687.672 607.553 685.782 604.584 684.835C604.264 684.733 603.944 684.632 603.619 684.567C603.76 679.87 602.619 675.284 600.333 671.355C598.046 667.426 594.711 664.321 590.726 662.411C586.741 660.502 582.274 659.868 577.86 660.586C573.445 661.304 569.27 663.343 565.833 666.46C564.151 664.696 562.085 663.389 559.801 662.647C557.516 661.904 555.078 661.746 552.682 662.184C550.285 662.623 547.997 663.646 546.002 665.172C544.007 666.698 542.36 668.683 541.195 670.969C539.464 667.838 536.757 665.461 533.515 664.226C530.273 662.992 526.688 662.971 523.343 664.169C522.359 661.449 520.684 659.091 518.498 657.345C516.312 655.599 513.695 654.531 510.927 654.254C508.158 653.977 505.34 654.502 502.773 655.772C500.206 657.042 497.985 659.01 496.347 661.468C495.019 658.349 492.895 655.707 490.204 653.829C487.513 651.95 484.358 650.905 481.08 650.809C480.543 646.885 478.848 643.287 476.233 640.522C473.617 637.756 470.214 635.963 466.503 635.393C464.427 631.174 460.877 628.012 456.575 626.548C452.273 625.085 447.541 625.429 443.338 627.512C440.623 625.604 437.432 624.547 434.118 624.459C430.803 624.37 427.494 625.254 424.556 627.012C424.037 623.62 422.646 620.479 420.534 617.927C418.422 615.374 415.668 613.507 412.568 612.525L412.452 612.488C412.47 606.885 410.655 601.523 407.314 597.309C403.973 593.096 399.312 590.29 394.118 589.366C388.924 588.442 383.516 589.456 378.81 592.238C374.104 595.019 370.388 599.397 368.29 604.631C367.998 604.537 367.7 604.442 367.402 604.348C364.475 603.41 361.349 603.238 358.288 603.846C355.227 604.454 352.32 605.824 349.811 607.842C347.302 609.86 345.264 612.466 343.869 615.442C342.474 618.418 341.763 621.676 341.794 624.943C341.825 628.21 342.599 631.391 344.05 634.217C345.501 637.044 347.586 639.435 350.131 641.189C352.677 642.942 355.607 644.007 358.677 644.295C361.747 644.583 364.866 644.084 367.773 642.841L452.194 669.737C455.028 671.947 458.456 673.184 462.038 673.29C462.512 676.783 463.907 680.029 466.066 682.659C468.224 685.289 471.06 687.199 474.253 688.173C477.446 689.147 480.868 689.146 484.133 688.17C487.398 687.194 490.375 685.282 492.728 682.651L515.348 689.857C517.217 692.46 519.817 694.365 522.8 695.315C525.784 696.265 529.007 696.216 532.037 695.174L589.767 713.567C592.658 715.954 596.312 717.118 600.051 716.843L611.852 720.603C613.546 724.168 616.326 726.998 619.762 728.658C619.605 729.057 619.453 729.457 619.321 729.87C618.398 732.793 618.256 735.897 618.912 738.834C619.568 741.771 620.995 744.424 623.032 746.492C625.07 748.561 627.636 749.963 630.442 750.541C633.248 751.119 636.183 750.85 638.914 749.763C641.645 748.677 644.064 746.816 645.898 744.392C647.733 741.968 648.909 739.077 649.296 736.044C649.682 733.011 649.262 729.958 648.084 727.229C646.905 724.5 645.015 722.203 642.627 720.599Z" fill="white"/>
<path d="M1974.65 736.299C1976.69 729.874 1975.85 722.993 1972.3 716.964C1968.75 710.935 1962.73 706.177 1955.38 703.594C1948.03 701.012 1939.88 700.784 1932.46 702.954C1925.04 705.124 1918.87 709.542 1915.13 715.367C1913.34 710.696 1909.94 706.566 1905.36 703.525C1900.78 700.484 1895.24 698.676 1889.48 698.339C1888.86 698.303 1888.24 698.267 1887.62 698.286C1885.62 691.551 1881.38 685.408 1875.4 680.593C1869.43 675.778 1861.98 672.493 1853.94 671.132C1845.89 669.771 1837.61 670.391 1830.06 672.918C1822.52 675.445 1816.03 679.771 1811.39 685.381C1807.53 683.442 1803.21 682.286 1798.77 682.007C1794.33 681.728 1789.9 682.334 1785.82 683.775C1781.75 685.216 1778.15 687.453 1775.32 690.305C1772.49 693.158 1770.5 696.546 1769.51 700.198C1764.91 696.33 1758.93 693.868 1752.55 693.215C1746.16 692.561 1739.74 693.755 1734.34 696.6C1731.27 693.063 1727.14 690.275 1722.4 688.535C1717.65 686.794 1712.46 686.165 1707.38 686.714C1702.3 687.263 1697.51 688.97 1693.54 691.654C1689.56 694.337 1686.53 697.897 1684.78 701.955C1680.91 697.966 1675.85 694.928 1670.14 693.17C1664.42 691.412 1658.28 691 1652.38 691.98C1649.53 686.576 1644.77 682.031 1638.77 678.984C1632.77 675.937 1625.82 674.543 1618.92 674.997C1613.18 669.697 1605.31 666.404 1596.92 665.786C1588.53 665.168 1580.24 667.272 1573.72 671.67C1567.96 669.878 1561.74 669.461 1555.78 670.465C1549.81 671.468 1544.32 673.854 1539.91 677.359C1537.35 672.707 1533.36 668.708 1528.36 665.793C1523.36 662.878 1517.54 661.158 1511.53 660.817L1511.3 660.804C1508.64 652.818 1502.82 645.802 1494.83 640.941C1486.83 636.08 1477.15 633.673 1467.42 634.127C1457.69 634.581 1448.52 637.869 1441.44 643.434C1434.36 648.998 1429.82 656.499 1428.59 664.666C1428.02 664.633 1427.44 664.599 1426.87 664.565C1421.18 664.228 1415.51 665.048 1410.33 666.957C1405.15 668.867 1400.62 671.809 1397.1 675.537C1393.59 679.266 1391.2 683.671 1390.13 688.384C1389.07 693.096 1389.36 697.979 1390.99 702.62C1392.61 707.261 1395.52 711.527 1399.47 715.058C1403.42 718.588 1408.3 721.282 1413.69 722.911C1419.08 724.541 1424.83 725.059 1430.46 724.422C1436.08 723.786 1441.42 722.013 1446.02 719.252L1609.84 728.778C1615.96 730.959 1622.68 731.552 1629.14 730.481C1631.66 735.295 1635.72 739.441 1640.84 742.45C1645.96 745.46 1651.95 747.213 1658.12 747.511C1664.3 747.81 1670.41 746.642 1675.78 744.14C1681.15 741.638 1685.55 737.901 1688.49 733.352L1732.38 735.904C1736.98 738.973 1742.54 740.799 1748.33 741.135C1754.12 741.472 1759.85 740.304 1764.77 737.787L1876.79 744.301C1883.11 746.715 1890.2 747.127 1896.75 745.461L1919.65 746.793C1924.39 751.292 1930.72 754.375 1937.66 755.567C1937.57 756.189 1937.49 756.811 1937.45 757.444C1937.2 761.92 1938.44 766.389 1941.03 770.347C1943.61 774.306 1947.43 777.597 1952.07 779.848C1956.7 782.099 1961.96 783.221 1967.26 783.088C1972.55 782.954 1977.67 781.57 1982.03 779.093C1986.39 776.615 1989.82 773.141 1991.93 769.064C1994.05 764.987 1994.76 760.469 1993.99 756.019C1993.23 751.569 1991.01 747.364 1987.59 743.88C1984.18 740.395 1979.69 737.77 1974.65 736.299Z" fill="white"/>
<path d="M1253.5 849H-42V718V21H133H349L376 100L252 367.5L279 579L488.75 718H1019.5H1625L1631.5 737.5L1305 815L1253.5 849Z" fill="white"/>
</g>
<defs>
<clipPath id="clip0">
<rect width="2196" height="870" fill="white" transform="translate(-116)"/>
</clipPath>
</defs>
</svg>
