<svg width="2048" height="892" viewBox="0 0 2048 892" fill="none" xmlns="http://www.w3.org/2000/svg">
<path d="M1950.09 449.315C1955.1 438.43 1956.56 426.104 1954.19 414.678C1951.81 403.252 1945.76 393.522 1937.18 387.335C1928.61 381.149 1918.12 378.938 1907.69 381.122C1897.26 383.306 1887.63 389.732 1880.62 399.181C1880.03 390.545 1877.14 382.502 1872.32 376.121C1867.51 369.739 1860.99 365.32 1853.65 363.448C1852.85 363.247 1852.06 363.046 1851.26 362.943C1851.15 350.614 1847.92 338.835 1841.96 329.014C1835.99 319.193 1827.54 311.745 1817.61 307.56C1807.69 303.376 1796.7 302.632 1785.98 305.417C1775.26 308.202 1765.25 314.399 1757.15 323.267C1752.87 318.99 1747.69 315.993 1742.03 314.516C1736.38 313.039 1730.4 313.124 1724.59 314.764C1718.77 316.404 1713.28 319.553 1708.55 323.958C1703.82 328.363 1699.98 333.901 1697.35 340.126C1692.82 332.281 1685.97 326.611 1677.93 324.041C1669.89 321.472 1661.12 322.154 1653.06 325.977C1650.39 319.055 1646.07 313.222 1640.56 309.098C1635.04 304.974 1628.55 302.713 1621.75 302.555C1614.96 302.397 1608.12 304.348 1601.97 308.201C1595.81 312.053 1590.57 317.664 1586.8 324.436C1583.26 316.54 1577.81 310.057 1571.05 305.688C1564.29 301.319 1556.48 299.231 1548.46 299.649C1546.77 289.484 1542.28 280.408 1535.62 273.701C1528.96 266.994 1520.47 262.994 1511.34 262.264C1505.86 251.639 1496.88 244.085 1486.22 241.134C1475.56 238.182 1464.02 240.055 1453.95 246.372C1447.13 241.93 1439.23 239.816 1431.12 240.264C1423.01 240.712 1415 243.705 1407.99 248.911C1406.39 240.135 1402.69 232.194 1397.28 225.942C1391.87 219.69 1384.96 215.363 1377.29 213.428L1377 213.356C1376.51 198.676 1371.55 185.005 1362.98 174.655C1354.41 164.304 1342.74 157.911 1329.96 156.555C1317.17 155.199 1304.05 158.965 1292.81 167.214C1281.58 175.464 1272.91 187.691 1268.29 201.828C1267.57 201.644 1266.83 201.457 1266.09 201.269C1258.84 199.413 1251.19 199.603 1243.76 201.824C1236.34 204.044 1229.36 208.229 1223.42 214.028C1217.48 219.827 1212.75 227.071 1209.63 235.15C1206.51 243.229 1205.08 251.909 1205.47 260.459C1205.86 269.009 1208.06 277.18 1211.88 284.287C1215.7 291.393 1221.03 297.226 1227.42 301.297C1233.81 305.368 1241.07 307.558 1248.61 307.682C1256.14 307.806 1263.72 305.86 1270.7 302.01L1479.66 355.145C1486.8 360.352 1495.3 362.889 1504.07 362.431C1505.56 371.484 1509.29 379.698 1514.82 386.144C1520.35 392.59 1527.46 397.011 1535.36 398.907C1543.26 400.803 1551.63 400.099 1559.52 396.874C1567.4 393.649 1574.5 388.032 1580 380.657L1635.98 394.894C1640.8 401.328 1647.34 405.783 1654.73 407.66C1662.11 409.538 1669.99 408.749 1677.29 405.398L1820.19 441.734C1827.49 447.393 1836.53 449.693 1845.64 448.207L1874.85 455.634C1879.34 464.624 1886.41 471.468 1894.97 475.11C1894.62 476.186 1894.29 477.266 1894.01 478.376C1892.03 486.218 1891.98 494.378 1893.87 501.936C1895.75 509.494 1899.5 516.148 1904.68 521.148C1909.86 526.148 1916.27 529.295 1923.18 530.233C1930.1 531.171 1937.24 529.864 1943.82 526.459C1950.39 523.054 1956.12 517.686 1960.37 510.961C1964.63 504.236 1967.22 496.421 1967.88 488.4C1968.53 480.378 1967.21 472.468 1964.06 465.562C1960.92 458.656 1956.08 453.028 1950.09 449.315Z" fill="white"/>
<path d="M1950.09 449.315C1955.1 438.43 1956.56 426.104 1954.19 414.678C1951.81 403.252 1945.76 393.522 1937.18 387.335C1928.61 381.149 1918.12 378.938 1907.69 381.122C1897.26 383.306 1887.63 389.732 1880.62 399.181C1880.03 390.545 1877.14 382.502 1872.32 376.121C1867.51 369.739 1860.99 365.32 1853.65 363.448C1852.85 363.247 1852.06 363.046 1851.26 362.943C1851.15 350.614 1847.92 338.835 1841.96 329.014C1835.99 319.193 1827.54 311.745 1817.61 307.56C1807.69 303.376 1796.7 302.632 1785.98 305.417C1775.26 308.202 1765.25 314.399 1757.15 323.267C1752.87 318.99 1747.69 315.993 1742.03 314.516C1736.38 313.039 1730.4 313.124 1724.59 314.764C1718.77 316.404 1713.28 319.553 1708.55 323.958C1703.82 328.363 1699.98 333.901 1697.35 340.126C1692.82 332.281 1685.97 326.611 1677.93 324.041C1669.89 321.472 1661.12 322.154 1653.06 325.977C1650.39 319.055 1646.07 313.222 1640.56 309.098C1635.04 304.974 1628.55 302.713 1621.75 302.555C1614.96 302.397 1608.12 304.348 1601.97 308.201C1595.81 312.053 1590.57 317.664 1586.8 324.436C1583.26 316.54 1577.81 310.057 1571.05 305.688C1564.29 301.319 1556.48 299.231 1548.46 299.649C1546.77 289.484 1542.28 280.408 1535.62 273.701C1528.96 266.994 1520.47 262.994 1511.34 262.264C1505.86 251.639 1496.88 244.085 1486.22 241.134C1475.56 238.182 1464.02 240.055 1453.95 246.372C1447.13 241.93 1439.23 239.816 1431.12 240.264C1423.01 240.712 1415 243.705 1407.99 248.911C1406.39 240.135 1402.69 232.194 1397.28 225.942C1391.87 219.69 1384.96 215.363 1377.29 213.428L1377 213.356C1376.51 198.676 1371.55 185.005 1362.98 174.655C1354.41 164.304 1342.74 157.911 1329.96 156.555C1317.17 155.199 1304.05 158.965 1292.81 167.214C1281.58 175.464 1272.91 187.691 1268.29 201.828C1267.57 201.644 1266.83 201.457 1266.09 201.269C1258.84 199.413 1251.19 199.603 1243.76 201.824C1236.34 204.044 1229.36 208.229 1223.42 214.028C1217.48 219.827 1212.75 227.071 1209.63 235.15C1206.51 243.229 1205.08 251.909 1205.47 260.459C1205.86 269.009 1208.06 277.18 1211.88 284.287C1215.7 291.393 1221.03 297.226 1227.42 301.297C1233.81 305.368 1241.07 307.558 1248.61 307.682C1256.14 307.806 1263.72 305.86 1270.7 302.01L1479.66 355.145C1486.8 360.352 1495.3 362.889 1504.07 362.431C1505.56 371.484 1509.29 379.698 1514.82 386.144C1520.35 392.59 1527.46 397.011 1535.36 398.907C1543.26 400.803 1551.63 400.099 1559.52 396.874C1567.4 393.649 1574.5 388.032 1580 380.657L1635.98 394.894C1640.8 401.328 1647.34 405.783 1654.73 407.66C1662.11 409.538 1669.99 408.749 1677.29 405.398L1820.19 441.734C1827.49 447.393 1836.53 449.693 1845.64 448.207L1874.85 455.634C1879.34 464.624 1886.41 471.468 1894.97 475.11C1894.62 476.186 1894.29 477.266 1894.01 478.376C1892.03 486.218 1891.98 494.378 1893.87 501.936C1895.75 509.494 1899.5 516.148 1904.68 521.148C1909.86 526.148 1916.27 529.295 1923.18 530.233C1930.1 531.171 1937.24 529.864 1943.82 526.459C1950.39 523.054 1956.12 517.686 1960.37 510.961C1964.63 504.236 1967.22 496.421 1967.88 488.4C1968.53 480.378 1967.21 472.468 1964.06 465.562C1960.92 458.656 1956.08 453.028 1950.09 449.315Z" fill="white"/>
<path d="M784.14 337.619C780.734 342.479 782.774 347.861 789.873 352.743C796.971 357.626 808.634 361.669 822.646 364.104C836.658 366.539 852.042 367.197 865.878 365.953C879.714 364.709 891.036 361.649 897.696 357.355C901.366 361.08 908.063 364.482 916.897 367.109C925.731 369.736 936.286 371.465 947.161 372.066C948.334 372.13 949.506 372.195 950.66 372.216C954.887 377.555 963.291 382.566 974.869 386.651C986.446 390.735 1000.71 393.721 1015.95 395.25C1031.19 396.779 1046.76 396.788 1060.81 395.275C1074.85 393.761 1086.78 390.791 1095.16 386.717C1102.55 388.447 1110.77 389.598 1119.15 390.076C1127.53 390.554 1135.85 390.347 1143.42 389.47C1151 388.593 1157.63 387.072 1162.78 385.028C1167.92 382.985 1171.44 380.476 1173.06 377.704C1181.98 380.973 1193.41 383.234 1205.49 384.117C1217.57 385.001 1229.58 384.454 1239.57 382.568C1245.58 385.491 1253.54 387.894 1262.6 389.524C1271.66 391.153 1281.48 391.947 1291.02 391.821C1300.55 391.695 1309.45 390.654 1316.77 388.809C1324.08 386.964 1329.54 384.384 1332.57 381.342C1340.13 384.662 1349.87 387.315 1360.75 389.015C1371.63 390.714 1383.23 391.396 1394.29 390.985C1400.01 395.341 1409.28 399.145 1420.8 401.86C1432.31 404.576 1445.49 406.066 1458.47 406.122C1469.64 410.568 1484.67 413.585 1500.53 414.559C1516.38 415.533 1531.86 414.392 1543.84 411.367C1554.83 413.097 1566.56 413.787 1577.73 413.361C1588.91 412.935 1599.09 411.41 1607.16 408.954C1612.29 412.71 1620.08 416.045 1629.7 418.599C1639.32 421.153 1650.4 422.83 1661.75 423.449L1662.17 423.473C1667.72 429.819 1679.15 435.6 1694.54 439.84C1709.93 444.079 1728.33 446.516 1746.63 446.738C1764.93 446.96 1782 444.953 1794.96 441.058C1807.91 437.162 1815.96 431.617 1817.74 425.36C1818.81 425.419 1819.91 425.479 1821 425.539C1831.73 426.136 1842.35 425.835 1851.98 424.661C1861.62 423.487 1869.97 421.474 1876.34 418.792C1882.71 416.11 1886.92 412.836 1888.61 409.247C1890.3 405.657 1889.42 401.856 1886.05 398.163C1882.67 394.469 1876.9 390.992 1869.22 388.022C1861.54 385.052 1852.18 382.677 1841.91 381.096C1831.64 379.515 1820.77 378.774 1810.22 378.935C1799.66 379.097 1789.73 380.156 1781.25 382.024L1471.97 364.975C1460.28 362.923 1447.58 362.067 1435.5 362.516C1430.41 358.636 1422.5 355.184 1412.65 352.549C1402.8 349.914 1391.4 348.202 1379.75 347.607C1368.09 347.011 1356.65 347.555 1346.7 349.178C1336.76 350.8 1328.72 353.437 1323.48 356.789L1240.61 352.221C1231.76 349.571 1221.15 347.828 1210.22 347.225C1199.3 346.623 1188.56 347.19 1179.47 348.85L967.978 337.191C955.92 334.948 942.536 334.21 930.304 335.114L887.072 332.731C877.837 328.964 865.708 326.201 852.555 324.868C852.682 324.392 852.79 323.914 852.817 323.426C852.981 319.971 850.349 316.434 845.217 313.214C840.086 309.993 832.659 307.217 823.775 305.199C814.891 303.181 804.904 302.001 794.94 301.792C784.975 301.583 775.431 302.353 767.383 304.017C759.336 305.68 753.105 308.169 749.394 311.205C745.684 314.24 744.641 317.7 746.383 321.194C748.126 324.688 752.584 328.077 759.256 330.98C765.927 333.882 774.546 336.182 784.14 337.619Z" fill="#D9D9D9"/>
<path d="M891.298 315.025C893.28 324.054 891.285 333.35 885.691 341.146C880.098 348.942 871.296 354.696 860.958 357.314C850.619 359.933 839.464 359.233 829.611 355.349C819.758 351.465 811.893 344.667 807.511 336.245C804.502 342.405 799.343 347.625 792.718 351.212C786.093 354.799 778.316 356.583 770.417 356.329C769.565 356.302 768.714 356.274 767.88 356.172C764.313 365.125 757.766 372.991 749.021 378.829C740.277 384.667 729.705 388.231 718.569 389.094C707.434 389.957 696.205 388.084 686.226 383.697C676.247 379.31 667.94 372.596 662.297 364.358C656.8 366.529 650.763 367.573 644.673 367.404C638.583 367.235 632.609 365.859 627.232 363.385C621.855 360.912 617.225 357.41 613.714 353.163C610.203 348.915 607.909 344.04 607.016 338.928C600.267 343.644 591.805 346.266 583.012 346.367C574.218 346.468 565.611 344.043 558.594 339.486C553.973 343.939 548.001 347.236 541.311 349.026C534.622 350.816 527.465 351.032 520.601 349.653C513.738 348.273 507.423 345.348 502.329 341.19C497.235 337.031 493.551 331.793 491.669 326.033C485.895 331.003 478.609 334.525 470.6 336.219C462.591 337.913 454.163 337.715 446.23 335.645C441.681 342.675 434.627 348.295 426.062 351.713C417.497 355.131 407.852 356.176 398.486 354.7C390.004 361.23 378.871 364.754 367.347 364.559C355.823 364.363 344.771 360.462 336.435 353.647C328.344 355.38 319.82 355.181 311.805 353.07C303.791 350.96 296.597 347.02 291.019 341.687C286.955 347.725 281.013 352.693 273.83 356.056C266.647 359.418 258.496 361.047 250.254 360.769L249.946 360.759C245.329 371.338 236.522 380.202 225.014 385.852C213.507 391.502 200.004 393.591 186.792 391.765C173.579 389.94 161.468 384.312 152.505 375.833C143.543 367.355 138.28 356.547 137.608 345.237C136.83 345.211 136.037 345.186 135.244 345.16C127.45 344.917 119.819 343.094 112.99 339.844C106.162 336.595 100.337 332.013 96.0036 326.484C91.6704 320.955 88.9558 314.641 88.088 308.071C87.2202 301.502 88.2244 294.869 91.0163 288.729C93.8082 282.59 98.3062 277.124 104.133 272.79C109.959 268.456 116.944 265.381 124.5 263.823C132.056 262.264 139.963 262.269 147.556 263.835C155.15 265.402 162.209 268.485 168.139 272.826L392.763 280.106C401.389 277.886 410.631 277.908 419.299 280.17C423.34 273.907 429.382 268.746 436.74 265.269C444.099 261.792 452.482 260.139 460.941 260.496C469.4 260.853 477.599 263.206 484.609 267.289C491.62 271.372 497.163 277.023 500.612 283.602L560.797 285.552C567.439 281.928 575.253 280.124 583.191 280.381C591.128 280.638 598.809 282.945 605.202 286.992L758.807 291.97C767.719 289.455 777.44 289.77 786.17 292.857L817.569 293.875C824.593 288.316 833.606 284.888 843.219 284.119C843.173 283.259 843.142 282.4 843.17 281.53C843.389 275.385 845.631 269.433 849.644 264.345C853.657 259.258 859.282 255.236 865.883 252.735C872.484 250.234 879.799 249.353 887.003 250.191C894.206 251.029 901.012 253.553 906.652 257.478C912.291 261.403 916.541 266.573 918.92 272.405C921.299 278.236 921.714 284.497 920.117 290.481C918.521 296.465 914.976 301.934 909.884 306.271C904.792 310.608 898.354 313.64 891.298 315.025Z" fill="white"/>
<path d="M891.298 315.025C893.28 324.054 891.285 333.35 885.691 341.146C880.098 348.942 871.296 354.696 860.958 357.314C850.619 359.933 839.464 359.233 829.611 355.349C819.758 351.465 811.893 344.667 807.511 336.245C804.502 342.405 799.343 347.625 792.718 351.212C786.093 354.799 778.316 356.583 770.417 356.329C769.565 356.302 768.714 356.274 767.88 356.172C764.313 365.125 757.766 372.991 749.021 378.829C740.277 384.667 729.705 388.231 718.569 389.094C707.434 389.957 696.205 388.084 686.226 383.697C676.247 379.31 667.94 372.596 662.297 364.358C656.8 366.529 650.763 367.573 644.673 367.404C638.583 367.235 632.609 365.859 627.232 363.385C621.855 360.912 617.225 357.41 613.714 353.163C610.203 348.915 607.909 344.04 607.016 338.928C600.267 343.644 591.805 346.266 583.012 346.367C574.218 346.468 565.611 344.043 558.594 339.486C553.973 343.939 548.001 347.236 541.311 349.026C534.622 350.816 527.465 351.032 520.601 349.653C513.738 348.273 507.423 345.348 502.329 341.19C497.235 337.031 493.551 331.793 491.669 326.033C485.895 331.003 478.609 334.525 470.6 336.219C462.591 337.913 454.163 337.715 446.23 335.645C441.681 342.675 434.627 348.295 426.062 351.713C417.497 355.131 407.852 356.176 398.486 354.7C390.004 361.23 378.871 364.754 367.347 364.559C355.823 364.363 344.771 360.462 336.435 353.647C328.344 355.38 319.82 355.181 311.805 353.07C303.791 350.96 296.597 347.02 291.019 341.687C286.955 347.725 281.013 352.693 273.83 356.056C266.647 359.418 258.496 361.047 250.254 360.769L249.946 360.759C245.329 371.338 236.522 380.202 225.014 385.852C213.507 391.502 200.004 393.591 186.792 391.765C173.579 389.94 161.468 384.312 152.505 375.833C143.543 367.355 138.28 356.547 137.608 345.237C136.83 345.211 136.037 345.186 135.244 345.16C127.45 344.917 119.819 343.094 112.99 339.844C106.162 336.595 100.337 332.013 96.0036 326.484C91.6704 320.955 88.9558 314.641 88.088 308.071C87.2202 301.502 88.2244 294.869 91.0163 288.729C93.8082 282.59 98.3062 277.124 104.133 272.79C109.959 268.456 116.944 265.381 124.5 263.823C132.056 262.264 139.963 262.269 147.556 263.835C155.15 265.402 162.209 268.485 168.139 272.826L392.763 280.106C401.389 277.886 410.631 277.908 419.299 280.17C423.34 273.907 429.382 268.746 436.74 265.269C444.099 261.792 452.482 260.139 460.941 260.496C469.4 260.853 477.599 263.206 484.609 267.289C491.62 271.372 497.163 277.023 500.612 283.602L560.797 285.552C567.439 281.928 575.253 280.124 583.191 280.381C591.128 280.638 598.809 282.945 605.202 286.992L758.807 291.97C767.719 289.455 777.44 289.77 786.17 292.857L817.569 293.875C824.593 288.316 833.606 284.888 843.219 284.119C843.173 283.259 843.142 282.4 843.17 281.53C843.389 275.385 845.631 269.433 849.644 264.345C853.657 259.258 859.282 255.236 865.883 252.735C872.484 250.234 879.799 249.353 887.003 250.191C894.206 251.029 901.012 253.553 906.652 257.478C912.291 261.403 916.541 266.573 918.92 272.405C921.299 278.236 921.714 284.497 920.117 290.481C918.521 296.465 914.976 301.934 909.884 306.271C904.792 310.608 898.354 313.64 891.298 315.025Z" fill="white"/>
<path d="M1257.95 312.587C1255.43 320.719 1255.6 329.529 1258.43 337.345C1261.26 345.16 1266.54 351.436 1273.28 354.98C1280.01 358.525 1287.74 359.09 1294.97 356.57C1302.21 354.05 1308.47 348.62 1312.55 341.31C1313.81 347.332 1316.67 352.718 1320.75 356.754C1324.82 360.79 1329.91 363.286 1335.35 363.909C1335.93 363.976 1336.52 364.043 1337.1 364.04C1338.39 372.704 1341.86 380.688 1347.1 387.035C1352.33 393.383 1359.11 397.826 1366.61 399.835C1374.12 401.843 1382.04 401.331 1389.43 398.36C1396.82 395.389 1403.37 390.085 1408.28 383.081C1411.77 385.686 1415.76 387.307 1419.95 387.813C1424.14 388.319 1428.4 387.695 1432.4 385.993C1436.39 384.29 1440.01 381.557 1442.96 378.011C1445.9 374.466 1448.1 370.208 1449.37 365.579C1453.38 370.672 1458.83 374.016 1464.83 375.065C1470.84 376.114 1477.04 374.807 1482.42 371.357C1485.01 375.976 1488.67 379.673 1493.02 382.055C1497.37 384.437 1502.24 385.415 1507.11 384.885C1511.98 384.356 1516.68 382.338 1520.7 379.047C1524.71 375.756 1527.91 371.314 1529.93 366.193C1533.25 371.415 1537.78 375.463 1543.04 377.9C1548.3 380.336 1554.09 381.069 1559.79 380.018C1562 387.011 1566.1 392.973 1571.52 397.064C1576.94 401.155 1583.41 403.169 1590 402.822C1594.97 409.78 1602.13 414.249 1610.04 415.32C1617.95 416.392 1626.01 413.986 1632.59 408.592C1637.9 411.074 1643.76 411.816 1649.51 410.736C1655.27 409.655 1660.7 406.795 1665.2 402.47C1667.2 408.495 1670.63 413.733 1675.11 417.622C1679.59 421.511 1684.96 423.904 1690.64 424.541L1690.85 424.566C1692.65 434.848 1697.54 444 1704.69 450.474C1711.83 456.948 1720.8 460.347 1730.08 460.095C1739.35 459.843 1748.36 455.956 1755.58 449.092C1762.8 442.227 1767.78 432.807 1769.69 422.424C1770.23 422.485 1770.77 422.548 1771.32 422.61C1776.68 423.232 1782.14 422.376 1787.23 420.114C1792.32 417.852 1796.89 414.249 1800.56 409.609C1804.24 404.968 1806.9 399.425 1808.34 393.446C1809.78 387.467 1809.94 381.225 1808.82 375.246C1807.7 369.267 1805.32 363.725 1801.89 359.085C1798.46 354.445 1794.08 350.843 1789.11 348.581C1784.14 346.319 1778.73 345.464 1773.33 346.087C1767.94 346.71 1762.71 348.794 1758.1 352.162L1603.49 334.482C1597.87 331.492 1591.55 330.508 1585.33 331.657C1583.37 325.428 1579.9 320 1575.31 315.986C1570.72 311.972 1565.2 309.532 1559.36 308.943C1553.53 308.354 1547.62 309.638 1542.3 312.651C1536.98 315.664 1532.46 320.286 1529.26 325.993L1487.83 321.256C1483.75 317.184 1478.64 314.666 1473.18 314.041C1467.71 313.417 1462.16 314.714 1457.27 317.761L1351.55 305.671C1345.77 302.377 1339.08 301.612 1332.71 303.517L1311.1 301.046C1307.01 295.143 1301.28 290.994 1294.8 289.239C1294.95 288.449 1295.08 287.658 1295.17 286.85C1295.81 281.146 1295.04 275.4 1292.95 270.26C1290.85 265.12 1287.52 260.791 1283.33 257.762C1279.13 254.732 1274.24 253.122 1269.2 253.114C1264.17 253.106 1259.19 254.7 1254.83 257.716C1250.46 260.732 1246.89 265.05 1244.52 270.182C1242.14 275.315 1241.05 281.058 1241.38 286.764C1241.7 292.47 1243.43 297.911 1246.35 302.474C1249.28 307.037 1253.3 310.539 1257.95 312.587Z" fill="white"/>
<path d="M1257.95 312.587C1255.43 320.719 1255.6 329.529 1258.43 337.345C1261.26 345.16 1266.54 351.436 1273.28 354.98C1280.01 358.525 1287.74 359.09 1294.97 356.57C1302.21 354.05 1308.47 348.62 1312.55 341.31C1313.81 347.332 1316.67 352.718 1320.75 356.754C1324.82 360.79 1329.91 363.286 1335.35 363.909C1335.93 363.976 1336.52 364.043 1337.1 364.04C1338.39 372.704 1341.86 380.688 1347.1 387.035C1352.33 393.383 1359.11 397.826 1366.61 399.835C1374.12 401.843 1382.04 401.331 1389.43 398.36C1396.82 395.389 1403.37 390.085 1408.28 383.081C1411.77 385.686 1415.76 387.307 1419.95 387.813C1424.14 388.319 1428.4 387.695 1432.4 385.993C1436.39 384.29 1440.01 381.557 1442.96 378.011C1445.9 374.466 1448.1 370.208 1449.37 365.579C1453.38 370.672 1458.83 374.016 1464.83 375.065C1470.84 376.114 1477.04 374.807 1482.42 371.357C1485.01 375.976 1488.67 379.673 1493.02 382.055C1497.37 384.437 1502.24 385.415 1507.11 384.885C1511.98 384.356 1516.68 382.338 1520.7 379.047C1524.71 375.756 1527.91 371.314 1529.93 366.193C1533.25 371.415 1537.78 375.463 1543.04 377.9C1548.3 380.336 1554.09 381.069 1559.79 380.018C1562 387.011 1566.1 392.973 1571.52 397.064C1576.94 401.155 1583.41 403.169 1590 402.822C1594.97 409.78 1602.13 414.249 1610.04 415.32C1617.95 416.392 1626.01 413.986 1632.59 408.592C1637.9 411.074 1643.76 411.816 1649.51 410.736C1655.27 409.655 1660.7 406.795 1665.2 402.47C1667.2 408.495 1670.63 413.733 1675.11 417.622C1679.59 421.511 1684.96 423.904 1690.64 424.541L1690.85 424.566C1692.65 434.848 1697.54 444 1704.69 450.474C1711.83 456.948 1720.8 460.347 1730.08 460.095C1739.35 459.843 1748.36 455.956 1755.58 449.092C1762.8 442.227 1767.78 432.807 1769.69 422.424C1770.23 422.485 1770.77 422.548 1771.32 422.61C1776.68 423.232 1782.14 422.376 1787.23 420.114C1792.32 417.852 1796.89 414.249 1800.56 409.609C1804.24 404.968 1806.9 399.425 1808.34 393.446C1809.78 387.467 1809.94 381.225 1808.82 375.246C1807.7 369.267 1805.32 363.725 1801.89 359.085C1798.46 354.445 1794.08 350.843 1789.11 348.581C1784.14 346.319 1778.73 345.464 1773.33 346.087C1767.94 346.71 1762.71 348.794 1758.1 352.162L1603.49 334.482C1597.87 331.492 1591.55 330.508 1585.33 331.657C1583.37 325.428 1579.9 320 1575.31 315.986C1570.72 311.972 1565.2 309.532 1559.36 308.943C1553.53 308.354 1547.62 309.638 1542.3 312.651C1536.98 315.664 1532.46 320.286 1529.26 325.993L1487.83 321.256C1483.75 317.184 1478.64 314.666 1473.18 314.041C1467.71 313.417 1462.16 314.714 1457.27 317.761L1351.55 305.671C1345.77 302.377 1339.08 301.612 1332.71 303.517L1311.1 301.046C1307.01 295.143 1301.28 290.994 1294.8 289.239C1294.95 288.449 1295.08 287.658 1295.17 286.85C1295.81 281.146 1295.04 275.4 1292.95 270.26C1290.85 265.12 1287.52 260.791 1283.33 257.762C1279.13 254.732 1274.24 253.122 1269.2 253.114C1264.17 253.106 1259.19 254.7 1254.83 257.716C1250.46 260.732 1246.89 265.05 1244.52 270.182C1242.14 275.315 1241.05 281.058 1241.38 286.764C1241.7 292.47 1243.43 297.911 1246.35 302.474C1249.28 307.037 1253.3 310.539 1257.95 312.587Z" fill="white"/>
<path d="M798.642 338.266C797.011 343.419 798.123 348.83 801.768 353.471C805.413 358.112 811.337 361.661 818.414 363.442C825.491 365.223 833.228 365.114 840.156 363.134C847.084 361.155 852.721 357.443 855.995 352.703C857.899 356.333 861.318 359.478 865.798 361.72C870.277 363.962 875.607 365.195 881.078 365.257C881.668 365.263 882.258 365.27 882.838 365.233C885.048 370.488 889.351 375.194 895.232 378.79C901.113 382.385 908.324 384.718 916.003 385.509C923.682 386.299 931.504 385.515 938.534 383.249C945.563 380.983 951.504 377.331 955.645 372.73C959.385 374.127 963.531 374.887 967.749 374.95C971.967 375.013 976.139 374.377 979.93 373.092C983.721 371.808 987.025 369.912 989.577 367.555C992.128 365.199 993.855 362.449 994.62 359.526C999.153 362.422 1004.93 364.156 1011.01 364.446C1017.09 364.736 1023.12 363.564 1028.1 361.122C1031.17 363.811 1035.21 365.868 1039.78 367.076C1044.36 368.284 1049.3 368.597 1054.09 367.982C1058.88 367.368 1063.33 365.848 1066.98 363.585C1070.62 361.321 1073.32 358.399 1074.79 355.128C1078.64 358.145 1083.58 360.367 1089.07 361.554C1094.56 362.742 1100.4 362.849 1105.95 361.865C1108.89 366.037 1113.61 369.462 1119.44 371.658C1125.26 373.854 1131.91 374.71 1138.43 374.105C1144.11 378.093 1151.71 380.418 1159.69 380.608C1167.66 380.799 1175.42 378.84 1181.38 375.131C1186.93 376.344 1192.83 376.453 1198.44 375.447C1204.05 374.442 1209.14 372.36 1213.15 369.432C1215.78 373.02 1219.75 376.04 1224.63 378.167C1229.5 380.295 1235.09 381.448 1240.8 381.505L1241.01 381.507C1243.9 387.727 1249.74 393.068 1257.54 396.628C1265.34 400.188 1274.62 401.748 1283.81 401.043C1293 400.338 1301.54 397.413 1307.99 392.761C1314.43 388.11 1318.38 382.018 1319.18 375.516L1320.81 375.534C1326.21 375.599 1331.54 374.749 1336.36 373.055C1341.18 371.361 1345.34 368.874 1348.5 365.8C1351.65 362.727 1353.71 359.159 1354.5 355.395C1355.29 351.63 1354.79 347.78 1353.03 344.168C1351.28 340.555 1348.32 337.286 1344.42 334.634C1340.51 331.983 1335.77 330.026 1330.59 328.929C1325.4 327.832 1319.93 327.626 1314.64 328.33L1189.5 220.5L-38 220.5L-38 563L251.5 654L437.5 323.359L779.411 323.359C780.343 326.851 782.638 330.096 786.036 332.73C789.434 335.364 793.8 337.282 798.642 338.266Z" fill="white"/>
<path d="M499.954 184.738C511.801 189.337 522.708 196.791 530.604 205.683C538.499 214.575 542.833 224.287 542.782 232.974C542.731 241.66 538.299 248.716 530.327 252.802C522.355 256.887 511.399 257.718 499.54 255.135C506.229 261.211 511.063 268.118 513.401 274.938C515.74 281.759 515.471 288.172 512.632 293.327C512.326 293.882 512.02 294.438 511.627 294.933C521.606 303.221 529.283 312.801 533.74 322.53C538.197 332.258 539.245 341.723 536.76 349.793C534.274 357.863 528.36 364.196 519.724 368.036C511.088 371.876 500.095 373.061 488.06 371.448C489.001 376.579 488.369 381.332 486.213 385.324C484.058 389.316 480.44 392.436 475.65 394.433C470.86 396.43 465.032 397.248 458.635 396.822C452.238 396.396 445.45 394.737 438.817 391.979C442.517 399.625 443.07 407.05 440.386 413.041C437.703 419.032 431.94 423.237 424.04 424.97C428.094 431.01 430.28 437.2 430.366 442.883C430.452 448.567 428.434 453.531 424.528 457.248C420.621 460.966 414.972 463.298 408.179 463.997C401.387 464.696 393.705 463.735 385.95 461.218C390.277 468.373 392.324 475.597 391.869 482.107C391.414 488.616 388.476 494.164 383.37 498.149C390.648 505.834 395.374 514.28 396.883 522.297C398.392 530.315 396.607 537.499 391.782 542.839C397.182 552.845 398.003 562.662 394.078 570.298C390.153 577.934 381.777 582.816 370.649 583.953C370.218 590.544 367.247 596.155 362.065 600.168C356.883 604.181 349.692 606.438 341.286 606.691C347.488 613.397 351.759 620.666 353.64 627.716C355.521 634.765 354.94 641.327 351.961 646.697L351.85 646.898C363.514 656.961 371.709 668.721 375.05 680.188C378.39 691.654 376.671 702.124 370.182 709.826C363.694 717.528 352.835 721.989 339.441 722.455C326.048 722.921 310.943 719.363 296.682 712.382C296.402 712.89 296.117 713.407 295.832 713.924C293.04 719.016 288.338 722.959 282.12 725.424C275.903 727.888 268.351 728.802 260.1 728.088C251.849 727.373 243.14 725.052 234.704 721.319C226.267 717.586 218.35 712.55 211.617 706.634C204.885 700.718 199.533 694.095 196.012 687.321C192.491 680.547 190.903 673.82 191.382 667.705C191.861 661.59 194.392 656.266 198.764 652.179C203.136 648.093 209.22 645.363 216.505 644.221L297.311 497.669C297.31 490.397 300.29 484.186 305.869 479.832C299.382 472.993 294.901 465.531 292.935 458.288C290.968 451.045 291.593 444.31 294.739 438.846C297.885 433.381 303.426 429.404 310.737 427.365C318.048 425.325 326.836 425.304 336.109 427.304L357.76 388.037C355.381 381.18 355.636 374.73 358.492 369.551C361.347 364.372 366.666 360.714 373.734 359.066L428.992 258.849C428.716 251.192 432.213 244.85 438.835 240.997L450.131 220.511C445.471 212.125 444.093 203.8 446.209 196.818C445.127 196.283 444.05 195.739 442.978 195.149C435.417 190.963 428.741 185.541 423.704 179.493C418.668 173.445 415.47 167.013 414.473 160.922C413.476 154.83 414.719 149.323 418.061 145.02C421.403 140.717 426.712 137.791 433.389 136.571C440.065 135.351 447.844 135.886 455.846 138.116C463.849 140.346 471.757 144.181 478.679 149.19C485.601 154.199 491.261 160.181 495.02 166.462C498.779 172.744 500.488 179.074 499.954 184.738Z" fill="white"/>
<path d="M499.954 184.738C511.801 189.337 522.708 196.791 530.604 205.683C538.499 214.575 542.833 224.287 542.782 232.974C542.731 241.66 538.299 248.716 530.327 252.802C522.355 256.887 511.399 257.718 499.54 255.135C506.229 261.211 511.063 268.118 513.401 274.938C515.74 281.759 515.471 288.172 512.632 293.327C512.326 293.882 512.02 294.438 511.627 294.933C521.606 303.221 529.283 312.801 533.74 322.53C538.197 332.258 539.245 341.723 536.76 349.793C534.274 357.863 528.36 364.196 519.724 368.036C511.088 371.876 500.095 373.061 488.06 371.448C489.001 376.579 488.369 381.332 486.213 385.324C484.058 389.316 480.44 392.436 475.65 394.433C470.86 396.43 465.032 397.248 458.635 396.822C452.238 396.396 445.45 394.737 438.817 391.979C442.517 399.625 443.07 407.05 440.386 413.041C437.703 419.032 431.94 423.237 424.04 424.97C428.094 431.01 430.28 437.2 430.366 442.883C430.452 448.567 428.434 453.531 424.528 457.248C420.621 460.966 414.972 463.298 408.179 463.997C401.387 464.696 393.705 463.735 385.95 461.218C390.277 468.373 392.324 475.597 391.869 482.107C391.414 488.616 388.476 494.164 383.37 498.149C390.648 505.834 395.374 514.28 396.883 522.297C398.392 530.315 396.607 537.499 391.782 542.839C397.182 552.845 398.003 562.662 394.078 570.298C390.153 577.934 381.777 582.816 370.649 583.953C370.218 590.544 367.247 596.155 362.065 600.168C356.883 604.181 349.692 606.438 341.286 606.691C347.488 613.397 351.759 620.666 353.64 627.716C355.521 634.765 354.94 641.327 351.961 646.697L351.85 646.898C363.514 656.961 371.709 668.721 375.05 680.188C378.39 691.654 376.671 702.124 370.182 709.826C363.694 717.528 352.835 721.989 339.441 722.455C326.048 722.921 310.943 719.363 296.682 712.382C296.402 712.89 296.117 713.407 295.832 713.924C293.04 719.016 288.338 722.959 282.12 725.424C275.903 727.888 268.351 728.802 260.1 728.088C251.849 727.373 243.14 725.052 234.704 721.319C226.267 717.586 218.35 712.55 211.617 706.634C204.885 700.718 199.533 694.095 196.012 687.321C192.491 680.547 190.903 673.82 191.382 667.705C191.861 661.59 194.392 656.266 198.764 652.179C203.136 648.093 209.22 645.363 216.505 644.221L297.311 497.669C297.31 490.397 300.29 484.186 305.869 479.832C299.382 472.993 294.901 465.531 292.935 458.288C290.968 451.045 291.593 444.31 294.739 438.846C297.885 433.381 303.426 429.404 310.737 427.365C318.048 425.325 326.836 425.304 336.109 427.304L357.76 388.037C355.381 381.18 355.636 374.73 358.492 369.551C361.347 364.372 366.666 360.714 373.734 359.066L428.992 258.849C428.716 251.192 432.213 244.85 438.835 240.997L450.131 220.511C445.471 212.125 444.093 203.8 446.209 196.818C445.127 196.283 444.05 195.739 442.978 195.149C435.417 190.963 428.741 185.541 423.704 179.493C418.668 173.445 415.47 167.013 414.473 160.922C413.476 154.83 414.719 149.323 418.061 145.02C421.403 140.717 426.712 137.791 433.389 136.571C440.065 135.351 447.844 135.886 455.846 138.116C463.849 140.346 471.757 144.181 478.679 149.19C485.601 154.199 491.261 160.181 495.02 166.462C498.779 172.744 500.488 179.074 499.954 184.738Z" fill="white"/>
<path d="M1807.78 279.776C1795.32 282.256 1783.28 287.71 1773.97 295.103C1764.66 302.495 1758.71 311.311 1757.25 319.875C1755.8 328.44 1758.95 336.156 1766.09 341.559C1773.24 346.962 1783.88 349.675 1796.01 349.183C1788.37 354.01 1782.42 359.976 1778.93 366.29C1775.45 372.603 1774.61 378.966 1776.51 384.534C1776.72 385.134 1776.92 385.734 1777.22 386.29C1765.96 392.726 1756.74 400.834 1750.67 409.645C1744.6 418.456 1741.93 427.597 1742.98 435.975C1744.03 444.353 1748.76 451.614 1756.6 456.89C1764.44 462.167 1775.07 465.235 1787.2 465.728C1785.38 470.619 1785.18 475.409 1786.62 479.714C1788.05 484.019 1791.07 487.718 1795.45 490.513C1799.82 493.308 1805.42 495.123 1811.79 495.809C1818.16 496.496 1825.14 496.037 1832.15 494.468C1827.18 501.359 1825.35 508.575 1826.96 514.94C1828.57 521.306 1833.51 526.444 1841 529.517C1835.96 534.765 1832.73 540.484 1831.67 546.067C1830.6 551.649 1831.73 556.888 1834.93 561.225C1838.14 565.562 1843.3 568.836 1849.87 570.699C1856.43 572.563 1864.17 572.946 1872.24 571.807C1866.74 578.107 1863.48 584.868 1862.8 591.358C1862.12 597.848 1864.05 603.82 1868.39 608.628C1859.9 614.938 1853.78 622.44 1850.91 630.075C1848.03 637.711 1848.55 645.096 1852.38 651.19C1845.33 660.111 1842.82 669.638 1845.37 677.837C1847.91 686.037 1855.32 692.294 1866.08 695.339C1865.36 701.905 1867.32 707.946 1871.73 712.795C1876.14 717.643 1882.83 721.111 1891.07 722.814C1883.8 728.346 1878.33 734.767 1875.26 741.385C1872.19 748.002 1871.63 754.566 1873.63 760.37L1873.71 760.587C1860.48 768.481 1850.37 778.646 1845.1 789.362C1839.83 800.078 1839.71 810.687 1844.77 819.396C1849.82 828.104 1859.75 834.376 1872.86 837.152C1885.97 839.927 1901.46 839.036 1916.72 834.628C1916.9 835.176 1917.1 835.735 1917.29 836.293C1919.16 841.791 1923.11 846.489 1928.8 849.991C1934.5 853.494 1941.78 855.7 1950.03 856.424C1958.28 857.148 1967.26 856.368 1976.21 854.151C1985.17 851.933 1993.84 848.342 2001.49 843.68C2009.15 839.018 2015.56 833.42 2020.2 827.358C2024.84 821.295 2027.57 814.944 2028.16 808.839C2028.74 802.733 2027.17 797.051 2023.57 792.27C2019.97 787.489 2014.45 783.748 2007.48 781.362L1953.24 623.042C1954.5 615.88 1952.64 609.247 1947.89 603.994C1955.47 598.38 1961.17 591.805 1964.36 585.012C1967.55 578.218 1968.1 571.477 1965.95 565.551C1963.79 559.624 1959.02 554.749 1952.18 551.475C1945.33 548.202 1936.68 546.661 1927.2 547.027L1912.66 504.607C1916.19 498.265 1917.06 491.867 1915.14 486.272C1913.23 480.678 1908.62 476.154 1901.94 473.309L1864.85 365.044C1866.45 357.55 1864.1 350.699 1858.25 345.758L1850.66 323.627C1856.7 316.174 1859.5 308.212 1858.63 300.97C1859.78 300.631 1860.94 300.281 1862.1 299.885C1870.27 297.07 1877.78 292.884 1883.79 287.799C1889.8 282.714 1894.06 276.931 1896.09 271.104C1898.13 265.277 1897.86 259.638 1895.31 254.822C1892.76 250.006 1888.04 246.205 1881.67 243.849C1875.31 241.493 1867.56 240.674 1859.29 241.486C1851.02 242.298 1842.57 244.707 1834.88 248.443C1827.2 252.179 1820.59 257.092 1815.8 262.629C1811.01 268.165 1808.23 274.104 1807.78 279.776Z" fill="white"/>
<path d="M1807.78 279.776C1795.32 282.256 1783.28 287.71 1773.97 295.103C1764.66 302.495 1758.71 311.311 1757.25 319.875C1755.8 328.44 1758.95 336.156 1766.09 341.559C1773.24 346.962 1783.88 349.675 1796.01 349.183C1788.37 354.01 1782.42 359.976 1778.93 366.29C1775.45 372.603 1774.61 378.966 1776.51 384.534C1776.72 385.134 1776.92 385.734 1777.22 386.29C1765.96 392.726 1756.74 400.834 1750.67 409.645C1744.6 418.456 1741.93 427.597 1742.98 435.975C1744.03 444.353 1748.76 451.614 1756.6 456.89C1764.44 462.167 1775.07 465.235 1787.2 465.728C1785.38 470.619 1785.18 475.409 1786.62 479.714C1788.05 484.019 1791.07 487.718 1795.45 490.513C1799.82 493.308 1805.42 495.123 1811.79 495.809C1818.16 496.496 1825.14 496.037 1832.15 494.468C1827.18 501.359 1825.35 508.575 1826.96 514.94C1828.57 521.306 1833.51 526.444 1841 529.517C1835.96 534.765 1832.73 540.484 1831.67 546.067C1830.6 551.649 1831.73 556.888 1834.93 561.225C1838.14 565.562 1843.3 568.836 1849.87 570.699C1856.43 572.563 1864.17 572.946 1872.24 571.807C1866.74 578.107 1863.48 584.868 1862.8 591.358C1862.12 597.848 1864.05 603.82 1868.39 608.628C1859.9 614.938 1853.78 622.44 1850.91 630.075C1848.03 637.711 1848.55 645.096 1852.38 651.19C1845.33 660.111 1842.82 669.638 1845.37 677.837C1847.91 686.037 1855.32 692.294 1866.08 695.339C1865.36 701.905 1867.32 707.946 1871.73 712.795C1876.14 717.643 1882.83 721.111 1891.07 722.814C1883.8 728.346 1878.33 734.767 1875.26 741.385C1872.19 748.002 1871.63 754.566 1873.63 760.37L1873.71 760.587C1860.48 768.481 1850.37 778.646 1845.1 789.362C1839.83 800.078 1839.71 810.687 1844.77 819.396C1849.82 828.104 1859.75 834.376 1872.86 837.152C1885.97 839.927 1901.46 839.036 1916.72 834.628C1916.9 835.176 1917.1 835.735 1917.29 836.293C1919.16 841.791 1923.11 846.489 1928.8 849.991C1934.5 853.494 1941.78 855.7 1950.03 856.424C1958.28 857.148 1967.26 856.368 1976.21 854.151C1985.17 851.933 1993.84 848.342 2001.49 843.68C2009.15 839.018 2015.56 833.42 2020.2 827.358C2024.84 821.295 2027.57 814.944 2028.16 808.839C2028.74 802.733 2027.17 797.051 2023.57 792.27C2019.97 787.489 2014.45 783.748 2007.48 781.362L1953.24 623.042C1954.5 615.88 1952.64 609.247 1947.89 603.994C1955.47 598.38 1961.17 591.805 1964.36 585.012C1967.55 578.218 1968.1 571.477 1965.95 565.551C1963.79 559.624 1959.02 554.749 1952.18 551.475C1945.33 548.202 1936.68 546.661 1927.2 547.027L1912.66 504.607C1916.19 498.265 1917.06 491.867 1915.14 486.272C1913.23 480.678 1908.62 476.154 1901.94 473.309L1864.85 365.044C1866.45 357.55 1864.1 350.699 1858.25 345.758L1850.66 323.627C1856.7 316.174 1859.5 308.212 1858.63 300.97C1859.78 300.631 1860.94 300.281 1862.1 299.885C1870.27 297.07 1877.78 292.884 1883.79 287.799C1889.8 282.714 1894.06 276.931 1896.09 271.104C1898.13 265.277 1897.86 259.638 1895.31 254.822C1892.76 250.006 1888.04 246.205 1881.67 243.849C1875.31 241.493 1867.56 240.674 1859.29 241.486C1851.02 242.298 1842.57 244.707 1834.88 248.443C1827.2 252.179 1820.59 257.092 1815.8 262.629C1811.01 268.165 1808.23 274.104 1807.78 279.776Z" fill="white"/>
<path d="M1796.12 432.237C1787.05 423.336 1779.97 412.183 1776.23 400.897C1772.48 389.61 1772.33 378.976 1775.81 371.015C1779.28 363.054 1786.14 358.32 1795.08 357.712C1804.01 357.104 1814.41 360.664 1824.29 367.717C1820.54 359.495 1818.82 351.241 1819.36 344.051C1819.91 336.861 1822.68 331.075 1827.33 327.459C1827.83 327.069 1828.33 326.68 1828.89 326.38C1822.99 314.827 1819.71 302.994 1819.46 292.296C1819.2 281.599 1821.97 272.488 1827.44 266.054C1832.91 259.62 1840.84 256.135 1850.29 256.014C1859.75 255.894 1870.31 259.144 1880.73 265.376C1881.9 260.29 1884.35 256.172 1887.91 253.355C1891.46 250.537 1896.02 249.099 1901.21 249.154C1906.4 249.209 1912.08 250.757 1917.79 253.673C1923.5 256.59 1929.08 260.793 1934.08 265.944C1933.7 257.459 1936.12 250.419 1940.95 245.973C1945.78 241.527 1952.74 239.937 1960.68 241.463C1959.34 234.314 1959.77 227.763 1961.94 222.507C1964.1 217.251 1967.91 213.486 1972.97 211.612C1978.03 209.738 1984.14 209.824 1990.66 211.863C1997.17 213.901 2003.85 217.815 2009.98 223.189C2008.83 214.906 2009.8 207.461 2012.79 201.659C2015.78 195.858 2020.67 191.92 2026.93 190.273C2023.28 180.34 2022.27 170.715 2024.04 162.753C2025.82 154.79 2030.3 148.893 2036.84 145.891C2035.82 134.566 2038.94 125.222 2045.56 119.755C2052.18 114.288 2061.81 113.107 2072.48 116.454C2075.48 110.568 2080.42 106.585 2086.77 104.942C2093.11 103.3 2100.61 104.064 2108.43 107.149L2114.43 116.454L2114.59 541L2045.56 784L1961.94 774.5L1855.69 501.05C1850.93 503.684 1844.89 504.278 1838.28 502.764C1831.66 501.25 1824.72 497.689 1818.25 492.482C1811.78 487.275 1806.03 480.63 1801.64 473.296C1797.26 465.962 1794.42 458.232 1793.44 450.977C1792.47 443.722 1793.4 437.231 1796.12 432.237Z" fill="white"/>
<path d="M-37 0H1270.09C1270.09 0 1259.31 26.3479 1262.16 78.9999C1266.29 155.457 1296 275 1296 275H-37V0Z" fill="white"/>
<path d="M2061.6 807.543C2073.49 812.008 2086.59 813.717 2098.41 812.347C2110.22 810.977 2119.92 806.623 2125.67 800.112C2131.42 793.6 2132.82 785.385 2129.59 777.027C2126.37 768.669 2118.76 760.75 2108.19 754.774L2108.19 458.825C2100.97 460.004 2094.57 462.322 2089.49 465.625C2083.2 469.715 2079.18 475.154 2077.88 481.325C2076.59 487.496 2078.07 494.154 2082.16 500.546C2086.25 506.938 2092.79 512.809 2101.04 517.496L2091.02 561.203C2084.68 564.731 2080.57 569.711 2079.25 575.475C2077.93 581.239 2079.46 587.512 2083.63 593.45L2058.06 704.998C2052.75 710.524 2051.13 717.583 2053.51 724.869L2048.28 747.671C2039.22 750.82 2032.64 756.11 2029.57 762.726C2028.4 762.403 2027.24 762.091 2026.05 761.818C2017.62 759.9 2009.03 759.496 2001.24 760.65C1993.46 761.803 1986.79 764.469 1981.98 768.347C1977.18 772.225 1974.44 777.16 1974.06 782.595C1973.69 788.03 1975.7 793.75 1979.86 799.108C1984.03 804.466 1990.19 809.25 1997.64 812.92C2005.09 816.589 2013.55 818.999 2022.05 819.876C2030.54 820.753 2038.75 820.063 2045.74 817.884C2052.73 815.705 2058.22 812.123 2061.6 807.543Z" fill="white"/>
<path d="M277.656 648.252C275.138 660.709 269.648 672.724 262.227 682.016C254.807 691.309 245.973 697.23 237.404 698.657C228.836 700.083 221.129 696.915 215.747 689.754C210.366 682.593 207.685 671.937 208.214 659.812C203.363 667.437 197.379 673.374 191.055 676.838C184.731 680.302 178.366 681.128 172.804 679.206C172.204 678.999 171.605 678.792 171.05 678.489C164.58 689.732 156.444 698.926 147.615 704.972C138.786 711.018 129.637 713.66 121.262 712.582C112.887 711.505 105.64 706.754 100.388 698.896C95.1352 691.039 92.0993 680.407 91.6428 668.273C86.7464 670.073 81.9553 670.258 77.6549 668.812C73.3545 667.367 69.6648 664.332 66.8825 659.951C64.1002 655.571 62.3031 649.967 61.6355 643.59C60.9679 637.214 61.4485 630.243 63.0388 623.237C56.1326 628.183 48.9106 629.99 42.5503 628.364C36.19 626.738 31.0668 621.775 28.016 614.284L31.9548 535.36L53.1429 542.69C59.4955 539.18 65.8957 538.335 71.4844 540.268C77.0731 542.202 81.5828 546.821 84.4082 553.506L192.56 590.922C200.059 589.348 206.903 591.716 211.826 597.587L233.934 605.236C241.406 599.218 249.376 596.445 256.616 597.343C256.958 596.186 257.311 595.032 257.711 593.876C260.55 585.713 264.759 578.212 269.862 572.221C274.966 566.229 280.761 561.985 286.594 559.966C292.427 557.948 298.066 558.236 302.874 560.799C307.682 563.361 311.469 568.095 313.806 574.467C316.143 580.839 316.938 588.595 316.101 596.86C315.264 605.125 312.829 613.571 309.07 621.243C305.311 628.916 300.378 635.51 294.827 640.283C289.277 645.055 283.329 647.815 277.656 648.252Z" fill="white"/>
</svg>
