<svg width="2048" height="1328" viewBox="0 0 2048 1328" fill="none" xmlns="http://www.w3.org/2000/svg">
<g clip-path="url(#clip0)">
<path d="M1386.87 939.579C1391.68 940.129 1396.06 942.533 1399.17 946.332C1402.28 950.132 1403.91 955.063 1403.75 960.19C1403.59 965.316 1401.64 970.281 1398.29 974.14C1394.93 978 1390.4 980.485 1385.55 981.125C1388.21 983.486 1390.09 986.673 1390.95 990.265C1391.8 993.857 1391.58 997.684 1390.33 1001.24C1390.19 1001.62 1390.06 1002 1389.89 1002.37C1393.87 1005.43 1396.88 1009.68 1398.56 1014.59C1400.24 1019.51 1400.52 1024.9 1399.36 1030.11C1398.2 1035.31 1395.66 1040.12 1392.04 1043.96C1388.41 1047.79 1383.86 1050.49 1378.92 1051.74C1379.23 1054.59 1378.89 1057.5 1377.93 1060.25C1376.98 1062.99 1375.44 1065.49 1373.43 1067.54C1371.42 1069.59 1369 1071.13 1366.37 1072.05C1363.74 1072.96 1360.97 1073.22 1358.28 1072.81C1359.68 1076.64 1359.78 1080.91 1358.58 1084.93C1357.38 1088.95 1354.93 1092.47 1351.64 1094.93C1353.22 1097.75 1354.02 1101 1353.96 1104.33C1353.9 1107.67 1352.99 1110.96 1351.32 1113.86C1349.65 1116.76 1347.28 1119.16 1344.47 1120.81C1341.65 1122.46 1338.5 1123.3 1335.34 1123.23C1337.01 1126.66 1337.74 1130.54 1337.44 1134.46C1337.15 1138.37 1335.85 1142.18 1333.68 1145.45C1336.55 1148.66 1338.36 1152.77 1338.86 1157.22C1339.35 1161.67 1338.49 1166.22 1336.42 1170.25C1338.48 1175.16 1338.66 1180.79 1336.92 1186.01C1335.17 1191.22 1331.64 1195.62 1327.03 1198.32C1326.75 1202.28 1325.43 1206.13 1323.23 1209.44C1321.02 1212.74 1318.02 1215.38 1314.55 1217.07C1317 1219.89 1318.64 1223.39 1319.3 1227.2C1319.96 1231.01 1319.62 1234.98 1318.3 1238.69L1318.25 1238.83C1322.9 1242.63 1326.09 1248.06 1327.28 1254.21C1328.47 1260.36 1327.59 1266.84 1324.79 1272.56C1321.98 1278.28 1317.43 1282.88 1311.9 1285.6C1306.37 1288.31 1300.2 1288.97 1294.43 1287.46L1294.05 1288.52C1292.82 1292.03 1290.82 1295.21 1288.21 1297.79C1285.61 1300.38 1282.48 1302.29 1279.09 1303.37C1275.7 1304.46 1272.14 1304.68 1268.72 1304.02C1265.3 1303.35 1262.12 1301.83 1259.44 1299.57C1256.76 1297.31 1254.66 1294.39 1253.32 1291.04L-18.5 1291.04L-18.5 834.5L15.0002 797L1366.37 819L1369.44 920.152C1372.7 920.007 1375.9 920.825 1378.68 922.515C1381.45 924.204 1383.69 926.697 1385.13 929.712C1386.58 932.727 1387.18 936.145 1386.87 939.579Z" fill="white"/>
<path d="M2060.86 774.523C2063.79 767.233 2060.98 759.911 2052.96 753.948C2044.94 747.985 2032.27 743.797 2017.36 742.179C2002.45 740.561 1986.33 741.626 1972.07 745.172C1957.81 748.717 1946.4 754.496 1940 761.411C1935.7 756.636 1928.29 752.708 1918.75 750.149C1909.21 747.59 1897.99 746.521 1886.58 747.082C1885.35 747.143 1884.12 747.204 1882.91 747.323C1877.83 740.346 1868.43 734.371 1855.85 730.113C1843.26 725.855 1828.02 723.494 1811.94 723.312C1795.86 723.13 1779.63 725.135 1765.18 729.087C1750.74 733.039 1738.69 738.771 1730.48 745.597C1722.55 744.115 1713.84 743.558 1705.04 743.969C1696.25 744.381 1687.61 745.75 1679.82 747.967C1672.04 750.184 1665.33 753.187 1660.22 756.734C1655.12 760.281 1651.77 764.273 1650.44 768.39C1640.73 764.937 1628.53 763.23 1615.83 763.549C1603.13 763.869 1590.68 766.194 1580.51 770.147C1573.87 766.806 1565.26 764.449 1555.62 763.326C1545.97 762.202 1535.63 762.355 1525.71 763.768C1515.79 765.18 1506.64 767.799 1499.25 771.347C1491.86 774.895 1486.5 779.24 1483.74 783.919C1475.44 780.218 1464.94 777.741 1453.39 776.754C1441.83 775.767 1429.66 776.309 1418.19 778.32C1411.67 772.921 1401.52 768.76 1389.18 766.424C1376.83 764.087 1362.91 763.693 1349.37 765.296C1337.17 760.475 1321.12 758.17 1304.47 758.85C1287.82 759.53 1271.83 763.144 1259.74 768.958C1248.07 767.943 1235.75 768.49 1224.16 770.537C1212.57 772.585 1202.15 776.054 1194.05 780.561C1188.23 775.93 1179.68 772.239 1169.33 769.884C1158.98 767.529 1147.22 766.601 1135.32 767.198L1134.87 767.22C1128.28 758.993 1115.63 752.325 1099.05 748.343C1082.47 744.361 1062.99 743.309 1043.89 745.366C1024.79 747.422 1007.26 752.461 994.249 759.63C981.241 766.798 973.558 775.657 972.501 784.707C971.378 784.762 970.232 784.819 969.087 784.875C957.828 785.424 946.792 787.224 936.905 790.126C927.019 793.028 918.57 796.947 912.27 801.553C905.97 806.159 902.002 811.318 900.699 816.596C899.396 821.875 900.797 827.118 904.783 831.887C908.769 836.656 915.225 840.81 923.608 844.002C931.991 847.193 942.056 849.327 952.957 850.226C963.859 851.125 975.28 850.762 986.259 849.168C997.239 847.573 1007.46 844.793 1016.06 841.062L1340.54 825.041C1352.99 826.42 1366.33 825.982 1378.87 823.783C1384.66 828.594 1393.35 832.435 1403.95 834.873C1414.55 837.311 1426.65 838.248 1438.87 837.579C1451.09 836.909 1462.95 834.66 1473.11 831.085C1483.26 827.51 1491.31 822.752 1496.34 817.349L1583.28 813.056C1592.85 815.644 1604.12 816.728 1615.59 816.162C1627.06 815.596 1638.17 813.407 1647.43 809.889L1869.33 798.934C1882.18 800.534 1896.22 799.84 1908.85 796.982L1954.21 794.742C1964.32 798.856 1977.31 801.18 1991.19 801.356C1991.11 802.043 1991.06 802.73 1991.1 803.423C1991.37 808.313 1994.56 812.957 2000.32 816.832C2006.08 820.707 2014.17 823.658 2023.69 825.352C2033.2 827.046 2043.76 827.416 2054.17 826.42C2064.58 825.424 2074.43 823.102 2082.61 819.716C2090.78 816.329 2096.96 812.013 2100.44 807.255C2103.92 802.496 2104.56 797.484 2102.3 792.785C2100.04 788.085 2094.96 783.885 2087.64 780.659C2080.32 777.432 2071.04 775.307 2060.86 774.523Z" fill="white"/>
<path d="M1073.75 796.874C1075.6 789.637 1073.59 782.275 1068.1 776.188C1062.6 770.101 1054.01 765.711 1043.95 763.854C1033.88 761.997 1023.05 762.801 1013.51 766.113C1003.97 769.425 996.388 775.016 992.198 781.822C989.227 776.981 984.175 772.937 977.712 770.226C971.249 767.515 963.681 766.265 956.011 766.642C955.184 766.683 954.357 766.723 953.547 766.823C950.013 759.769 943.592 753.648 935.053 749.19C926.514 744.732 916.217 742.127 905.394 741.685C894.571 741.244 883.68 742.985 874.021 746.701C864.363 750.416 856.346 755.949 850.929 762.638C845.573 761.029 839.701 760.331 833.787 760.6C827.873 760.87 822.082 762.098 816.878 764.188C811.675 766.277 807.205 769.169 803.827 772.631C800.45 776.093 798.26 780.028 797.433 784.12C790.84 780.513 782.601 778.611 774.059 778.725C765.517 778.838 757.175 780.961 750.395 784.746C745.872 781.301 740.045 778.807 733.534 777.529C727.022 776.251 720.069 776.236 713.413 777.487C706.757 778.738 700.647 781.208 695.731 784.634C690.815 788.06 687.278 792.314 685.495 796.945C679.848 793.114 672.744 790.469 664.951 789.296C657.158 788.123 648.974 788.468 641.284 790.292C636.811 784.793 629.915 780.471 621.569 777.937C613.223 775.404 603.846 774.785 594.761 776.168C586.471 771.153 575.63 768.592 564.438 769.002C553.246 769.413 542.542 772.766 534.498 778.38C526.625 777.177 518.348 777.525 510.579 779.384C502.811 781.242 495.854 784.54 490.478 788.913C486.484 784.192 480.673 780.365 473.67 777.846C466.666 775.326 458.736 774.208 450.733 774.612L450.434 774.627C445.867 766.301 437.243 759.434 426.022 755.187C414.8 750.94 401.669 749.575 388.849 751.321C376.03 753.068 364.31 757.82 355.671 764.773C347.032 771.726 342.005 780.453 341.439 789.479C340.684 789.516 339.914 789.554 339.144 789.592C331.576 789.958 324.177 791.579 317.571 794.319C310.964 797.059 305.341 800.838 301.175 805.339C297.01 809.839 294.422 814.93 293.631 820.183C292.839 825.436 293.867 830.699 296.626 835.528C299.386 840.357 303.798 844.613 309.491 847.937C315.184 851.261 321.993 853.556 329.344 854.63C336.696 855.705 344.376 855.526 351.739 854.11C359.103 852.694 365.935 850.082 371.661 846.492L589.785 835.723C598.181 837.301 607.158 837.079 615.56 835.085C619.534 839.985 625.442 843.963 632.617 846.571C639.792 849.178 647.947 850.309 656.161 849.838C664.375 849.366 672.32 847.31 679.097 843.902C685.875 840.494 691.215 835.87 694.513 830.552L752.957 827.667C759.437 830.407 767.041 831.672 774.749 831.291C782.457 830.911 789.899 828.903 796.077 825.538L945.237 818.173C953.913 819.98 963.352 819.514 971.808 816.861L1002.3 815.356C1009.16 819.629 1017.95 822.161 1027.29 822.561C1027.25 823.247 1027.23 823.932 1027.26 824.625C1027.52 829.515 1029.75 834.207 1033.68 838.172C1037.62 842.137 1043.12 845.216 1049.55 847.063C1055.98 848.909 1063.09 849.449 1070.08 848.622C1077.07 847.795 1083.66 845.634 1089.11 842.382C1094.56 839.13 1098.64 834.917 1100.91 830.219C1103.18 825.52 1103.53 820.523 1101.93 815.791C1100.33 811.059 1096.85 806.78 1091.87 803.437C1086.89 800.095 1080.61 797.822 1073.75 796.874Z" fill="white"/>
<path d="M718.747 783.852C720.602 776.614 718.591 769.253 713.097 763.166C707.604 757.078 699.009 752.689 688.947 750.832C678.884 748.974 668.055 749.778 658.515 753.091C648.974 756.403 641.388 761.993 637.198 768.799C634.227 763.958 629.175 759.914 622.712 757.203C616.249 754.492 608.681 753.242 601.011 753.619C600.184 753.66 599.357 753.701 598.547 753.8C595.013 746.747 588.592 740.625 580.053 736.167C571.514 731.71 561.217 729.104 550.394 728.663C539.571 728.222 528.68 729.963 519.021 733.678C509.363 737.394 501.346 742.926 495.929 749.615C490.573 748.006 484.701 747.309 478.787 747.578C472.873 747.847 467.082 749.076 461.878 751.165C456.675 753.255 452.205 756.147 448.827 759.609C445.45 763.071 443.26 767.006 442.433 771.097C435.84 767.49 427.601 765.588 419.059 765.702C410.517 765.816 402.175 767.939 395.395 771.724C390.872 768.279 385.045 765.784 378.534 764.506C372.022 763.228 365.069 763.214 358.413 764.465C351.757 765.716 345.647 768.186 340.731 771.612C335.815 775.038 332.278 779.292 330.495 783.922C324.848 780.091 317.744 777.446 309.951 776.274C302.158 775.101 293.974 775.446 286.284 777.27C281.811 771.77 274.915 767.449 266.569 764.915C258.223 762.381 248.846 761.762 239.761 763.146C231.471 758.131 220.63 755.569 209.438 755.98C198.246 756.391 187.542 759.743 179.498 765.357C171.625 764.155 163.348 764.502 155.579 766.361C147.811 768.22 140.854 771.518 135.478 775.89C131.484 771.169 125.673 767.343 118.67 764.823C111.666 762.303 103.736 761.185 95.7333 761.59L95.434 761.605C90.8671 753.278 82.2434 746.411 71.0215 742.164C59.7997 737.918 46.6685 736.552 33.8493 738.299C21.0301 740.046 9.30975 744.797 0.670802 751.75C-7.96814 758.703 -12.9954 767.431 -13.5605 776.456C-14.316 776.493 -15.0858 776.531 -15.8555 776.569C-23.4241 776.935 -30.8225 778.557 -37.4295 781.297C-44.0364 784.037 -49.6588 787.816 -53.8245 792.316C-57.9902 796.817 -60.5775 801.908 -61.3691 807.161C-62.1607 812.414 -61.1334 817.676 -58.3736 822.506C-55.6138 827.335 -51.2021 831.59 -45.5089 834.914C-39.8158 838.238 -33.0075 840.534 -25.6559 841.608C-18.3044 842.682 -10.6243 842.504 -3.26074 841.088C4.10283 839.672 10.9348 837.059 16.6614 833.47L234.785 822.7C243.181 824.279 252.158 824.056 260.56 822.062C264.534 826.963 270.442 830.941 277.617 833.548C284.792 836.155 292.947 837.287 301.161 836.815C309.375 836.344 317.32 834.288 324.097 830.88C330.875 827.472 336.215 822.847 339.513 817.53L397.957 814.644C404.437 817.385 412.041 818.649 419.749 818.269C427.457 817.888 434.899 815.881 441.077 812.515L590.237 805.151C598.913 806.957 608.352 806.491 616.808 803.839L647.298 802.333C654.165 806.607 662.946 809.138 672.289 809.538C672.251 810.224 672.228 810.91 672.262 811.602C672.522 816.492 674.746 821.185 678.684 825.15C682.622 829.114 688.117 832.194 694.548 834.04C700.979 835.887 708.092 836.427 715.082 835.6C722.073 834.773 728.663 832.611 734.111 829.36C739.558 826.108 743.645 821.895 745.91 817.196C748.176 812.498 748.53 807.5 746.932 802.768C745.334 798.036 741.849 793.757 736.869 790.415C731.888 787.073 725.612 784.799 718.747 783.852Z" fill="white"/>
<path d="M1876.05 777.205C1879.6 785.03 1880.37 793.884 1878.21 802.084C1876.05 810.284 1871.11 817.26 1864.33 821.687C1857.55 826.113 1849.4 827.682 1841.43 826.095C1833.46 824.508 1826.22 819.876 1821.09 813.079C1820.4 819.279 1817.94 825.049 1814.04 829.623C1810.15 834.196 1805 837.358 1799.29 838.688C1798.67 838.831 1798.06 838.975 1797.43 839.047C1797 847.9 1794.17 856.352 1789.29 863.393C1784.41 870.435 1777.68 875.767 1769.92 878.754C1762.15 881.741 1753.67 882.256 1745.49 880.236C1737.31 878.217 1729.78 873.749 1723.8 867.367C1720.37 870.43 1716.3 872.573 1711.9 873.623C1707.5 874.673 1702.9 874.602 1698.47 873.413C1694.03 872.225 1689.89 869.954 1686.38 866.783C1682.86 863.611 1680.07 859.628 1678.22 855.153C1674.5 860.778 1669.07 864.837 1662.79 866.668C1656.52 868.498 1649.79 867.992 1643.69 865.233C1641.44 870.198 1637.94 874.379 1633.58 877.33C1629.21 880.282 1624.14 881.893 1618.9 881.995C1613.66 882.096 1608.45 880.683 1603.82 877.905C1599.19 875.127 1595.32 871.089 1592.61 866.219C1589.65 871.883 1585.27 876.528 1579.94 879.653C1574.6 882.779 1568.53 884.264 1562.36 883.949C1560.76 891.245 1557.04 897.754 1551.72 902.558C1546.39 907.362 1539.74 910.219 1532.69 910.727C1528.16 918.346 1521.02 923.754 1512.73 925.854C1504.43 927.954 1495.6 926.589 1488.02 922.034C1482.64 925.212 1476.49 926.715 1470.26 926.379C1464.02 926.042 1457.94 923.879 1452.69 920.128C1451.21 926.427 1448.13 932.122 1443.78 936.602C1439.43 941.082 1433.98 944.176 1428.02 945.551L1427.8 945.603C1426.99 956.143 1422.78 965.951 1415.88 973.368C1408.98 980.784 1399.81 985.354 1389.92 986.305C1380.03 987.255 1370.03 984.528 1361.61 978.583C1353.2 972.639 1346.87 963.844 1343.72 953.684C1343.16 953.815 1342.58 953.948 1342.01 954.082C1336.38 955.401 1330.48 955.251 1324.83 953.643C1319.17 952.035 1313.92 949.017 1309.51 944.843C1305.1 940.668 1301.67 935.458 1299.5 929.651C1297.32 923.844 1296.47 917.609 1297.02 911.47C1297.57 905.331 1299.5 899.468 1302.65 894.372C1305.79 889.276 1214.96 874.412 1220 871.5C1225.04 868.588 1222.69 814.231 1228.5 814.155C1234.31 814.08 1366.73 803.804 1372 806.582L1474.61 815.206C1480.27 811.481 1510.76 798.155 1517.5 798.5C1518.91 792.002 1530.55 803.119 1535 798.5C1539.45 793.881 1549.36 798.347 1555.5 797C1561.64 795.653 1570.52 791.67 1576.5 794C1582.48 796.33 1588.59 796.195 1592.61 801.5L1630.5 801.5C1634.4 796.889 1641.59 807.917 1647.33 806.582C1653.08 805.247 1659.12 805.828 1664.65 808.247L1775.77 782.414C1781.56 778.364 1788.59 776.729 1795.57 777.812L1818.28 772.531C1822 766.084 1827.64 761.183 1834.34 758.583C1834.1 757.809 1833.88 757.033 1833.69 756.236C1832.4 750.601 1832.59 744.742 1834.26 739.318C1835.94 733.895 1839.01 729.123 1843.15 725.542C1847.28 721.961 1852.31 719.713 1857.66 719.052C1863.02 718.391 1868.48 719.342 1873.45 721.799C1878.41 724.257 1882.67 728.122 1885.75 732.958C1888.84 737.795 1890.61 743.411 1890.88 749.172C1891.15 754.933 1889.91 760.611 1887.29 765.564C1884.67 770.517 1880.78 774.549 1876.05 777.205Z" fill="white"/>
<path d="M1876.05 777.205C1879.6 785.03 1880.37 793.884 1878.21 802.084C1876.05 810.284 1871.11 817.26 1864.33 821.687C1857.55 826.113 1849.4 827.682 1841.43 826.095C1833.46 824.508 1826.22 819.876 1821.09 813.079C1820.4 819.279 1817.94 825.049 1814.04 829.623C1810.15 834.196 1805 837.358 1799.29 838.688C1798.67 838.831 1798.06 838.975 1797.43 839.047C1797 847.9 1794.17 856.352 1789.29 863.393C1784.41 870.435 1777.68 875.767 1769.92 878.754C1762.15 881.741 1753.67 882.256 1745.49 880.236C1737.31 878.217 1729.78 873.749 1723.8 867.367C1720.37 870.43 1716.3 872.573 1711.9 873.623C1707.5 874.673 1702.9 874.602 1698.47 873.413C1694.03 872.225 1689.89 869.954 1686.38 866.783C1682.86 863.611 1680.07 859.628 1678.22 855.153C1674.5 860.778 1669.07 864.837 1662.79 866.668C1656.52 868.498 1649.79 867.992 1643.69 865.233C1641.44 870.198 1637.94 874.379 1633.58 877.33C1629.21 880.282 1624.14 881.893 1618.9 881.995C1613.66 882.096 1608.45 880.683 1603.82 877.905C1599.19 875.127 1595.32 871.089 1592.61 866.219C1589.65 871.883 1585.27 876.528 1579.94 879.653C1574.6 882.779 1568.53 884.264 1562.36 883.949C1560.76 891.245 1557.04 897.754 1551.72 902.558C1546.39 907.362 1539.74 910.219 1532.69 910.727C1528.16 918.346 1521.02 923.754 1512.73 925.854C1504.43 927.954 1495.6 926.589 1488.02 922.034C1482.64 925.212 1476.49 926.715 1470.26 926.379C1464.02 926.042 1457.94 923.879 1452.69 920.128C1451.21 926.427 1448.13 932.122 1443.78 936.602C1439.43 941.082 1433.98 944.176 1428.02 945.551L1427.8 945.603C1426.99 956.143 1422.78 965.951 1415.88 973.368C1408.98 980.784 1399.81 985.354 1389.92 986.305C1380.03 987.255 1370.03 984.528 1361.61 978.583C1353.2 972.639 1346.87 963.844 1343.72 953.684C1343.16 953.815 1342.58 953.948 1342.01 954.082C1336.38 955.401 1330.48 955.251 1324.83 953.643C1319.17 952.035 1313.92 949.017 1309.51 944.843C1305.1 940.668 1301.67 935.458 1299.5 929.651C1297.32 923.844 1296.47 917.609 1297.02 911.47C1297.57 905.331 1299.5 899.468 1302.65 894.372C1305.79 889.276 1214.96 874.412 1220 871.5C1225.04 868.588 1222.69 814.231 1228.5 814.155C1234.31 814.08 1366.73 803.804 1372 806.582L1474.61 815.206C1480.27 811.481 1510.76 798.155 1517.5 798.5C1518.91 792.002 1530.55 803.119 1535 798.5C1539.45 793.881 1549.36 798.347 1555.5 797C1561.64 795.653 1570.52 791.67 1576.5 794C1582.48 796.33 1588.59 796.195 1592.61 801.5L1630.5 801.5C1634.4 796.889 1641.59 807.917 1647.33 806.582C1653.08 805.247 1659.12 805.828 1664.65 808.247L1775.77 782.414C1781.56 778.364 1788.59 776.729 1795.57 777.812L1818.28 772.531C1822 766.084 1827.64 761.183 1834.34 758.583C1834.1 757.809 1833.88 757.033 1833.69 756.236C1832.4 750.601 1832.59 744.742 1834.26 739.318C1835.94 733.895 1839.01 729.123 1843.15 725.542C1847.28 721.961 1852.31 719.713 1857.66 719.052C1863.02 718.391 1868.48 719.342 1873.45 721.799C1878.41 724.257 1882.67 728.122 1885.75 732.958C1888.84 737.795 1890.61 743.411 1890.88 749.172C1891.15 754.933 1889.91 760.611 1887.29 765.564C1884.67 770.517 1880.78 774.549 1876.05 777.205Z" fill="white"/>
<path d="M1796.05 85.6618C1785.56 83.7997 1774.67 85.5569 1765.47 90.5999C1756.26 95.6429 1749.38 103.62 1746.12 113.017C1742.86 122.413 1743.46 132.574 1747.79 141.57C1752.13 150.566 1759.9 157.77 1769.64 161.813C1762.4 164.514 1756.21 169.178 1751.89 175.187C1747.58 181.196 1745.34 188.266 1745.48 195.459C1745.5 196.234 1745.51 197.01 1745.61 197.77C1735.1 200.961 1725.8 206.872 1718.81 214.796C1711.83 222.72 1707.47 232.323 1706.24 242.457C1705.01 252.59 1706.98 262.825 1711.9 271.939C1716.82 281.053 1724.48 288.659 1733.98 293.849C1731.34 298.841 1730 304.33 1730.08 309.876C1730.16 315.422 1731.65 320.87 1734.42 325.781C1737.2 330.692 1741.2 334.93 1746.08 338.154C1750.97 341.378 1756.61 343.498 1762.55 344.343C1756.92 350.458 1753.69 358.146 1753.4 366.152C1753.11 374.157 1755.77 382.01 1760.95 388.427C1755.66 392.606 1751.7 398.023 1749.48 404.102C1747.26 410.181 1746.86 416.696 1748.34 422.954C1749.81 429.212 1753.1 434.98 1757.85 439.645C1762.6 444.309 1768.64 447.697 1775.32 449.447C1769.41 454.672 1765.15 461.283 1763.02 468.565C1760.89 475.846 1760.95 483.521 1763.21 490.757C1754.92 494.854 1748.22 501.241 1744.07 509.018C1739.91 516.794 1738.5 525.569 1740.04 534.106C1732.26 541.787 1727.92 551.901 1727.92 562.395C1727.93 572.888 1732.26 582.976 1740.04 590.609C1737.86 597.965 1737.93 605.727 1740.23 613.038C1742.53 620.348 1746.99 626.923 1753.1 632.036C1745.97 635.697 1740.06 641.076 1736 647.595C1731.93 654.113 1729.87 661.524 1730.03 669.03L1730.04 669.311C1717.61 673.447 1707.09 681.409 1700.28 691.851C1693.46 702.293 1690.76 714.573 1692.62 726.614C1694.49 738.655 1700.82 749.719 1710.53 757.933C1720.24 766.147 1732.75 771.007 1745.93 771.692L1745.97 773.844C1746.1 780.942 1748.08 787.902 1751.73 794.139C1755.39 800.377 1760.62 805.71 1766.98 809.691C1773.34 813.671 1780.66 816.183 1788.3 817.015C1795.95 817.847 1803.7 816.974 1810.92 814.472C1818.14 811.969 1824.6 807.908 1829.77 802.631C1834.94 797.353 1838.67 791.014 1840.64 784.144L2097.5 794.139L2097.5 72.0481C2097.5 72.0481 2076.71 73.3558 2063.5 72.0482C2044.91 70.2081 2035.63 62.2614 2017 60.7832C1992.66 58.8518 1979.41 68.4515 1955 68.7948C1933.44 69.098 1921.46 61.9676 1900 64C1885.46 65.3768 1867.94 77.2079 1863.48 72.0481C1859.01 66.8883 1853.06 62.9866 1846.31 60.7832C1839.55 58.5798 1832.26 58.1622 1825.25 59.5779C1818.23 60.9935 1811.79 64.1859 1806.63 68.7948C1801.47 73.4037 1797.8 79.2458 1796.05 85.6618Z" fill="white"/>
</g>
<defs>
<clipPath id="clip0">
<rect width="2158" height="1328" fill="white" transform="translate(-14)"/>
</clipPath>
</defs>
</svg>
