<svg width="2374" height="729" viewBox="0 0 2374 729" fill="none" xmlns="http://www.w3.org/2000/svg">
<path d="M1591.77 192.575C1593.57 197.675 1591.94 202.887 1587.2 207.223C1582.46 211.559 1574.94 214.715 1566.06 216.093C1557.18 217.472 1547.56 216.975 1539.03 214.698C1530.51 212.422 1523.66 208.524 1519.8 203.744C1517.27 207.183 1512.88 210.072 1507.21 212.03C1501.54 213.987 1494.86 214.92 1488.05 214.704C1487.31 214.681 1486.58 214.657 1485.86 214.592C1482.88 219.597 1477.32 223.963 1469.84 227.168C1462.37 230.373 1453.29 232.281 1443.71 232.664C1434.13 233.047 1424.43 231.889 1415.79 229.328C1407.15 226.768 1399.93 222.913 1394.99 218.224C1390.27 219.396 1385.08 219.928 1379.83 219.776C1374.58 219.625 1369.42 218.795 1364.77 217.354C1360.11 215.912 1356.09 213.899 1353.02 211.477C1349.95 209.054 1347.93 206.289 1347.11 203.404C1341.34 205.996 1334.08 207.393 1326.5 207.369C1318.93 207.345 1311.49 205.901 1305.4 203.272C1301.46 205.735 1296.35 207.535 1290.6 208.481C1284.86 209.426 1278.7 209.482 1272.77 208.642C1266.84 207.803 1261.37 206.099 1256.94 203.711C1252.51 201.324 1249.29 198.343 1247.61 195.084C1242.68 197.827 1236.44 199.742 1229.56 200.621C1222.68 201.501 1215.41 201.312 1208.56 200.074C1204.71 203.988 1198.69 207.085 1191.35 208.93C1184 210.774 1175.7 211.273 1167.62 210.356C1160.38 213.952 1150.82 215.833 1140.89 215.617C1130.96 215.401 1121.4 213.103 1114.15 209.191C1107.2 210.092 1099.85 209.901 1092.93 208.64C1086 207.378 1079.77 205.095 1074.91 202.042C1071.47 205.403 1066.4 208.143 1060.24 209.969C1054.09 211.795 1047.08 212.637 1039.98 212.404L1039.71 212.395C1035.84 218.306 1028.34 223.213 1018.49 226.287C1008.63 229.36 997.019 230.411 985.618 229.262C974.218 228.113 963.728 224.834 955.922 219.98C948.116 215.126 943.474 208.995 942.782 202.624C942.111 202.603 941.428 202.581 940.745 202.559C934.028 202.351 927.435 201.255 921.52 199.363C915.605 197.471 910.541 194.839 906.753 191.688C902.965 188.537 900.563 184.958 899.75 181.253C898.936 177.548 899.735 173.825 902.079 170.396C904.423 166.967 908.243 163.932 913.219 161.547C918.195 159.162 924.181 157.495 930.675 156.688C937.169 155.881 943.981 155.957 950.538 156.908C957.096 157.86 963.208 159.66 968.36 162.157L1161.94 168.326C1169.35 167.156 1177.31 167.254 1184.8 168.607C1188.22 165.12 1193.38 162.271 1199.68 160.383C1205.99 158.494 1213.19 157.641 1220.48 157.92C1227.77 158.199 1234.86 159.599 1240.94 161.961C1247.02 164.323 1251.85 167.554 1254.89 171.288L1306.76 172.941C1312.44 170.963 1319.16 170.019 1326 170.237C1332.84 170.455 1339.48 171.824 1345.03 174.161L1477.4 178.379C1485.06 177.046 1493.43 177.313 1500.98 179.131L1528.04 179.993C1534.04 176.93 1541.77 175.084 1550.04 174.74C1550 174.255 1549.96 173.771 1549.98 173.282C1550.1 169.826 1551.98 166.498 1555.38 163.672C1558.79 160.845 1563.59 158.634 1569.26 157.288C1574.92 155.941 1581.21 155.513 1587.42 156.051C1593.64 156.589 1599.53 158.072 1604.42 160.333C1609.32 162.594 1613.03 165.542 1615.14 168.846C1617.25 172.149 1617.67 175.677 1616.35 179.029C1615.04 182.382 1612.04 185.427 1607.7 187.821C1603.35 190.214 1597.84 191.861 1591.77 192.575Z" fill="#D9D9D9"/>
<path d="M1165.29 186.188C1167.06 191.287 1165.46 196.5 1160.78 200.838C1156.1 205.175 1148.68 208.335 1139.92 209.717C1131.16 211.099 1121.68 210.607 1113.27 208.334C1104.86 206.062 1098.12 202.166 1094.31 197.389C1091.81 200.828 1087.48 203.72 1081.89 205.68C1076.29 207.64 1069.7 208.575 1062.99 208.362C1062.27 208.339 1061.54 208.316 1060.83 208.252C1057.89 213.258 1052.4 217.626 1045.03 220.834C1037.66 224.042 1028.71 225.954 1019.26 226.341C1009.81 226.729 1000.25 225.575 991.73 223.018C983.21 220.462 976.087 216.61 971.214 211.924C966.565 213.097 961.447 213.631 956.271 213.482C951.096 213.333 946.007 212.506 941.415 211.067C936.823 209.627 932.856 207.616 929.832 205.195C926.809 202.773 924.813 200.009 924.005 197.125C918.317 199.719 911.153 201.12 903.683 201.099C896.214 201.078 888.878 199.637 882.873 197.011C878.99 199.476 873.948 201.278 868.282 202.226C862.616 203.174 856.538 203.233 850.694 202.396C844.849 201.559 839.457 199.857 835.089 197.472C830.721 195.087 827.541 192.107 825.887 188.849C821.029 191.594 814.873 193.511 808.085 194.394C801.297 195.277 794.136 195.09 787.376 193.856C783.579 197.771 777.64 200.871 770.396 202.719C763.152 204.567 754.969 205.069 746.998 204.156C739.855 207.755 730.43 209.64 720.638 209.428C710.846 209.216 701.419 206.923 694.271 203.014C687.414 203.919 680.171 203.731 673.341 202.472C666.512 201.214 660.363 198.933 655.572 195.883C652.178 199.245 647.177 201.988 641.107 203.816C635.037 205.645 628.128 206.49 621.124 206.26L620.862 206.252C617.041 212.164 609.644 217.074 599.922 220.152C590.2 223.23 578.749 224.286 567.507 223.142C556.264 221.997 545.921 218.723 538.225 213.873C530.529 209.023 525.955 202.894 525.274 196.523C524.613 196.502 523.939 196.481 523.266 196.459C516.642 196.254 510.141 195.16 504.309 193.271C498.476 191.382 493.483 188.752 489.749 185.603C486.014 182.453 483.648 178.876 482.847 175.171C482.047 171.467 482.836 167.743 485.149 164.313C487.462 160.883 491.231 157.847 496.139 155.459C501.047 153.072 506.951 151.403 513.356 150.593C519.76 149.783 526.478 149.856 532.944 150.804C539.41 151.753 545.437 153.551 550.517 156.046L741.418 162.129C748.726 160.956 756.577 161.05 763.964 162.4C767.336 158.911 772.419 156.06 778.637 154.169C784.856 152.277 791.962 151.421 799.152 151.697C806.342 151.973 813.329 153.369 819.324 155.729C825.319 158.089 830.083 161.317 833.077 165.05L884.227 166.68C889.834 164.699 896.456 163.753 903.201 163.968C909.947 164.183 916.495 165.549 921.965 167.883L1052.51 172.043C1060.06 170.706 1068.32 170.97 1075.76 172.784L1102.45 173.634C1108.36 170.568 1115.99 168.719 1124.15 168.371C1124.1 167.887 1124.07 167.403 1124.08 166.914C1124.21 163.458 1126.06 160.129 1129.42 157.301C1132.78 154.473 1137.52 152.26 1143.1 150.911C1148.68 149.562 1154.89 149.131 1161.02 149.666C1167.15 150.202 1172.95 151.682 1177.78 153.941C1182.61 156.199 1186.27 159.146 1188.35 162.449C1190.42 165.751 1190.84 169.278 1189.54 172.632C1188.24 175.985 1185.28 179.031 1181 181.427C1176.71 183.822 1171.27 185.471 1165.29 186.188Z" fill="#D9D9D9"/>
<path d="M1472.14 160.291C1469.39 169.114 1470.57 178.547 1475.46 186.8C1480.36 195.052 1488.63 201.548 1498.7 205.054C1508.77 208.56 1519.94 208.832 1530.1 205.818C1540.25 202.804 1548.67 196.714 1553.77 188.705C1556.23 195.103 1560.92 200.751 1567.21 204.899C1573.5 209.047 1581.09 211.501 1588.98 211.933C1589.83 211.98 1590.68 212.026 1591.52 211.997C1594.3 221.226 1600.14 229.63 1608.34 236.206C1616.55 242.781 1626.77 247.249 1637.79 249.076C1648.81 250.902 1660.16 250.011 1670.48 246.507C1680.8 243.003 1689.66 237.036 1696 229.318C1701.28 231.959 1707.21 233.523 1713.29 233.883C1719.37 234.244 1725.44 233.391 1731.01 231.394C1736.58 229.396 1741.5 226.31 1745.37 222.384C1749.23 218.457 1751.94 213.799 1753.28 208.784C1759.59 214.068 1767.79 217.415 1776.54 218.279C1785.3 219.143 1794.08 217.474 1801.47 213.544C1805.68 218.381 1811.35 222.184 1817.86 224.548C1824.37 226.912 1831.48 227.749 1838.43 226.971C1845.39 226.192 1851.94 223.827 1857.37 220.126C1862.81 216.425 1866.93 211.527 1869.31 205.952C1874.63 211.404 1881.58 215.546 1889.41 217.929C1897.24 220.312 1905.66 220.846 1913.74 219.473C1917.66 226.871 1924.2 233.082 1932.44 237.231C1940.67 241.38 1950.19 243.258 1959.65 242.6C1967.53 249.842 1978.32 254.32 1989.82 255.126C2001.31 255.931 2012.66 253.004 2021.56 246.938C2029.47 249.368 2037.98 249.91 2046.14 248.503C2054.31 247.096 2061.82 243.796 2067.84 238.967C2071.37 245.335 2076.85 250.8 2083.72 254.774C2090.58 258.747 2098.56 261.078 2106.8 261.516L2107.1 261.532C2110.78 272.472 2118.79 282.068 2129.76 288.696C2140.74 295.323 2154.01 298.577 2167.33 297.905C2180.65 297.233 2193.2 292.678 2202.87 285.01C2212.53 277.342 2218.71 267.031 2220.37 255.822C2221.14 255.864 2221.93 255.908 2222.73 255.951C2230.51 256.386 2238.27 255.232 2245.36 252.587C2252.44 249.943 2258.64 245.884 2263.44 240.752C2268.24 235.621 2271.49 229.566 2272.92 223.096C2274.36 216.627 2273.93 209.932 2271.69 203.573C2269.44 197.215 2265.43 191.379 2260 186.555C2254.58 181.732 2247.88 178.062 2240.49 175.853C2233.1 173.645 2225.22 172.963 2217.52 173.865C2209.82 174.766 2202.52 177.224 2196.24 181.034L1971.83 168.785C1963.43 165.824 1954.22 165.044 1945.39 166.545C1941.9 159.955 1936.33 154.289 1929.3 150.186C1922.28 146.084 1914.07 143.709 1905.61 143.33C1897.15 142.951 1888.78 144.584 1881.44 148.043C1874.1 151.502 1868.09 156.65 1864.08 162.904L1803.95 159.622C1797.65 155.435 1790.02 152.959 1782.09 152.526C1774.17 152.094 1766.31 153.725 1759.59 157.201L1606.14 148.825C1597.48 145.546 1587.76 145.016 1578.8 147.333L1547.43 145.621C1540.92 139.473 1532.23 135.276 1522.72 133.675C1522.84 132.823 1522.95 131.969 1523 131.1C1523.31 124.96 1521.6 118.836 1518.04 113.419C1514.48 108.001 1509.23 103.507 1502.87 100.442C1496.51 97.3776 1489.3 95.8646 1482.05 96.0741C1474.8 96.2836 1467.8 98.2071 1461.84 101.628C1455.88 105.048 1451.2 109.83 1448.33 115.433C1445.45 121.036 1444.49 127.237 1445.56 133.337C1446.63 139.437 1449.69 145.193 1454.39 149.956C1459.08 154.718 1465.23 158.298 1472.14 160.291Z" fill="white"/>
<path d="M1472.14 160.291C1469.39 169.114 1470.57 178.547 1475.46 186.8C1480.36 195.052 1488.63 201.548 1498.7 205.054C1508.77 208.56 1519.94 208.832 1530.1 205.818C1540.25 202.804 1548.67 196.714 1553.77 188.705C1556.23 195.103 1560.92 200.751 1567.21 204.899C1573.5 209.047 1581.09 211.501 1588.98 211.933C1589.83 211.98 1590.68 212.026 1591.52 211.997C1594.3 221.226 1600.14 229.63 1608.34 236.206C1616.55 242.781 1626.77 247.249 1637.79 249.076C1648.81 250.902 1660.16 250.011 1670.48 246.507C1680.8 243.003 1689.66 237.036 1696 229.318C1701.28 231.959 1707.21 233.523 1713.29 233.883C1719.37 234.244 1725.44 233.391 1731.01 231.394C1736.58 229.396 1741.5 226.31 1745.37 222.384C1749.23 218.457 1751.94 213.799 1753.28 208.784C1759.59 214.068 1767.79 217.415 1776.54 218.279C1785.3 219.143 1794.08 217.474 1801.47 213.544C1805.68 218.381 1811.35 222.184 1817.86 224.548C1824.37 226.912 1831.48 227.749 1838.43 226.971C1845.39 226.192 1851.94 223.827 1857.37 220.126C1862.81 216.425 1866.93 211.527 1869.31 205.952C1874.63 211.404 1881.58 215.546 1889.41 217.929C1897.24 220.312 1905.66 220.846 1913.74 219.473C1917.66 226.871 1924.2 233.082 1932.44 237.231C1940.67 241.38 1950.19 243.258 1959.65 242.6C1967.53 249.842 1978.32 254.32 1989.82 255.126C2001.31 255.931 2012.66 253.004 2021.56 246.938C2029.47 249.368 2037.98 249.91 2046.14 248.503C2054.31 247.096 2061.82 243.796 2067.84 238.967C2071.37 245.335 2076.85 250.8 2083.72 254.774C2090.58 258.747 2098.56 261.078 2106.8 261.516L2107.1 261.532C2110.78 272.472 2118.79 282.068 2129.76 288.696C2140.74 295.323 2154.01 298.577 2167.33 297.905C2180.65 297.233 2193.2 292.678 2202.87 285.01C2212.53 277.342 2218.71 267.031 2220.37 255.822C2221.14 255.864 2221.93 255.908 2222.73 255.951C2230.51 256.386 2238.27 255.232 2245.36 252.587C2252.44 249.943 2258.64 245.884 2263.44 240.752C2268.24 235.621 2271.49 229.566 2272.92 223.096C2274.36 216.627 2273.93 209.932 2271.69 203.573C2269.44 197.215 2265.43 191.379 2260 186.555C2254.58 181.732 2247.88 178.062 2240.49 175.853C2233.1 173.645 2225.22 172.963 2217.52 173.865C2209.82 174.766 2202.52 177.224 2196.24 181.034L1971.83 168.785C1963.43 165.824 1954.22 165.044 1945.39 166.545C1941.9 159.955 1936.33 154.289 1929.3 150.186C1922.28 146.084 1914.07 143.709 1905.61 143.33C1897.15 142.951 1888.78 144.584 1881.44 148.043C1874.1 151.502 1868.09 156.65 1864.08 162.904L1803.95 159.622C1797.65 155.435 1790.02 152.959 1782.09 152.526C1774.17 152.094 1766.31 153.725 1759.59 157.201L1606.14 148.825C1597.48 145.546 1587.76 145.016 1578.8 147.333L1547.43 145.621C1540.92 139.473 1532.23 135.276 1522.72 133.675C1522.84 132.823 1522.95 131.969 1523 131.1C1523.31 124.96 1521.6 118.836 1518.04 113.419C1514.48 108.001 1509.23 103.507 1502.87 100.442C1496.51 97.3776 1489.3 95.8646 1482.05 96.0741C1474.8 96.2836 1467.8 98.2071 1461.84 101.628C1455.88 105.048 1451.2 109.83 1448.33 115.433C1445.45 121.036 1444.49 127.237 1445.56 133.337C1446.63 139.437 1449.69 145.193 1454.39 149.956C1459.08 154.718 1465.23 158.298 1472.14 160.291Z" fill="white"/>
<path d="M1567.26 173.608C1564.41 184.272 1565.48 195.627 1570.29 205.517C1575.09 215.408 1583.29 223.144 1593.33 227.256C1603.37 231.369 1614.55 231.571 1624.74 227.825C1634.94 224.08 1643.43 216.646 1648.62 206.937C1651.02 214.62 1655.64 221.373 1661.89 226.302C1668.13 231.231 1675.7 234.103 1683.6 234.536C1684.45 234.582 1685.3 234.629 1686.14 234.585C1688.81 245.675 1694.56 255.738 1702.7 263.57C1710.83 271.403 1721.01 276.673 1732.02 278.751C1743.02 280.829 1754.39 279.627 1764.75 275.289C1775.12 270.951 1784.05 263.661 1790.48 254.289C1795.74 257.412 1801.65 259.23 1807.73 259.597C1813.81 259.963 1819.9 258.867 1825.5 256.398C1831.09 253.929 1836.05 250.154 1839.96 245.379C1843.87 240.603 1846.64 234.959 1848.03 228.901C1854.28 235.198 1862.45 239.139 1871.2 240.083C1879.95 241.027 1888.76 238.917 1896.19 234.098C1900.36 239.88 1905.98 244.4 1912.47 247.176C1918.96 249.952 1926.06 250.881 1933.03 249.865C1940 248.849 1946.58 245.925 1952.06 241.404C1957.54 236.883 1961.72 230.934 1964.16 224.189C1969.42 230.7 1976.33 235.613 1984.14 238.397C1991.95 241.182 2000.36 241.731 2008.47 239.986C2012.31 248.858 2018.78 256.27 2026.98 261.177C2035.17 266.085 2044.67 268.242 2054.15 267.344C2061.95 275.982 2072.69 281.258 2084.19 282.1C2095.69 282.943 2107.07 279.288 2116.04 271.878C2123.93 274.718 2132.44 275.275 2140.63 273.488C2148.82 271.702 2156.37 267.641 2162.44 261.754C2165.9 269.389 2171.33 275.914 2178.15 280.625C2184.98 285.336 2192.94 288.056 2201.17 288.491L2201.48 288.508C2205.04 301.651 2212.94 313.126 2223.85 320.99C2234.75 328.854 2247.99 332.626 2261.33 331.668C2274.67 330.709 2287.28 325.079 2297.04 315.73C2306.79 306.38 2313.09 293.885 2314.87 280.358C2315.65 280.401 2316.44 280.444 2317.23 280.487C2325.02 280.924 2332.8 279.447 2339.92 276.18C2347.04 272.914 2353.29 267.953 2358.14 261.715C2363 255.477 2366.32 248.144 2367.83 240.331C2369.34 232.518 2368.99 224.455 2366.81 216.817C2364.63 209.179 2360.69 202.191 2355.31 196.439C2349.93 190.687 2343.28 186.339 2335.91 183.76C2328.54 181.182 2320.66 180.448 2312.94 181.621C2305.23 182.793 2297.9 185.838 2291.57 190.499L2067.16 178.25C2058.79 174.776 2049.58 173.939 2040.73 175.847C2037.31 167.944 2031.8 161.177 2024.82 156.312C2017.83 151.447 2009.64 148.677 2001.18 148.315C1992.73 147.953 1984.33 150.014 1976.95 154.265C1969.57 158.516 1963.49 164.787 1959.41 172.369L1899.29 169.087C1893.03 164.112 1885.42 161.213 1877.49 160.78C1869.56 160.348 1861.69 162.401 1854.92 166.666L1701.47 158.29C1692.84 154.435 1683.13 153.905 1674.13 156.798L1642.76 155.086C1636.31 147.75 1627.67 142.789 1618.17 140.966C1618.3 139.937 1618.42 138.908 1618.48 137.86C1618.86 130.456 1617.21 123.095 1613.71 116.607C1610.22 110.118 1605.01 104.761 1598.68 101.139C1592.35 97.5163 1585.15 95.7738 1577.9 96.1074C1570.64 96.441 1563.62 98.8374 1557.61 103.026C1551.61 107.215 1546.88 113.03 1543.93 119.815C1540.99 126.599 1539.97 134.084 1540.97 141.423C1541.97 148.762 1544.97 155.665 1549.61 161.352C1554.26 167.039 1560.37 171.284 1567.26 173.608Z" fill="white"/>
<path d="M1567.26 173.608C1564.41 184.272 1565.48 195.627 1570.29 205.517C1575.09 215.408 1583.29 223.144 1593.33 227.256C1603.37 231.369 1614.55 231.571 1624.74 227.825C1634.94 224.08 1643.43 216.646 1648.62 206.937C1651.02 214.62 1655.64 221.373 1661.89 226.302C1668.13 231.231 1675.7 234.103 1683.6 234.536C1684.45 234.582 1685.3 234.629 1686.14 234.585C1688.81 245.675 1694.56 255.738 1702.7 263.57C1710.83 271.403 1721.01 276.673 1732.02 278.751C1743.02 280.829 1754.39 279.627 1764.75 275.289C1775.12 270.951 1784.05 263.661 1790.48 254.289C1795.74 257.412 1801.65 259.23 1807.73 259.597C1813.81 259.963 1819.9 258.867 1825.5 256.398C1831.09 253.929 1836.05 250.154 1839.96 245.379C1843.87 240.603 1846.64 234.959 1848.03 228.901C1854.28 235.198 1862.45 239.139 1871.2 240.083C1879.95 241.027 1888.76 238.917 1896.19 234.098C1900.36 239.88 1905.98 244.4 1912.47 247.176C1918.96 249.952 1926.06 250.881 1933.03 249.865C1940 248.849 1946.58 245.925 1952.06 241.404C1957.54 236.883 1961.72 230.934 1964.16 224.189C1969.42 230.7 1976.33 235.613 1984.14 238.397C1991.95 241.182 2000.36 241.731 2008.47 239.986C2012.31 248.858 2018.78 256.27 2026.98 261.177C2035.17 266.085 2044.67 268.242 2054.15 267.344C2061.95 275.982 2072.69 281.258 2084.19 282.1C2095.69 282.943 2107.07 279.288 2116.04 271.878C2123.93 274.718 2132.44 275.275 2140.63 273.488C2148.82 271.702 2156.37 267.641 2162.44 261.754C2165.9 269.389 2171.33 275.914 2178.15 280.625C2184.98 285.336 2192.94 288.056 2201.17 288.491L2201.48 288.508C2205.04 301.651 2212.94 313.126 2223.85 320.99C2234.75 328.854 2247.99 332.626 2261.33 331.668C2274.67 330.709 2287.28 325.079 2297.04 315.73C2306.79 306.38 2313.09 293.885 2314.87 280.358C2315.65 280.401 2316.44 280.444 2317.23 280.487C2325.02 280.924 2332.8 279.447 2339.92 276.18C2347.04 272.914 2353.29 267.953 2358.14 261.715C2363 255.477 2366.32 248.144 2367.83 240.331C2369.34 232.518 2368.99 224.455 2366.81 216.817C2364.63 209.179 2360.69 202.191 2355.31 196.439C2349.93 190.687 2343.28 186.339 2335.91 183.76C2328.54 181.182 2320.66 180.448 2312.94 181.621C2305.23 182.793 2297.9 185.838 2291.57 190.499L2067.16 178.25C2058.79 174.776 2049.58 173.939 2040.73 175.847C2037.31 167.944 2031.8 161.177 2024.82 156.312C2017.83 151.447 2009.64 148.677 2001.18 148.315C1992.73 147.953 1984.33 150.014 1976.95 154.265C1969.57 158.516 1963.49 164.787 1959.41 172.369L1899.29 169.087C1893.03 164.112 1885.42 161.213 1877.49 160.78C1869.56 160.348 1861.69 162.401 1854.92 166.666L1701.47 158.29C1692.84 154.435 1683.13 153.905 1674.13 156.798L1642.76 155.086C1636.31 147.75 1627.67 142.789 1618.17 140.966C1618.3 139.937 1618.42 138.908 1618.48 137.86C1618.86 130.456 1617.21 123.095 1613.71 116.607C1610.22 110.118 1605.01 104.761 1598.68 101.139C1592.35 97.5163 1585.15 95.7738 1577.9 96.1074C1570.64 96.441 1563.62 98.8374 1557.61 103.026C1551.61 107.215 1546.88 113.03 1543.93 119.815C1540.99 126.599 1539.97 134.084 1540.97 141.423C1541.97 148.762 1544.97 155.665 1549.61 161.352C1554.26 167.039 1560.37 171.284 1567.26 173.608Z" fill="white"/>
<path d="M1884 124.471C1871.8 128.024 1860.29 134.503 1851.65 142.676C1843.01 150.849 1837.85 160.148 1837.15 168.806C1836.44 177.464 1840.25 184.878 1847.83 189.641C1855.42 194.403 1866.26 196.181 1878.3 194.638C1871.11 200.111 1865.69 206.571 1862.77 213.163C1859.85 219.755 1859.56 226.167 1861.94 231.549C1862.2 232.129 1862.46 232.709 1862.8 233.237C1852.14 240.626 1843.66 249.504 1838.38 258.809C1833.09 268.114 1831.23 277.452 1833 285.707C1834.78 293.962 1840.12 300.785 1848.39 305.361C1856.66 309.936 1867.51 312.07 1879.64 311.508C1878.26 316.538 1878.47 321.328 1880.27 325.492C1882.08 329.656 1885.41 333.079 1890.01 335.484C1894.61 337.889 1900.34 339.211 1906.75 339.341C1913.16 339.472 1920.07 338.409 1926.91 336.237C1922.56 343.534 1921.37 350.882 1923.52 357.083C1925.68 363.285 1931.05 367.974 1938.77 370.386C1934.21 376.051 1931.49 382.029 1930.91 387.683C1930.33 393.338 1931.91 398.458 1935.48 402.501C1939.05 406.543 1944.48 409.357 1951.18 410.643C1957.89 411.929 1965.63 411.639 1973.57 409.804C1968.64 416.557 1965.97 423.576 1965.86 430.101C1965.75 436.625 1968.19 442.407 1972.93 446.82C1965.02 453.844 1959.58 461.848 1957.38 469.704C1955.18 477.56 1956.33 484.873 1960.67 490.611C1954.43 500.111 1952.76 509.82 1956 517.767C1959.25 525.715 1967.17 531.305 1978.16 533.405C1978.02 540.008 1980.49 545.856 1985.3 550.304C1990.12 554.751 1997.08 557.624 2005.44 558.606C1998.68 564.749 1993.79 571.619 1991.3 578.479C1988.82 585.338 1988.83 591.926 1991.33 597.534L1991.42 597.744C1978.93 606.757 1969.74 617.761 1965.42 628.894C1961.1 640.027 1961.9 650.607 1967.69 658.843C1973.49 667.079 1983.92 672.466 1997.22 674.093C2010.53 675.72 2025.88 673.486 2040.7 667.771C2040.93 668.301 2041.17 668.841 2041.41 669.381C2043.75 674.695 2048.09 679.032 2054.07 682.027C2060.05 685.022 2067.49 686.588 2075.78 686.593C2084.06 686.597 2092.94 685.041 2101.66 682.054C2110.39 679.068 2118.72 674.738 2125.94 669.429C2133.16 664.12 2139.07 657.986 2143.16 651.544C2147.26 645.101 2149.42 638.537 2149.48 632.404C2149.53 626.27 2147.47 620.747 2143.47 616.296C2139.47 611.845 2133.65 608.598 2126.49 606.827L2058.71 453.813C2059.34 446.569 2056.91 440.123 2051.73 435.301C2058.79 429.051 2063.9 422.006 2066.49 414.961C2069.08 407.916 2069.04 401.153 2066.38 395.436C2063.72 389.719 2058.54 385.276 2051.44 382.609C2044.33 379.942 2035.58 379.158 2026.17 380.346L2008.01 339.348C2010.97 332.723 2011.28 326.275 2008.88 320.868C2006.49 315.461 2001.51 311.354 1994.61 309.099L1948.26 204.463C1949.2 196.859 1946.27 190.237 1940 185.824L1930.53 164.434C1935.9 156.485 1937.99 148.31 1936.49 141.171C1937.62 140.733 1938.74 140.284 1939.86 139.789C1947.75 136.276 1954.87 131.453 1960.42 125.866C1965.96 120.278 1969.7 114.147 1971.23 108.166C1972.75 102.184 1971.99 96.5894 1969.03 92.0128C1966.08 87.4363 1961.04 84.06 1954.5 82.2651C1947.95 80.4701 1940.16 80.3279 1931.99 81.8544C1923.82 83.3809 1915.61 86.5154 1908.28 90.9042C1900.95 95.293 1894.79 100.762 1890.5 106.693C1886.21 112.624 1883.96 118.782 1884 124.471Z" fill="white"/>
<path d="M1884 124.471C1871.8 128.024 1860.29 134.503 1851.65 142.676C1843.01 150.849 1837.85 160.148 1837.15 168.806C1836.44 177.464 1840.25 184.878 1847.83 189.641C1855.42 194.403 1866.26 196.181 1878.3 194.638C1871.11 200.111 1865.69 206.571 1862.77 213.163C1859.85 219.755 1859.56 226.167 1861.94 231.549C1862.2 232.129 1862.46 232.709 1862.8 233.237C1852.14 240.626 1843.66 249.504 1838.38 258.809C1833.09 268.114 1831.23 277.452 1833 285.707C1834.78 293.962 1840.12 300.785 1848.39 305.361C1856.66 309.936 1867.51 312.07 1879.64 311.508C1878.26 316.538 1878.47 321.328 1880.27 325.492C1882.08 329.656 1885.41 333.079 1890.01 335.484C1894.61 337.889 1900.34 339.211 1906.75 339.341C1913.16 339.472 1920.07 338.409 1926.91 336.237C1922.56 343.534 1921.37 350.882 1923.52 357.083C1925.68 363.285 1931.05 367.974 1938.77 370.386C1934.21 376.051 1931.49 382.029 1930.91 387.683C1930.33 393.338 1931.91 398.458 1935.48 402.501C1939.05 406.543 1944.48 409.357 1951.18 410.643C1957.89 411.929 1965.63 411.639 1973.57 409.804C1968.64 416.557 1965.97 423.576 1965.86 430.101C1965.75 436.625 1968.19 442.407 1972.93 446.82C1965.02 453.844 1959.58 461.848 1957.38 469.704C1955.18 477.56 1956.33 484.873 1960.67 490.611C1954.43 500.111 1952.76 509.82 1956 517.767C1959.25 525.715 1967.17 531.305 1978.16 533.405C1978.02 540.008 1980.49 545.856 1985.3 550.304C1990.12 554.751 1997.08 557.624 2005.44 558.606C1998.68 564.749 1993.79 571.619 1991.3 578.479C1988.82 585.338 1988.83 591.926 1991.33 597.534L1991.42 597.744C1978.93 606.757 1969.74 617.761 1965.42 628.894C1961.1 640.027 1961.9 650.607 1967.69 658.843C1973.49 667.079 1983.92 672.466 1997.22 674.093C2010.53 675.72 2025.88 673.486 2040.7 667.771C2040.93 668.301 2041.17 668.841 2041.41 669.381C2043.75 674.695 2048.09 679.032 2054.07 682.027C2060.05 685.022 2067.49 686.588 2075.78 686.593C2084.06 686.597 2092.94 685.041 2101.66 682.054C2110.39 679.068 2118.72 674.738 2125.94 669.429C2133.16 664.12 2139.07 657.986 2143.16 651.544C2147.26 645.101 2149.42 638.537 2149.48 632.404C2149.53 626.27 2147.47 620.747 2143.47 616.296C2139.47 611.845 2133.65 608.598 2126.49 606.827L2058.71 453.813C2059.34 446.569 2056.91 440.123 2051.73 435.301C2058.79 429.051 2063.9 422.006 2066.49 414.961C2069.08 407.916 2069.04 401.153 2066.38 395.436C2063.72 389.719 2058.54 385.276 2051.44 382.609C2044.33 379.942 2035.58 379.158 2026.17 380.346L2008.01 339.348C2010.97 332.723 2011.28 326.275 2008.88 320.868C2006.49 315.461 2001.51 311.354 1994.61 309.099L1948.26 204.463C1949.2 196.859 1946.27 190.237 1940 185.824L1930.53 164.434C1935.9 156.485 1937.99 148.31 1936.49 141.171C1937.62 140.733 1938.74 140.284 1939.86 139.789C1947.75 136.276 1954.87 131.453 1960.42 125.866C1965.96 120.278 1969.7 114.147 1971.23 108.166C1972.75 102.184 1971.99 96.5894 1969.03 92.0128C1966.08 87.4363 1961.04 84.06 1954.5 82.2651C1947.95 80.4701 1940.16 80.3279 1931.99 81.8544C1923.82 83.3809 1915.61 86.5154 1908.28 90.9042C1900.95 95.293 1894.79 100.762 1890.5 106.693C1886.21 112.624 1883.96 118.782 1884 124.471Z" fill="white"/>
<path d="M775.925 151.118C773.636 155.889 775.238 160.917 780.427 165.249C785.616 169.58 794.03 172.912 804.071 174.612C814.111 176.312 825.08 176.261 834.892 174.47C844.705 172.678 852.679 169.271 857.298 164.894C860.015 168.276 864.876 171.216 871.237 173.326C877.598 175.437 885.159 176.616 892.916 176.71C893.753 176.719 894.589 176.729 895.411 176.699C898.568 181.59 904.69 185.986 913.044 189.362C921.398 192.737 931.632 194.949 942.522 195.734C953.411 196.518 964.496 195.842 974.452 193.785C984.407 191.729 992.812 188.379 998.661 184.137C1003.97 185.458 1009.85 186.191 1015.83 186.277C1021.81 186.363 1027.72 185.8 1033.09 184.633C1038.46 183.466 1043.14 181.728 1046.74 179.558C1050.35 177.389 1052.78 174.848 1053.85 172.141C1060.29 174.858 1068.49 176.505 1077.12 176.814C1085.74 177.123 1094.27 176.076 1101.33 173.842C1105.69 176.358 1111.42 178.294 1117.92 179.445C1124.41 180.596 1131.42 180.919 1138.21 180.38C1144.99 179.842 1151.3 178.461 1156.45 176.384C1161.61 174.308 1165.42 171.614 1167.49 168.588C1172.96 171.413 1179.97 173.508 1187.76 174.646C1195.55 175.784 1203.83 175.922 1211.69 175.045C1215.88 178.936 1222.59 182.146 1230.86 184.223C1239.13 186.299 1248.55 187.137 1257.79 186.619C1265.86 190.357 1276.65 192.564 1287.96 192.794C1299.27 193.023 1310.26 191.257 1318.7 187.854C1326.57 189.016 1334.93 189.157 1342.88 188.26C1350.82 187.364 1358.02 185.466 1363.7 182.775C1367.45 186.122 1373.09 188.951 1380.01 190.957C1386.93 192.964 1394.86 194.071 1402.96 194.161L1403.26 194.165C1407.38 199.956 1415.68 204.951 1426.75 208.306C1437.83 211.661 1450.99 213.17 1464.02 212.577C1477.05 211.983 1489.14 209.325 1498.26 205.051C1507.37 200.776 1512.95 195.149 1514.04 189.12C1514.8 189.129 1515.58 189.139 1516.36 189.148C1524.01 189.244 1531.57 188.49 1538.39 186.95C1545.21 185.41 1551.1 183.129 1555.56 180.298C1560.02 177.467 1562.93 174.169 1564.03 170.681C1565.13 167.193 1564.4 163.617 1561.89 160.253C1559.39 156.889 1555.19 153.835 1549.64 151.349C1544.09 148.862 1537.35 147.015 1530 145.963C1522.65 144.911 1514.89 144.684 1507.39 145.302C1499.88 145.919 1492.84 147.363 1486.85 149.513L1266.25 146.895C1257.87 145.457 1248.81 145.201 1240.22 146.16C1236.49 142.694 1230.77 139.758 1223.68 137.686C1216.6 135.613 1208.44 134.486 1200.13 134.432C1191.81 134.378 1183.68 135.398 1176.65 137.379C1169.62 139.359 1163.97 142.22 1160.33 145.638L1101.22 144.937C1094.85 142.806 1087.25 141.614 1079.46 141.522C1071.66 141.429 1064.04 142.44 1057.61 144.419L906.759 142.629C898.114 141.026 888.567 140.913 879.886 142.31L849.049 141.944C842.372 138.768 833.662 136.674 824.262 135.984C824.34 135.525 824.403 135.067 824.409 134.601C824.429 131.308 822.457 128.061 818.715 125.223C814.972 122.386 809.609 120.073 803.229 118.544C796.85 117.015 789.709 116.332 782.611 116.571C775.513 116.811 768.741 117.963 763.06 119.898C757.378 121.834 753.013 124.476 750.457 127.525C747.901 130.575 747.255 133.911 748.593 137.157C749.93 140.403 753.198 143.431 758.028 145.898C762.857 148.364 769.056 150.172 775.925 151.118Z" fill="white"/>
<path d="M775.925 151.118C773.636 155.889 775.238 160.917 780.427 165.249C785.616 169.58 794.03 172.912 804.071 174.612C814.111 176.312 825.08 176.261 834.892 174.47C844.705 172.678 852.679 169.271 857.298 164.894C860.015 168.276 864.876 171.216 871.237 173.326C877.598 175.437 885.159 176.616 892.916 176.71C893.753 176.719 894.589 176.729 895.411 176.699C898.568 181.59 904.69 185.986 913.044 189.362C921.398 192.737 931.632 194.949 942.522 195.734C953.411 196.518 964.496 195.842 974.452 193.785C984.407 191.729 992.812 188.379 998.661 184.137C1003.97 185.458 1009.85 186.191 1015.83 186.277C1021.81 186.363 1027.72 185.8 1033.09 184.633C1038.46 183.466 1043.14 181.728 1046.74 179.558C1050.35 177.389 1052.78 174.848 1053.85 172.141C1060.29 174.858 1068.49 176.505 1077.12 176.814C1085.74 177.123 1094.27 176.076 1101.33 173.842C1105.69 176.358 1111.42 178.294 1117.92 179.445C1124.41 180.596 1131.42 180.919 1138.21 180.38C1144.99 179.842 1151.3 178.461 1156.45 176.384C1161.61 174.308 1165.42 171.614 1167.49 168.588C1172.96 171.413 1179.97 173.508 1187.76 174.646C1195.55 175.784 1203.83 175.922 1211.69 175.045C1215.88 178.936 1222.59 182.146 1230.86 184.223C1239.13 186.299 1248.55 187.137 1257.79 186.619C1265.86 190.357 1276.65 192.564 1287.96 192.794C1299.27 193.023 1310.26 191.257 1318.7 187.854C1326.57 189.016 1334.93 189.157 1342.88 188.26C1350.82 187.364 1358.02 185.466 1363.7 182.775C1367.45 186.122 1373.09 188.951 1380.01 190.957C1386.93 192.964 1394.86 194.071 1402.96 194.161L1403.26 194.165C1407.38 199.956 1415.68 204.951 1426.75 208.306C1437.83 211.661 1450.99 213.17 1464.02 212.577C1477.05 211.983 1489.14 209.325 1498.26 205.051C1507.37 200.776 1512.95 195.149 1514.04 189.12C1514.8 189.129 1515.58 189.139 1516.36 189.148C1524.01 189.244 1531.57 188.49 1538.39 186.95C1545.21 185.41 1551.1 183.129 1555.56 180.298C1560.02 177.467 1562.93 174.169 1564.03 170.681C1565.13 167.193 1564.4 163.617 1561.89 160.253C1559.39 156.889 1555.19 153.835 1549.64 151.349C1544.09 148.862 1537.35 147.015 1530 145.963C1522.65 144.911 1514.89 144.684 1507.39 145.302C1499.88 145.919 1492.84 147.363 1486.85 149.513L1266.25 146.895C1257.87 145.457 1248.81 145.201 1240.22 146.16C1236.49 142.694 1230.77 139.758 1223.68 137.686C1216.6 135.613 1208.44 134.486 1200.13 134.432C1191.81 134.378 1183.68 135.398 1176.65 137.379C1169.62 139.359 1163.97 142.22 1160.33 145.638L1101.22 144.937C1094.85 142.806 1087.25 141.614 1079.46 141.522C1071.66 141.429 1064.04 142.44 1057.61 144.419L906.759 142.629C898.114 141.026 888.567 140.913 879.886 142.31L849.049 141.944C842.372 138.768 833.662 136.674 824.262 135.984C824.34 135.525 824.403 135.067 824.409 134.601C824.429 131.308 822.457 128.061 818.715 125.223C814.972 122.386 809.609 120.073 803.229 118.544C796.85 117.015 789.709 116.332 782.611 116.571C775.513 116.811 768.741 117.963 763.06 119.898C757.378 121.834 753.013 124.476 750.457 127.525C747.901 130.575 747.255 133.911 748.593 137.157C749.93 140.403 753.198 143.431 758.028 145.898C762.857 148.364 769.056 150.172 775.925 151.118Z" fill="white"/>
<path d="M28.848 135.041C26.5594 139.812 28.1616 144.841 33.3504 149.172C38.5391 153.503 46.953 156.835 56.9939 158.535C67.0347 160.235 78.0031 160.184 87.8158 158.393C97.6285 156.602 105.602 153.194 110.222 148.818C112.938 152.199 117.799 155.14 124.161 157.25C130.522 159.36 138.082 160.54 145.84 160.633C146.676 160.643 147.512 160.653 148.334 160.623C151.491 165.514 157.613 169.91 165.967 173.285C174.322 176.661 184.555 178.873 195.445 179.657C206.335 180.442 217.42 179.765 227.375 177.709C237.33 175.652 245.735 172.302 251.584 168.06C256.893 169.381 262.774 170.114 268.754 170.2C274.734 170.286 280.646 169.723 286.015 168.557C291.383 167.39 296.058 165.651 299.664 163.482C303.27 161.312 305.706 158.771 306.777 156.064C313.217 158.781 321.417 160.428 330.038 160.738C338.66 161.047 347.195 159.999 354.252 157.766C358.614 160.281 364.346 162.217 370.839 163.368C377.332 164.519 384.344 164.843 391.129 164.304C397.914 163.765 404.219 162.384 409.374 160.308C414.53 158.231 418.343 155.537 420.409 152.512C425.882 155.336 432.894 157.431 440.686 158.569C448.477 159.707 456.751 159.846 464.612 158.969C468.805 162.86 475.51 166.07 483.781 168.146C492.051 170.222 501.472 171.06 510.715 170.542C518.785 174.28 529.57 176.488 540.881 176.717C552.193 176.947 563.182 175.181 571.619 171.778C579.489 172.94 587.857 173.08 595.799 172.184C603.741 171.287 610.947 169.389 616.622 166.699C620.377 170.046 626.017 172.874 632.934 174.881C639.851 176.887 647.784 177.995 655.878 178.084L656.181 178.088C660.306 183.879 668.606 188.875 679.678 192.23C690.75 195.585 703.914 197.093 716.944 196.5C729.973 195.907 742.067 193.248 751.182 188.974C760.296 184.7 765.87 179.072 766.962 173.044C767.726 173.053 768.504 173.062 769.283 173.071C776.937 173.167 784.492 172.414 791.313 170.874C798.135 169.334 804.024 167.052 808.485 164.221C812.946 161.39 815.849 158.092 816.951 154.604C818.053 151.116 817.321 147.54 814.817 144.176C812.313 140.812 808.109 137.759 802.56 135.272C797.01 132.786 790.276 130.939 782.924 129.886C775.572 128.834 767.817 128.607 760.309 129.225C752.8 129.843 745.759 131.287 739.777 133.436L519.174 130.818C510.797 129.381 501.732 129.125 493.143 130.083C489.418 126.617 483.689 123.682 476.604 121.609C469.519 119.537 461.359 118.41 453.048 118.355C444.738 118.301 436.606 119.322 429.574 121.302C422.542 123.282 416.89 126.143 413.255 129.561L354.147 128.86C347.771 126.729 340.175 125.538 332.38 125.445C324.585 125.353 316.963 126.364 310.537 128.342L159.682 126.552C151.037 124.949 141.49 124.836 132.81 126.234L101.973 125.868C95.2949 122.691 86.5851 120.597 77.1856 119.907C77.2632 119.449 77.3263 118.99 77.3319 118.524C77.3523 115.232 75.3801 111.984 71.6379 109.147C67.8956 106.31 62.5322 103.996 56.1528 102.467C49.7733 100.938 42.6319 100.255 35.534 100.495C28.4362 100.734 21.6645 101.886 15.983 103.822C10.3016 105.757 5.93647 108.399 3.3802 111.448C0.823928 114.498 0.178201 117.834 1.51597 121.08C2.85374 124.327 6.12178 127.354 10.9512 129.821C15.7807 132.288 21.9794 134.096 28.848 135.041Z" fill="white"/>
<path d="M28.848 135.041C26.5594 139.812 28.1616 144.841 33.3504 149.172C38.5391 153.503 46.953 156.835 56.9939 158.535C67.0347 160.235 78.0031 160.184 87.8158 158.393C97.6285 156.602 105.602 153.194 110.222 148.818C112.938 152.199 117.799 155.14 124.161 157.25C130.522 159.36 138.082 160.54 145.84 160.633C146.676 160.643 147.512 160.653 148.334 160.623C151.491 165.514 157.613 169.91 165.967 173.285C174.322 176.661 184.555 178.873 195.445 179.657C206.335 180.442 217.42 179.765 227.375 177.709C237.33 175.652 245.735 172.302 251.584 168.06C256.893 169.381 262.774 170.114 268.754 170.2C274.734 170.286 280.646 169.723 286.015 168.557C291.383 167.39 296.058 165.651 299.664 163.482C303.27 161.312 305.706 158.771 306.777 156.064C313.217 158.781 321.417 160.428 330.038 160.738C338.66 161.047 347.195 159.999 354.252 157.766C358.614 160.281 364.346 162.217 370.839 163.368C377.332 164.519 384.344 164.843 391.129 164.304C397.914 163.765 404.219 162.384 409.374 160.308C414.53 158.231 418.343 155.537 420.409 152.512C425.882 155.336 432.894 157.431 440.686 158.569C448.477 159.707 456.751 159.846 464.612 158.969C468.805 162.86 475.51 166.07 483.781 168.146C492.051 170.222 501.472 171.06 510.715 170.542C518.785 174.28 529.57 176.488 540.881 176.717C552.193 176.947 563.182 175.181 571.619 171.778C579.489 172.94 587.857 173.08 595.799 172.184C603.741 171.287 610.947 169.389 616.622 166.699C620.377 170.046 626.017 172.874 632.934 174.881C639.851 176.887 647.784 177.995 655.878 178.084L656.181 178.088C660.306 183.879 668.606 188.875 679.678 192.23C690.75 195.585 703.914 197.093 716.944 196.5C729.973 195.907 742.067 193.248 751.182 188.974C760.296 184.7 765.87 179.072 766.962 173.044C767.726 173.053 768.504 173.062 769.283 173.071C776.937 173.167 784.492 172.414 791.313 170.874C798.135 169.334 804.024 167.052 808.485 164.221C812.946 161.39 815.849 158.092 816.951 154.604C818.053 151.116 817.321 147.54 814.817 144.176C812.313 140.812 808.109 137.759 802.56 135.272C797.01 132.786 790.276 130.939 782.924 129.886C775.572 128.834 767.817 128.607 760.309 129.225C752.8 129.843 745.759 131.287 739.777 133.436L519.174 130.818C510.797 129.381 501.732 129.125 493.143 130.083C489.418 126.617 483.689 123.682 476.604 121.609C469.519 119.537 461.359 118.41 453.048 118.355C444.738 118.301 436.606 119.322 429.574 121.302C422.542 123.282 416.89 126.143 413.255 129.561L354.147 128.86C347.771 126.729 340.175 125.538 332.38 125.445C324.585 125.353 316.963 126.364 310.537 128.342L159.682 126.552C151.037 124.949 141.49 124.836 132.81 126.234L101.973 125.868C95.2949 122.691 86.5851 120.597 77.1856 119.907C77.2632 119.449 77.3263 118.99 77.3319 118.524C77.3523 115.232 75.3801 111.984 71.6379 109.147C67.8956 106.31 62.5322 103.996 56.1528 102.467C49.7733 100.938 42.6319 100.255 35.534 100.495C28.4362 100.734 21.6645 101.886 15.983 103.822C10.3016 105.757 5.93647 108.399 3.3802 111.448C0.823928 114.498 0.178201 117.834 1.51597 121.08C2.85374 124.327 6.12178 127.354 10.9512 129.821C15.7807 132.288 21.9794 134.096 28.848 135.041Z" fill="white"/>
<path d="M1 0.5L1527.5 27.5L1785 83.5L2019 128.5V184.5L155.5 143L1 113.5V0.5Z" fill="white"/>
</svg>
