<svg width="1117" height="769" viewBox="0 0 1117 769" fill="none" xmlns="http://www.w3.org/2000/svg">
<g style="mix-blend-mode:overlay" opacity="0.6">
<path d="M791.222 605.148C792.278 604.113 793.617 603.412 795.071 603.134C796.525 602.856 798.028 603.013 799.393 603.584C800.758 604.156 801.924 605.117 802.743 606.348C803.563 607.578 804 609.022 804 610.5C804 611.977 803.563 613.422 802.743 614.652C801.924 615.883 800.758 616.844 799.393 617.416C798.028 617.987 796.525 618.144 795.071 617.866C793.617 617.588 792.278 616.887 791.222 615.852C790.517 615.149 789.959 614.315 789.577 613.397C789.196 612.478 789 611.494 789 610.5C789 609.506 789.196 608.522 789.577 607.603C789.959 606.685 790.517 605.85 791.222 605.148Z" fill="#CCCFD0"/>
</g>
<g style="mix-blend-mode:overlay" opacity="0.6">
<path d="M1081.66 66.0422C1081.99 65.715 1082.37 65.4545 1082.79 65.2757C1083.22 65.0969 1083.67 65.0033 1084.13 65.0001C1084.59 64.9969 1085.05 65.0842 1085.47 65.2572C1085.9 65.4301 1086.29 65.6853 1086.61 66.0081C1086.94 66.3308 1087.2 66.7149 1087.38 67.1383C1087.56 67.5618 1087.65 68.0163 1087.66 68.4759C1087.66 68.9356 1087.57 69.3912 1087.4 69.8171C1087.22 70.2429 1086.97 70.6305 1086.65 70.9578C1086.32 71.285 1085.94 71.5455 1085.52 71.7243C1085.09 71.9031 1084.64 71.9967 1084.18 71.9999C1083.72 72.0031 1083.26 71.9158 1082.84 71.7428C1082.41 71.5699 1082.02 71.3147 1081.7 70.9919C1081.37 70.6692 1081.11 70.2851 1080.93 69.8617C1080.75 69.4382 1080.66 68.9837 1080.66 68.5241C1080.65 68.0644 1080.74 67.6088 1080.91 67.1829C1081.09 66.7571 1081.34 66.3695 1081.66 66.0422Z" fill="#CCCFD0"/>
</g>
<g style="mix-blend-mode:overlay" opacity="0.6">
<path d="M786.771 269.228C787.135 268.85 787.57 268.546 788.051 268.336C788.533 268.125 789.051 268.011 789.576 268.001C790.101 267.99 790.623 268.084 791.112 268.275C791.601 268.466 792.048 268.752 792.427 269.116C792.806 269.48 793.109 269.915 793.32 270.396C793.53 270.877 793.644 271.395 793.654 271.921C793.665 272.446 793.572 272.968 793.38 273.457C793.189 273.946 792.903 274.393 792.539 274.772C791.804 275.537 790.795 275.978 789.735 275.999C788.674 276.02 787.649 275.619 786.884 274.884C786.119 274.149 785.677 273.14 785.656 272.079C785.635 271.019 786.036 269.993 786.771 269.228Z" fill="#CCCFD0"/>
</g>
<g style="mix-blend-mode:overlay" opacity="0.6">
<path d="M749.232 238.603C750.27 237.576 751.674 237 753.138 237C754.602 237 756.006 237.576 757.044 238.603C758.076 239.635 758.655 241.032 758.655 242.488C758.655 243.944 758.076 245.341 757.044 246.373C756.541 246.888 755.939 247.297 755.274 247.577C754.609 247.856 753.895 248 753.173 248C752.452 248 751.737 247.856 751.072 247.577C750.407 247.297 749.806 246.888 749.303 246.373C748.261 245.35 747.669 243.958 747.656 242.502C747.642 241.047 748.209 239.644 749.232 238.603Z" fill="#CCCFD0"/>
</g>
<g style="mix-blend-mode:overlay" opacity="0.6">
<path d="M613.646 39.9862C614.13 39.4034 614.729 38.9267 615.406 38.5863C616.083 38.2459 616.823 38.0491 617.579 38.0081C618.336 37.967 619.093 38.0828 619.802 38.348C620.512 38.6132 621.159 39.0221 621.703 39.5492C622.248 40.0763 622.677 40.7102 622.965 41.4111C623.253 42.112 623.392 42.8647 623.376 43.6221C623.359 44.3796 623.186 45.1254 622.867 45.8127C622.548 46.5001 622.091 47.1143 621.524 47.6167C620.487 48.5358 619.141 49.0294 617.755 48.9986C616.369 48.9678 615.046 48.415 614.051 47.4507C613.055 46.4864 612.46 45.1817 612.385 43.7977C612.31 42.4137 612.76 41.0525 613.646 39.9862Z" fill="#CCCFD0"/>
</g>
<g style="mix-blend-mode:overlay" opacity="0.6">
<path d="M422.402 523.374C423.104 522.625 423.951 522.028 424.893 521.619C425.835 521.211 426.85 521 427.877 521C428.903 521 429.919 521.211 430.861 521.619C431.803 522.028 432.65 522.625 433.352 523.374C434.351 524.442 435.017 525.778 435.267 527.219C435.517 528.66 435.34 530.142 434.758 531.484C434.176 532.826 433.215 533.968 431.992 534.77C430.77 535.573 429.339 536 427.877 536C426.415 536 424.984 535.573 423.762 534.77C422.539 533.968 421.578 532.826 420.996 531.484C420.414 530.142 420.237 528.66 420.487 527.219C420.737 525.778 421.403 524.442 422.402 523.374Z" fill="#CCCFD0"/>
</g>
<g style="mix-blend-mode:overlay" opacity="0.6">
<path d="M508.663 294.042C509.315 293.381 510.203 293.006 511.131 293C512.059 292.994 512.952 293.356 513.613 294.008C514.274 294.66 514.649 295.548 514.655 296.476C514.662 297.404 514.299 298.297 513.647 298.958C512.995 299.619 512.108 299.994 511.179 300C510.251 300.006 509.358 299.644 508.698 298.992C508.037 298.34 507.662 297.453 507.655 296.524C507.649 295.596 508.012 294.703 508.663 294.042Z" fill="#CCCFD0"/>
</g>
<path opacity="0.6" d="M791.222 605.148C792.278 604.113 793.617 603.412 795.071 603.134C796.525 602.856 798.028 603.013 799.393 603.584C800.758 604.156 801.924 605.117 802.743 606.348C803.563 607.578 804 609.022 804 610.5C804 611.977 803.563 613.422 802.743 614.652C801.924 615.883 800.758 616.844 799.393 617.416C798.028 617.987 796.525 618.144 795.071 617.866C793.617 617.588 792.278 616.887 791.222 615.852C790.517 615.149 789.959 614.315 789.577 613.397C789.196 612.478 789 611.494 789 610.5C789 609.506 789.196 608.522 789.577 607.603C789.959 606.685 790.517 605.85 791.222 605.148Z" fill="#CCCFD0"/>
<path opacity="0.6" d="M522.517 403.159C523.276 402.416 524.299 402 525.364 402C526.429 402 527.452 402.416 528.211 403.159C528.958 403.913 529.377 404.928 529.377 405.987C529.377 407.045 528.958 408.06 528.211 408.814C527.839 409.19 527.396 409.488 526.907 409.692C526.419 409.895 525.894 410 525.364 410C524.834 410 524.309 409.895 523.821 409.692C523.332 409.488 522.889 409.19 522.517 408.814C521.785 408.053 521.377 407.04 521.377 405.987C521.377 404.933 521.785 403.92 522.517 403.159Z" fill="white"/>
<path opacity="0.6" d="M1081.66 66.0422C1081.99 65.715 1082.37 65.4545 1082.79 65.2757C1083.22 65.0969 1083.67 65.0033 1084.13 65.0001C1084.59 64.9969 1085.05 65.0842 1085.47 65.2572C1085.9 65.4301 1086.29 65.6853 1086.61 66.0081C1086.94 66.3308 1087.2 66.7149 1087.38 67.1383C1087.56 67.5618 1087.65 68.0163 1087.66 68.4759C1087.66 68.9356 1087.57 69.3912 1087.4 69.8171C1087.22 70.2429 1086.97 70.6305 1086.65 70.9578C1086.32 71.285 1085.94 71.5455 1085.52 71.7243C1085.09 71.9031 1084.64 71.9967 1084.18 71.9999C1083.72 72.0031 1083.26 71.9158 1082.84 71.7428C1082.41 71.5699 1082.02 71.3147 1081.7 70.9919C1081.37 70.6692 1081.11 70.2851 1080.93 69.8617C1080.75 69.4382 1080.66 68.9837 1080.66 68.5241C1080.65 68.0644 1080.74 67.6088 1080.91 67.1829C1081.09 66.7571 1081.34 66.3695 1081.66 66.0422Z" fill="#CCCFD0"/>
<path opacity="0.6" d="M1086.03 197.606C1086.53 197.097 1087.13 196.693 1087.8 196.418C1088.46 196.142 1089.17 196 1089.89 196C1090.61 196 1091.32 196.142 1091.98 196.418C1092.65 196.693 1093.25 197.097 1093.75 197.606C1094.27 198.114 1094.68 198.719 1094.95 199.385C1095.23 200.052 1095.38 200.766 1095.38 201.487C1095.38 202.209 1095.23 202.923 1094.95 203.589C1094.68 204.255 1094.27 204.86 1093.75 205.369C1093.25 205.885 1092.64 206.295 1091.97 206.575C1091.31 206.856 1090.59 207 1089.86 207C1089.14 207 1088.42 206.856 1087.75 206.575C1087.09 206.295 1086.48 205.885 1085.98 205.369C1085.47 204.857 1085.06 204.249 1084.79 203.581C1084.51 202.914 1084.37 202.198 1084.38 201.477C1084.38 200.755 1084.53 200.042 1084.81 199.378C1085.1 198.713 1085.51 198.111 1086.03 197.606Z" fill="white"/>
<path opacity="0.6" d="M733.222 29.8891C733.926 29.0413 734.798 28.3479 735.783 27.8528C736.767 27.3577 737.844 27.0714 738.944 27.0117C740.044 26.9521 741.145 27.1204 742.177 27.5062C743.21 27.8919 744.151 28.4867 744.943 29.2534C745.734 30.0201 746.359 30.9422 746.778 31.9616C747.196 32.981 747.399 34.0759 747.375 35.1776C747.35 36.2794 747.099 37.3642 746.635 38.364C746.172 39.3638 745.507 40.2572 744.682 40.9879C743.173 42.3248 741.215 43.0428 739.199 42.998C737.184 42.9532 735.259 42.149 733.811 40.7464C732.363 39.3438 731.498 37.4461 731.389 35.433C731.28 33.4199 731.934 31.44 733.222 29.8891Z" fill="#CCCFD0"/>
<path opacity="0.6" d="M508.663 294.042C509.315 293.381 510.203 293.006 511.131 293C512.059 292.994 512.952 293.356 513.613 294.008C514.274 294.66 514.649 295.548 514.655 296.476C514.662 297.404 514.299 298.297 513.647 298.958C512.995 299.619 512.108 299.994 511.179 300C510.251 300.006 509.358 299.644 508.698 298.992C508.037 298.34 507.662 297.453 507.655 296.524C507.649 295.596 508.012 294.703 508.663 294.042Z" fill="white"/>
<g style="mix-blend-mode:overlay" opacity="0.6">
<path d="M95.246 564.879C95.6662 564.46 96.2017 564.174 96.7847 564.058C97.3677 563.942 97.9721 564.001 98.5213 564.228C99.0706 564.455 99.54 564.84 99.8704 565.333C100.201 565.827 100.377 566.407 100.377 567C100.377 567.593 100.201 568.174 99.8704 568.667C99.54 569.16 99.0706 569.545 98.5213 569.772C97.9721 569.999 97.3677 570.058 96.7847 569.942C96.2017 569.826 95.6662 569.54 95.246 569.121C94.689 568.555 94.377 567.793 94.377 567C94.377 566.207 94.689 565.445 95.246 564.879Z" fill="#CCCFD0"/>
</g>
<g style="mix-blend-mode:overlay" opacity="0.6">
<path d="M360.913 519.046C361.114 518.759 361.374 518.518 361.677 518.34C361.979 518.162 362.317 518.051 362.667 518.014C363.016 517.977 363.37 518.015 363.703 518.126C364.037 518.236 364.343 518.417 364.6 518.656C364.856 518.894 365.059 519.185 365.193 519.508C365.326 519.831 365.389 520.179 365.375 520.528C365.362 520.877 365.273 521.219 365.114 521.531C364.956 521.843 364.731 522.118 364.457 522.336C364.012 522.762 363.419 523 362.801 523C362.183 523 361.59 522.762 361.145 522.336C360.698 521.916 360.426 521.345 360.383 520.736C360.34 520.126 360.529 519.523 360.913 519.046Z" fill="#CCCFD0"/>
</g>
<g style="mix-blend-mode:overlay" opacity="0.6">
<path d="M199.402 535.025C199.892 534.535 200.516 534.202 201.194 534.067C201.873 533.932 202.577 534.002 203.217 534.266C203.856 534.531 204.403 534.98 204.787 535.556C205.172 536.131 205.377 536.808 205.377 537.5C205.377 538.192 205.172 538.869 204.787 539.444C204.403 540.02 203.856 540.469 203.217 540.733C202.577 540.998 201.873 541.068 201.194 540.933C200.516 540.798 199.892 540.465 199.402 539.975C199.077 539.65 198.819 539.264 198.644 538.84C198.468 538.415 198.377 537.96 198.377 537.5C198.377 537.04 198.468 536.585 198.644 536.16C198.819 535.736 199.077 535.35 199.402 535.025Z" fill="#CCCFD0"/>
</g>
<path opacity="0.6" d="M1.53566 557.172C2.09596 556.613 2.80996 556.232 3.58732 556.077C4.36467 555.922 5.17045 556.002 5.90278 556.304C6.63511 556.607 7.26108 557.12 7.70148 557.778C8.14189 558.435 8.37695 559.209 8.37695 560C8.37695 560.791 8.14189 561.565 7.70148 562.223C7.26108 562.88 6.63511 563.393 5.90278 563.696C5.17045 563.999 4.36467 564.077 3.58732 563.923C2.80996 563.768 2.09596 563.387 1.53566 562.828C0.793053 562.073 0.376953 561.058 0.376953 560C0.376953 558.942 0.793053 557.927 1.53566 557.172Z" fill="#CCCFD0"/>
<path opacity="0.6" d="M310.913 444.046C311.114 443.759 311.374 443.518 311.677 443.34C311.979 443.162 312.317 443.051 312.667 443.014C313.016 442.977 313.37 443.015 313.703 443.126C314.037 443.236 314.343 443.417 314.6 443.656C314.856 443.894 315.059 444.185 315.193 444.508C315.326 444.831 315.389 445.179 315.375 445.528C315.362 445.877 315.273 446.219 315.114 446.531C314.956 446.843 314.731 447.118 314.457 447.336C314.012 447.762 313.419 448 312.801 448C312.183 448 311.59 447.762 311.145 447.336C310.698 446.916 310.426 446.345 310.383 445.736C310.34 445.126 310.529 444.523 310.913 444.046Z" fill="#CCCFD0"/>
<path opacity="0.6" d="M196.402 445.025C196.892 444.535 197.516 444.202 198.194 444.067C198.873 443.932 199.577 444.002 200.217 444.266C200.856 444.531 201.403 444.98 201.787 445.556C202.172 446.131 202.377 446.808 202.377 447.5C202.377 448.192 202.172 448.869 201.787 449.444C201.403 450.02 200.856 450.469 200.217 450.733C199.577 450.998 198.873 451.068 198.194 450.933C197.516 450.798 196.892 450.465 196.402 449.975C196.077 449.65 195.819 449.264 195.644 448.84C195.468 448.415 195.377 447.96 195.377 447.5C195.377 447.04 195.468 446.585 195.644 446.16C195.819 445.736 196.077 445.35 196.402 445.025Z" fill="#CCCFD0"/>
<g style="mix-blend-mode:overlay" opacity="0.6">
<path d="M53.8268 610.581C53.6844 610.442 53.5713 610.276 53.494 610.093C53.4168 609.909 53.377 609.713 53.377 609.514C53.377 609.315 53.4168 609.118 53.494 608.935C53.5713 608.752 53.6844 608.586 53.8268 608.447C53.9627 608.306 54.1258 608.193 54.3062 608.116C54.4867 608.04 54.6808 608 54.877 608C55.0731 608 55.2672 608.04 55.4477 608.116C55.6281 608.193 55.7912 608.306 55.9271 608.447C56.0695 608.586 56.1826 608.752 56.2599 608.935C56.3371 609.118 56.377 609.315 56.377 609.514C56.377 609.713 56.3371 609.909 56.2599 610.093C56.1826 610.276 56.0695 610.442 55.9271 610.581C55.6438 610.85 55.2678 611 54.877 611C54.4861 611 54.1101 610.85 53.8268 610.581Z" fill="#CCCFD0"/>
</g>
<path opacity="0.6" d="M146.827 643.581C146.684 643.442 146.571 643.276 146.494 643.093C146.417 642.909 146.377 642.713 146.377 642.514C146.377 642.315 146.417 642.118 146.494 641.935C146.571 641.752 146.684 641.586 146.827 641.447C146.963 641.306 147.126 641.193 147.306 641.116C147.487 641.04 147.681 641 147.877 641C148.073 641 148.267 641.04 148.448 641.116C148.628 641.193 148.791 641.306 148.927 641.447C149.069 641.586 149.183 641.752 149.26 641.935C149.337 642.118 149.377 642.315 149.377 642.514C149.377 642.713 149.337 642.909 149.26 643.093C149.183 643.276 149.069 643.442 148.927 643.581C148.644 643.85 148.268 644 147.877 644C147.486 644 147.11 643.85 146.827 643.581Z" fill="#CCCFD0"/>
<g opacity="0.32">
<path style="mix-blend-mode:screen" opacity="0.32" d="M933.351 550.99C1034.7 449.646 1034.7 285.339 933.362 184C832.024 82.6622 667.717 82.6676 566.373 184.012C465.028 285.357 465.023 449.663 566.361 551.002C667.699 652.34 832.006 652.335 933.351 550.99Z" fill="url(#paint0_radial)"/>
<path style="mix-blend-mode:color-dodge" opacity="0.32" d="M964.551 362.276C964.551 404.655 951.984 446.083 928.439 481.321C904.894 516.558 871.429 544.022 832.275 560.24C793.122 576.458 750.038 580.702 708.473 572.434C666.907 564.166 628.727 543.758 598.76 513.791C568.793 483.824 548.385 445.644 540.117 404.079C531.849 362.513 536.093 319.43 552.311 280.276C568.529 241.122 595.993 207.657 631.231 184.112C666.468 160.567 707.896 148 750.276 148C807.105 148 861.607 170.576 901.791 210.76C941.976 250.945 964.551 305.446 964.551 362.276V362.276Z" fill="url(#paint1_radial)"/>
</g>
<path opacity="0.06" d="M750.655 577C868.844 577 964.655 481.189 964.655 363C964.655 244.811 868.844 149 750.655 149C632.466 149 536.655 244.811 536.655 363C536.655 481.189 632.466 577 750.655 577Z" fill="white"/>
<path opacity="0.06" d="M749.877 627C893.195 627 1009.38 510.818 1009.38 367.5C1009.38 224.182 893.195 108 749.877 108C606.559 108 490.377 224.182 490.377 367.5C490.377 510.818 606.559 627 749.877 627Z" fill="white"/>
<path opacity="0.06" d="M918.655 363C918.655 396.227 908.802 428.708 890.342 456.336C871.882 483.963 845.644 505.496 814.946 518.212C784.248 530.927 750.469 534.254 717.88 527.772C685.291 521.29 655.356 505.289 631.861 481.794C608.366 458.299 592.366 428.364 585.883 395.775C579.401 363.186 582.728 329.407 595.443 298.709C608.159 268.011 629.692 241.773 657.32 223.313C684.947 204.853 717.428 195 750.655 195C795.212 195 837.943 212.7 869.449 244.206C900.955 275.712 918.655 318.444 918.655 363Z" fill="white"/>
<path d="M871.619 271.659C859.021 255.343 843.214 241.782 825.173 231.813C807.132 221.844 787.24 215.679 766.725 213.698C746.21 211.717 725.506 213.963 705.892 220.295C686.278 226.628 668.169 236.914 652.684 250.518C637.198 264.123 624.663 280.758 615.853 299.396C607.043 318.034 602.145 338.28 601.46 358.885C600.776 379.49 604.32 400.016 611.874 419.198C619.427 438.38 630.83 455.81 645.379 470.413C651.192 476.153 657.455 481.417 664.108 486.156C693.535 507.04 729.467 516.689 765.394 513.354C801.321 510.018 834.865 493.919 859.946 467.974C885.027 442.029 899.987 407.954 902.114 371.925C904.241 335.897 893.395 300.298 871.54 271.58L871.619 271.659Z" fill="url(#paint2_linear)"/>
<path opacity="0.67" d="M983.377 375.5C983.377 378.566 982.439 381.562 980.68 384.111C978.922 386.66 976.423 388.647 973.5 389.82C970.576 390.993 967.359 391.3 964.255 390.702C961.152 390.104 958.301 388.628 956.063 386.46C953.826 384.293 952.302 381.531 951.684 378.524C951.067 375.517 951.384 372.401 952.595 369.568C953.806 366.736 955.857 364.315 958.488 362.612C961.119 360.909 964.213 360 967.377 360C971.62 360 975.69 361.633 978.691 364.54C981.691 367.447 983.377 371.389 983.377 375.5Z" fill="#339DCC"/>
<path d="M902.376 364.45C902.392 325.654 887.587 288.328 861.007 260.155C834.427 231.982 798.096 215.106 759.491 213L735.283 235.472C735.283 235.472 723.691 245.521 728.58 253.276C733.469 261.03 752.867 244.334 743.01 295.846C733.153 347.358 783.936 342.611 783.936 342.611C783.936 342.611 835.191 338.813 823.363 398C815.478 437.563 848.518 451.252 871.701 456C882.413 441.864 890.579 425.957 895.831 408.998C900.229 394.563 902.435 379.545 902.376 364.45Z" fill="url(#paint3_linear)"/>
<path d="M746.598 459.835C750.674 446.884 750.674 433.008 746.598 420.056C739.5 401.469 712.811 398.23 712.811 398.23C712.811 398.23 691.517 397.104 685.697 378.728C679.876 360.352 653.329 360.986 653.329 360.986L635.655 360C638.895 388.933 651.475 416.052 671.518 437.316C691.562 458.58 717.997 472.851 746.882 478C745.598 472.021 745.502 465.851 746.598 459.835Z" fill="url(#paint4_linear)"/>
<g style="mix-blend-mode:multiply" opacity="0.15">
<path d="M871.49 272.701L867.548 268C879.776 298.11 881.853 331.35 873.467 362.733C865.08 394.116 846.683 421.95 821.035 442.06C795.387 462.169 763.871 473.471 731.214 474.268C698.557 475.066 666.521 465.316 639.91 446.483C633.203 441.79 626.902 436.548 621.072 430.813C617.683 427.443 614.451 423.918 611.377 420.314C619.018 439.173 630.443 456.288 644.955 470.615C650.794 476.309 657.066 481.548 663.715 486.285C693.19 507.073 729.182 516.677 765.168 513.357C801.154 510.036 834.753 494.012 859.876 468.187C884.999 442.361 899.983 408.444 902.114 372.582C904.244 336.72 893.38 301.286 871.49 272.701Z" fill="#230753"/>
</g>
<g style="mix-blend-mode:multiply" opacity="0.15">
<path d="M976.828 363C978.257 365.406 978.997 368.163 978.967 370.966C979.047 373.986 978.272 376.966 976.731 379.56C975.191 382.154 972.949 384.254 970.266 385.615C967.584 386.976 964.571 387.542 961.581 387.247C958.591 386.952 955.745 385.809 953.377 383.95C954.628 385.823 956.261 387.408 958.168 388.6C960.074 389.791 962.21 390.561 964.435 390.86C966.66 391.159 968.923 390.979 971.073 390.332C973.224 389.685 975.213 388.586 976.909 387.108C978.606 385.63 979.97 383.806 980.913 381.758C981.855 379.71 982.354 377.483 982.376 375.227C982.398 372.97 981.944 370.734 981.042 368.668C980.14 366.601 978.812 364.751 977.145 363.239L976.828 363Z" fill="#230753"/>
</g>
<path d="M882.513 625.238C998.033 531.958 887.352 433.65 817.571 396.155C1011.24 496.289 974.829 613.296 932.417 659.283L856.508 724.705L739.402 683.5C777.877 656.5 766.994 718.517 882.513 625.238Z" fill="#D9D9D9"/>
<path d="M889.46 629.085C1004.98 535.806 894.298 437.497 824.517 400.003C1018.18 500.137 981.775 617.144 939.363 663.131L863.454 728.553L820.402 723.5C728.402 682 773.941 722.365 889.46 629.085Z" fill="white"/>
<path d="M881.385 429.967C907.34 446.755 964.18 496.565 983.902 561.5C982.918 537.999 961.036 478.792 881.385 429.967Z" fill="white"/>
<path d="M819.553 395.288C827.138 398.777 847.498 409.204 868.258 423C860.702 416.772 840.382 402.511 819.553 395.288Z" fill="white"/>
<path d="M796.043 402.639C800.813 405.894 802.871 404.54 803.304 403.456C807.988 393.923 809.592 389.566 813.975 380.4C815.698 376.795 811.716 374.722 809.509 374.136L798.467 372.118C793.141 370.936 780.68 368.257 773.445 366.998C764.4 365.424 759.863 366.006 757.937 368.829C756.397 371.087 763.601 378.055 767.396 381.257C774.957 387.028 791.272 399.385 796.043 402.639Z" fill="white"/>
<path d="M804.518 371.461C802.548 370.468 804.198 368.466 805.269 367.589C810.257 368.362 820.644 370.275 822.287 371.747C823.93 373.218 822.335 375.141 821.332 375.918C816.548 374.846 806.488 372.454 804.518 371.461Z" fill="white"/>
<path d="M806.999 412.171C802.296 408.67 792.762 401.581 792.246 401.229C789.226 399.003 790.079 403.481 790.883 405.998L804.873 415.981C808.854 416.243 807.949 413.55 806.999 412.171Z" fill="white"/>
<path d="M812.635 396.288C810.563 395.167 806.057 392.765 804.603 392.124L806.256 386.237L814.729 391.14C820.785 396.675 815.856 396.878 812.635 396.288Z" fill="white"/>
<path d="M604.586 481.101L605.2 480.578L638.165 527.897C638.694 528.774 637.784 529.457 637.114 528.622L604.586 481.101Z" fill="white"/>
<path d="M603.828 481.118L604.442 480.595L637.407 527.914C637.935 528.791 637.44 529.193 636.77 528.358L603.828 481.118Z" fill="#CCCFD0"/>
<circle cx="597.492" cy="478.221" r="14.5832" transform="rotate(55.0633 597.492 478.221)" fill="white"/>
<g style="mix-blend-mode:multiply" opacity="0.15">
<path d="M611.63 474.523L611.44 473.972C611.507 477.066 610.571 480.1 608.773 482.62C606.974 485.139 604.411 487.007 601.466 487.945C598.521 488.883 595.355 488.839 592.441 487.82C589.527 486.801 587.023 484.862 585.305 482.294C584.87 481.651 584.49 480.973 584.168 480.267C583.981 479.853 583.814 479.431 583.664 479.007C583.704 480.944 584.138 482.852 584.938 484.614C585.263 485.317 585.641 485.994 586.069 486.638C587.975 489.476 590.833 491.534 594.126 492.439C597.419 493.345 600.929 493.037 604.02 491.572C607.11 490.107 609.577 487.582 610.973 484.454C612.37 481.327 612.603 477.804 611.63 474.523Z" fill="#230753"/>
</g>
<path d="M596.515 485.819L597.033 485.047L644.298 568.822C645.211 570.148 644.246 570.926 643.319 569.433L596.515 485.819Z" fill="white"/>
<path d="M595.762 485.526L596.281 484.754L643.545 568.528C644.333 570.067 643.91 570.658 642.982 569.166L595.762 485.526Z" fill="#CCCFD0"/>
<path d="M585.681 492.845L586.453 492.609L597.609 549.626C597.74 550.649 596.879 551.106 596.602 550.064L585.681 492.845Z" fill="white"/>
<path d="M584.776 492.315L585.573 492.079L597.265 549.832C597.403 550.867 596.767 551.039 596.478 549.984L584.776 492.315Z" fill="#CCCFD0"/>
<path d="M593.643 481.993L595.927 480.979L598.622 488.407C598.556 488.868 598.205 489.596 597.326 488.813C596.447 488.031 594.504 483.941 593.643 481.993Z" fill="#9D9D9D"/>
<path d="M586.486 492.811C586.486 492.811 585.77 487.589 585.716 486.949L584.779 482.925L582.98 483.111L583.434 485.467C583.625 486.414 584.009 488.407 584.017 488.8C584.026 489.193 584.337 489.575 584.491 489.716L584.923 493.072L586.486 492.811Z" fill="#9D9D9D"/>
<path d="M617.036 474.545L617.383 473.97L655.826 502.228C656.473 502.774 656.143 503.58 655.395 503.105L617.036 474.545Z" fill="white"/>
<path d="M608.997 469.16L612.259 470.824L655.458 502.349C656.105 502.894 655.82 503.343 655.072 502.868L608.997 469.16Z" fill="#CCCFD0"/>
<path d="M606.348 468.159L607.961 466.175C609.162 466.943 612.098 469.166 613.25 469.958C614.401 470.75 614.562 471.48 614.499 471.746L617.504 474.101L616.888 475.02L606.348 468.159Z" fill="#9D9D9D"/>
<path d="M606.585 468.629L602.083 465.04L606.354 464.966L608.273 466.285L606.585 468.629Z" fill="#C4C4C4"/>
<path d="M585.805 482.73L583.394 476.601L582.256 480.772L583.076 483.286L585.805 482.73Z" fill="#C4C4C4"/>
<path d="M593.538 481.903L596.102 480.719L594.793 477.616L591.766 475.074L591.929 479.549L593.538 481.903Z" fill="#C4C4C4"/>
<path d="M643.214 214.983L643.287 215.783L585.492 215.119C584.469 215.04 584.198 214.108 585.269 214.049L643.214 214.983Z" fill="white"/>
<path d="M643.913 214.208L643.982 215.033L585.361 214.741C584.324 214.666 584.285 214.012 585.372 213.944L643.913 214.208Z" fill="#CCCFD0"/>
<path d="M644.476 216.811L644.921 217.48L593.807 244.462C592.871 244.88 592.188 244.191 593.101 243.628L644.476 216.811Z" fill="white"/>
<path d="M644.721 215.798L645.175 216.49L593.513 244.194C592.566 244.623 592.219 244.066 593.142 243.488L644.721 215.798Z" fill="#CCCFD0"/>
<path d="M683.751 199.023L683.258 198.39L732.249 167.72C733.152 167.234 733.884 167.872 733.015 168.5L683.751 199.023Z" fill="white"/>
<path d="M683.581 200.051L683.078 199.394L732.562 167.966C733.475 167.468 733.861 167.998 732.984 168.642L683.581 200.051Z" fill="#CCCFD0"/>
<path d="M688.828 205.111L688.841 204.308L746.235 211.136C747.244 211.323 747.414 212.279 746.343 212.223L688.828 205.111Z" fill="white"/>
<path d="M688.053 205.807L688.073 204.979L746.328 211.525C747.351 211.71 747.32 212.364 746.232 212.316L688.053 205.807Z" fill="#CCCFD0"/>
<path d="M673.005 184.667L672.84 184.314L699.028 176.315C699.502 176.204 699.779 176.588 699.305 176.769L673.005 184.667Z" fill="white"/>
<path d="M680.799 224.063L680.66 223.699L707.359 217.622C707.841 217.546 708.088 217.949 707.603 218.095L680.799 224.063Z" fill="white"/>
<path d="M672.817 185.12L672.649 184.755L699.148 176.467C699.628 176.352 699.754 176.644 699.275 176.831L672.817 185.12Z" fill="#CCCFD0"/>
<path d="M680.581 224.502L680.441 224.126L707.471 217.785C707.958 217.705 708.063 218.005 707.571 218.157L680.581 224.502Z" fill="#CCCFD0"/>
<circle cx="696.388" cy="198.516" r="4.13328" transform="rotate(-50.1077 696.388 198.516)" fill="white"/>
<path d="M695.827 194.631L673.879 180.49L687.416 225.442L697.945 202.314L695.827 194.631Z" fill="#CCCFD0"/>
<path d="M680.596 228.412C676.725 227.542 673.047 227.226 673.047 227.226C676.275 209.69 674.82 199.013 661.361 187.763L666.269 185.821C667.603 182.863 671.223 177.506 675.03 179.742C679.788 182.538 685.705 187.877 689.445 198.493C693.185 209.109 690.868 221.626 688.023 225.029C685.748 227.752 684.467 229.283 680.596 228.412Z" fill="white"/>
<path d="M678.582 229.095C674.711 228.224 671.033 227.909 671.033 227.909C674.26 210.372 672.805 199.695 659.346 188.445L664.254 186.504C665.588 183.545 669.208 178.188 673.015 180.424C677.774 183.22 683.69 188.56 687.43 199.175C691.17 209.791 688.854 222.308 686.009 225.711C683.733 228.434 682.453 229.965 678.582 229.095Z" fill="#DEE4E6"/>
<circle cx="640.616" cy="215.095" r="25.2029" transform="rotate(-50.1077 640.616 215.095)" fill="white"/>
<path d="M664.708 210.28L663.952 210.549L650.243 154.4C650.066 153.39 650.901 152.896 651.224 153.918L664.708 210.28Z" fill="white"/>
<path d="M665.633 210.766L664.851 211.037L650.577 154.18C650.391 153.157 651.015 152.957 651.352 153.992L665.633 210.766Z" fill="#CCCFD0"/>
<path d="M662.062 205.668L661.277 205.838L679.172 260.796C679.552 261.749 680.523 261.73 680.259 260.69L662.062 205.668Z" fill="white"/>
<path d="M662.593 204.77L661.786 204.951L679.572 260.809C679.953 261.777 680.589 261.618 680.329 260.561L662.593 204.77Z" fill="#CCCFD0"/>
<path d="M666.582 211.515L665.93 211.983L637.226 161.815C636.776 160.894 637.442 160.188 638.036 161.081L666.582 211.515Z" fill="white"/>
<path d="M667.605 211.725L666.928 212.202L637.486 161.511C637.025 160.579 637.569 160.214 638.178 161.117L667.605 211.725Z" fill="#CCCFD0"/>
<path d="M663.006 203.635L662.205 203.58L664.201 261.345C664.304 262.365 665.241 262.615 665.276 261.543L663.006 203.635Z" fill="white"/>
<path d="M663.763 202.919L662.937 202.869L664.58 261.467C664.678 262.502 665.333 262.526 665.377 261.438L663.763 202.919Z" fill="#CCCFD0"/>
<g style="mix-blend-mode:multiply" opacity="0.06">
<path d="M621.908 230.42C620.248 226.561 619.683 222.317 620.277 218.155C620.748 213.649 622.487 209.368 625.291 205.814C628.096 202.259 631.85 199.576 636.115 198.078C640.381 196.581 644.983 196.33 649.384 197.355C653.785 198.38 657.803 200.639 660.971 203.868C659.472 200.836 657.347 198.159 654.738 196.013C652.129 193.868 649.094 192.303 645.835 191.423C642.577 190.542 639.168 190.366 635.835 190.906C632.502 191.446 629.321 192.69 626.503 194.555C623.685 196.42 621.293 198.864 619.487 201.725C617.681 204.586 616.502 207.799 616.027 211.15C615.553 214.501 615.793 217.915 616.734 221.165C617.674 224.415 619.293 227.427 621.482 230.002L621.908 230.42Z" fill="#230753"/>
</g>
<path d="M659.797 187.903L653.181 193.146C664.484 204.303 663.716 208.522 662.511 228.669C664.851 228.699 667.554 229.364 671.056 228.192C673.995 222.633 674.526 212.566 672.281 203.463C670.485 196.18 663.21 190.055 659.797 187.903Z" fill="white"/>
<circle cx="653.406" cy="190.049" r="3.02435" transform="rotate(-50.1077 653.406 190.049)" fill="#C4C4C4"/>
<g style="mix-blend-mode:multiply" opacity="0.15">
<path d="M651.302 192.03C651.095 191.549 651.024 191.019 651.098 190.499C651.157 189.937 651.374 189.402 651.724 188.959C652.074 188.515 652.543 188.18 653.075 187.993C653.608 187.806 654.182 187.775 654.732 187.903C655.281 188.031 655.783 188.313 656.178 188.716C655.991 188.337 655.726 188.003 655.4 187.735C655.074 187.468 654.696 187.272 654.289 187.162C653.882 187.052 653.457 187.03 653.04 187.098C652.624 187.165 652.227 187.32 651.876 187.553C651.524 187.786 651.225 188.091 651 188.448C650.774 188.805 650.627 189.206 650.568 189.625C650.509 190.043 650.539 190.469 650.656 190.875C650.773 191.281 650.976 191.657 651.249 191.978L651.302 192.03Z" fill="#230753"/>
</g>
<g style="mix-blend-mode:multiply" opacity="0.15">
<path d="M651.302 192.03C651.095 191.549 651.024 191.019 651.098 190.499C651.157 189.937 651.374 189.402 651.724 188.959C652.074 188.515 652.543 188.18 653.075 187.993C653.608 187.806 654.182 187.775 654.732 187.903C655.281 188.031 655.783 188.313 656.178 188.716C655.991 188.337 655.726 188.003 655.4 187.735C655.074 187.468 654.696 187.272 654.289 187.162C653.882 187.052 653.457 187.03 653.04 187.098C652.624 187.165 652.227 187.32 651.876 187.553C651.524 187.786 651.225 188.091 651 188.448C650.774 188.805 650.627 189.206 650.568 189.625C650.509 190.043 650.539 190.469 650.656 190.875C650.773 191.281 650.976 191.657 651.249 191.978L651.302 192.03Z" fill="#230753"/>
</g>
<circle cx="657.666" cy="189.668" r="3.02435" transform="rotate(-50.1077 657.666 189.668)" fill="#C4C4C4"/>
<circle cx="660.448" cy="193.569" r="3.02435" transform="rotate(-50.1077 660.448 193.569)" fill="#C4C4C4"/>
<circle cx="663.152" cy="198.195" r="3.02435" transform="rotate(-50.1077 663.152 198.195)" fill="#C4C4C4"/>
<circle cx="665.131" cy="202.742" r="3.02435" transform="rotate(-50.1077 665.131 202.742)" fill="#C4C4C4"/>
<circle cx="666.131" cy="207.518" r="3.02435" transform="rotate(-50.1077 666.131 207.518)" fill="#C4C4C4"/>
<circle cx="666.769" cy="213.045" r="3.02435" transform="rotate(-50.1077 666.769 213.045)" fill="#C4C4C4"/>
<circle cx="666.246" cy="218.388" r="3.02435" transform="rotate(-50.1077 666.246 218.388)" fill="#C4C4C4"/>
<circle cx="666.159" cy="223.834" r="3.02435" transform="rotate(-50.1077 666.159 223.834)" fill="#C4C4C4"/>
<circle cx="664.215" cy="229.304" r="3.02435" transform="rotate(-50.1077 664.215 229.304)" fill="#C4C4C4"/>
<g style="mix-blend-mode:multiply" opacity="0.15">
<path d="M655.562 191.648C655.355 191.167 655.284 190.637 655.358 190.117C655.417 189.555 655.634 189.021 655.984 188.577C656.334 188.133 656.803 187.798 657.335 187.611C657.868 187.424 658.442 187.393 658.992 187.521C659.541 187.649 660.043 187.931 660.438 188.334C660.251 187.956 659.986 187.621 659.66 187.353C659.334 187.086 658.955 186.89 658.549 186.78C658.142 186.671 657.716 186.649 657.3 186.716C656.884 186.783 656.487 186.939 656.135 187.171C655.784 187.404 655.485 187.709 655.26 188.066C655.034 188.424 654.887 188.825 654.828 189.243C654.768 189.661 654.798 190.087 654.916 190.493C655.033 190.899 655.235 191.275 655.509 191.596L655.562 191.648Z" fill="#230753"/>
</g>
<g style="mix-blend-mode:multiply" opacity="0.15">
<path d="M658.344 195.551C658.137 195.069 658.066 194.539 658.14 194.02C658.199 193.457 658.416 192.923 658.766 192.479C659.116 192.035 659.585 191.701 660.117 191.514C660.65 191.327 661.224 191.295 661.774 191.423C662.323 191.551 662.825 191.833 663.22 192.236C663.033 191.858 662.768 191.524 662.442 191.256C662.116 190.988 661.738 190.793 661.331 190.683C660.924 190.573 660.499 190.551 660.082 190.618C659.666 190.686 659.269 190.841 658.918 191.074C658.566 191.307 658.267 191.612 658.042 191.969C657.816 192.326 657.669 192.727 657.61 193.145C657.551 193.564 657.581 193.99 657.698 194.396C657.815 194.801 658.018 195.177 658.291 195.499L658.344 195.551Z" fill="#230753"/>
</g>
<g style="mix-blend-mode:multiply" opacity="0.15">
<path d="M661.048 200.176C660.84 199.694 660.77 199.164 660.844 198.645C660.903 198.082 661.12 197.548 661.47 197.104C661.82 196.66 662.289 196.326 662.821 196.139C663.354 195.952 663.928 195.92 664.477 196.048C665.027 196.176 665.528 196.458 665.924 196.861C665.737 196.483 665.471 196.149 665.146 195.881C664.82 195.613 664.441 195.418 664.034 195.308C663.628 195.198 663.202 195.176 662.786 195.243C662.37 195.311 661.973 195.466 661.621 195.699C661.269 195.932 660.971 196.237 660.745 196.594C660.52 196.951 660.373 197.352 660.314 197.77C660.254 198.189 660.284 198.615 660.402 199.021C660.519 199.426 660.721 199.802 660.994 200.124L661.048 200.176Z" fill="#230753"/>
</g>
<g style="mix-blend-mode:multiply" opacity="0.15">
<path d="M662.9 205.878C662.692 205.396 662.622 204.866 662.696 204.347C662.755 203.784 662.972 203.25 663.322 202.806C663.672 202.363 664.141 202.028 664.673 201.841C665.206 201.654 665.78 201.623 666.329 201.75C666.879 201.878 667.38 202.16 667.776 202.563C667.589 202.185 667.323 201.851 666.998 201.583C666.672 201.315 666.293 201.12 665.886 201.01C665.48 200.9 665.054 200.878 664.638 200.945C664.222 201.013 663.825 201.168 663.473 201.401C663.121 201.634 662.823 201.939 662.597 202.296C662.372 202.653 662.225 203.054 662.166 203.472C662.106 203.891 662.136 204.317 662.254 204.723C662.371 205.128 662.573 205.504 662.846 205.826L662.9 205.878Z" fill="#230753"/>
</g>
<g style="mix-blend-mode:multiply" opacity="0.15">
<path d="M664.026 209.5C663.819 209.018 663.748 208.488 663.823 207.969C663.881 207.406 664.098 206.872 664.448 206.428C664.799 205.985 665.267 205.65 665.8 205.463C666.332 205.276 666.907 205.245 667.456 205.373C668.005 205.5 668.507 205.782 668.902 206.186C668.715 205.807 668.45 205.473 668.124 205.205C667.799 204.937 667.42 204.742 667.013 204.632C666.606 204.522 666.181 204.5 665.765 204.568C665.349 204.635 664.951 204.79 664.6 205.023C664.248 205.256 663.949 205.561 663.724 205.918C663.499 206.275 663.351 206.676 663.292 207.095C663.233 207.513 663.263 207.939 663.38 208.345C663.498 208.75 663.7 209.126 663.973 209.448L664.026 209.5Z" fill="#230753"/>
</g>
<g style="mix-blend-mode:multiply" opacity="0.15">
<path d="M664.665 215.025C664.458 214.543 664.388 214.013 664.462 213.494C664.52 212.931 664.738 212.397 665.088 211.953C665.438 211.51 665.906 211.175 666.439 210.988C666.971 210.801 667.546 210.769 668.095 210.897C668.644 211.025 669.146 211.307 669.541 211.71C669.354 211.332 669.089 210.998 668.763 210.73C668.438 210.462 668.059 210.267 667.652 210.157C667.245 210.047 666.82 210.025 666.404 210.092C665.988 210.16 665.591 210.315 665.239 210.548C664.887 210.781 664.589 211.086 664.363 211.443C664.138 211.8 663.99 212.201 663.931 212.619C663.872 213.038 663.902 213.464 664.019 213.87C664.137 214.275 664.339 214.651 664.612 214.973L664.665 215.025Z" fill="#230753"/>
</g>
<g style="mix-blend-mode:multiply" opacity="0.15">
<path d="M664.141 220.369C663.934 219.887 663.863 219.357 663.937 218.838C663.996 218.275 664.213 217.741 664.563 217.297C664.913 216.853 665.382 216.518 665.914 216.332C666.447 216.145 667.021 216.113 667.571 216.241C668.12 216.369 668.622 216.651 669.017 217.054C668.83 216.676 668.565 216.342 668.239 216.074C667.913 215.806 667.534 215.611 667.128 215.501C666.721 215.391 666.295 215.369 665.879 215.436C665.463 215.504 665.066 215.659 664.714 215.892C664.363 216.125 664.064 216.43 663.839 216.787C663.613 217.144 663.466 217.545 663.407 217.963C663.348 218.382 663.378 218.808 663.495 219.213C663.612 219.619 663.814 219.995 664.088 220.316L664.141 220.369Z" fill="#230753"/>
</g>
<g style="mix-blend-mode:multiply" opacity="0.15">
<path d="M664.055 225.815C663.848 225.334 663.778 224.804 663.852 224.284C663.911 223.722 664.128 223.188 664.478 222.744C664.828 222.3 665.296 221.965 665.829 221.778C666.361 221.591 666.936 221.56 667.485 221.688C668.035 221.816 668.536 222.098 668.932 222.501C668.744 222.123 668.479 221.788 668.154 221.52C667.828 221.253 667.449 221.057 667.042 220.947C666.635 220.838 666.21 220.816 665.794 220.883C665.378 220.95 664.981 221.106 664.629 221.338C664.277 221.571 663.979 221.876 663.753 222.233C663.528 222.591 663.381 222.992 663.321 223.41C663.262 223.828 663.292 224.254 663.41 224.66C663.527 225.066 663.729 225.442 664.002 225.763L664.055 225.815Z" fill="#230753"/>
</g>
<g style="mix-blend-mode:multiply" opacity="0.15">
<path d="M661.98 231.439C661.772 230.958 661.702 230.428 661.776 229.908C661.835 229.346 662.052 228.812 662.402 228.368C662.752 227.924 663.221 227.589 663.753 227.402C664.286 227.215 664.86 227.184 665.41 227.312C665.959 227.44 666.46 227.722 666.856 228.125C666.669 227.747 666.404 227.412 666.078 227.145C665.752 226.877 665.373 226.681 664.967 226.571C664.56 226.462 664.134 226.44 663.718 226.507C663.302 226.574 662.905 226.73 662.553 226.962C662.202 227.195 661.903 227.5 661.678 227.857C661.452 228.215 661.305 228.616 661.246 229.034C661.186 229.452 661.216 229.878 661.334 230.284C661.451 230.69 661.653 231.066 661.927 231.387L661.98 231.439Z" fill="#230753"/>
</g>
<ellipse cx="643.646" cy="202.025" rx="8.87142" ry="14.4161" transform="rotate(-82.3732 643.646 202.025)" fill="#DEE4E5"/>
<path d="M650.329 231.704C654.097 218.111 650.725 207.728 639.307 196.623L650.834 197.03L654.273 197.174C655.822 198.686 659.495 203.23 661.795 209.312C664.095 215.394 662.408 224.036 661.277 227.597L650.329 231.704Z" fill="#DEE4E5"/>
<ellipse cx="648.344" cy="228.165" rx="8.87142" ry="14.4161" transform="rotate(-111.335 648.344 228.165)" fill="#DEE4E5"/>
<ellipse cx="648.8" cy="229.111" rx="3.24877" ry="5.27925" transform="rotate(-111.335 648.8 229.111)" fill="#C4C4C4"/>
<path d="M991.412 281.411L985.55 280.12L977.784 302.594L983.243 303.569L991.412 281.411Z" fill="#F2F2F2"/>
<path d="M985.047 279.915L979.267 278.575L971.332 301.423L976.791 302.398L985.047 279.915Z" fill="#F2F2F2"/>
<path d="M978.681 278.419L972.801 277.192L964.744 300.495L970.203 301.47L978.681 278.419Z" fill="#F2F2F2"/>
<path d="M925.112 267.441L919.464 266.145L918.673 287.671L924.058 288.907L925.112 267.441Z" fill="#F2F2F2"/>
<path d="M931.236 268.776L925.588 267.48L924.796 289.006L930.182 290.242L931.236 268.776Z" fill="#F2F2F2"/>
<path d="M937.543 270.225L931.895 268.929L930.741 290.204L936.488 291.691L937.543 270.225Z" fill="#F2F2F2"/>
<path d="M1009.47 274.247L1000.32 271.991L1007.36 225.306L1015.16 226.653L1009.47 274.247Z" fill="white"/>
<path d="M1025.23 228.848L1018.63 227.22L1012.94 274.596L1020.71 276.514L1025.23 228.848Z" fill="#E0E0E0"/>
<path d="M1041.74 231.801L1034.81 230.093L1030.45 277.22L1038.49 279.202L1041.74 231.801Z" fill="white"/>
<path d="M1051.88 234.736L1045.1 232.775L1041.95 280.779L1049.47 282.633L1051.88 234.736Z" fill="#E0E0E0"/>
<path d="M1007.45 286.744L1000.52 282.589L992.203 349.061L1000.35 352.392L1007.45 286.744Z" fill="white"/>
<path d="M1018.45 291.683L1011.07 288.096L1004.5 352.892L1012.39 356.309L1018.45 291.683Z" fill="#E0E0E0"/>
<path d="M1037.28 293.741L1031.13 290.103L1026 356.125L1033.71 359.647L1037.28 293.741Z" fill="white"/>
<path d="M1047.33 298.809L1041 295.275L1037.68 360.252L1045.33 363.449L1047.33 298.809Z" fill="#E0E0E0"/>
<path d="M917.5 207.432L926.718 209.078L906.213 249.556L895.92 246.798L917.5 207.432Z" fill="white"/>
<path d="M930.298 210.339L939.31 212.753L920.091 251.916L909.485 250.008L930.298 210.339Z" fill="#E0E0E0"/>
<path d="M901.215 202.645L910.475 204.192L890.418 245.551L879.956 243.03L901.215 202.645Z" fill="#E0E0E0"/>
<path d="M889.119 199.959L898.337 201.605L876.961 242.481L865.462 240.111L889.119 199.959Z" fill="white"/>
<path d="M874.031 255.817L882.959 260.289L853.687 313.965L842.674 310.133L874.031 255.817Z" fill="#E0E0E0"/>
<path d="M904.571 263.727L914.273 268.469L889.959 322.833L879.248 318.596L904.571 263.727Z" fill="#E0E0E0"/>
<path d="M860.715 250.516L869.585 255.102L838.834 308.518L827.966 305.016L860.715 250.516Z" fill="white"/>
<path d="M891.24 257.907L900.98 262.489L875.224 317.679L864.351 313.503L891.24 257.907Z" fill="white"/>
<path d="M839.085 309.468L872.847 250.777C874.186 250.156 875.234 250.955 875.59 251.432L841.976 310.159C841.854 310.339 841.52 310.755 841.153 310.981C840.694 311.263 839.914 310.92 839.3 310.538C838.808 310.233 838.952 309.698 839.085 309.468Z" fill="white"/>
<path d="M875.56 318.169L904.099 256.767C905.379 256.033 906.492 256.738 906.888 257.182L878.5 318.605C878.395 318.795 878.097 319.239 877.751 319.496C877.318 319.817 876.511 319.543 875.867 319.216C875.351 318.954 875.447 318.409 875.56 318.169Z" fill="white"/>
<path d="M904.201 254.367L927.373 210.126C928.367 209.627 929.201 210.181 929.494 210.52L906.437 254.783C906.352 254.919 906.115 255.236 905.845 255.414C905.507 255.636 904.897 255.408 904.412 255.147C904.024 254.938 904.11 254.54 904.201 254.367Z" fill="white"/>
<path d="M875.264 246.613L898.435 202.371C899.429 201.872 900.263 202.426 900.556 202.766L877.499 247.029C877.415 247.165 877.178 247.482 876.908 247.659C876.57 247.881 875.96 247.654 875.475 247.393C875.086 247.184 875.172 246.786 875.264 246.613Z" fill="white"/>
<path d="M1017.67 227.415C1017.31 226.116 1016.12 226.53 1015.58 226.9L1009.55 276.865L1012.17 277.51C1013.92 261.394 1017.49 228.814 1017.67 227.415Z" fill="white"/>
<path d="M1044.49 232.697C1043.91 231.4 1042.6 231.748 1042.01 232.084L1038.62 285.296L1040.96 286.162C1042.11 268.912 1044.43 234.067 1044.49 232.697Z" fill="white"/>
<path d="M1037.23 360.514C1036.33 360.886 1034.64 360.075 1034.02 359.652L1038.14 285.393L1040.01 279.539L1040.92 286.14C1039.67 309.675 1037.19 359.522 1037.23 360.514Z" fill="white"/>
<path d="M1003.94 353.815C1003.03 354.143 1001.38 353.251 1000.77 352.797L1008.52 278.829L1010.68 273.073L1011.26 279.711C1008.86 303.156 1003.95 352.823 1003.94 353.815Z" fill="white"/>
<rect x="956.33" y="247.808" width="16.338" height="56.1978" rx="8.16902" transform="rotate(16.6145 956.33 247.808)" fill="#F4F4F4"/>
<rect x="944.131" y="278.503" width="22.8783" height="30.4586" rx="7" transform="rotate(16.6145 944.131 278.503)" fill="#F4F4F4"/>
<rect x="963.829" y="232.981" width="11.5616" height="25.7371" rx="5.78081" transform="rotate(18.4732 963.829 232.981)" fill="#F4F4F4"/>
<rect x="966.865" y="233.743" width="5.11238" height="2.20735" rx="1.10368" transform="rotate(18.4732 966.865 233.743)" fill="white"/>
<rect x="992.73" y="246.43" width="10.0457" height="49.6778" rx="5.02284" transform="rotate(107.309 992.73 246.43)" fill="#F4F4F4"/>
<ellipse cx="954.221" cy="236.418" rx="0.955169" ry="7.18254" transform="rotate(-71.762 954.221 236.418)" fill="#DEE4E5"/>
<ellipse cx="966.389" cy="259.555" rx="2.52015" ry="4.79948" transform="rotate(-164.535 966.389 259.555)" fill="#DEE4E5"/>
<path d="M872.671 245.478L1046.11 286.3C1046.11 286.3 1046.81 287.117 1046.59 288.94C1046.33 291.011 1045.41 292.231 1045.41 292.231L870.578 253.289C870.578 253.289 869.309 251.828 869.93 249.137C870.55 246.446 872.671 245.478 872.671 245.478Z" fill="#C4C4C4"/>
<path d="M873.218 243.701L1046.65 284.523C1046.65 284.523 1047.36 285.34 1047.13 287.162C1046.87 289.233 1045.96 290.453 1045.96 290.453L871.125 251.511C871.125 251.511 869.857 250.051 870.477 247.36C871.097 244.669 873.218 243.701 873.218 243.701Z" fill="#DEE4E5"/>
<path d="M873.543 243.831L1046.58 284.489C1046.58 284.489 1046.73 284.818 1046.82 285.488C1046.93 286.25 1046.92 286.676 1046.92 286.676L872.633 245.987C872.633 245.987 872.279 245.344 872.414 244.396C872.55 243.448 873.543 243.831 873.543 243.831Z" fill="white"/>
<ellipse cx="969.424" cy="245.442" rx="1.11566" ry="6.65455" transform="rotate(-164.535 969.424 245.442)" fill="#DEE4E5"/>
<path d="M704.048 547.966C704.399 548.938 704.456 549.992 704.21 550.995C703.964 551.999 703.426 552.907 702.665 553.606C701.904 554.305 700.953 554.763 699.932 554.922C698.911 555.081 697.866 554.935 696.928 554.502C695.99 554.068 695.201 553.367 694.661 552.486C694.12 551.605 693.853 550.585 693.892 549.552C693.93 548.519 694.274 547.521 694.878 546.684C695.483 545.846 696.322 545.206 697.29 544.844C697.939 544.601 698.629 544.49 699.321 544.516C700.012 544.542 700.692 544.705 701.321 544.995C701.949 545.285 702.514 545.698 702.982 546.208C703.45 546.718 703.812 547.315 704.048 547.966Z" fill="#05E0E9" stroke="white" stroke-width="2" stroke-miterlimit="10"/>
<path d="M892.33 491.483C870.329 520.983 842.234 540.62 809.877 551.438C777.52 562.256 740.339 562.073 704.543 550.921" stroke="white" stroke-miterlimit="10" stroke-linecap="round"/>
<path d="M598.876 256C576.161 285.995 568.837 306.16 562.876 339.5C556.915 372.84 563.087 417.451 580.375 441.501" stroke="white" stroke-miterlimit="10" stroke-linecap="round"/>
<path d="M593.423 253.058C570.708 283.052 562.206 305.495 556.245 338.834C550.285 372.174 556.96 419.963 574.248 444.013" stroke="white" stroke-miterlimit="10" stroke-linecap="round"/>
<path d="M769.377 175C808.377 177 833.877 187.5 866.377 211.413" stroke="white" stroke-linecap="round" stroke-linejoin="round"/>
<path d="M767.377 182C806.377 184 830.877 193.589 863.377 217.502" stroke="white" stroke-linecap="round" stroke-linejoin="round"/>
<path d="M770.377 168.5C809.377 170.5 836.877 180.59 869.377 204.503" stroke="white" stroke-linecap="round" stroke-linejoin="round"/>
<path fill-rule="evenodd" clip-rule="evenodd" d="M787.174 150.896C787.816 150.978 788.472 151.02 789.139 151.02C797.002 151.02 803.377 145.139 803.377 137.884C803.377 130.842 797.371 125.095 789.828 124.763C787.573 121.909 783.173 119.971 778.116 119.971C776.514 119.971 774.978 120.166 773.556 120.522C771.56 119.184 768.985 118.379 766.173 118.379C763.049 118.379 760.216 119.374 758.146 120.988C755.773 119.849 752.828 119.175 749.639 119.175C745.197 119.175 741.23 120.483 738.619 122.533C737.802 122.419 736.962 122.359 736.105 122.359C727.971 122.359 721.377 127.706 721.377 134.301C721.377 135.609 721.636 136.867 722.115 138.045C721.794 139.009 721.622 140.022 721.622 141.068C721.622 144.049 723.016 146.767 725.304 148.815L708.377 174L734.346 152.547C734.844 152.59 735.349 152.612 735.86 152.612C736.853 152.612 737.822 152.529 738.757 152.373C741.217 154.015 744.367 155 747.802 155C750.491 155 753.005 154.396 755.151 153.346C757.296 154.396 759.811 155 762.499 155C765.535 155 768.348 154.23 770.659 152.918C772.617 153.74 774.84 154.204 777.197 154.204C781.083 154.204 784.605 152.942 787.174 150.896Z" fill="white"/>
<path d="M729.869 132.2H731.689V140.46H736.813V142H729.869V132.2ZM745.041 138.304C745.041 138.425 745.032 138.598 745.013 138.822H739.147C739.25 139.373 739.516 139.811 739.945 140.138C740.384 140.455 740.925 140.614 741.569 140.614C742.391 140.614 743.067 140.343 743.599 139.802L744.537 140.88C744.201 141.281 743.777 141.585 743.263 141.79C742.75 141.995 742.171 142.098 741.527 142.098C740.706 142.098 739.983 141.935 739.357 141.608C738.732 141.281 738.247 140.829 737.901 140.25C737.565 139.662 737.397 138.999 737.397 138.262C737.397 137.534 737.561 136.881 737.887 136.302C738.223 135.714 738.685 135.257 739.273 134.93C739.861 134.603 740.524 134.44 741.261 134.44C741.989 134.44 742.638 134.603 743.207 134.93C743.786 135.247 744.234 135.7 744.551 136.288C744.878 136.867 745.041 137.539 745.041 138.304ZM741.261 135.84C740.701 135.84 740.225 136.008 739.833 136.344C739.451 136.671 739.217 137.109 739.133 137.66H743.375C743.301 137.119 743.072 136.68 742.689 136.344C742.307 136.008 741.831 135.84 741.261 135.84ZM751.216 141.594C751.011 141.762 750.759 141.888 750.46 141.972C750.171 142.056 749.863 142.098 749.536 142.098C748.715 142.098 748.08 141.883 747.632 141.454C747.184 141.025 746.96 140.399 746.96 139.578V135.98H745.728V134.58H746.96V132.872H748.71V134.58H750.712V135.98H748.71V139.536C748.71 139.9 748.799 140.18 748.976 140.376C749.154 140.563 749.41 140.656 749.746 140.656C750.138 140.656 750.465 140.553 750.726 140.348L751.216 141.594ZM753.23 131.514C753.556 131.514 753.827 131.621 754.042 131.836C754.256 132.051 754.364 132.326 754.364 132.662C754.364 132.83 754.34 132.993 754.294 133.152C754.256 133.311 754.177 133.549 754.056 133.866L753.328 135.854H752.194L752.754 133.698C752.548 133.623 752.385 133.497 752.264 133.32C752.152 133.133 752.096 132.914 752.096 132.662C752.096 132.326 752.203 132.051 752.418 131.836C752.632 131.621 752.903 131.514 753.23 131.514ZM758.151 142.098C757.545 142.098 756.952 142.019 756.373 141.86C755.795 141.701 755.333 141.501 754.987 141.258L755.659 139.928C755.995 140.152 756.397 140.334 756.863 140.474C757.339 140.605 757.806 140.67 758.263 140.67C759.309 140.67 759.831 140.395 759.831 139.844C759.831 139.583 759.696 139.401 759.425 139.298C759.164 139.195 758.739 139.097 758.151 139.004C757.535 138.911 757.031 138.803 756.639 138.682C756.257 138.561 755.921 138.351 755.631 138.052C755.351 137.744 755.211 137.319 755.211 136.778C755.211 136.069 755.505 135.504 756.093 135.084C756.691 134.655 757.493 134.44 758.501 134.44C759.015 134.44 759.528 134.501 760.041 134.622C760.555 134.734 760.975 134.888 761.301 135.084L760.629 136.414C759.995 136.041 759.281 135.854 758.487 135.854C757.974 135.854 757.582 135.933 757.311 136.092C757.05 136.241 756.919 136.442 756.919 136.694C756.919 136.974 757.059 137.175 757.339 137.296C757.629 137.408 758.072 137.515 758.669 137.618C759.267 137.711 759.757 137.819 760.139 137.94C760.522 138.061 760.849 138.267 761.119 138.556C761.399 138.845 761.539 139.256 761.539 139.788C761.539 140.488 761.236 141.048 760.629 141.468C760.023 141.888 759.197 142.098 758.151 142.098ZM774.336 134.524V140.866C774.336 143.498 772.992 144.814 770.304 144.814C769.585 144.814 768.904 144.721 768.26 144.534C767.616 144.357 767.084 144.095 766.664 143.75L767.448 142.434C767.774 142.705 768.185 142.919 768.68 143.078C769.184 143.246 769.692 143.33 770.206 143.33C771.027 143.33 771.629 143.143 772.012 142.77C772.394 142.397 772.586 141.827 772.586 141.062V140.67C772.287 140.997 771.923 141.244 771.494 141.412C771.064 141.58 770.593 141.664 770.08 141.664C769.37 141.664 768.726 141.515 768.148 141.216C767.578 140.908 767.126 140.479 766.79 139.928C766.463 139.377 766.3 138.747 766.3 138.038C766.3 137.329 766.463 136.703 766.79 136.162C767.126 135.611 767.578 135.187 768.148 134.888C768.726 134.589 769.37 134.44 770.08 134.44C770.621 134.44 771.111 134.529 771.55 134.706C771.998 134.883 772.371 135.154 772.67 135.518V134.524H774.336ZM770.346 140.18C771.008 140.18 771.55 139.984 771.97 139.592C772.399 139.191 772.614 138.673 772.614 138.038C772.614 137.413 772.399 136.904 771.97 136.512C771.55 136.12 771.008 135.924 770.346 135.924C769.674 135.924 769.123 136.12 768.694 136.512C768.274 136.904 768.064 137.413 768.064 138.038C768.064 138.673 768.274 139.191 768.694 139.592C769.123 139.984 769.674 140.18 770.346 140.18ZM779.996 142.098C779.24 142.098 778.559 141.935 777.952 141.608C777.346 141.281 776.87 140.829 776.524 140.25C776.188 139.662 776.02 138.999 776.02 138.262C776.02 137.525 776.188 136.867 776.524 136.288C776.87 135.709 777.346 135.257 777.952 134.93C778.559 134.603 779.24 134.44 779.996 134.44C780.762 134.44 781.448 134.603 782.054 134.93C782.661 135.257 783.132 135.709 783.468 136.288C783.814 136.867 783.986 137.525 783.986 138.262C783.986 138.999 783.814 139.662 783.468 140.25C783.132 140.829 782.661 141.281 782.054 141.608C781.448 141.935 780.762 142.098 779.996 142.098ZM779.996 140.6C780.64 140.6 781.172 140.385 781.592 139.956C782.012 139.527 782.222 138.962 782.222 138.262C782.222 137.562 782.012 136.997 781.592 136.568C781.172 136.139 780.64 135.924 779.996 135.924C779.352 135.924 778.82 136.139 778.4 136.568C777.99 136.997 777.784 137.562 777.784 138.262C777.784 138.962 777.99 139.527 778.4 139.956C778.82 140.385 779.352 140.6 779.996 140.6ZM785.436 132.2H787.508L787.158 138.752H785.772L785.436 132.2ZM786.472 142.098C786.145 142.098 785.874 141.995 785.66 141.79C785.445 141.575 785.338 141.314 785.338 141.006C785.338 140.698 785.445 140.441 785.66 140.236C785.874 140.031 786.145 139.928 786.472 139.928C786.789 139.928 787.05 140.031 787.256 140.236C787.47 140.441 787.578 140.698 787.578 141.006C787.578 141.314 787.47 141.575 787.256 141.79C787.05 141.995 786.789 142.098 786.472 142.098ZM789.332 132.2H791.404L791.054 138.752H789.668L789.332 132.2ZM790.368 142.098C790.042 142.098 789.771 141.995 789.556 141.79C789.342 141.575 789.234 141.314 789.234 141.006C789.234 140.698 789.342 140.441 789.556 140.236C789.771 140.031 790.042 139.928 790.368 139.928C790.686 139.928 790.947 140.031 791.152 140.236C791.367 140.441 791.474 140.698 791.474 141.006C791.474 141.314 791.367 141.575 791.152 141.79C790.947 141.995 790.686 142.098 790.368 142.098ZM793.229 132.2H795.301L794.951 138.752H793.565L793.229 132.2ZM794.265 142.098C793.938 142.098 793.667 141.995 793.453 141.79C793.238 141.575 793.131 141.314 793.131 141.006C793.131 140.698 793.238 140.441 793.453 140.236C793.667 140.031 793.938 139.928 794.265 139.928C794.582 139.928 794.843 140.031 795.049 140.236C795.263 140.441 795.371 140.698 795.371 141.006C795.371 141.314 795.263 141.575 795.049 141.79C794.843 141.995 794.582 142.098 794.265 142.098Z" fill="#272727"/>
<defs>
<radialGradient id="paint0_radial" cx="0" cy="0" r="1" gradientUnits="userSpaceOnUse" gradientTransform="translate(189770 177123) scale(18590.6)">
<stop stop-color="white"/>
<stop offset="0.56" stop-color="#4072B6"/>
<stop offset="0.6" stop-color="#31588D"/>
<stop offset="0.63" stop-color="#244167"/>
<stop offset="0.68" stop-color="#192D47"/>
<stop offset="0.72" stop-color="#101C2D"/>
<stop offset="0.77" stop-color="#091019"/>
<stop offset="0.82" stop-color="#04070B"/>
<stop offset="0.89" stop-color="#010202"/>
<stop offset="1"/>
</radialGradient>
<radialGradient id="paint1_radial" cx="0" cy="0" r="1" gradientUnits="userSpaceOnUse" gradientTransform="translate(156833 146318) scale(12963.7)">
<stop stop-color="white"/>
<stop offset="0.56" stop-color="#4072B6"/>
<stop offset="0.6" stop-color="#31588D"/>
<stop offset="0.63" stop-color="#244167"/>
<stop offset="0.68" stop-color="#192D47"/>
<stop offset="0.72" stop-color="#101C2D"/>
<stop offset="0.77" stop-color="#091019"/>
<stop offset="0.82" stop-color="#04070B"/>
<stop offset="0.89" stop-color="#010202"/>
<stop offset="1"/>
</radialGradient>
<linearGradient id="paint2_linear" x1="600.761" y1="363.283" x2="902.545" y2="363.283" gradientUnits="userSpaceOnUse">
<stop stop-color="#00FFDF"/>
<stop offset="1" stop-color="#379FCD"/>
</linearGradient>
<linearGradient id="paint3_linear" x1="64423.9" y1="82378.6" x2="68307.1" y2="82378.6" gradientUnits="userSpaceOnUse">
<stop stop-color="#41FFE7"/>
<stop offset="1" stop-color="#00C3D4"/>
</linearGradient>
<linearGradient id="paint4_linear" x1="40017" y1="41940.8" x2="41850.1" y2="41940.8" gradientUnits="userSpaceOnUse">
<stop stop-color="#00FFDF"/>
<stop offset="1" stop-color="#00C3D4"/>
</linearGradient>
</defs>
</svg>
