<svg width="2048" height="391" viewBox="0 0 2048 391" fill="none" xmlns="http://www.w3.org/2000/svg">
<g clip-path="url(#clip0)">
<path d="M854.679 -157.147C1022.91 -535.114 435.792 -626.599 101 -591.795C1020.41 -696.486 1144.67 -330.102 1112.07 -167.125L1011.78 89.7506L850.155 148.506C428.471 210.752 686.452 220.819 854.679 -157.147Z" fill="white"/>
<path d="M668.468 111.048C664.532 112.83 661.384 115.925 659.716 119.652C658.115 117.414 655.919 115.614 653.312 114.403C650.706 113.192 647.765 112.605 644.736 112.691C641.707 112.777 638.679 113.534 635.906 114.899C633.133 116.263 630.695 118.195 628.798 120.532C625.829 117.037 622.01 114.252 617.607 112.37C613.204 110.488 608.321 109.554 603.298 109.634C598.275 109.713 593.232 110.803 588.518 112.828C583.804 114.853 579.531 117.766 575.997 121.363C575.633 120.56 575.372 119.71 575.008 118.907C572.406 113.174 568.264 108.245 562.942 104.547C557.62 100.849 551.279 98.4955 544.47 97.6898C537.661 96.8841 530.59 97.6511 523.872 99.924C517.154 102.197 510.992 105.907 505.921 110.732C503.46 107.233 500.114 104.373 496.138 102.369C492.161 100.364 487.658 99.2682 482.971 99.1634C478.283 99.0585 473.535 99.9478 469.085 101.764C464.635 103.58 460.602 106.275 457.29 109.644C452.326 103.054 445.026 98.329 436.488 96.1783C427.949 94.0277 418.63 94.5672 409.931 97.716C401.232 100.865 393.621 106.453 388.239 113.642C382.858 120.831 379.997 129.234 380.086 137.589C375.462 139.784 371.402 142.966 368.275 146.846C364.108 144.014 359.095 142.333 353.753 141.974C348.411 141.615 342.932 142.592 337.88 144.804C332.828 147.016 328.385 150.384 325.01 154.56C321.634 158.737 319.448 163.571 318.675 168.566C314.319 167.158 309.573 166.748 304.817 167.367C300.061 167.986 295.428 169.617 291.289 172.13C287.15 174.644 283.621 177.969 280.985 181.838C278.349 185.708 276.68 190.014 276.111 194.412C274.468 193.699 272.654 193.318 270.78 193.291C268.906 193.264 267.01 193.593 265.21 194.256C263.409 194.92 261.742 195.905 260.308 197.152C258.875 198.398 257.706 199.879 256.874 201.505C257.042 199.772 256.728 198.069 255.961 196.558C255.195 195.047 254.001 193.78 252.495 192.877C250.99 191.974 249.222 191.467 247.362 191.402C245.502 191.338 243.612 191.72 241.872 192.511L240.979 192.916C241.049 191.334 240.715 189.793 240.004 188.417C239.294 187.041 238.227 185.869 236.889 184.995C235.551 184.121 233.98 183.569 232.302 183.385C230.625 183.201 228.888 183.389 227.232 183.934C228.32 181.52 228.42 178.896 227.512 176.584C226.603 174.272 224.752 172.44 222.327 171.452C219.901 170.463 217.077 170.389 214.415 171.246C211.753 172.103 209.448 173.827 207.955 176.077C206.301 174.708 204.201 173.858 201.917 173.633C199.634 173.407 197.268 173.817 195.114 174.81C192.96 175.803 191.114 177.335 189.806 179.217C188.498 181.098 187.786 183.244 187.758 185.388C186.249 184.73 184.559 184.428 182.827 184.505C181.095 184.583 179.37 185.039 177.795 185.836C176.219 186.633 174.837 187.748 173.763 189.09C172.688 190.431 171.952 191.961 171.614 193.554L170.578 194.024C169.327 193.323 167.906 192.885 166.407 192.74C164.909 192.595 163.365 192.745 161.876 193.181C160.386 193.617 158.984 194.329 157.759 195.271C156.534 196.212 155.514 197.364 154.764 198.651C153.137 197.586 151.172 197.002 149.1 196.966C147.027 196.93 144.933 197.444 143.062 198.448C141.191 199.452 139.622 200.903 138.538 202.633C137.454 204.363 136.901 206.298 136.943 208.213C135.023 208.025 133.036 208.323 131.19 209.076C129.344 209.828 127.705 211.007 126.446 212.491C125.186 213.975 124.351 215.709 124.027 217.512C123.704 219.315 123.904 221.122 124.606 222.744C123.716 222.932 122.844 223.216 122.009 223.59C120.323 224.358 118.832 225.486 117.67 226.871C116.509 228.256 115.713 229.856 115.354 231.527C114.995 233.198 115.085 234.888 115.614 236.445C116.144 238.002 117.097 239.377 118.389 240.448L117.547 240.83C115.879 241.587 114.401 242.696 113.244 244.059C112.086 245.422 111.284 246.998 110.909 248.648C110.534 250.297 110.597 251.971 111.092 253.52C111.587 255.07 112.499 256.448 113.748 257.534C113.163 257.699 112.59 257.908 112.034 258.159C109.333 259.384 107.174 261.51 106.032 264.07C104.889 266.63 104.858 269.413 105.944 271.808C106.223 272.415 106.568 272.991 106.973 273.527C104.57 273.521 102.15 274.109 99.9632 275.233C97.7763 276.356 95.9016 277.972 94.5322 279.916C89.2337 277.126 82.9657 276.029 76.6126 276.781C70.2595 277.533 64.1422 280.095 59.1237 284.105C58.8427 283.033 58.478 281.987 58.0323 280.976C56.4006 277.344 53.7114 274.267 50.2392 272.057C46.767 269.848 42.6362 268.587 38.2685 268.401C33.9007 268.216 29.4525 269.114 25.378 271.003C21.3034 272.892 17.7485 275.705 15.076 279.155C9.60718 274.34 2.46802 271.39 -5.32205 270.726C-13.1121 270.061 -21.1547 271.716 -28.3015 275.454C-35.4484 279.193 -41.3339 284.823 -45.1177 291.541C-48.9016 298.26 -50.3902 305.723 -49.3712 312.864C-54.5612 312.876 -59.782 314.124 -64.5338 316.487C-69.2856 318.85 -73.4093 322.251 -76.51 326.363C-79.6107 330.475 -81.5846 335.16 -82.2427 339.971L105.944 298L232.302 328.68L581.824 170.166C586.491 172.567 591.819 173.841 597.359 173.878C602.899 173.916 608.488 172.718 613.656 170.383C618.824 168.049 623.42 164.647 627.056 160.465C630.691 156.283 633.261 151.442 634.547 146.352C636.996 147.37 639.706 147.856 642.487 147.775C645.268 147.695 648.051 147.049 650.639 145.884C653.227 144.72 655.557 143.065 657.463 141.037C659.37 139.008 660.806 136.656 661.671 134.147C663.47 136.188 665.899 137.67 668.683 138.425C671.468 139.18 674.497 139.178 677.429 138.419C680.36 137.661 683.078 136.176 685.273 134.133C687.469 132.09 689.056 129.569 689.854 126.857C690.652 124.144 690.63 121.347 689.79 118.783C688.951 116.218 687.327 113.987 685.103 112.343C682.878 110.698 680.141 109.705 677.202 109.477C674.262 109.248 671.237 109.792 668.468 111.048Z" fill="#D9D9D9"/>
<path d="M928.483 76.558C925.539 61.9525 918.99 47.923 910.08 37.1342C901.171 26.3454 890.521 19.5488 880.153 18.0354C869.786 16.522 860.424 20.3972 853.844 28.9249C847.265 37.4525 843.927 50.0388 844.464 64.2929C838.653 55.4167 831.455 48.5464 823.825 44.5932C816.194 40.64 808.49 39.7907 801.736 42.1577C801.008 42.4132 800.28 42.6687 799.606 43.0357C791.864 29.9338 782.087 19.2744 771.443 12.3316C760.8 5.38883 749.74 2.45632 739.586 3.88469C729.432 5.31305 720.613 11.0418 714.184 20.3862C707.755 29.7307 703.987 42.2954 703.331 56.5787C697.415 54.5555 691.613 54.4304 686.392 56.2133C681.17 57.9962 676.675 61.6374 673.268 66.8441C669.86 72.0508 667.636 78.6777 666.773 86.1918C665.91 93.7059 666.433 101.898 668.3 110.108C659.976 104.422 651.243 102.435 643.525 104.47C635.807 106.505 629.559 112.442 625.8 121.314C619.468 115.507 612.556 111.845 605.798 110.716C599.04 109.587 592.69 111.034 587.42 114.902C582.151 118.77 578.16 124.915 575.871 132.685C573.582 140.455 573.081 149.559 574.421 159.031C566.816 152.705 558.643 149.018 550.784 148.367C542.926 147.717 535.682 150.13 529.837 155.343C522.234 145.491 513.177 138.468 503.942 135.262C494.706 132.056 485.758 132.829 478.358 137.473C467.585 129.383 456.057 126.652 446.112 129.832C436.167 133.012 428.552 141.865 424.811 154.596C416.861 153.904 409.534 156.342 403.639 161.639C397.745 166.936 393.512 174.888 391.409 184.614C384.743 176.19 376.991 169.909 368.99 166.446C360.989 162.983 353.04 162.469 346 164.961L345.737 165.053C336.238 149.671 323.974 138.015 311.019 132.055C298.064 126.096 285.213 126.199 274.64 132.347C264.067 138.496 256.421 150.312 252.995 165.798C249.569 181.284 250.574 199.488 255.84 217.331C255.175 217.564 254.497 217.802 253.82 218.04C247.151 220.364 241.442 225.116 237.171 231.898C232.9 238.68 230.193 247.293 229.276 257.015C228.359 266.736 229.26 277.281 231.903 287.765C234.546 298.248 238.854 308.364 244.464 317.262C250.074 326.16 256.824 333.581 264.145 338.901C271.467 344.221 279.147 347.285 286.54 347.835C293.933 348.386 300.823 346.407 306.632 342.064C312.441 337.722 316.999 331.143 319.923 322.88L511.966 255.476C520.635 256.794 528.679 254.455 535.066 248.757C541.829 257.537 549.766 264.097 557.98 267.695C566.193 271.293 574.356 271.785 581.546 269.118C588.735 266.45 594.664 260.727 598.663 252.598C602.661 244.468 604.57 234.255 604.172 223.113L655.628 205.053C663.293 209.06 671.039 209.931 677.825 207.549C684.611 205.168 690.113 199.647 693.592 191.728L824.917 145.635C833.987 147.342 842.298 144.425 848.311 137.424L875.156 128.002C884.155 134.937 893.786 138.046 902.563 136.85C902.969 138.206 903.386 139.556 903.861 140.909C907.23 150.457 912.265 159.2 918.396 166.15C924.527 173.101 931.511 177.982 938.559 180.245C945.608 182.507 952.44 182.059 958.286 178.953C964.132 175.846 968.759 170.204 971.644 162.664C974.53 155.123 975.559 145.983 974.615 136.276C973.672 126.569 970.794 116.681 966.306 107.727C961.818 98.7733 955.898 91.1104 949.215 85.603C942.532 80.0955 935.351 76.9627 928.483 76.558Z" fill="white"/>
<path d="M928.483 76.558C925.539 61.9525 918.99 47.923 910.08 37.1342C901.171 26.3454 890.521 19.5488 880.153 18.0354C869.786 16.522 860.424 20.3972 853.844 28.9249C847.265 37.4525 843.927 50.0388 844.464 64.2929C838.653 55.4167 831.455 48.5464 823.825 44.5932C816.194 40.64 808.49 39.7907 801.736 42.1577C801.008 42.4132 800.28 42.6687 799.606 43.0357C791.864 29.9338 782.087 19.2744 771.443 12.3316C760.8 5.38883 749.74 2.45632 739.586 3.88469C729.432 5.31305 720.613 11.0418 714.184 20.3862C707.755 29.7307 703.987 42.2954 703.331 56.5787C697.415 54.5555 691.613 54.4304 686.392 56.2133C681.17 57.9962 676.675 61.6374 673.268 66.8441C669.86 72.0508 667.636 78.6777 666.773 86.1918C665.91 93.7059 666.433 101.898 668.3 110.108C659.976 104.422 651.243 102.435 643.525 104.47C635.807 106.505 629.559 112.442 625.8 121.314C619.468 115.507 612.556 111.845 605.798 110.716C599.04 109.587 592.69 111.034 587.42 114.902C582.151 118.77 578.16 124.915 575.871 132.685C573.582 140.455 573.081 149.559 574.421 159.031C566.816 152.705 558.643 149.018 550.784 148.367C542.926 147.717 535.682 150.13 529.837 155.343C522.234 145.491 513.177 138.468 503.942 135.262C494.706 132.056 485.758 132.829 478.358 137.473C467.585 129.383 456.057 126.652 446.112 129.832C436.167 133.012 428.552 141.865 424.811 154.596C416.861 153.904 409.534 156.342 403.639 161.639C397.745 166.936 393.512 174.888 391.409 184.614C384.743 176.19 376.991 169.909 368.99 166.446C360.989 162.983 353.04 162.469 346 164.961L345.737 165.053C336.238 149.671 323.974 138.015 311.019 132.055C298.064 126.096 285.213 126.199 274.64 132.347C264.067 138.496 256.421 150.312 252.995 165.798C249.569 181.284 250.574 199.488 255.84 217.331C255.175 217.564 254.497 217.802 253.82 218.04C247.151 220.364 241.442 225.116 237.171 231.898C232.9 238.68 230.193 247.293 229.276 257.015C228.359 266.736 229.26 277.281 231.903 287.765C234.546 298.248 238.854 308.364 244.464 317.262C250.074 326.16 256.824 333.581 264.145 338.901C271.467 344.221 279.147 347.285 286.54 347.835C293.933 348.386 300.823 346.407 306.632 342.064C312.441 337.722 316.999 331.143 319.923 322.88L511.966 255.476C520.635 256.794 528.679 254.455 535.066 248.757C541.829 257.537 549.766 264.097 557.98 267.695C566.193 271.293 574.356 271.785 581.546 269.118C588.735 266.45 594.664 260.727 598.663 252.598C602.661 244.468 604.57 234.255 604.172 223.113L655.628 205.053C663.293 209.06 671.039 209.931 677.825 207.549C684.611 205.168 690.113 199.647 693.592 191.728L824.917 145.635C833.987 147.342 842.298 144.425 848.311 137.424L875.156 128.002C884.155 134.937 893.786 138.046 902.563 136.85C902.969 138.206 903.386 139.556 903.861 140.909C907.23 150.457 912.265 159.2 918.396 166.15C924.527 173.101 931.511 177.982 938.559 180.245C945.608 182.507 952.44 182.059 958.286 178.953C964.132 175.846 968.759 170.204 971.644 162.664C974.53 155.123 975.559 145.983 974.615 136.276C973.672 126.569 970.794 116.681 966.306 107.727C961.818 98.7733 955.898 91.1104 949.215 85.603C942.532 80.0955 935.351 76.9627 928.483 76.558Z" fill="white"/>
<path d="M836.046 269.524C838.12 278.385 837.449 287.791 834.16 295.955C830.871 304.12 825.193 310.474 818.204 313.812C811.216 317.15 803.404 317.238 796.252 314.061C789.1 310.883 783.107 304.66 779.41 296.575C777.792 302.926 774.606 308.492 770.275 312.534C765.944 316.575 760.673 318.902 755.16 319.205C754.566 319.237 753.971 319.27 753.383 319.227C751.593 328.402 747.646 336.703 742.014 343.138C736.382 349.573 729.305 353.869 721.627 355.513C713.949 357.158 705.995 356.081 698.717 352.411C691.439 348.741 685.144 342.634 680.584 334.819C676.929 337.371 672.811 338.836 668.562 339.096C664.314 339.357 660.053 338.405 656.123 336.318C652.193 334.232 648.703 331.068 645.933 327.081C643.164 323.094 641.193 318.396 640.178 313.364C635.848 318.539 630.165 321.749 624.057 322.469C617.949 323.189 611.776 321.377 606.545 317.329C603.674 322.093 599.775 325.8 595.261 328.055C590.746 330.31 585.786 331.03 580.906 330.138C576.026 329.246 571.409 326.775 567.546 322.989C563.682 319.202 560.717 314.241 558.964 308.632C555.331 313.991 550.536 318.015 545.096 320.268C539.656 322.52 533.78 322.916 528.103 321.412C525.481 328.739 521.008 334.837 515.315 338.847C509.622 342.857 502.994 344.578 496.367 343.766C490.971 350.871 483.501 355.168 475.471 355.785C467.441 356.401 459.454 353.291 453.131 347.084C447.637 349.382 441.694 349.784 435.957 348.244C430.221 346.705 424.914 343.284 420.624 338.361C418.263 344.666 414.513 350.036 409.776 353.893C405.04 357.75 399.497 359.948 393.744 360.251L393.528 360.262C391.133 371.132 385.691 380.588 378.123 387.03C370.555 393.472 361.326 396.504 351.996 395.615C342.667 394.725 333.81 389.968 326.923 382.148C320.037 374.328 315.544 363.926 314.204 352.7C313.661 352.729 313.108 352.759 312.554 352.79C307.115 353.096 301.667 351.817 296.668 349.058C291.669 346.3 287.264 342.143 283.824 336.937C280.385 331.731 278.01 325.628 276.9 319.141C275.79 312.654 275.978 305.972 277.446 299.656C278.915 293.34 281.622 287.575 285.34 282.845C289.058 278.115 293.678 274.558 298.813 272.473C303.948 270.387 309.448 269.835 314.85 270.862C320.251 271.889 325.398 274.465 329.857 278.374L486.638 269.817C492.466 266.996 498.895 266.368 505.098 268.012C507.426 261.485 511.229 255.915 516.079 251.932C520.929 247.948 526.632 245.71 532.542 245.47C538.453 245.231 544.336 246.999 549.526 250.575C554.717 254.152 559.007 259.393 561.913 265.708L603.921 263.415C608.261 259.335 613.556 256.986 619.096 256.684C624.636 256.382 630.156 258.14 634.914 261.724L742.126 255.872C748.13 252.738 754.914 252.367 761.224 254.829L783.139 253.633C787.596 247.598 793.6 243.547 800.226 242.103C800.128 241.249 800.041 240.395 799.993 239.526C799.671 233.386 800.772 227.295 803.171 221.942C805.57 216.588 809.171 212.183 813.57 209.226C817.968 206.268 822.987 204.875 828.062 205.203C833.136 205.531 838.064 207.568 842.289 211.083C846.514 214.598 849.867 219.452 851.971 225.097C854.076 230.742 854.847 236.954 854.197 243.031C853.548 249.108 851.505 254.809 848.297 259.49C845.09 264.171 840.846 267.647 836.046 269.524Z" fill="white"/>
<path d="M836.046 269.524C838.12 278.385 837.449 287.791 834.16 295.955C830.871 304.12 825.193 310.474 818.204 313.812C811.216 317.15 803.404 317.238 796.252 314.061C789.1 310.883 783.107 304.66 779.41 296.575C777.792 302.926 774.606 308.492 770.275 312.534C765.944 316.575 760.673 318.902 755.16 319.205C754.566 319.237 753.971 319.27 753.383 319.227C751.593 328.402 747.646 336.703 742.014 343.138C736.382 349.573 729.305 353.869 721.627 355.513C713.949 357.158 705.995 356.081 698.717 352.411C691.439 348.741 685.144 342.634 680.584 334.819C676.929 337.371 672.811 338.836 668.562 339.096C664.314 339.357 660.053 338.405 656.123 336.318C652.193 334.232 648.703 331.068 645.933 327.081C643.164 323.094 641.193 318.396 640.178 313.364C635.848 318.539 630.165 321.749 624.057 322.469C617.949 323.189 611.776 321.377 606.545 317.329C603.674 322.093 599.775 325.8 595.261 328.055C590.746 330.31 585.786 331.03 580.906 330.138C576.026 329.246 571.409 326.775 567.546 322.989C563.682 319.202 560.717 314.241 558.964 308.632C555.331 313.991 550.536 318.015 545.096 320.268C539.656 322.52 533.78 322.916 528.103 321.412C525.481 328.739 521.008 334.837 515.315 338.847C509.622 342.857 502.994 344.578 496.367 343.766C490.971 350.871 483.501 355.168 475.471 355.785C467.441 356.401 459.454 353.291 453.131 347.084C447.637 349.382 441.694 349.784 435.957 348.244C430.221 346.705 424.914 343.284 420.624 338.361C418.263 344.666 414.513 350.036 409.776 353.893C405.04 357.75 399.497 359.948 393.744 360.251L393.528 360.262C391.133 371.132 385.691 380.588 378.123 387.03C370.555 393.472 361.326 396.504 351.996 395.615C342.667 394.725 333.81 389.968 326.923 382.148C320.037 374.328 315.544 363.926 314.204 352.7C313.661 352.729 313.108 352.759 312.554 352.79C307.115 353.096 301.667 351.817 296.668 349.058C291.669 346.3 287.264 342.143 283.824 336.937C280.385 331.731 278.01 325.628 276.9 319.141C275.79 312.654 275.978 305.972 277.446 299.656C278.915 293.34 281.622 287.575 285.34 282.845C289.058 278.115 293.678 274.558 298.813 272.473C303.948 270.387 309.448 269.835 314.85 270.862C320.251 271.889 325.398 274.465 329.857 278.374L486.638 269.817C492.466 266.996 498.895 266.368 505.098 268.012C507.426 261.485 511.229 255.915 516.079 251.932C520.929 247.948 526.632 245.71 532.542 245.47C538.453 245.231 544.336 246.999 549.526 250.575C554.717 254.152 559.007 259.393 561.913 265.708L603.921 263.415C608.261 259.335 613.556 256.986 619.096 256.684C624.636 256.382 630.156 258.14 634.914 261.724L742.126 255.872C748.13 252.738 754.914 252.367 761.224 254.829L783.139 253.633C787.596 247.598 793.6 243.547 800.226 242.103C800.128 241.249 800.041 240.395 799.993 239.526C799.671 233.386 800.772 227.295 803.171 221.942C805.57 216.588 809.171 212.183 813.57 209.226C817.968 206.268 822.987 204.875 828.062 205.203C833.136 205.531 838.064 207.568 842.289 211.083C846.514 214.598 849.867 219.452 851.971 225.097C854.076 230.742 854.847 236.954 854.197 243.031C853.548 249.108 851.505 254.809 848.297 259.49C845.09 264.171 840.846 267.647 836.046 269.524Z" fill="white"/>
<path d="M1495.02 274.822C1497.31 279.593 1495.71 284.622 1490.52 288.953C1485.33 293.284 1476.92 296.616 1466.87 298.316C1456.83 300.016 1445.87 299.965 1436.05 298.174C1426.24 296.382 1418.27 292.975 1413.65 288.598C1410.93 291.98 1406.07 294.92 1399.71 297.031C1393.35 299.141 1385.79 300.321 1378.03 300.414C1377.19 300.424 1376.36 300.434 1375.53 300.403C1372.38 305.294 1366.26 309.69 1357.9 313.066C1349.55 316.441 1339.31 318.654 1328.42 319.438C1317.53 320.222 1306.45 319.546 1296.49 317.489C1286.54 315.433 1278.13 312.083 1272.28 307.841C1266.98 309.162 1261.09 309.895 1255.11 309.981C1249.13 310.067 1243.22 309.504 1237.85 308.337C1232.49 307.171 1227.81 305.432 1224.2 303.263C1220.6 301.093 1218.16 298.552 1217.09 295.845C1210.65 298.562 1202.45 300.209 1193.83 300.518C1185.21 300.828 1176.67 299.78 1169.62 297.547C1165.25 300.062 1159.52 301.998 1153.03 303.149C1146.54 304.3 1139.52 304.623 1132.74 304.085C1125.95 303.546 1119.65 302.165 1114.49 300.089C1109.34 298.012 1105.53 295.318 1103.46 292.292C1097.99 295.117 1090.97 297.212 1083.18 298.35C1075.39 299.488 1067.12 299.626 1059.26 298.75C1055.06 302.641 1048.36 305.85 1040.09 307.927C1031.82 310.003 1022.4 310.841 1013.15 310.323C1005.08 314.061 994.298 316.269 982.987 316.498C971.676 316.727 960.687 314.962 952.25 311.559C944.38 312.72 936.012 312.861 928.07 311.965C920.128 311.068 912.922 309.17 907.247 306.48C903.492 309.826 897.852 312.655 890.935 314.662C884.018 316.668 876.085 317.775 867.99 317.865L867.688 317.869C863.563 323.66 855.263 328.656 844.191 332.011C833.119 335.366 819.955 336.874 806.925 336.281C793.896 335.688 781.801 333.029 772.687 328.755C763.573 324.481 757.999 318.853 756.907 312.825C756.143 312.834 755.365 312.843 754.586 312.852C746.932 312.948 739.377 312.194 732.555 310.655C725.734 309.115 719.845 306.833 715.384 304.002C710.923 301.171 708.019 297.873 706.918 294.385C705.816 290.897 706.548 287.321 709.052 283.957C711.556 280.593 715.76 277.54 721.309 275.053C726.859 272.566 733.592 270.719 740.944 269.667C748.296 268.615 756.052 268.388 763.56 269.006C771.068 269.623 778.109 271.067 784.092 273.217L1004.69 270.599C1013.07 269.162 1022.14 268.906 1030.73 269.864C1034.45 266.398 1040.18 263.463 1047.26 261.39C1054.35 259.317 1062.51 258.19 1070.82 258.136C1079.13 258.082 1087.26 259.103 1094.29 261.083C1101.33 263.063 1106.98 265.924 1110.61 269.342L1169.72 268.641C1176.1 266.51 1183.69 265.319 1191.49 265.226C1199.28 265.134 1206.91 266.145 1213.33 268.123L1364.19 266.333C1372.83 264.73 1382.38 264.617 1391.06 266.014L1421.9 265.649C1428.57 262.472 1437.28 260.378 1446.68 259.688C1446.61 259.229 1446.54 258.771 1446.54 258.305C1446.52 255.013 1448.49 251.765 1452.23 248.928C1455.97 246.09 1461.34 243.777 1467.72 242.248C1474.1 240.719 1481.24 240.036 1488.33 240.275C1495.43 240.515 1502.2 241.667 1507.89 243.603C1513.57 245.538 1517.93 248.18 1520.49 251.229C1523.04 254.279 1523.69 257.615 1522.35 260.861C1521.02 264.108 1517.75 267.135 1512.92 269.602C1508.09 272.069 1501.89 273.877 1495.02 274.822Z" fill="white"/>
<path d="M1495.02 274.822C1497.31 279.593 1495.71 284.622 1490.52 288.953C1485.33 293.284 1476.92 296.616 1466.87 298.316C1456.83 300.016 1445.87 299.965 1436.05 298.174C1426.24 296.382 1418.27 292.975 1413.65 288.598C1410.93 291.98 1406.07 294.92 1399.71 297.031C1393.35 299.141 1385.79 300.321 1378.03 300.414C1377.19 300.424 1376.36 300.434 1375.53 300.403C1372.38 305.294 1366.26 309.69 1357.9 313.066C1349.55 316.441 1339.31 318.654 1328.42 319.438C1317.53 320.222 1306.45 319.546 1296.49 317.489C1286.54 315.433 1278.13 312.083 1272.28 307.841C1266.98 309.162 1261.09 309.895 1255.11 309.981C1249.13 310.067 1243.22 309.504 1237.85 308.337C1232.49 307.171 1227.81 305.432 1224.2 303.263C1220.6 301.093 1218.16 298.552 1217.09 295.845C1210.65 298.562 1202.45 300.209 1193.83 300.518C1185.21 300.828 1176.67 299.78 1169.62 297.547C1165.25 300.062 1159.52 301.998 1153.03 303.149C1146.54 304.3 1139.52 304.623 1132.74 304.085C1125.95 303.546 1119.65 302.165 1114.49 300.089C1109.34 298.012 1105.53 295.318 1103.46 292.292C1097.99 295.117 1090.97 297.212 1083.18 298.35C1075.39 299.488 1067.12 299.626 1059.26 298.75C1055.06 302.641 1048.36 305.85 1040.09 307.927C1031.82 310.003 1022.4 310.841 1013.15 310.323C1005.08 314.061 994.298 316.269 982.987 316.498C971.676 316.727 960.687 314.962 952.25 311.559C944.38 312.72 936.012 312.861 928.07 311.965C920.128 311.068 912.922 309.17 907.247 306.48C903.492 309.826 897.852 312.655 890.935 314.662C884.018 316.668 876.085 317.775 867.99 317.865L867.688 317.869C863.563 323.66 855.263 328.656 844.191 332.011C833.119 335.366 819.955 336.874 806.925 336.281C793.896 335.688 781.801 333.029 772.687 328.755C763.573 324.481 757.999 318.853 756.907 312.825C756.143 312.834 755.365 312.843 754.586 312.852C746.932 312.948 739.377 312.194 732.555 310.655C725.734 309.115 719.845 306.833 715.384 304.002C710.923 301.171 708.019 297.873 706.918 294.385C705.816 290.897 706.548 287.321 709.052 283.957C711.556 280.593 715.76 277.54 721.309 275.053C726.859 272.566 733.592 270.719 740.944 269.667C748.296 268.615 756.052 268.388 763.56 269.006C771.068 269.623 778.109 271.067 784.092 273.217L1004.69 270.599C1013.07 269.162 1022.14 268.906 1030.73 269.864C1034.45 266.398 1040.18 263.463 1047.26 261.39C1054.35 259.317 1062.51 258.19 1070.82 258.136C1079.13 258.082 1087.26 259.103 1094.29 261.083C1101.33 263.063 1106.98 265.924 1110.61 269.342L1169.72 268.641C1176.1 266.51 1183.69 265.319 1191.49 265.226C1199.28 265.134 1206.91 266.145 1213.33 268.123L1364.19 266.333C1372.83 264.73 1382.38 264.617 1391.06 266.014L1421.9 265.649C1428.57 262.472 1437.28 260.378 1446.68 259.688C1446.61 259.229 1446.54 258.771 1446.54 258.305C1446.52 255.013 1448.49 251.765 1452.23 248.928C1455.97 246.09 1461.34 243.777 1467.72 242.248C1474.1 240.719 1481.24 240.036 1488.33 240.275C1495.43 240.515 1502.2 241.667 1507.89 243.603C1513.57 245.538 1517.93 248.18 1520.49 251.229C1523.04 254.279 1523.69 257.615 1522.35 260.861C1521.02 264.108 1517.75 267.135 1512.92 269.602C1508.09 272.069 1501.89 273.877 1495.02 274.822Z" fill="white"/>
<path d="M2242.1 246.746C2244.39 251.517 2242.78 256.546 2237.6 260.877C2232.41 265.208 2223.99 268.54 2213.95 270.24C2203.91 271.94 2192.94 271.889 2183.13 270.098C2173.32 268.306 2165.34 264.899 2160.72 260.522C2158.01 263.904 2153.15 266.844 2146.79 268.954C2140.42 271.065 2132.86 272.244 2125.11 272.338C2124.27 272.348 2123.43 272.357 2122.61 272.327C2119.45 277.218 2113.33 281.614 2104.98 284.99C2096.62 288.365 2086.39 290.577 2075.5 291.362C2064.61 292.146 2053.53 291.47 2043.57 289.413C2033.62 287.357 2025.21 284.007 2019.36 279.765C2014.05 281.086 2008.17 281.819 2002.19 281.905C1996.21 281.991 1990.3 281.428 1984.93 280.261C1979.56 279.094 1974.89 277.356 1971.28 275.186C1967.68 273.017 1965.24 270.476 1964.17 267.769C1957.73 270.486 1949.53 272.133 1940.91 272.442C1932.29 272.751 1923.75 271.704 1916.69 269.471C1912.33 271.986 1906.6 273.922 1900.11 275.073C1893.61 276.224 1886.6 276.547 1879.82 276.008C1873.03 275.47 1866.73 274.089 1861.57 272.012C1856.42 269.936 1852.6 267.242 1850.54 264.216C1845.06 267.041 1838.05 269.136 1830.26 270.274C1822.47 271.412 1814.19 271.55 1806.33 270.674C1802.14 274.565 1795.44 277.774 1787.17 279.851C1778.89 281.927 1769.47 282.765 1760.23 282.247C1752.16 285.985 1741.38 288.192 1730.06 288.422C1718.75 288.651 1707.76 286.885 1699.33 283.482C1691.46 284.644 1683.09 284.785 1675.15 283.888C1667.21 282.992 1660 281.094 1654.32 278.403C1650.57 281.75 1644.93 284.579 1638.01 286.585C1631.09 288.592 1623.16 289.699 1615.07 289.789L1614.76 289.793C1610.64 295.584 1602.34 300.58 1591.27 303.935C1580.2 307.29 1567.03 308.798 1554 308.205C1540.97 307.611 1528.88 304.953 1519.76 300.679C1510.65 296.404 1505.08 290.777 1503.98 284.748C1503.22 284.757 1502.44 284.767 1501.66 284.776C1494.01 284.872 1486.45 284.118 1479.63 282.578C1472.81 281.038 1466.92 278.757 1462.46 275.926C1458 273.095 1455.1 269.797 1453.99 266.309C1452.89 262.821 1453.62 259.245 1456.13 255.881C1458.63 252.517 1462.84 249.463 1468.39 246.977C1473.94 244.49 1480.67 242.643 1488.02 241.591C1495.37 240.539 1503.13 240.312 1510.64 240.93C1518.15 241.547 1525.19 242.991 1531.17 245.141L1751.77 242.523C1760.15 241.085 1769.21 240.83 1777.8 241.788C1781.53 238.322 1787.26 235.386 1794.34 233.314C1801.43 231.241 1809.59 230.114 1817.9 230.06C1826.21 230.006 1834.34 231.026 1841.37 233.007C1848.4 234.987 1854.06 237.848 1857.69 241.266L1916.8 240.565C1923.17 238.434 1930.77 237.243 1938.57 237.15C1946.36 237.058 1953.98 238.068 1960.41 240.047L2111.26 238.257C2119.91 236.654 2129.46 236.541 2138.14 237.938L2168.97 237.572C2175.65 234.396 2184.36 232.302 2193.76 231.612C2193.68 231.153 2193.62 230.695 2193.61 230.229C2193.59 226.936 2195.57 223.689 2199.31 220.851C2203.05 218.014 2208.41 215.701 2214.79 214.172C2221.17 212.643 2228.31 211.96 2235.41 212.199C2242.51 212.439 2249.28 213.591 2254.96 215.527C2260.64 217.462 2265.01 220.104 2267.57 223.153C2270.12 226.203 2270.77 229.539 2269.43 232.785C2268.09 236.032 2264.82 239.059 2259.99 241.526C2255.17 243.992 2248.97 245.8 2242.1 246.746Z" fill="white"/>
<path d="M2242.1 246.746C2244.39 251.517 2242.78 256.546 2237.6 260.877C2232.41 265.208 2223.99 268.54 2213.95 270.24C2203.91 271.94 2192.94 271.889 2183.13 270.098C2173.32 268.306 2165.34 264.899 2160.72 260.522C2158.01 263.904 2153.15 266.844 2146.79 268.954C2140.42 271.065 2132.86 272.244 2125.11 272.338C2124.27 272.348 2123.43 272.357 2122.61 272.327C2119.45 277.218 2113.33 281.614 2104.98 284.99C2096.62 288.365 2086.39 290.577 2075.5 291.362C2064.61 292.146 2053.53 291.47 2043.57 289.413C2033.62 287.357 2025.21 284.007 2019.36 279.765C2014.05 281.086 2008.17 281.819 2002.19 281.905C1996.21 281.991 1990.3 281.428 1984.93 280.261C1979.56 279.094 1974.89 277.356 1971.28 275.186C1967.68 273.017 1965.24 270.476 1964.17 267.769C1957.73 270.486 1949.53 272.133 1940.91 272.442C1932.29 272.751 1923.75 271.704 1916.69 269.471C1912.33 271.986 1906.6 273.922 1900.11 275.073C1893.61 276.224 1886.6 276.547 1879.82 276.008C1873.03 275.47 1866.73 274.089 1861.57 272.012C1856.42 269.936 1852.6 267.242 1850.54 264.216C1845.06 267.041 1838.05 269.136 1830.26 270.274C1822.47 271.412 1814.19 271.55 1806.33 270.674C1802.14 274.565 1795.44 277.774 1787.17 279.851C1778.89 281.927 1769.47 282.765 1760.23 282.247C1752.16 285.985 1741.38 288.192 1730.06 288.422C1718.75 288.651 1707.76 286.885 1699.33 283.482C1691.46 284.644 1683.09 284.785 1675.15 283.888C1667.21 282.992 1660 281.094 1654.32 278.403C1650.57 281.75 1644.93 284.579 1638.01 286.585C1631.09 288.592 1623.16 289.699 1615.07 289.789L1614.76 289.793C1610.64 295.584 1602.34 300.58 1591.27 303.935C1580.2 307.29 1567.03 308.798 1554 308.205C1540.97 307.611 1528.88 304.953 1519.76 300.679C1510.65 296.404 1505.08 290.777 1503.98 284.748C1503.22 284.757 1502.44 284.767 1501.66 284.776C1494.01 284.872 1486.45 284.118 1479.63 282.578C1472.81 281.038 1466.92 278.757 1462.46 275.926C1458 273.095 1455.1 269.797 1453.99 266.309C1452.89 262.821 1453.62 259.245 1456.13 255.881C1458.63 252.517 1462.84 249.463 1468.39 246.977C1473.94 244.49 1480.67 242.643 1488.02 241.591C1495.37 240.539 1503.13 240.312 1510.64 240.93C1518.15 241.547 1525.19 242.991 1531.17 245.141L1751.77 242.523C1760.15 241.085 1769.21 240.83 1777.8 241.788C1781.53 238.322 1787.26 235.386 1794.34 233.314C1801.43 231.241 1809.59 230.114 1817.9 230.06C1826.21 230.006 1834.34 231.026 1841.37 233.007C1848.4 234.987 1854.06 237.848 1857.69 241.266L1916.8 240.565C1923.17 238.434 1930.77 237.243 1938.57 237.15C1946.36 237.058 1953.98 238.068 1960.41 240.047L2111.26 238.257C2119.91 236.654 2129.46 236.541 2138.14 237.938L2168.97 237.572C2175.65 234.396 2184.36 232.302 2193.76 231.612C2193.68 231.153 2193.62 230.695 2193.61 230.229C2193.59 226.936 2195.57 223.689 2199.31 220.851C2203.05 218.014 2208.41 215.701 2214.79 214.172C2221.17 212.643 2228.31 211.96 2235.41 212.199C2242.51 212.439 2249.28 213.591 2254.96 215.527C2260.64 217.462 2265.01 220.104 2267.57 223.153C2270.12 226.203 2270.77 229.539 2269.43 232.785C2268.09 236.032 2264.82 239.059 2259.99 241.526C2255.17 243.992 2248.97 245.8 2242.1 246.746Z" fill="white"/>
<path d="M365 208.705L737 126L768.5 -1H2072L2077 177L2072 260.5H1816L1450 283.5H1077L365 297.5V208.705Z" fill="white"/>
</g>
<defs>
<clipPath id="clip0">
<rect width="2111" height="391" fill="white" transform="translate(-37)"/>
</clipPath>
</defs>
</svg>
