<svg width="50" height="50" viewBox="0 0 50 50" fill="none" xmlns="http://www.w3.org/2000/svg">
<path d="M43.75 31.3323V9.375C43.75 7.22122 41.9975 5.46875 39.8438 5.46875H38.2812V3.90625C38.2812 2.61383 37.2299 1.5625 35.9375 1.5625C34.6451 1.5625 33.5938 2.61383 33.5938 3.90625V5.46875H29.6875V3.90625C29.6875 2.61383 28.6362 1.5625 27.3438 1.5625C26.0513 1.5625 25 2.61383 25 3.90625V5.46875H20.3125V3.90625C20.3125 2.61383 19.2612 1.5625 17.9688 1.5625C16.6763 1.5625 15.625 2.61383 15.625 3.90625V5.46875H11.7188V3.90625C11.7188 2.61383 10.6674 1.5625 9.375 1.5625C8.08258 1.5625 7.03125 2.61383 7.03125 3.90625V5.46875H5.46875C3.31497 5.46875 1.5625 7.22122 1.5625 9.375V40.625C1.5625 42.7788 3.31497 44.5312 5.46875 44.5312H31.7371C33.3611 47.3288 36.3825 49.2188 39.8438 49.2188C45.0134 49.2188 49.2188 45.0134 49.2188 39.8438C49.2188 36.0692 46.9722 32.8171 43.75 31.3323ZM35.1562 3.90625C35.1562 3.47519 35.5064 3.125 35.9375 3.125C36.3686 3.125 36.7188 3.47519 36.7188 3.90625V8.59375C36.7188 9.02481 36.3686 9.375 35.9375 9.375C35.5064 9.375 35.1562 9.02481 35.1562 8.59375V3.90625ZM26.5625 3.90625C26.5625 3.47519 26.9127 3.125 27.3438 3.125C27.7748 3.125 28.125 3.47519 28.125 3.90625V8.59375C28.125 9.02481 27.7748 9.375 27.3438 9.375C26.9127 9.375 26.5625 9.02481 26.5625 8.59375V3.90625ZM17.1875 3.90625C17.1875 3.47519 17.5377 3.125 17.9688 3.125C18.3998 3.125 18.75 3.47519 18.75 3.90625V8.59375C18.75 9.02481 18.3998 9.375 17.9688 9.375C17.5377 9.375 17.1875 9.02481 17.1875 8.59375V3.90625ZM8.59375 3.90625C8.59375 3.47519 8.94394 3.125 9.375 3.125C9.80606 3.125 10.1562 3.47519 10.1562 3.90625V8.59375C10.1562 9.02481 9.80606 9.375 9.375 9.375C8.94394 9.375 8.59375 9.02481 8.59375 8.59375V3.90625ZM5.46875 7.03125H7.03125V8.59375C7.03125 9.88617 8.08258 10.9375 9.375 10.9375C10.6674 10.9375 11.7188 9.88617 11.7188 8.59375V7.03125H15.625V8.59375C15.625 9.88617 16.6763 10.9375 17.9688 10.9375C19.2612 10.9375 20.3125 9.88617 20.3125 8.59375V7.03125H25V8.59375C25 9.88617 26.0513 10.9375 27.3438 10.9375C28.6362 10.9375 29.6875 9.88617 29.6875 8.59375V7.03125H33.5938V8.59375C33.5938 9.88617 34.6451 10.9375 35.9375 10.9375C37.2299 10.9375 38.2812 9.88617 38.2812 8.59375V7.03125H39.8438C41.1362 7.03125 42.1875 8.08258 42.1875 9.375V13.2812H3.125V9.375C3.125 8.08258 4.17633 7.03125 5.46875 7.03125ZM5.46875 42.9688C4.17633 42.9688 3.125 41.9174 3.125 40.625V14.8438H42.1875V30.7772C41.4369 30.583 40.6543 30.4688 39.8438 30.4688C39.3103 30.4688 38.7906 30.5239 38.2812 30.6098V26.5625C38.2812 26.1307 37.9318 25.7812 37.5 25.7812H32.8125C32.3807 25.7812 32.0312 26.1307 32.0312 26.5625V31.25C32.0312 31.6818 32.3807 32.0312 32.8125 32.0312H34.6725C32.142 33.7118 30.4688 36.5847 30.4688 39.8438C30.4688 40.9407 30.6679 41.9896 31.0156 42.9688H5.46875ZM36.7188 30.4688H33.5938V27.3438H36.7188V30.4688ZM39.8438 47.6562C35.5362 47.6562 32.0312 44.1513 32.0312 39.8438C32.0312 35.5362 35.5362 32.0312 39.8438 32.0312C44.1513 32.0312 47.6562 35.5362 47.6562 39.8438C47.6562 44.1513 44.1513 47.6562 39.8438 47.6562Z" fill="#0E7BAB"/>
<path d="M40.625 38.498V33.5938H39.0625V38.498C38.5974 38.7686 38.2812 39.2668 38.2812 39.8438C38.2812 39.9229 38.2932 39.9987 38.3045 40.0746L35.4492 42.3584L36.4258 43.5791L39.2786 41.2968C39.4543 41.3652 39.6439 41.4062 39.8438 41.4062C40.7067 41.4062 41.4062 40.7067 41.4062 39.8438C41.4062 39.2668 41.0901 38.7686 40.625 38.498Z" fill="#0E7BAB"/>
<path d="M11.7188 17.1875H7.03125C6.59943 17.1875 6.25 17.5369 6.25 17.9688V22.6562C6.25 23.0881 6.59943 23.4375 7.03125 23.4375H11.7188C12.1506 23.4375 12.5 23.0881 12.5 22.6562V17.9688C12.5 17.5369 12.1506 17.1875 11.7188 17.1875ZM10.9375 21.875H7.8125V18.75H10.9375V21.875Z" fill="#0E7BAB"/>
<path d="M20.3125 17.1875H15.625C15.1932 17.1875 14.8438 17.5369 14.8438 17.9688V22.6562C14.8438 23.0881 15.1932 23.4375 15.625 23.4375H20.3125C20.7443 23.4375 21.0938 23.0881 21.0938 22.6562V17.9688C21.0938 17.5369 20.7443 17.1875 20.3125 17.1875ZM19.5312 21.875H16.4062V18.75H19.5312V21.875Z" fill="#0E7BAB"/>
<path d="M28.9062 17.1875H24.2188C23.7869 17.1875 23.4375 17.5369 23.4375 17.9688V22.6562C23.4375 23.0881 23.7869 23.4375 24.2188 23.4375H28.9062C29.3381 23.4375 29.6875 23.0881 29.6875 22.6562V17.9688C29.6875 17.5369 29.3381 17.1875 28.9062 17.1875ZM28.125 21.875H25V18.75H28.125V21.875Z" fill="#0E7BAB"/>
<path d="M32.8125 23.4375H37.5C37.9318 23.4375 38.2812 23.0881 38.2812 22.6562V17.9688C38.2812 17.5369 37.9318 17.1875 37.5 17.1875H32.8125C32.3807 17.1875 32.0312 17.5369 32.0312 17.9688V22.6562C32.0312 23.0881 32.3807 23.4375 32.8125 23.4375ZM33.5938 18.75H36.7188V21.875H33.5938V18.75Z" fill="#0E7BAB"/>
<path d="M11.7188 25.7812H7.03125C6.59943 25.7812 6.25 26.1307 6.25 26.5625V31.25C6.25 31.6818 6.59943 32.0312 7.03125 32.0312H11.7188C12.1506 32.0312 12.5 31.6818 12.5 31.25V26.5625C12.5 26.1307 12.1506 25.7812 11.7188 25.7812ZM10.9375 30.4688H7.8125V27.3438H10.9375V30.4688Z" fill="#0E7BAB"/>
<path d="M20.3125 25.7812H15.625C15.1932 25.7812 14.8438 26.1307 14.8438 26.5625V31.25C14.8438 31.6818 15.1932 32.0312 15.625 32.0312H20.3125C20.7443 32.0312 21.0938 31.6818 21.0938 31.25V26.5625C21.0938 26.1307 20.7443 25.7812 20.3125 25.7812ZM19.5312 30.4688H16.4062V27.3438H19.5312V30.4688Z" fill="#0E7BAB"/>
<path d="M28.9062 25.7812H24.2188C23.7869 25.7812 23.4375 26.1307 23.4375 26.5625V31.25C23.4375 31.6818 23.7869 32.0312 24.2188 32.0312H28.9062C29.3381 32.0312 29.6875 31.6818 29.6875 31.25V26.5625C29.6875 26.1307 29.3381 25.7812 28.9062 25.7812ZM28.125 30.4688H25V27.3438H28.125V30.4688Z" fill="#0E7BAB"/>
<path d="M11.7188 34.375H7.03125C6.59943 34.375 6.25 34.7244 6.25 35.1562V39.8438C6.25 40.2756 6.59943 40.625 7.03125 40.625H11.7188C12.1506 40.625 12.5 40.2756 12.5 39.8438V35.1562C12.5 34.7244 12.1506 34.375 11.7188 34.375ZM10.9375 39.0625H7.8125V35.9375H10.9375V39.0625Z" fill="#0E7BAB"/>
<path d="M20.3125 34.375H15.625C15.1932 34.375 14.8438 34.7244 14.8438 35.1562V39.8438C14.8438 40.2756 15.1932 40.625 15.625 40.625H20.3125C20.7443 40.625 21.0938 40.2756 21.0938 39.8438V35.1562C21.0938 34.7244 20.7443 34.375 20.3125 34.375ZM19.5312 39.0625H16.4062V35.9375H19.5312V39.0625Z" fill="#0E7BAB"/>
<path d="M28.9062 34.375H24.2188C23.7869 34.375 23.4375 34.7244 23.4375 35.1562V39.8438C23.4375 40.2756 23.7869 40.625 24.2188 40.625H28.9062C29.3381 40.625 29.6875 40.2756 29.6875 39.8438V35.1562C29.6875 34.7244 29.3381 34.375 28.9062 34.375ZM28.125 39.0625H25V35.9375H28.125V39.0625Z" fill="#0E7BAB"/>
</svg>
