<svg width="50" height="50" viewBox="0 0 50 50" fill="none" xmlns="http://www.w3.org/2000/svg">
<path d="M7.86924 40.5695C9.92842 40.567 11.5973 38.8986 11.5997 36.8394V35.6384C11.5977 34.0171 10.5498 32.5821 9.00646 32.0862V30.9445H24.3597V31.9973C22.6547 32.3787 21.4411 33.8908 21.4387 35.638V36.8394C21.4387 38.8994 23.1088 40.5695 25.1692 40.5695C27.2292 40.5695 28.8993 38.8994 28.8993 36.8394V35.6384C28.8964 33.829 27.5971 32.2812 25.8154 31.9656V30.9445H41.169V32.0241C39.5189 32.4481 38.3646 33.9346 38.3621 35.6384V36.8394C38.3621 38.8994 40.0322 40.5695 42.0926 40.5695C44.1526 40.5695 45.8227 38.8994 45.8227 36.8394V35.6384C45.8199 33.7852 44.4589 32.2138 42.6247 31.9473V30.2171C42.6247 29.815 42.2989 29.4893 41.8969 29.4893H25.8154V25.7645L27.6853 27.6348C27.9696 27.9191 28.4306 27.9191 28.7145 27.6348C28.9988 27.3505 28.9988 26.89 28.7145 26.6057L25.5952 23.4864C25.3113 23.2021 24.8504 23.2021 24.566 23.4864L21.4468 26.6057C21.1625 26.89 21.1625 27.3505 21.4468 27.6348C21.7311 27.9191 22.1921 27.9191 22.476 27.6348L24.3593 25.7515V29.4889H8.27864C7.87655 29.4889 7.55082 29.8146 7.55082 30.2167V31.923C5.62242 32.0903 4.1416 33.7031 4.13916 35.6384V36.8394C4.1416 38.8986 5.81047 40.567 7.86924 40.5695ZM27.4436 35.6384V36.8394C27.4436 38.0956 26.425 39.1138 25.1692 39.1138C23.913 39.1138 22.8943 38.0956 22.8943 36.8394V35.6384C22.8943 34.3822 23.913 33.364 25.1692 33.364C26.425 33.364 27.4436 34.3822 27.4436 35.6384ZM44.3671 35.6384V36.8394C44.3671 38.0956 43.3484 39.1138 42.0922 39.1138C40.836 39.1138 39.8178 38.0956 39.8178 36.8394V35.6384C39.8178 34.3822 40.836 33.364 42.0922 33.364C43.3484 33.364 44.3671 34.3822 44.3671 35.6384ZM5.5948 35.6384C5.5948 34.3822 6.61342 33.364 7.86924 33.364C9.12546 33.364 10.1441 34.3822 10.1441 35.6384V36.8394C10.1441 38.0956 9.12546 39.1138 7.86924 39.1138C6.61342 39.1138 5.5948 38.0956 5.5948 36.8394V35.6384Z" fill="#0E7BAB"/>
<path d="M11.4899 41.2512H10.732C10.5566 41.2512 10.3876 41.3146 10.2552 41.4291L7.98321 43.3981L5.80137 41.438C5.66775 41.3178 5.49432 41.2516 5.31481 41.2516H4.45986C3.37869 41.2516 2.34748 41.7061 1.61844 42.5046C0.889399 43.3031 0.529956 44.3713 0.628245 45.448V49.2719C0.628245 49.674 0.953977 49.9997 1.35606 49.9997L14.5929 49.9981C14.995 49.9981 15.3207 49.6723 15.3207 49.2703V45.448C15.419 44.3713 15.06 43.3031 14.3309 42.5046C13.6023 41.7065 12.5711 41.2516 11.4899 41.2512ZM13.8691 45.3395C13.8667 45.3639 13.8655 45.3887 13.8655 45.413V48.5428L2.08388 48.5441V45.413C2.08388 45.3887 2.08267 45.3639 2.08023 45.3395C2.012 44.6669 2.23172 43.9964 2.68539 43.4948C3.13906 42.9932 3.78362 42.7069 4.45986 42.7069H5.03578L7.48811 44.9106C7.76104 45.156 8.1741 45.1596 8.4515 44.9192L11.0033 42.7065H11.4899C12.1661 42.7065 12.8107 42.9928 13.264 43.4944C13.7176 43.9964 13.9374 44.6665 13.8691 45.3391V45.3395Z" fill="#0E7BAB"/>
<path d="M28.7892 41.2512H28.0313C27.8559 41.2512 27.6869 41.3146 27.5545 41.4291L25.2825 43.3981L23.1007 41.438C22.9671 41.3178 22.7936 41.2516 22.6141 41.2516H21.7592C20.678 41.2512 19.6468 41.7061 18.9178 42.5046C18.1887 43.3031 17.8293 44.3713 17.9276 45.448V49.2719C17.9276 49.674 18.2533 49.9997 18.6554 49.9997L31.8922 49.9981C32.2943 49.9981 32.62 49.6723 32.62 49.2703V45.448C32.7183 44.3713 32.3593 43.3031 31.6302 42.5046C30.9016 41.7065 29.8704 41.2516 28.7892 41.2512ZM31.1684 45.3395C31.166 45.3639 31.1648 45.3887 31.1648 45.413V48.5428L19.3832 48.5441V45.413C19.3832 45.3887 19.382 45.3639 19.3795 45.3395C19.3113 44.6665 19.531 43.9964 19.9847 43.4948C20.4384 42.9932 21.0829 42.7069 21.7592 42.7069H22.3351L24.7874 44.9106C25.0604 45.156 25.4734 45.1596 25.7508 44.9192L28.3027 42.7065H28.7892C29.4655 42.7065 30.11 42.9928 30.5633 43.4944C31.0169 43.9964 31.2367 44.6665 31.1684 45.3391V45.3395Z" fill="#0E7BAB"/>
<path d="M45.7134 41.2512H44.9552C44.7801 41.2512 44.6107 41.3146 44.4783 41.4291L42.2063 43.3981L40.0245 41.438C39.8909 41.3178 39.7175 41.2516 39.5379 41.2516H38.6834C37.6022 41.2512 36.5706 41.7061 35.8416 42.5046C35.1125 43.3031 34.7531 44.3713 34.8514 45.448V49.2719C34.8514 49.674 35.1771 49.9997 35.5792 49.9997L48.8164 49.9981C49.2181 49.9981 49.5442 49.6723 49.5442 49.2703V45.448C49.6421 44.3713 49.2831 43.3031 48.554 42.505C47.8254 41.7065 46.7942 41.2516 45.7134 41.2512ZM48.0923 45.3395C48.0898 45.3639 48.0886 45.3887 48.0886 45.413V48.5428L36.307 48.5441V45.413C36.307 45.3887 36.3058 45.3639 36.3034 45.3395C36.2351 44.6669 36.4553 43.9968 36.9089 43.4948C37.3622 42.9932 38.0072 42.7069 38.6834 42.7069H39.2589L41.7117 44.9106C41.9846 45.156 42.3976 45.16 42.675 44.9196L45.2269 42.7077H45.7138C46.3897 42.7077 47.0342 42.994 47.4879 43.4956C47.9412 43.9972 48.1609 44.6674 48.0927 45.3399L48.0923 45.3395Z" fill="#0E7BAB"/>
<path d="M25.0858 21.1624C30.9336 21.1624 35.6912 16.4158 35.6912 10.5814C35.6912 4.74667 30.9336 0 25.0858 0C19.2381 0 14.4805 4.74667 14.4805 10.5814C14.4805 16.4158 19.2381 21.1624 25.0858 21.1624ZM25.0858 1.45564C30.131 1.45564 34.2356 5.54922 34.2356 10.5814C34.2356 15.6132 30.131 19.7068 25.0858 19.7068C20.0407 19.7068 15.9361 15.6132 15.9361 10.5814C15.9361 5.54922 20.0407 1.45564 25.0858 1.45564Z" fill="#0E7BAB"/>
<path d="M25.1059 15.4398C25.0994 15.4398 25.0929 15.4389 25.086 15.4389C25.0791 15.4389 25.0726 15.4398 25.0661 15.4398C23.9159 15.4276 22.9898 14.493 22.9878 13.3428C22.9878 12.9411 22.6621 12.615 22.26 12.615C21.8583 12.615 21.5322 12.9411 21.5322 13.3428C21.5346 15.0243 22.7129 16.475 24.3582 16.8215V17.8503C24.3582 18.2519 24.6839 18.5781 25.086 18.5781C25.4881 18.5781 25.8138 18.2519 25.8138 17.8503V16.8215C27.596 16.4482 28.8079 14.7883 28.6207 12.9773C28.4331 11.1658 26.9067 9.78941 25.086 9.789C23.9272 9.789 22.9878 8.84958 22.9878 7.69083C22.9878 6.53209 23.9272 5.59307 25.086 5.59307C26.2447 5.59307 27.1841 6.53249 27.1841 7.69124C27.1841 8.09292 27.5099 8.41906 27.912 8.41906C28.3141 8.41906 28.6398 8.09292 28.6398 7.69124C28.6378 6.00978 27.4591 4.55901 25.8138 4.21256V3.31254C25.8138 2.91045 25.4881 2.58472 25.086 2.58472C24.6839 2.58472 24.3582 2.91045 24.3582 3.31254V4.21256C22.5756 4.58541 21.3632 6.24534 21.5509 8.05677C21.7385 9.8682 23.2648 11.245 25.086 11.2446C26.2443 11.2394 27.1882 12.1739 27.1935 13.3323C27.1992 14.491 26.2642 15.4345 25.1059 15.4398Z" fill="#0E7BAB"/>
</svg>
