<svg width="21" height="18" viewBox="0 0 21 18" fill="none" xmlns="http://www.w3.org/2000/svg">
<path fill-rule="evenodd" clip-rule="evenodd" d="M21 1.5C21 1.10218 20.842 0.720645 20.5607 0.43934C20.2794 0.158036 19.8978 0 19.5 0H1.5C1.10217 0 0.720644 0.158036 0.439339 0.43934C0.158033 0.720645 0 1.10218 0 1.5C0 1.89782 0.158033 2.27936 0.439339 2.56066C0.720644 2.84196 1.10217 3 1.5 3H19.5C19.8978 3 20.2794 2.84196 20.5607 2.56066C20.842 2.27936 21 1.89782 21 1.5Z" fill="white"/>
<path fill-rule="evenodd" clip-rule="evenodd" d="M21 9C21 8.60218 20.842 8.22064 20.5607 7.93934C20.2794 7.65804 19.8978 7.5 19.5 7.5H1.5C1.10217 7.5 0.720644 7.65804 0.439339 7.93934C0.158033 8.22064 0 8.60218 0 9C0 9.39782 0.158033 9.77936 0.439339 10.0607C0.720644 10.342 1.10217 10.5 1.5 10.5H19.5C19.8978 10.5 20.2794 10.342 20.5607 10.0607C20.842 9.77936 21 9.39782 21 9Z" fill="white"/>
<path fill-rule="evenodd" clip-rule="evenodd" d="M11.9993 16.5C11.9993 16.1022 11.8412 15.7206 11.5599 15.4393C11.2786 15.158 10.8971 15 10.4993 15H1.49927C1.10144 15 0.719911 15.158 0.438606 15.4393C0.157302 15.7206 -0.000732422 16.1022 -0.000732422 16.5C-0.000732422 16.8978 0.157302 17.2794 0.438606 17.5607C0.719911 17.842 1.10144 18 1.49927 18H10.4993C10.8971 18 11.2786 17.842 11.5599 17.5607C11.8412 17.2794 11.9993 16.8978 11.9993 16.5Z" fill="white"/>
</svg>
