<svg width="61" height="60" viewBox="0 0 61 60" fill="none" xmlns="http://www.w3.org/2000/svg">
<path d="M37.7508 25.1613H58.0733C59.674 25.1613 60.9766 23.8587 60.9766 22.2581V2.90323C60.9766 1.30258 59.674 0 58.0733 0H29.0411C27.4404 0 26.1379 1.30258 26.1379 2.90323V12.0687C23.9895 11.7726 21.7211 11.6129 19.3637 11.6129C10.4498 11.6129 0.976562 13.9868 0.976562 18.3871V41.6129C0.976562 46.0132 10.4498 48.3871 19.3637 48.3871C21.722 48.3871 23.9904 48.2274 26.1379 47.9303V57.0968C26.1379 58.6974 27.4404 60 29.0411 60H58.0733C59.674 60 60.9766 58.6974 60.9766 57.0968V37.7419C60.9766 36.1413 59.674 34.8387 58.0733 34.8387H37.7508V25.1613ZM28.0733 2.90323C28.0733 2.37 28.5069 1.93548 29.0411 1.93548H58.0733C58.6075 1.93548 59.0411 2.37 59.0411 2.90323V22.2581C59.0411 22.7913 58.6075 23.2258 58.0733 23.2258H29.0411C28.5069 23.2258 28.0733 22.7913 28.0733 22.2581V2.90323ZM26.1379 18.779C24.392 19.1429 21.933 19.3548 19.3637 19.3548C15.1453 19.3548 12.3224 18.8216 11.1398 18.3871C12.3224 17.9526 15.1453 17.4194 19.3637 17.4194C21.933 17.4194 24.392 17.6313 26.1379 17.9952V18.779ZM19.3637 13.5484C21.7308 13.5484 24.0001 13.7139 26.1379 14.0235V16.0268C24.2962 15.6803 21.9127 15.4839 19.3637 15.4839C9.48592 15.4839 8.7185 17.7058 8.7185 18.3871C8.7185 19.0684 9.48592 21.2903 19.3637 21.2903C21.9127 21.2903 24.2962 21.0939 26.1379 20.7474V22.2581C26.1379 22.4235 26.1601 22.5842 26.1872 22.7419C24.0466 23.0535 21.7211 23.2258 19.3637 23.2258C9.1714 23.2258 2.91205 20.4077 2.91205 18.3871C2.91205 16.3665 9.1714 13.5484 19.3637 13.5484ZM19.3637 46.4516C9.1714 46.4516 2.91205 43.6335 2.91205 41.6129V37.0268C6.13559 39.3939 12.8953 40.6452 19.3637 40.6452C21.722 40.6452 23.9904 40.4855 26.1379 40.1884V45.9764C24.0001 46.2861 21.7308 46.4516 19.3637 46.4516ZM59.0411 37.7419V57.0968C59.0411 57.631 58.6075 58.0645 58.0733 58.0645H29.0411C28.5069 58.0645 28.0733 57.631 28.0733 57.0968V37.7419C28.0733 37.2077 28.5069 36.7742 29.0411 36.7742H58.0733C58.6075 36.7742 59.0411 37.2077 59.0411 37.7419ZM29.0411 34.8387C27.4404 34.8387 26.1379 36.1413 26.1379 37.7419V38.2345C24.0001 38.5442 21.7308 38.7097 19.3637 38.7097C9.1714 38.7097 2.91205 35.8916 2.91205 33.871V29.2848C6.13559 31.6519 12.8953 32.9032 19.3637 32.9032C25.832 32.9032 32.5917 31.6519 35.8153 29.2848V34.8387H29.0411ZM19.3637 30.9677C9.1714 30.9677 2.91205 28.1497 2.91205 26.129V21.5429C6.13559 23.91 12.8953 25.1613 19.3637 25.1613C22.1062 25.1613 24.8179 24.9406 27.2624 24.5352C27.7549 24.9213 28.3675 25.1613 29.0411 25.1613H35.8153V26.129C35.8153 28.1497 29.5559 30.9677 19.3637 30.9677Z" fill="white"/>
<path d="M37.7507 3.87085H30.0088V11.6128H37.7507V3.87085ZM35.8152 9.6773H31.9443V5.80633H35.8152V9.6773Z" fill="white"/>
<path d="M47.428 3.87085H39.686V11.6128H47.428V3.87085ZM45.4925 9.6773H41.6215V5.80633H45.4925V9.6773Z" fill="white"/>
<path d="M57.1057 3.87085H49.3638V11.6128H57.1057V3.87085ZM55.1702 9.6773H51.2993V5.80633H55.1702V9.6773Z" fill="white"/>
<path d="M37.7507 13.5483H30.0088V21.2903H37.7507V13.5483ZM35.8152 19.3548H31.9443V15.4838H35.8152V19.3548Z" fill="white"/>
<path d="M47.428 13.5483H39.686V21.2903H47.428V13.5483ZM45.4925 19.3548H41.6215V15.4838H45.4925V19.3548Z" fill="white"/>
<path d="M57.1057 13.5483H49.3638V21.2903H57.1057V13.5483ZM55.1702 19.3548H51.2993V15.4838H55.1702V19.3548Z" fill="white"/>
<path d="M43.5572 38.7097H37.7507V42.5807H33.8798V46.4517H30.0088V56.1291H43.5572V38.7097ZM31.9443 48.3871H33.8798V54.1936H31.9443V48.3871ZM35.8152 54.1936V44.5162H37.7507V54.1936H35.8152ZM41.6217 54.1936H39.6862V40.6452H41.6217V54.1936Z" fill="white"/>
<path d="M45.4927 42.5806H57.1056V44.5161H45.4927V42.5806Z" fill="white"/>
<path d="M45.4927 38.7097H57.1056V40.6452H45.4927V38.7097Z" fill="white"/>
<path d="M45.4927 46.4517H57.1056V48.3871H45.4927V46.4517Z" fill="white"/>
<path d="M55.1699 50.3225H57.1054V52.258H55.1699V50.3225Z" fill="white"/>
<path d="M45.4927 50.3225H53.2346V52.258H45.4927V50.3225Z" fill="white"/>
<path d="M45.4927 54.1936H57.1056V56.1291H45.4927V54.1936Z" fill="white"/>
</svg>
