<svg width="61" height="60" viewBox="0 0 61 60" fill="none" xmlns="http://www.w3.org/2000/svg">
<g clip-path="url(#clip0)">
<path d="M13.0757 45.4505C13.0757 44.9652 12.6822 44.5716 12.1968 44.5716C6.97914 44.5716 2.73438 40.3299 2.73438 35.1162C2.73438 31.4177 4.91207 28.0377 8.28215 26.5052C8.72406 26.3043 8.91941 25.7832 8.71844 25.3413C8.51758 24.8994 7.99633 24.704 7.55453 24.905C3.55855 26.7221 0.976562 30.7302 0.976562 35.1162C0.976562 41.2992 6.00988 46.3294 12.1968 46.3294C12.6822 46.3294 13.0757 45.9359 13.0757 45.4505Z" fill="white"/>
<path d="M19.3812 27.09C20.6485 20.0127 26.7995 14.876 34.0067 14.876C39.5182 14.876 44.5497 17.9003 47.1377 22.7687C47.3656 23.1973 47.8977 23.36 48.3263 23.1322C48.7549 22.9044 48.9177 22.3723 48.6898 21.9436C48.1977 21.0177 47.6264 20.1514 46.9869 19.3514V7.63559L49.1131 5.10199C49.4007 5.2098 49.7118 5.26875 50.0367 5.26875C51.4906 5.26875 52.6734 4.08703 52.6734 2.63437C52.6734 1.18172 51.4905 0 50.0367 0C48.5828 0 47.4 1.18172 47.4 2.63437C47.4 3.12258 47.5336 3.58019 47.7662 3.97254L45.4347 6.75059C45.3019 6.90891 45.2291 7.10894 45.2291 7.31555V17.4712C43.6859 16.0584 41.8905 14.9514 39.9379 14.2072V8.07269C40.961 7.71023 41.6957 6.73359 41.6957 5.58879C41.6957 4.13613 40.513 2.95441 39.059 2.95441C37.6051 2.95441 36.4223 4.13613 36.4223 5.58879C36.4223 6.73359 37.1571 7.71023 38.1801 8.07269V13.6473C36.8361 13.3001 35.4358 13.1182 34.0067 13.1182C33.2791 13.1182 32.561 13.1651 31.8557 13.2561V5.11828C32.8788 4.75582 33.6136 3.77918 33.6136 2.63437C33.6136 1.18172 32.4308 0 30.9768 0C29.5229 0 28.3401 1.18172 28.3401 2.63437C28.3401 3.77918 29.0749 4.75582 30.0979 5.11828V13.5798C27.7672 14.1401 25.617 15.1916 23.7736 16.6289V8.07269C24.7966 7.71023 25.5314 6.73359 25.5314 5.58879C25.5314 4.13613 24.3486 2.95441 22.8946 2.95441C21.4407 2.95441 20.2579 4.13613 20.2579 5.58879C20.2579 6.73359 20.9927 7.71023 22.0157 8.07269V18.2129C20.1002 20.2039 18.6717 22.6836 17.9377 25.4786C17.5272 25.2329 17.1036 25.0152 16.6688 24.8258V7.31566C16.6688 7.10894 16.5959 6.90891 16.4632 6.7507L14.1318 3.97266C14.3645 3.5802 14.498 3.12258 14.498 2.63437C14.498 1.18172 13.3153 0 11.8613 0C10.4074 0 9.22461 1.18172 9.22461 2.63437C9.22461 4.08703 10.4074 5.26875 11.8613 5.26875C12.1861 5.26875 12.4973 5.2098 12.7848 5.10199L14.911 7.63559V24.2305C14.0335 24.0136 13.1245 23.903 12.197 23.903C11.7116 23.903 11.318 24.2965 11.318 24.7819C11.318 25.2673 11.7116 25.6608 12.197 25.6608C14.3111 25.6608 16.3104 26.342 17.9786 27.6307C18.1348 27.7514 18.3245 27.8141 18.5161 27.8141C18.6226 27.8141 18.7297 27.7948 18.8321 27.7553C19.1189 27.6446 19.327 27.3925 19.3812 27.09ZM50.0367 1.75781C50.5214 1.75781 50.9156 2.15098 50.9156 2.63437C50.9156 3.11777 50.5214 3.51094 50.0367 3.51094C49.552 3.51094 49.1578 3.11777 49.1578 2.63437C49.1578 2.15098 49.552 1.75781 50.0367 1.75781ZM39.059 4.71211C39.5437 4.71211 39.9379 5.10539 39.9379 5.58867C39.9379 6.07195 39.5437 6.46523 39.059 6.46523C38.5743 6.46523 38.1801 6.07207 38.1801 5.58867C38.1801 5.10527 38.5743 4.71211 39.059 4.71211ZM30.9768 1.75781C31.4615 1.75781 31.8557 2.15098 31.8557 2.63437C31.8557 3.11777 31.4615 3.51094 30.9768 3.51094C30.4921 3.51094 30.0979 3.11777 30.0979 2.63437C30.0979 2.15098 30.4921 1.75781 30.9768 1.75781ZM22.8946 4.71211C23.3793 4.71211 23.7736 5.10539 23.7736 5.58867C23.7736 6.07195 23.3793 6.46523 22.8946 6.46523C22.41 6.46523 22.0157 6.07207 22.0157 5.58867C22.0157 5.10527 22.41 4.71211 22.8946 4.71211ZM10.9824 2.63437C10.9824 2.15098 11.3766 1.75781 11.8613 1.75781C12.346 1.75781 12.7402 2.15098 12.7402 2.63437C12.7402 3.11777 12.346 3.51094 11.8613 3.51094C11.3766 3.51094 10.9824 3.11766 10.9824 2.63437Z" fill="white"/>
<path d="M52.512 29.4101C51.8704 29.4101 51.2385 29.481 50.6223 29.6216C50.6149 28.3977 50.4735 27.1784 50.2021 25.9957C50.0934 25.5225 49.6218 25.2271 49.1488 25.3357C48.6757 25.4444 48.3802 25.9159 48.4888 26.389C48.7383 27.4757 48.8647 28.5978 48.8647 29.7237C48.8647 30.0672 48.8525 30.4173 48.8285 30.7643C48.8077 31.0657 48.9431 31.3568 49.1872 31.5349C49.4313 31.7132 49.7498 31.7533 50.0305 31.6416C50.8195 31.3274 51.6544 31.168 52.5118 31.168C56.21 31.168 59.2186 34.1744 59.2186 37.8697C59.2186 41.5651 56.2099 44.5715 52.5118 44.5715H49.6295C49.1441 44.5715 48.7506 44.965 48.7506 45.4504C48.7506 45.9358 49.1441 46.3293 49.6295 46.3293H52.5118C57.1793 46.3293 60.9764 42.5344 60.9764 37.8697C60.9765 33.2051 57.1793 29.4101 52.512 29.4101Z" fill="white"/>
<path d="M42.6395 44.5718H34.4941C34.0088 44.5718 33.6152 44.9653 33.6152 45.4507C33.6152 45.9361 34.0088 46.3296 34.4941 46.3296H38.18V54.8821C37.157 55.2445 36.4222 56.2212 36.4222 57.366C36.4222 58.8186 37.605 60.0003 39.0589 60.0003C40.5129 60.0003 41.6957 58.8186 41.6957 57.366C41.6957 56.221 40.9609 55.2444 39.9379 54.8821V46.3296H42.6395C43.1249 46.3296 43.5184 45.9361 43.5184 45.4507C43.5184 44.9653 43.1249 44.5718 42.6395 44.5718ZM39.0589 58.2425C38.5743 58.2425 38.18 57.8494 38.18 57.366C38.18 56.8826 38.5743 56.4894 39.0589 56.4894C39.5436 56.4894 39.9379 56.8827 39.9379 57.366C39.9379 57.8492 39.5436 58.2425 39.0589 58.2425Z" fill="white"/>
<path d="M27.4563 44.5718H19.4531C18.9677 44.5718 18.5742 44.9653 18.5742 45.4507C18.5742 45.9361 18.9677 46.3296 19.4531 46.3296H22.0153V54.8821C20.9923 55.2445 20.2575 56.2212 20.2575 57.366C20.2575 58.8186 21.4403 60.0003 22.8942 60.0003C24.3482 60.0003 25.5309 58.8186 25.5309 57.366C25.5309 56.221 24.7962 55.2444 23.7731 54.8821V46.3296H27.4563C27.9417 46.3296 28.3352 45.9361 28.3352 45.4507C28.3352 44.9653 27.9417 44.5718 27.4563 44.5718ZM22.8942 58.2425C22.4095 58.2425 22.0153 57.8494 22.0153 57.366C22.0153 56.8826 22.4095 56.4894 22.8942 56.4894C23.3789 56.4894 23.7731 56.8827 23.7731 57.366C23.7731 57.8492 23.3789 58.2425 22.8942 58.2425Z" fill="white"/>
<path d="M15.8452 36.9885C14.3913 36.9885 13.2085 38.1702 13.2085 39.6229C13.2085 40.7677 13.9433 41.7443 14.9663 42.1068V54.1197L11.2433 58.5558C10.9312 58.9277 10.9797 59.482 11.3516 59.794C11.5162 59.9322 11.7167 59.9997 11.9161 59.9997C12.1668 59.9997 12.416 59.8929 12.5898 59.6858L16.5185 55.0045C16.6513 54.8461 16.7241 54.6461 16.7241 54.4395V42.1067C17.7472 41.7442 18.482 40.7676 18.482 39.6228C18.482 38.1702 17.2992 36.9885 15.8452 36.9885ZM15.8452 40.4995C15.3606 40.4995 14.9663 40.1063 14.9663 39.6229C14.9663 39.1395 15.3606 38.7463 15.8452 38.7463C16.3299 38.7463 16.7241 39.1396 16.7241 39.6229C16.7241 40.1062 16.3299 40.4995 15.8452 40.4995Z" fill="white"/>
<path d="M30.9766 36.9885C29.5226 36.9885 28.3398 38.1702 28.3398 39.6229C28.3398 40.7677 29.0746 41.7443 30.0977 42.1068V59.1209C30.0977 59.6063 30.4912 59.9998 30.9766 59.9998C31.462 59.9998 31.8555 59.6063 31.8555 59.1209V42.1068C32.8785 41.7443 33.6133 40.7677 33.6133 39.6229C33.6133 38.1702 32.4305 36.9885 30.9766 36.9885ZM30.9766 40.4995C30.4919 40.4995 30.0977 40.1063 30.0977 39.6229C30.0977 39.1395 30.4919 38.7463 30.9766 38.7463C31.4613 38.7463 31.8555 39.1396 31.8555 39.6229C31.8555 40.1062 31.4613 40.4995 30.9766 40.4995Z" fill="white"/>
<path d="M46.9863 54.1197V42.1068C48.0094 41.7443 48.7441 40.7677 48.7441 39.6229C48.7441 38.1702 47.5614 36.9885 46.1074 36.9885C44.6535 36.9885 43.4707 38.1702 43.4707 39.6229C43.4707 40.7677 44.2055 41.7443 45.2285 42.1068V54.4396C45.2285 54.6463 45.3014 54.8464 45.4342 55.0046L49.3629 59.6858C49.5368 59.893 49.7858 59.9998 50.0366 59.9998C50.2359 59.9998 50.4364 59.9323 50.6011 59.7941C50.9729 59.4821 51.0213 58.9276 50.7094 58.5559L46.9863 54.1197ZM46.1074 38.7463C46.5921 38.7463 46.9863 39.1396 46.9863 39.6229C46.9863 40.1062 46.5921 40.4995 46.1074 40.4995C45.6227 40.4995 45.2285 40.1063 45.2285 39.6229C45.2285 39.1395 45.6227 38.7463 46.1074 38.7463Z" fill="white"/>
</g>
<defs>
<clipPath id="clip0">
<rect width="60" height="60" fill="white" transform="translate(0.976562)"/>
</clipPath>
</defs>
</svg>
