<svg width="60" height="60" viewBox="0 0 60 60" fill="none" xmlns="http://www.w3.org/2000/svg">
<g clip-path="url(#clip0)">
<path d="M30.0328 27.2173C28.9281 27.2173 28.0327 28.1127 28.0327 29.2173C28.0326 30.016 28.5019 30.7033 29.1787 31.0239V33.4552C29.1787 33.9267 29.561 34.3091 30.0326 34.3091C30.5043 34.3091 30.8866 33.9268 30.8866 33.4552V31.0239C31.5635 30.7033 32.0328 30.016 32.0328 29.2173C32.0328 28.1127 31.1374 27.2173 30.0328 27.2173Z" fill="white"/>
<path d="M51.3443 13.0251C47.6683 11.5705 44.7505 8.89136 43.1285 5.48144C42.6874 4.55413 41.734 3.95483 40.6994 3.95483H19.3007C18.2662 3.95483 17.3127 4.55401 16.8716 5.48144C15.2497 8.89136 12.3319 11.5705 8.65584 13.0251C7.62471 13.4331 6.9585 14.416 6.9585 15.5292V20.7337C6.9585 27.5563 8.94799 34.2959 12.7119 40.2241C16.5124 46.2104 22.0196 51.2133 28.6375 54.6916L28.7453 54.7484C29.1382 54.9548 29.5691 55.0581 30.0001 55.0581C30.4309 55.0581 30.8619 54.9548 31.2546 54.7485L31.3628 54.6916C37.9808 51.2132 43.4878 46.2104 47.2885 40.2241C51.0523 34.2957 53.0418 27.5562 53.0418 20.7337V15.5292C53.0418 14.4159 52.3753 13.4331 51.3443 13.0251ZM51.334 20.7339C51.334 27.2316 49.4365 33.6546 45.8467 39.3089C42.2058 45.0436 36.9225 49.8402 30.5685 53.18L30.4603 53.2367C30.1722 53.3884 29.8281 53.3883 29.5398 53.2367L29.432 53.1801C23.0778 49.8403 17.7945 45.0437 14.1535 39.3089C10.5637 33.6547 8.66615 27.2316 8.66615 20.7337V15.5292C8.66615 15.1213 8.90873 14.7616 9.28408 14.6132C13.3634 12.999 16.6056 10.0165 18.4137 6.21503C18.5732 5.87952 18.9213 5.66272 19.3006 5.66272H40.6995C41.0787 5.66272 41.4267 5.87952 41.5864 6.21503C43.3946 10.0165 46.6369 12.999 50.7161 14.6133C51.0914 14.7617 51.334 15.1214 51.334 15.5293V20.7339Z" fill="white"/>
<path d="M55.6258 28.8376C55.1658 28.7335 54.7085 29.0221 54.6047 29.4822C52.0041 40.9873 44.0836 50.965 32.8739 56.8569L30.269 58.2261C30.1008 58.3144 29.8999 58.3144 29.7318 58.2261L27.1268 56.8569C15.8995 50.9558 7.97509 40.9608 5.38536 29.435C5.28212 28.9749 4.82509 28.6856 4.36513 28.789C3.90505 28.8924 3.61583 29.3492 3.71919 29.8093C6.41872 41.8246 14.6609 52.234 26.3323 58.3685L28.9372 59.7377C29.2702 59.9125 29.6352 60.0001 30.0004 60.0001C30.3654 60.0001 30.7307 59.9125 31.0635 59.7376L33.6685 58.3683C45.3215 52.2435 53.5595 41.8522 56.2705 29.8586C56.3744 29.3987 56.0857 28.9415 55.6258 28.8376Z" fill="white"/>
<path d="M55.2099 9.77074C50.6502 9.28969 47.065 6.08918 46.4911 1.98785C46.3326 0.854531 45.3586 0 44.2257 0H15.7744C14.6416 0 13.6676 0.854531 13.5091 1.98785C12.9351 6.0893 9.34984 9.28969 4.79031 9.77074C3.63496 9.89262 2.76367 10.8687 2.76367 12.041V21.2102C2.76367 22.5427 2.8327 23.8897 2.96887 25.2142C3.0141 25.6536 3.38488 25.9808 3.8173 25.9808C3.84648 25.9808 3.87602 25.9793 3.90566 25.9762C4.37477 25.9281 4.71602 25.5087 4.66773 25.0396C4.53754 23.7729 4.47145 22.4845 4.47145 21.2102V12.041C4.47145 11.7498 4.69023 11.4984 4.96949 11.469C10.3104 10.9056 14.5175 7.10402 15.2004 2.22445C15.2424 1.92504 15.4837 1.70777 15.7744 1.70777H44.2255C44.5163 1.70777 44.7578 1.92504 44.7996 2.22445C45.4824 7.10402 49.6895 10.9055 55.0305 11.469C55.3097 11.4984 55.5285 11.7498 55.5285 12.041V21.2102C55.5285 22.4711 55.4638 23.7461 55.3363 25.0001C55.2886 25.4692 55.6304 25.8882 56.0995 25.9359C56.5683 25.984 56.9876 25.6419 57.0354 25.1728C57.1688 23.8617 57.2363 22.5286 57.2363 21.2102V12.041C57.2364 10.8687 56.3652 9.89262 55.2099 9.77074Z" fill="white"/>
<path d="M39.7807 21.3124H38.3767V17.2363C38.3767 12.6357 34.6338 8.89282 30.0331 8.89282C25.4324 8.89282 21.6894 12.6357 21.6894 17.2363V21.3124H20.2855C18.7881 21.3124 17.5698 22.5306 17.5698 24.0281V36.2541C17.5698 37.7515 18.7881 38.9698 20.2855 38.9698H39.7807C41.2781 38.9698 42.4964 37.7515 42.4964 36.2541V24.0281C42.4964 22.5306 41.2781 21.3124 39.7807 21.3124ZM23.3973 17.2365C23.3973 13.5775 26.3741 10.6007 30.0332 10.6007C33.6922 10.6007 36.669 13.5775 36.669 17.2365V21.3125H23.3973V17.2365ZM40.7887 36.2541C40.7887 36.8098 40.3364 37.262 39.7807 37.262H20.2855C19.7297 37.262 19.2776 36.8098 19.2776 36.2541V24.0281C19.2776 23.4724 19.7298 23.0201 20.2855 23.0201H39.7807C40.3364 23.0201 40.7887 23.4722 40.7887 24.0281V36.2541Z" fill="white"/>
</g>
<defs>
<clipPath id="clip0">
<rect width="60" height="60" fill="white"/>
</clipPath>
</defs>
</svg>
