<svg width="61" height="60" viewBox="0 0 61 60" fill="none" xmlns="http://www.w3.org/2000/svg">
<g clip-path="url(#clip0)">
<path d="M59.1016 8.4375C59.3502 8.4375 59.5887 8.33873 59.7645 8.16291C59.9403 7.9871 60.0391 7.74864 60.0391 7.5V1.875C60.0391 1.62636 59.9403 1.3879 59.7645 1.21209C59.5887 1.03627 59.3502 0.9375 59.1016 0.9375H53.4766C53.2279 0.9375 52.9895 1.03627 52.8136 1.21209C52.6378 1.3879 52.5391 1.62636 52.5391 1.875V3.75H34.7266V1.875C34.7266 1.62636 34.6278 1.3879 34.452 1.21209C34.2762 1.03627 34.0377 0.9375 33.7891 0.9375H28.1641C27.9154 0.9375 27.677 1.03627 27.5011 1.21209C27.3253 1.3879 27.2266 1.62636 27.2266 1.875V3.75H9.41406V1.875C9.41406 1.62636 9.31529 1.3879 9.13947 1.21209C8.96366 1.03627 8.7252 0.9375 8.47656 0.9375H2.85156C2.60292 0.9375 2.36447 1.03627 2.18865 1.21209C2.01283 1.3879 1.91406 1.62636 1.91406 1.875V7.5C1.91406 7.74864 2.01283 7.9871 2.18865 8.16291C2.36447 8.33873 2.60292 8.4375 2.85156 8.4375H4.72656V26.25H2.85156C2.60292 26.25 2.36447 26.3488 2.18865 26.5246C2.01283 26.7004 1.91406 26.9389 1.91406 27.1875V32.8125C1.91406 33.0611 2.01283 33.2996 2.18865 33.4754C2.36447 33.6512 2.60292 33.75 2.85156 33.75H4.72656V51.5625H2.85156C2.60292 51.5625 2.36447 51.6613 2.18865 51.8371C2.01283 52.0129 1.91406 52.2514 1.91406 52.5V58.125C1.91406 58.3736 2.01283 58.6121 2.18865 58.7879C2.36447 58.9637 2.60292 59.0625 2.85156 59.0625H8.47656C8.7252 59.0625 8.96366 58.9637 9.13947 58.7879C9.31529 58.6121 9.41406 58.3736 9.41406 58.125V56.25H27.2266V58.125C27.2266 58.3736 27.3253 58.6121 27.5011 58.7879C27.677 58.9637 27.9154 59.0625 28.1641 59.0625H33.7891C34.0377 59.0625 34.2762 58.9637 34.452 58.7879C34.6278 58.6121 34.7266 58.3736 34.7266 58.125V56.25H52.5391V58.125C52.5391 58.3736 52.6378 58.6121 52.8136 58.7879C52.9895 58.9637 53.2279 59.0625 53.4766 59.0625H59.1016C59.3502 59.0625 59.5887 58.9637 59.7645 58.7879C59.9403 58.6121 60.0391 58.3736 60.0391 58.125V52.5C60.0391 52.2514 59.9403 52.0129 59.7645 51.8371C59.5887 51.6613 59.3502 51.5625 59.1016 51.5625H57.2266V33.75H59.1016C59.3502 33.75 59.5887 33.6512 59.7645 33.4754C59.9403 33.2996 60.0391 33.0611 60.0391 32.8125V27.1875C60.0391 26.9389 59.9403 26.7004 59.7645 26.5246C59.5887 26.3488 59.3502 26.25 59.1016 26.25H57.2266V8.4375H59.1016ZM54.4141 2.8125H58.1641V6.5625H54.4141V2.8125ZM29.1016 2.8125H32.8516V6.5625H29.1016V2.8125ZM3.78906 6.5625V2.8125H7.53906V6.5625H3.78906ZM3.78906 31.875V28.125H7.53906V31.875H3.78906ZM7.53906 57.1875H3.78906V53.4375H7.53906V57.1875ZM32.8516 57.1875H29.1016V53.4375H32.8516V57.1875ZM58.1641 53.4375V57.1875H54.4141V53.4375H58.1641ZM58.1641 28.125V31.875H54.4141V28.125H58.1641ZM55.3516 26.25H53.4766C53.2279 26.25 52.9895 26.3488 52.8136 26.5246C52.6378 26.7004 52.5391 26.9389 52.5391 27.1875V32.8125C52.5391 33.0611 52.6378 33.2996 52.8136 33.4754C52.9895 33.6512 53.2279 33.75 53.4766 33.75H55.3516V51.5625H53.4766C53.2279 51.5625 52.9895 51.6613 52.8136 51.8371C52.6378 52.0129 52.5391 52.2514 52.5391 52.5V54.375H34.7266V52.5C34.7266 52.2514 34.6278 52.0129 34.452 51.8371C34.2762 51.6613 34.0377 51.5625 33.7891 51.5625H28.1641C27.9154 51.5625 27.677 51.6613 27.5011 51.8371C27.3253 52.0129 27.2266 52.2514 27.2266 52.5V54.375H9.41406V52.5C9.41406 52.2514 9.31529 52.0129 9.13947 51.8371C8.96366 51.6613 8.7252 51.5625 8.47656 51.5625H6.60156V33.75H8.47656C8.7252 33.75 8.96366 33.6512 9.13947 33.4754C9.31529 33.2996 9.41406 33.0611 9.41406 32.8125V27.1875C9.41406 26.9389 9.31529 26.7004 9.13947 26.5246C8.96366 26.3488 8.7252 26.25 8.47656 26.25H6.60156V8.4375H8.47656C8.7252 8.4375 8.96366 8.33873 9.13947 8.16291C9.31529 7.9871 9.41406 7.74864 9.41406 7.5V5.625H27.2266V7.5C27.2266 7.74864 27.3253 7.9871 27.5011 8.16291C27.677 8.33873 27.9154 8.4375 28.1641 8.4375H33.7891C34.0377 8.4375 34.2762 8.33873 34.452 8.16291C34.6278 7.9871 34.7266 7.74864 34.7266 7.5V5.625H52.5391V7.5C52.5391 7.74864 52.6378 7.9871 52.8136 8.16291C52.9895 8.33873 53.2279 8.4375 53.4766 8.4375H55.3516V26.25Z" fill="white"/>
<path d="M29.1016 44.0625H28.1641C27.9154 44.0625 27.677 44.1613 27.5011 44.3371C27.3253 44.5129 27.2266 44.7514 27.2266 45C27.2266 45.2486 27.3253 45.4871 27.5011 45.6629C27.677 45.8387 27.9154 45.9375 28.1641 45.9375H29.1016C29.3502 45.9375 29.5887 45.8387 29.7645 45.6629C29.9403 45.4871 30.0391 45.2486 30.0391 45C30.0391 44.7514 29.9403 44.5129 29.7645 44.3371C29.5887 44.1613 29.3502 44.0625 29.1016 44.0625Z" fill="white"/>
<path d="M46.9141 15V24.375C46.9141 24.6236 46.8153 24.8621 46.6395 25.0379C46.4637 25.2137 46.2252 25.3125 45.9766 25.3125C45.7279 25.3125 45.4895 25.2137 45.3136 25.0379C45.1378 24.8621 45.0391 24.6236 45.0391 24.375V17.2594L18.2359 44.0625H25.3516C25.6002 44.0625 25.8387 44.1613 26.0145 44.3371C26.1903 44.5129 26.2891 44.7514 26.2891 45C26.2891 45.2486 26.1903 45.4871 26.0145 45.6629C25.8387 45.8387 25.6002 45.9375 25.3516 45.9375H15.9766C15.8541 45.936 15.733 45.9105 15.6203 45.8625C15.5057 45.8174 15.4015 45.7492 15.3144 45.6621C15.2273 45.575 15.1591 45.4709 15.1141 45.3563C15.066 45.2435 15.0405 45.1225 15.0391 45V35.625C15.0391 35.3764 15.1378 35.1379 15.3137 34.9621C15.4895 34.7863 15.7279 34.6875 15.9766 34.6875C16.2252 34.6875 16.4637 34.7863 16.6395 34.9621C16.8153 35.1379 16.9141 35.3764 16.9141 35.625V42.7406L43.7172 15.9375H36.6016C36.3529 15.9375 36.1145 15.8387 35.9386 15.6629C35.7628 15.4871 35.6641 15.2486 35.6641 15C35.6641 14.7514 35.7628 14.5129 35.9386 14.3371C36.1145 14.1613 36.3529 14.0625 36.6016 14.0625H45.9766C46.0991 14.064 46.2201 14.0895 46.3328 14.1375C46.4475 14.1826 46.5516 14.2508 46.6387 14.3379C46.7258 14.425 46.794 14.5291 46.8391 14.6437C46.8871 14.7565 46.9126 14.8775 46.9141 15Z" fill="white"/>
</g>
<defs>
<clipPath id="clip0">
<rect width="60" height="60" fill="white" transform="translate(0.976562)"/>
</clipPath>
</defs>
</svg>
